<?xml version="1.0" encoding="UTF-8"?> <svg xmlns="http://www.w3.org/2000/svg" width="160" height="160" viewBox="0 0 160 160" fill="none"><g clip-path="url(#clip0_230_55477)"><path d="M33.5472 38.922C45.8614 23.7395 57.75 5.1841 87.4731 6.02776C117.196 6.87141 114.839 30.581 135.879 48.2006C157.533 66.335 152.014 95.4337 134.605 113.989C113.692 136.281 103.222 138.574 73.8857 131.28C44.5493 123.986 14.4394 118.206 11.0433 92.48C7.64564 66.7543 11.8928 55.3675 33.5472 38.9203" fill="#FFF0E1"></path><path d="M136.74 77.5501H24.0703L24.1581 26.8284H136.112L136.74 77.5501Z" fill="#136F65"></path><path d="M39.1186 52.6052C40.782 50.0793 44.1155 48.8364 47.0674 49.41C47.8155 49.556 48.5366 49.8109 49.1986 50.1883C50.0986 50.6998 50.8907 51.3724 51.7536 51.941C53.4305 53.0446 55.4671 53.6484 57.4784 53.3583C59.4204 53.0799 61.2797 51.8488 62.075 50.034C62.1561 49.8478 62.1308 49.6298 61.9383 49.5174C61.7778 49.4234 61.5009 49.4654 61.4181 49.6532C60.7342 51.2131 59.2329 52.263 57.5729 52.5817C55.6208 52.9557 53.6196 52.2899 52.0103 51.2047C51.1592 50.6311 50.3688 49.9652 49.4654 49.4721C48.7814 49.0997 48.035 48.8314 47.2683 48.6821C45.7282 48.3819 44.1054 48.5127 42.6277 49.0377C40.939 49.6381 39.4479 50.7267 38.4617 52.2245C38.1932 52.632 38.8501 53.0111 39.1186 52.6052Z" fill="#053630"></path><path d="M99.055 53.9698C100.181 52.3831 101.968 51.199 103.772 50.5029C104.684 50.1507 105.651 49.9008 106.632 49.8655C107.642 49.8303 108.652 50.0702 109.604 50.3855C110.381 50.6438 111.114 51.0044 111.793 51.4606C112.342 51.8296 112.786 52.212 113.323 52.628C113.86 53.0439 114.367 53.3878 114.966 53.6427C115.726 53.9648 116.538 54.109 117.362 54.1442C119.649 54.2432 121.615 52.7521 122.979 51.0614C123.156 50.8417 123.329 50.6153 123.494 50.3855C123.612 50.2194 123.525 49.9662 123.357 49.8689C123.167 49.7582 122.957 49.837 122.837 50.0048C121.645 51.6703 119.828 53.3827 117.639 53.3962C116.849 53.4012 116.049 53.2737 115.314 52.9752C115.297 52.9685 115.307 52.9735 115.258 52.9517C115.223 52.9366 115.187 52.9198 115.152 52.9031C115.076 52.8678 115.002 52.8309 114.927 52.7924C114.789 52.7202 114.654 52.6414 114.52 52.5575C114.387 52.4737 114.264 52.3898 114.139 52.2992C114.014 52.2087 113.899 52.1231 113.818 52.0594C113.286 51.6451 112.771 51.2107 112.214 50.8316C111.511 50.357 110.748 49.983 109.946 49.7045C108.975 49.3674 107.917 49.1091 106.884 49.1058C105.886 49.1024 104.886 49.3104 103.947 49.6358C102.02 50.3016 100.154 51.4539 98.8388 53.0188C98.6852 53.2033 98.5366 53.3928 98.3981 53.589C98.2799 53.7551 98.3677 54.0084 98.5349 54.1056C98.7257 54.2163 98.9368 54.1375 99.055 53.9698Z" fill="#053630"></path><path d="M80.4026 71.2109C88.2906 71.2109 94.6841 62.5563 94.6841 51.8789C94.6841 41.2015 88.2906 32.5469 80.4026 32.5469C72.5146 32.5469 66.1211 41.2015 66.1211 51.8789C66.1211 62.5563 72.5146 71.2109 80.4026 71.2109Z" fill="#9FF17B"></path><path d="M31.6837 37.1038C33.722 37.1038 35.3753 35.5591 35.3753 33.6537C35.3753 31.7484 33.722 30.2036 31.6837 30.2036C29.6454 30.2036 27.9922 31.7484 27.9922 33.6537C27.9922 35.5591 29.6454 37.1038 31.6837 37.1038Z" fill="#111116"></path><path d="M130.723 37.1038C132.761 37.1038 134.414 35.5591 134.414 33.6537C134.414 31.7484 132.761 30.2036 130.723 30.2036C128.685 30.2036 127.031 31.7484 127.031 33.6537C127.031 35.5591 128.685 37.1038 130.723 37.1038Z" fill="#111116"></path><path d="M31.3634 74.7139C33.4017 74.7139 35.055 73.1692 35.055 71.2638C35.055 69.3585 33.4017 67.8137 31.3634 67.8137C29.3251 67.8137 27.6719 69.3585 27.6719 71.2638C27.6719 73.1692 29.3251 74.7139 31.3634 74.7139Z" fill="#111116"></path><path d="M130.402 74.7139C132.441 74.7139 134.094 73.1692 134.094 71.2638C134.094 69.3585 132.441 67.8137 130.402 67.8137C128.364 67.8137 126.711 69.3585 126.711 71.2638C126.711 73.1692 128.364 74.7139 130.402 74.7139Z" fill="#111116"></path><path d="M133.538 52.3123C133.487 55.6735 133.452 59.0632 133.381 62.3892C133.366 63.1323 133.351 63.8719 133.335 64.6099L133.325 65.2959V65.3378H133.281L133.193 65.3412L133.02 65.3479L132.678 65.3613L132.386 65.3714C132.341 65.3731 132.295 65.3731 132.249 65.3781L132.114 65.3965L131.571 65.472C131.387 65.4905 131.211 65.5391 131.032 65.5844L130.497 65.7186L129.976 65.9064L129.716 66.0004C129.63 66.0339 129.549 66.0792 129.465 66.1178C129.298 66.1983 129.132 66.2788 128.965 66.361C128.801 66.4465 128.647 66.5522 128.487 66.6478C128.161 66.8306 127.877 67.0755 127.58 67.3019C127.501 67.3589 127.432 67.426 127.359 67.4931C127.286 67.5602 127.214 67.6273 127.139 67.6944C126.992 67.8286 126.837 67.9594 126.705 68.1154C126.567 68.2646 126.428 68.4139 126.29 68.5632C126.167 68.7259 126.043 68.8869 125.922 69.0479C125.868 69.1217 125.81 69.1938 125.758 69.2676L125.615 69.5025L125.327 69.9704C125.245 70.1331 125.167 70.2992 125.086 70.4635C125.005 70.6279 124.922 70.7906 124.866 70.965L124.677 71.4799C124.642 71.5638 124.622 71.6544 124.6 71.7416L124.532 72.0066L124.464 72.2716C124.441 72.3605 124.417 72.4477 124.407 72.54L124.326 73.0817C124.289 73.278 124.287 73.4792 124.282 73.6805C124.274 73.9187 124.267 74.2021 124.272 74.4688C124.269 74.4873 124.235 74.4755 124.216 74.4805H124.15L124.019 74.4839C123.931 74.4839 123.843 74.4839 123.757 74.4856H123.499C123.433 74.4856 123.367 74.4839 123.303 74.4822C120.19 74.4118 117.093 74.3933 113.974 74.4688C111.544 74.3732 109.149 74.442 106.708 74.4722C104.266 74.5023 101.78 74.4822 99.365 74.556C98.725 74.5761 97.9887 74.5829 97.3403 74.5694C93.3988 74.4889 89.4573 74.5174 85.4905 74.5392C81.24 74.561 76.9946 74.5359 72.7728 74.447C70.5251 74.4 68.1693 74.4017 65.8625 74.4017C63.115 74.4135 60.3691 74.4252 57.6216 74.4369C53.6345 74.4487 49.6761 74.4755 45.7178 74.5443C44.4546 74.5644 43.1914 74.5862 41.9232 74.6063C41.2899 74.6164 40.6533 74.6248 40.0183 74.6349C39.7009 74.6399 39.3817 74.6432 39.0625 74.6483L38.5052 74.655C38.257 74.655 37.9936 74.665 37.7504 74.655C37.747 74.3799 37.7436 74.0914 37.7234 73.8247L37.7048 73.5362C37.698 73.4541 37.698 73.3719 37.6845 73.2897L37.6018 72.8016C37.5731 72.6389 37.5562 72.4745 37.5038 72.3169C37.4093 72.0016 37.3485 71.6745 37.2151 71.3726L37.0377 70.9113C36.9736 70.7604 36.8925 70.6162 36.8199 70.4669L36.7101 70.2455C36.6747 70.1717 36.6375 70.0979 36.5902 70.0291L36.3268 69.6098C36.2829 69.541 36.2407 69.4689 36.1951 69.4001L36.0431 69.2039L35.7408 68.8114C35.6395 68.6823 35.5179 68.5682 35.4081 68.4458C35.2916 68.3284 35.1886 68.1976 35.0636 68.0902L34.6921 67.7631L34.5063 67.6005L34.3054 67.4545C33.2803 66.683 32.083 66.1228 30.8114 65.8444C30.6527 65.8091 30.4906 65.7924 30.3301 65.7639C30.1697 65.7421 30.0093 65.7068 29.8472 65.6934L29.1683 65.6565L28.7242 65.633L28.6127 65.6263H28.5857C28.5857 65.6263 28.5621 65.628 28.5671 65.6146V65.3378C28.5722 64.5512 28.5756 63.7646 28.5806 62.9813C28.6127 57.5386 28.6465 52.101 28.6786 46.6549C28.6786 44.5533 28.6836 42.4484 28.6853 40.3434V39.9073H28.6938L28.8424 39.899L29.4368 39.8688L29.8708 39.847C29.9941 39.8386 30.1157 39.8117 30.239 39.795L30.6071 39.7379L30.7912 39.7094L30.9719 39.6625C31.21 39.5971 31.4531 39.5451 31.6896 39.4713C32.6352 39.1727 33.5184 38.6964 34.3037 38.1009C34.5823 37.9097 34.8204 37.6716 35.0721 37.4468C35.2021 37.3395 35.3085 37.2086 35.4216 37.0845L35.7594 36.7105L36.06 36.3063C36.1596 36.1704 36.266 36.0413 36.3454 35.8937C36.5159 35.6052 36.7034 35.3268 36.8334 35.0165L37.0496 34.5636L37.2184 34.0923C37.3468 33.782 37.4093 33.4533 37.4937 33.1312C37.541 32.9702 37.5612 32.8042 37.5849 32.6398L37.6575 32.145C37.6727 32.0628 37.6676 31.979 37.6744 31.8951L37.6879 31.6066C37.7065 31.3265 37.7048 31.0213 37.7048 30.7244C38.8683 30.7177 40.0335 30.7093 41.2004 30.7026C52.601 30.6556 64.0049 30.6103 75.4055 30.5634C78.1463 30.5466 80.882 30.5282 83.6211 30.5114C84.989 30.5114 86.3619 30.508 87.7314 30.5063C92.8128 30.5181 97.8925 30.5298 102.976 30.5432C110.205 30.5466 117.436 30.55 124.665 30.5533V31.2561L124.696 31.8062C124.765 32.7639 124.993 33.7065 125.373 34.5888C125.748 35.4744 126.305 36.2778 126.962 36.9755C128.283 38.3676 130.09 39.3153 131.994 39.5182C132.128 39.5333 132.248 39.5602 132.359 39.5652C132.471 39.5719 132.57 39.5769 132.658 39.5836C132.835 39.5971 132.965 39.6122 133.052 39.6306C133.222 39.6658 133.21 39.7094 133.006 39.7597C132.651 39.8403 132.319 39.9593 131.832 39.9661C131.711 39.9711 131.577 39.9761 131.432 39.9761C131.287 39.9778 131.133 39.9493 130.961 39.9308C130.79 39.9057 130.6 39.8872 130.397 39.8403C130.196 39.7866 129.978 39.7262 129.737 39.6541C129.571 39.6138 129.421 39.5384 129.264 39.478L128.798 39.2851C128.646 39.2113 128.501 39.1274 128.349 39.0469C128.202 38.9614 128.041 38.8893 127.899 38.7869C127.756 38.6863 127.611 38.584 127.462 38.48C127.389 38.4263 127.312 38.376 127.239 38.3173C127.17 38.2553 127.099 38.1949 127.028 38.1311C126.888 38.0037 126.743 37.8745 126.594 37.7403C126.461 37.5911 126.324 37.4384 126.182 37.2808C125.469 36.4405 124.868 35.4693 124.47 34.4143L124.323 34.0185C124.272 33.886 124.247 33.7468 124.209 33.6126C124.142 33.3392 124.057 33.0709 124.029 32.7924L123.97 32.3782L123.941 32.1719C123.933 32.1031 123.934 32.0326 123.931 31.9639C123.927 31.8431 123.926 31.7224 123.922 31.6033C123.922 31.5043 123.917 31.4054 123.922 31.3014C123.927 31.2846 123.909 31.2913 123.9 31.2896H123.868L123.802 31.2846L123.669 31.2762C123.568 31.2695 123.466 31.2645 123.365 31.2594C123.029 31.241 122.543 31.2477 122.148 31.2561C115.045 31.3986 107.907 31.3232 100.775 31.3064C98.4464 31.3014 96.1109 31.3232 93.7787 31.3299C92.2673 31.3299 90.7526 31.3299 89.2412 31.3316C87.0441 31.3282 84.842 31.3064 82.6518 31.3165C80.9968 31.3248 79.3925 31.3634 77.8963 31.2393C77.5822 31.2125 76.7125 31.2192 76.4086 31.2494C75.2349 31.3634 73.8687 31.3517 72.5009 31.3483C68.8076 31.3399 65.1144 31.3299 61.4212 31.3215C58.6888 31.3215 55.9497 31.3416 53.2275 31.3685C48.9989 31.4171 44.7873 31.4674 40.5553 31.5161C40.1467 31.5194 39.738 31.5228 39.3293 31.5261L38.7146 31.5311C38.6454 31.5345 38.566 31.5295 38.5069 31.5395C38.5069 31.5999 38.5035 31.6569 38.5019 31.7173L38.4917 31.9303C38.4867 32.0192 38.4867 32.1064 38.4765 32.1953L38.3988 32.7203L38.36 32.9836L38.3397 33.1145L38.3077 33.2436L38.1776 33.7585L38.1118 34.0168L38.0206 34.2667L37.8382 34.7666C37.8112 34.8504 37.774 34.9326 37.7335 35.0114L37.6187 35.2513C37.0073 36.5327 36.1174 37.6917 35.0011 38.5823C34.8306 38.7115 34.66 38.8423 34.4895 38.9714L34.3611 39.0687L34.226 39.1543L33.9541 39.3253C33.5995 39.5669 33.206 39.7413 32.8193 39.9308C32.6386 40.013 32.4478 40.0734 32.262 40.1455C32.0729 40.2126 31.8888 40.2948 31.6913 40.3367L31.107 40.4894L30.96 40.5279L30.8114 40.5514L30.5142 40.5984C30.3149 40.6252 30.1191 40.6671 29.9215 40.6806C29.8303 40.6856 29.7408 40.6889 29.6496 40.694H29.5246C29.5179 40.7074 29.5212 40.7292 29.5179 40.7476L29.5128 40.8064V40.8214L29.5094 40.8885L29.506 41.021C29.4605 42.5809 29.452 43.7986 29.555 45.2393C29.6124 46.0478 29.6074 47.3325 29.5972 48.3791C29.5837 49.7226 29.5449 51.056 29.506 52.3693C29.4605 53.9476 29.4115 55.4203 29.4875 57.1193C29.528 58.0301 29.5044 59.293 29.4756 60.3262C29.4453 61.4667 29.4216 62.609 29.4064 63.7545L29.3963 64.5998C29.4047 64.7072 29.3372 64.89 29.5128 64.8481L29.7813 64.8649C29.8556 64.8699 29.9316 64.8716 30.0059 64.88L30.2288 64.9152L30.6746 64.9856L30.8976 65.0208C30.9719 65.0326 31.0428 65.0561 31.1171 65.0745C32.2891 65.3395 33.4104 65.8293 34.4033 66.5086C35.3963 67.1878 36.2576 68.055 36.9297 69.0513C37.4498 69.8161 37.8331 70.6665 38.1168 71.5453L38.2958 72.2146C38.3516 72.4393 38.3752 72.6691 38.4174 72.8972L38.4732 73.2394L38.4951 73.5849L38.5137 73.8717C42.8925 73.8331 47.268 73.7962 51.6469 73.7576C54.1158 73.7476 56.5948 73.7375 59.0705 73.7275C66.771 73.7023 74.4615 73.7325 82.1536 73.7677C83.6633 73.7744 85.1984 73.7845 86.6844 73.7627C90.1244 73.7107 93.544 73.7241 96.9772 73.7593C101.111 73.8029 105.223 73.7593 109.334 73.714C110.289 73.704 111.26 73.6788 112.204 73.6872C114.19 73.7057 116.173 73.7073 118.155 73.704L121.129 73.6939L122.615 73.6872L123.358 73.6838C123.534 73.6838 123.478 73.6838 123.493 73.6822C123.497 73.6822 123.5 73.6822 123.504 73.6805V73.6637L123.522 73.236C123.573 72.8922 123.617 72.545 123.683 72.2028L123.811 71.6963C123.857 71.5286 123.889 71.3558 123.956 71.1931L124.135 70.7017L124.226 70.4551L124.34 70.2186C124.92 68.949 125.783 67.8084 126.847 66.8994C127.923 65.9702 129.218 65.3009 130.591 64.9387L131.108 64.8112C131.194 64.7877 131.28 64.7726 131.37 64.7609L131.633 64.7223L132.16 64.6468C132.248 64.6367 132.337 64.6367 132.425 64.6317L132.542 64.6267H132.553C132.57 64.6267 132.582 64.6317 132.591 64.6267L132.594 64.5931L132.602 63.6539C132.628 61.0105 132.653 58.3672 132.68 55.7255C132.727 51.6431 132.773 47.5741 132.82 43.4967C132.82 43.2283 132.819 42.9482 132.817 42.6832C132.849 40.3619 132.999 39.6272 133.229 40.7258C133.432 41.6987 133.548 43.2333 133.545 45.3299C133.533 47.6445 133.523 49.9591 133.511 52.272L133.543 52.2972L133.538 52.3123Z" fill="#111116"></path><path d="M81.6744 37.0164V39.8928C82.8362 40.079 83.787 40.4598 84.5266 41.0384C85.2663 41.6154 85.9688 42.501 86.6392 43.6952L83.7583 45.2953C82.8919 43.7304 81.7588 42.9471 80.3589 42.9471C79.4925 42.9471 78.7732 43.2021 78.2007 43.7103C77.6299 44.2185 77.3428 44.8558 77.3428 45.619C77.3428 46.3134 77.5742 46.8903 78.0369 47.3516C78.4894 47.8011 79.4064 48.3345 80.7861 48.9517C81.9783 49.4901 82.9629 49.9966 83.7414 50.4713C84.5199 50.9459 85.1059 51.4038 85.4993 51.8433C86.6122 53.0375 87.1695 54.4799 87.1695 56.1722C87.1695 57.8646 86.6662 59.3037 85.6614 60.575C84.6668 61.838 83.3361 62.6884 81.671 63.1295V66.167H79.0856V63.2167C77.1554 62.9031 75.6811 62.2439 74.6679 61.2359C73.653 60.2278 72.9048 58.673 72.4219 56.5681L75.6727 55.8938C76.1151 57.3816 76.6572 58.4433 77.2972 59.0789C77.9676 59.6861 78.8593 59.988 79.9721 59.988C81.085 59.988 81.9615 59.6408 82.691 58.9464C83.4104 58.2621 83.7701 57.3765 83.7701 56.2897C83.7701 55.3202 83.4695 54.5436 82.8683 53.9566C82.5626 53.6731 82.1118 53.3528 81.5156 52.9955C80.9195 52.6383 80.1579 52.2492 79.2325 51.8282C77.3209 50.9761 76.0644 50.1945 75.465 49.48C74.5091 48.4133 74.0312 47.1369 74.0312 45.6492C74.0312 44.9447 74.1444 44.2889 74.3707 43.6818C74.5969 43.0746 74.9246 42.5245 75.3535 42.0313C75.7824 41.5382 76.311 41.1089 76.9426 40.7466C77.5725 40.3843 78.2868 40.1008 79.0856 39.8945V37.018H81.6744V37.0164Z" fill="#136F65"></path><path d="M81.6783 40.4382H79.125V62.5847H81.6783V40.4382Z" fill="#136F65"></path><path d="M36.1836 115.973C36.7071 115.063 44.813 95.1964 49.3894 87.0147C53.9658 78.8331 56.58 71.9513 62.2017 69.6149C67.8235 67.2768 83.6434 62.8623 85.9975 62.3424C87.7217 61.9616 91.5466 61.0945 93.4734 60.6567C94.1304 60.5075 94.767 60.9653 94.8345 61.6329C94.9865 63.1357 94.9038 65.6667 93.0293 67.2618C91.3389 68.7008 84.1669 71.044 80.7675 72.3421C78.4708 73.2194 76.6521 75.0442 75.7132 76.1361C75.4075 76.4933 75.6507 77.0418 76.1218 77.0603C80.1646 77.2112 94.0054 77.6624 96.4557 76.8875C99.3316 75.9784 110.909 67.1225 115.413 67.4077C117.173 67.5184 118.304 68.0014 119.142 68.2547C119.983 68.5096 120.223 69.5764 119.571 70.1617C116.933 72.525 111.19 77.6758 109.793 78.9656C107.963 80.6529 107.571 81.1729 107.571 81.1729C107.571 81.1729 108.486 82.3419 108.094 84.2892C107.703 86.2365 105.349 89.4837 105.349 89.4837C105.349 89.4837 106.917 89.6128 105.872 92.4709C104.827 95.3272 103.126 97.5345 103.126 97.5345C103.126 97.5345 104.695 98.7035 103.126 101.04C101.557 103.378 91.2291 109.74 85.8674 114.545C80.5074 119.35 65.6028 127.79 65.6028 127.79L36.1853 115.974H36.1836V115.973Z" fill="#E59B78"></path><mask id="mask0_230_55477" style="mask-type:alpha" maskUnits="userSpaceOnUse" x="36" y="60" width="84" height="68"><path d="M36.1836 115.973C36.7071 115.063 44.813 95.1964 49.3894 87.0147C53.9658 78.8331 56.58 71.9513 62.2017 69.6149C67.8235 67.2768 83.6434 62.8623 85.9975 62.3424C87.7217 61.9616 91.5466 61.0945 93.4734 60.6567C94.1304 60.5075 94.767 60.9653 94.8345 61.6329C94.9865 63.1357 94.9038 65.6667 93.0293 67.2618C91.3389 68.7008 84.1669 71.044 80.7675 72.3421C78.4708 73.2194 76.6521 75.0442 75.7132 76.1361C75.4075 76.4933 75.6507 77.0418 76.1218 77.0603C80.1646 77.2112 94.0054 77.6624 96.4557 76.8875C99.3316 75.9784 110.909 67.1225 115.413 67.4077C117.173 67.5184 118.304 68.0014 119.142 68.2547C119.983 68.5096 120.223 69.5764 119.571 70.1617C116.933 72.525 111.19 77.6758 109.793 78.9656C107.963 80.6529 107.571 81.1729 107.571 81.1729C107.571 81.1729 108.486 82.3419 108.094 84.2892C107.703 86.2365 105.349 89.4837 105.349 89.4837C105.349 89.4837 106.917 89.6128 105.872 92.4709C104.827 95.3272 103.126 97.5345 103.126 97.5345C103.126 97.5345 104.695 98.7035 103.126 101.04C101.557 103.378 91.2291 109.74 85.8674 114.545C80.5074 119.35 65.6028 127.79 65.6028 127.79L36.1853 115.974H36.1836V115.973Z" fill="#E59B78"></path></mask><g mask="url(#mask0_230_55477)"><path d="M91.2269 90.8247C91.3502 90.7995 91.4752 90.7794 91.5968 90.7492C91.7994 90.7006 92.0037 90.6569 92.2081 90.6167L92.8194 90.4825C92.9089 90.4624 92.9967 90.4305 93.0862 90.4087L93.6266 90.2829C93.6587 90.2762 93.6958 90.2745 93.7212 90.2527C93.8495 90.137 94.0066 90.1102 94.1586 90.0632C94.3156 90.0129 94.4659 89.9441 94.6179 89.877C94.7614 89.815 94.8915 89.7177 95.0688 89.7496C95.1262 89.7596 95.1853 89.7194 95.2292 89.6791C95.3018 89.6103 95.3896 89.5852 95.4825 89.5701C95.6936 89.5332 95.8726 89.4107 96.0719 89.3403L96.2796 89.2732C96.3049 89.2648 96.3353 89.2665 96.3539 89.2481C96.4873 89.1256 96.6697 89.1139 96.8166 89.025C97.0446 88.8874 97.3114 88.8371 97.5512 88.7264C97.7353 88.6442 97.9193 88.5604 98.1 88.4698L98.637 88.1914C98.8312 88.0924 99.0204 87.9817 99.2129 87.8794C99.4763 87.7419 99.7313 87.5892 99.988 87.4417C100.074 87.393 100.145 87.3209 100.224 87.2605C100.432 87.0978 100.697 87.0207 100.897 86.8445C101.049 86.7137 101.219 86.6148 101.39 86.5108C101.445 86.4756 101.506 86.447 101.56 86.4101C101.734 86.2894 101.906 86.1669 102.075 86.0378C102.269 85.8885 102.459 85.7325 102.649 85.5782C102.864 85.4021 103.082 85.226 103.291 85.0432C103.531 84.8352 103.772 84.6255 103.999 84.4025C104.374 84.0335 104.786 83.7064 105.179 83.3575C105.309 83.2435 105.444 83.1395 105.598 83.0573C105.765 82.9667 105.888 82.8275 106.013 82.69C106.201 82.4803 106.414 82.3009 106.642 82.1382C106.804 82.0225 106.966 81.9067 107.116 81.7776C107.236 81.6736 107.337 81.5478 107.45 81.4371C107.493 81.3952 107.543 81.3616 107.594 81.3281C107.797 81.1972 108.021 81.0933 108.194 80.9255C108.212 80.9071 108.241 80.9004 108.264 80.8853C108.491 80.741 108.717 80.5968 108.94 80.4492C108.996 80.4123 109.034 80.3569 109.087 80.3133C109.099 80.3033 109.141 80.3049 109.146 80.3133C109.166 80.3435 109.193 80.3855 109.19 80.4089C109.186 80.4442 109.165 80.4743 109.141 80.4961L108.779 80.8132L108.631 80.9473L108.226 81.2996C107.971 81.5243 107.714 81.7457 107.466 81.9772C107.06 82.3529 106.635 82.7068 106.216 83.0674C106.13 83.1412 106.059 83.2318 105.973 83.3039C105.206 83.9563 104.482 84.6574 103.7 85.3032C103.447 85.5128 103.18 85.7074 102.921 85.9103C102.546 86.2055 102.173 86.5024 101.783 86.7808C101.391 87.0559 100.994 87.3209 100.586 87.5708C100.378 87.7033 100.167 87.8291 99.9542 87.9515C99.7432 88.0773 99.5287 88.1998 99.3125 88.3155C99.0998 88.4329 98.8887 88.552 98.6725 88.661C98.4564 88.7717 98.2436 88.8874 98.0223 88.9881C97.3925 89.295 96.7406 89.5533 96.0905 89.8116C95.8574 89.8971 95.6328 90.0062 95.4015 90.0967C95.1802 90.1789 94.9556 90.246 94.731 90.3198L94.5959 90.3618C94.2903 90.4607 93.9897 90.5781 93.6806 90.662C93.1825 90.8079 92.6792 90.9404 92.1676 91.0343C91.9615 91.0695 91.7572 91.1148 91.5529 91.1551L90.9365 91.2691C90.7237 91.3077 90.5092 91.3362 90.2948 91.3614C90.2357 91.3681 90.1732 91.3564 90.1141 91.3379C90.0752 91.3262 90.033 91.2893 90.0313 91.2155C90.0296 91.1467 90.0567 91.1081 90.0989 91.0947C90.2525 91.0427 90.4012 90.979 90.5565 90.9454C90.7777 90.9018 91.0006 90.8666 91.2219 90.8263H91.2269V90.8247Z" fill="#904322"></path><path d="M91.4595 97.9308C91.5642 97.8956 91.6672 97.8553 91.7685 97.8134C92.1062 97.6742 92.4524 97.5601 92.7969 97.4377C92.8729 97.4092 92.9439 97.3673 93.0182 97.3388L93.4758 97.1761C93.5028 97.166 93.5366 97.1626 93.5552 97.1392C93.6497 97.015 93.7899 96.9882 93.9166 96.9295C94.0483 96.8691 94.1699 96.7869 94.2965 96.7165C94.4164 96.6494 94.5194 96.5488 94.6815 96.5723C94.7339 96.579 94.7812 96.537 94.815 96.4968C94.8724 96.4297 94.9484 96.4045 95.0277 96.3844C95.2118 96.3425 95.3537 96.2083 95.5242 96.1395L95.7032 96.0708C95.7252 96.0624 95.7522 96.0624 95.7674 96.0456C95.8738 95.9232 96.0359 95.9114 96.1575 95.8225C96.3483 95.6867 96.578 95.6296 96.7874 95.529C97.1099 95.3814 97.4122 95.1969 97.7212 95.0258L98.2228 94.7474L98.8983 94.3549C98.9726 94.3096 99.0368 94.2476 99.106 94.1956C99.2918 94.0581 99.5197 93.9843 99.6987 93.8367C99.8338 93.7243 99.9858 93.6404 100.138 93.5549C100.188 93.5264 100.244 93.5062 100.293 93.4744C100.447 93.3721 100.602 93.2681 100.752 93.1624L101.273 92.7833L101.85 92.3389C102.07 92.1678 102.289 91.9984 102.488 91.8038C102.823 91.4885 103.198 91.2269 103.541 90.9233C103.654 90.826 103.774 90.7388 103.914 90.6717C104.064 90.6012 104.17 90.4771 104.273 90.3513C104.431 90.1635 104.613 90.0041 104.81 89.8616C104.952 89.7609 105.091 89.6569 105.216 89.5379C105.315 89.4423 105.396 89.3265 105.489 89.2225C105.525 89.184 105.567 89.1521 105.609 89.1219C105.783 89.0028 105.982 88.9089 106.116 88.7462C106.131 88.7294 106.156 88.721 106.175 88.7076C106.364 88.5684 106.555 88.4309 106.742 88.2883C106.79 88.2531 106.818 88.1994 106.859 88.1592C106.869 88.1491 106.91 88.1491 106.915 88.1558C106.938 88.1843 106.969 88.2212 106.97 88.2447C106.97 88.2782 106.957 88.3068 106.938 88.3269L106.644 88.6305L106.525 88.7596L106.195 89.0984C105.984 89.3098 105.766 89.5144 105.56 89.7307C105.228 90.0863 104.846 90.3916 104.488 90.7186C104.414 90.7857 104.355 90.8662 104.277 90.93C103.598 91.4986 102.943 92.0957 102.232 92.6257L101.529 93.1272L100.509 93.8484L99.4556 94.5176L98.3478 95.1717C97.9779 95.3764 97.6148 95.5927 97.2416 95.7906C96.6979 96.0691 96.1541 96.3441 95.6002 96.5991C95.4043 96.6897 95.2219 96.8104 95.026 96.9027C94.8403 96.9899 94.6511 97.067 94.462 97.1492C94.4249 97.166 94.386 97.1794 94.3489 97.1962C94.0989 97.3203 93.8456 97.4411 93.5856 97.5484L92.9607 97.8101C92.7513 97.8939 92.5369 97.9677 92.3224 98.0382C91.9779 98.1539 91.6402 98.2914 91.294 98.4021C91.115 98.4608 90.9376 98.5229 90.757 98.5766C90.708 98.5917 90.6506 98.5883 90.5965 98.5766C90.5594 98.5699 90.5172 98.5397 90.502 98.4675C90.4868 98.4005 90.502 98.3585 90.5374 98.3401C90.6607 98.2696 90.7772 98.1858 90.9056 98.1321C91.0879 98.0566 91.2771 98.0013 91.4645 97.9375L91.4595 97.9308Z" fill="#904322"></path><path d="M92.8353 103.745L93.0599 103.638C93.3065 103.515 93.5632 103.413 93.8198 103.309C93.8756 103.286 93.9262 103.249 93.9836 103.227C94.0968 103.18 94.2116 103.14 94.3265 103.096C94.3467 103.088 94.3721 103.088 94.3839 103.066C94.4447 102.954 94.5511 102.932 94.6456 102.887C94.7436 102.84 94.8314 102.769 94.926 102.712C95.0138 102.658 95.0864 102.57 95.2164 102.603C95.2586 102.615 95.2907 102.578 95.3144 102.541C95.3532 102.481 95.4106 102.462 95.4731 102.452C95.6166 102.429 95.7163 102.316 95.848 102.266L95.9848 102.219C96.0017 102.214 96.0236 102.216 96.0338 102.201C96.1064 102.095 96.2364 102.098 96.3276 102.028C96.4694 101.922 96.6501 101.892 96.8089 101.821C97.0537 101.716 97.2868 101.583 97.5215 101.461L97.9049 101.263C98.0771 101.171 98.2527 101.083 98.4233 100.988C98.4807 100.956 98.5263 100.907 98.5803 100.867C98.7205 100.765 98.9029 100.731 99.038 100.619C99.1393 100.533 99.2575 100.476 99.3757 100.419C99.4146 100.401 99.4585 100.389 99.4973 100.367C99.6172 100.297 99.7354 100.223 99.852 100.146L100.25 99.8725C100.399 99.7668 100.548 99.6595 100.693 99.5488C100.858 99.423 101.029 99.3006 101.178 99.153C101.426 98.9131 101.718 98.7303 101.973 98.5022C102.059 98.4301 102.15 98.3663 102.262 98.3244C102.382 98.2791 102.459 98.1835 102.532 98.0845C102.642 97.937 102.779 97.8179 102.93 97.7122C103.04 97.6401 103.147 97.5629 103.236 97.4707C103.309 97.3969 103.361 97.3029 103.427 97.2224C103.451 97.1922 103.484 97.1688 103.516 97.147C103.65 97.0598 103.812 96.996 103.903 96.8652C103.913 96.8518 103.935 96.8467 103.949 96.8367C104.092 96.731 104.239 96.627 104.381 96.5163C104.417 96.4895 104.433 96.4459 104.462 96.4123C104.469 96.4039 104.506 96.4073 104.511 96.4123C104.538 96.4375 104.572 96.4727 104.577 96.4912C104.584 96.5197 104.577 96.5432 104.562 96.5599C104.494 96.6421 104.422 96.7226 104.352 96.8031L104.268 96.9054L104.032 97.1755C103.878 97.3415 103.716 97.5009 103.565 97.6719C103.505 97.7407 103.442 97.8095 103.378 97.8749L103.175 98.0627L102.763 98.4317C102.709 98.4837 102.665 98.5475 102.606 98.5944C102.088 99.0205 101.591 99.475 101.041 99.8591C100.862 99.9832 100.674 100.096 100.495 100.218C100.23 100.387 99.9735 100.569 99.7067 100.736C99.4365 100.897 99.1646 101.053 98.8911 101.209L98.0399 101.672C97.7579 101.818 97.481 101.976 97.1956 102.117C96.7835 102.32 96.3681 102.514 95.951 102.707C95.8041 102.776 95.669 102.87 95.5221 102.942C95.3836 103.011 95.2417 103.069 95.1016 103.133C95.0729 103.147 95.0442 103.155 95.0171 103.17C94.8314 103.267 94.6456 103.366 94.4548 103.455C94.1475 103.599 93.8418 103.747 93.526 103.868C93.271 103.967 93.0278 104.087 92.7779 104.196C92.6496 104.253 92.5212 104.312 92.3895 104.363C92.354 104.376 92.3084 104.373 92.2645 104.363C92.2341 104.356 92.197 104.327 92.1717 104.257C92.148 104.193 92.1531 104.153 92.1767 104.134C92.2612 104.066 92.3388 103.985 92.4317 103.935C92.5617 103.861 92.7019 103.811 92.8387 103.749L92.8353 103.745Z" fill="#904322"></path></g><path d="M20.6406 130.581L36.1481 110.506L74.6189 127.914L59.4103 154.026L20.6406 130.581Z" fill="#0041D9"></path><mask id="mask1_230_55477" style="mask-type:alpha" maskUnits="userSpaceOnUse" x="20" y="110" width="55" height="45"><path d="M20.6406 130.581L36.1481 110.506L74.6189 127.914L59.4103 154.026L20.6406 130.581Z" fill="#003EE0"></path></mask><g mask="url(#mask1_230_55477)"><path d="M76.6235 134.792C76.4361 134.86 76.2436 134.915 76.0527 134.977C75.8602 135.031 75.6677 135.088 75.4735 135.136C74.185 135.465 72.8188 135.574 71.4864 135.322C71.3412 135.291 71.1926 135.265 71.0457 135.239C70.9004 135.203 70.7552 135.168 70.6117 135.126C70.0409 134.947 69.4954 134.697 68.9837 134.392C68.8926 134.336 68.8014 134.266 68.7051 134.234C68.2188 134.056 67.8253 133.697 67.4605 133.327C67.0839 132.936 66.7293 132.511 66.4574 132.028L66.27 131.681C66.2176 131.56 66.1653 131.44 66.1197 131.316C66.0251 131.069 65.9795 130.807 65.993 130.547C66.0032 130.378 65.939 130.168 65.8799 129.997C65.7802 129.714 65.76 129.43 65.7498 129.147C65.738 128.823 65.6857 128.508 65.6029 128.209C65.5168 127.912 65.407 127.627 65.2973 127.34C65.2652 127.24 65.2145 127.146 65.174 127.049C65.1318 126.951 65.0912 126.854 65.0372 126.762C65.0001 126.693 64.9747 126.614 64.9274 126.559C64.5829 126.188 64.3313 125.744 63.9497 125.405C63.8754 125.341 63.8011 125.276 63.7301 125.209L63.5055 125.019C63.362 124.887 63.2016 124.771 63.0513 124.643C62.7372 124.407 62.418 124.17 62.0634 123.988C60.9944 123.407 59.7836 123.11 58.5593 122.981C57.8956 122.911 57.2252 122.892 56.5531 122.911C55.6395 122.936 54.7225 123.023 53.8106 123.161C53.5066 123.208 53.2077 123.288 52.9021 123.354C52.0898 123.525 51.2539 123.553 50.4298 123.686C49.8049 123.785 49.1717 123.81 48.535 123.791C48.3239 123.785 48.1129 123.76 47.9018 123.744C47.2246 123.697 46.5423 123.587 45.8871 123.367C45.1306 123.117 44.4095 122.703 43.8421 122.126C43.7644 122.042 43.6833 121.961 43.6107 121.873L43.3963 121.604C43.2662 121.418 43.1362 121.23 43.0281 121.032C42.8052 120.64 42.6228 120.231 42.4658 119.82C42.1027 118.882 41.8426 117.926 41.4053 117.081C41.054 116.38 40.5896 115.774 39.9985 115.283C39.9293 115.217 39.8499 115.162 39.7723 115.107L39.5392 114.937C39.372 114.84 39.215 114.727 39.0394 114.642C38.8671 114.553 38.6949 114.462 38.5108 114.392C38.3335 114.312 38.1477 114.248 37.9603 114.184C37.4688 114.026 36.9791 113.887 36.4742 113.751C35.9304 113.604 35.3546 113.589 34.7888 113.609C33.936 113.642 33.0816 113.691 32.2237 113.745C31.6157 113.78 31.0078 113.857 30.4066 113.966C30.1668 114.016 29.9287 114.077 29.6923 114.142L28.9881 114.353C28.8125 114.409 28.6318 114.449 28.4511 114.486C27.7351 114.647 27.0072 114.79 26.3216 115.088C26.2473 115.122 26.1646 115.135 26.0869 115.162C25.3067 115.425 24.5349 115.729 23.7851 116.088C23.5994 116.177 23.4305 116.306 23.2498 116.408C23.2059 116.433 23.1012 116.443 23.0978 116.433C23.0843 116.378 23.0674 116.304 23.1046 116.254C23.1586 116.18 23.2498 116.111 23.3359 116.061C23.5521 115.928 23.775 115.808 23.9979 115.689C24.2191 115.566 24.4471 115.455 24.6734 115.341C24.8609 115.244 25.05 115.154 25.2408 115.066C25.7542 114.826 26.2811 114.618 26.808 114.416C27.8144 114.038 28.8496 113.741 29.8966 113.496C30.7494 113.298 31.6157 113.159 32.4871 113.075C33.3568 112.993 34.2349 112.956 35.1198 113C35.3005 113.008 35.4812 113.01 35.6619 113.02C35.8426 113.027 36.025 113.037 36.204 113.064C37.0044 113.173 37.8049 113.347 38.5733 113.639C39.3383 113.934 40.0745 114.348 40.7011 114.909C41.3343 115.462 41.8089 116.193 42.1415 116.933C42.4759 117.678 42.7056 118.434 42.9538 119.159C43.273 120.096 43.6377 120.997 44.2879 121.666C44.7557 122.151 45.3434 122.512 45.9901 122.738C46.6369 122.968 47.336 123.074 48.0453 123.107C49.4655 123.176 50.9144 122.98 52.3583 122.751C53.1013 122.632 53.8579 122.503 54.6212 122.414C55.3845 122.325 56.1528 122.27 56.9263 122.262C57.6879 122.252 58.4546 122.299 59.2128 122.411C59.9727 122.523 60.7242 122.705 61.4453 122.99C62.4872 123.391 63.4515 123.993 64.2671 124.756C65.0845 125.517 65.7296 126.478 66.0825 127.547C66.3409 128.308 66.4304 129.093 66.5402 129.829C66.5908 130.18 66.6482 130.522 66.7361 130.849C66.7766 131.015 66.8441 131.168 66.8965 131.329C66.9522 131.488 67.0367 131.636 67.1042 131.79C67.1684 131.909 67.2393 132.027 67.3085 132.142C67.572 132.523 67.8827 132.874 68.2373 133.179C68.5953 133.479 68.9837 133.744 69.3958 133.971C70.0645 134.331 70.7957 134.578 71.5438 134.719C72.2903 134.866 73.062 134.87 73.8321 134.809C75.0733 134.707 76.2858 134.33 77.451 133.853C78.0539 133.607 78.6449 133.325 79.2343 133.035C79.3964 132.956 79.5737 132.899 79.746 132.852C79.8591 132.822 79.9874 132.825 80.0195 132.934C80.0499 133.035 79.9858 133.125 79.8709 133.201C79.4555 133.471 79.0418 133.749 78.5943 133.974C77.961 134.293 77.2939 134.553 76.6168 134.782V134.786L76.6235 134.792Z" fill="#111116"></path><path d="M69.4052 143.357C69.2126 143.389 69.0201 143.419 68.8242 143.438L68.5321 143.469L68.2399 143.488C66.9447 143.567 65.6241 143.365 64.4133 142.871C64.2816 142.812 64.1465 142.758 64.0131 142.705C63.8797 142.648 63.7513 142.58 63.623 142.515C63.1164 142.235 62.6435 141.899 62.2095 141.524C62.1335 141.453 62.0609 141.369 61.9748 141.323C61.8633 141.265 61.7603 141.195 61.6674 141.115C61.5729 141.036 61.48 140.954 61.3922 140.865C61.2267 140.678 61.0629 140.489 60.9176 140.284C60.7555 140.081 60.6103 139.863 60.4583 139.65C60.3215 139.427 60.1729 139.209 60.0632 138.968C59.8352 138.528 59.6089 138.059 59.6325 137.54C59.646 137.373 59.5717 137.166 59.5211 136.995C59.4299 136.71 59.4214 136.423 59.44 136.14C59.4789 135.489 59.3978 134.862 59.3404 134.265C59.3218 134.058 59.2948 133.857 59.2543 133.661C59.2374 133.59 59.234 133.51 59.2019 133.449C59.082 133.242 58.9908 133.035 58.8827 132.834C58.7696 132.636 58.6396 132.44 58.4724 132.279C57.9489 131.787 57.3426 131.338 56.6266 131.059C56.3547 130.954 56.0761 130.868 55.7856 130.804C55.5002 130.727 55.2064 130.685 54.9142 130.638C54.3249 130.568 53.7288 130.531 53.1293 130.555C52.4808 130.575 51.8323 130.633 51.1839 130.726C50.3024 130.846 49.4192 131.012 48.5376 131.199C48.2438 131.261 47.9567 131.355 47.6629 131.428C46.8827 131.628 46.0772 131.693 45.2801 131.858C44.6755 131.972 44.0642 132.027 43.4495 132.031C43.2452 132.039 43.0425 132.019 42.8382 132.019C42.5106 132.026 42.183 132 41.8571 131.987C41.5311 131.953 41.2035 131.935 40.8793 131.88C40.1278 131.769 39.3763 131.605 38.6637 131.306C37.8565 130.977 37.0999 130.496 36.4768 129.872C36.3029 129.691 36.1407 129.498 35.9769 129.307L35.7591 129C35.7236 128.948 35.6848 128.897 35.651 128.845L35.5548 128.684L35.3639 128.362L35.1934 128.032C35.0735 127.814 34.984 127.587 34.8759 127.366C34.5466 126.626 34.3051 125.868 34.0417 125.135C33.7782 124.402 33.4928 123.685 33.0791 123.062C33.0132 122.958 32.9474 122.856 32.8714 122.764L32.6535 122.475C32.4914 122.301 32.3462 122.108 32.1638 121.947C31.799 121.563 31.2789 121.362 30.7639 121.241C29.9786 121.063 29.1663 120.991 28.3355 120.952C27.7478 120.917 27.1534 120.927 26.564 120.981C26.3276 121.004 26.0929 121.039 25.8598 121.088C25.6268 121.13 25.3954 121.187 25.1641 121.236C24.9901 121.269 24.8128 121.301 24.6372 121.323C23.9347 121.424 23.2203 121.516 22.5415 121.772C22.4672 121.801 22.3861 121.809 22.3084 121.831C21.5401 122.048 20.7801 122.316 20.0422 122.648C19.8564 122.725 19.6943 122.853 19.5153 122.948C19.4731 122.972 19.3701 122.98 19.3667 122.968C19.3532 122.913 19.338 122.839 19.3734 122.791C19.4258 122.72 19.5153 122.653 19.6014 122.604C20.0303 122.358 20.4745 122.143 20.9237 121.937C21.1111 121.856 21.2969 121.766 21.486 121.689C21.9977 121.481 22.5178 121.298 23.0447 121.133C24.0461 120.823 25.0746 120.608 26.1114 120.461C26.9575 120.343 27.812 120.3 28.6665 120.318C29.5226 120.342 30.4025 120.441 31.2468 120.748C31.5896 120.873 31.9409 121.006 32.2533 121.212C32.4256 121.328 32.5826 121.464 32.7481 121.59C32.9018 121.725 33.0419 121.878 33.1889 122.022C33.3155 122.182 33.4472 122.338 33.5688 122.5C33.6769 122.67 33.7951 122.834 33.8931 123.009C34.2933 123.701 34.5736 124.429 34.8337 125.145C35.0937 125.862 35.3302 126.573 35.6172 127.245C35.9043 127.918 36.2421 128.554 36.6946 129.089C37.2756 129.786 38.027 130.355 38.8917 130.714C39.5148 130.979 40.1869 131.142 40.8658 131.247C41.2052 131.306 41.5514 131.329 41.8959 131.36C42.2421 131.373 42.5883 131.39 42.9378 131.38C43.6336 131.368 44.331 131.323 45.0234 131.225C45.7141 131.132 46.4099 130.997 47.1073 130.855C48.5427 130.563 49.9866 130.229 51.4693 130.045C52.2005 129.954 52.9401 129.899 53.6849 129.907C54.4296 129.914 55.1777 130.001 55.9089 130.174C56.4375 130.286 56.9593 130.471 57.4541 130.711C57.9472 130.952 58.4133 131.262 58.8169 131.653C59.2154 132.044 59.5447 132.525 59.7372 133.054C59.9348 133.58 60.0091 134.129 60.0463 134.66C60.0952 135.415 60.1037 136.153 60.1864 136.856C60.2692 137.515 60.4364 138.161 60.7218 138.766C60.7724 138.89 60.8366 139.008 60.9008 139.125C61.0055 139.328 61.1439 139.511 61.2672 139.704C61.4108 139.883 61.5391 140.071 61.6978 140.237C61.9951 140.585 62.3362 140.895 62.6908 141.183C63.2683 141.645 63.9134 142.022 64.5974 142.302C65.2779 142.584 66.0108 142.757 66.7488 142.852C67.941 143.005 69.167 142.882 70.334 142.577C70.9402 142.421 71.5313 142.21 72.1071 141.967C72.2659 141.903 72.4381 141.854 72.6036 141.817C72.7134 141.792 72.8383 141.802 72.8687 141.911C72.8974 142.012 72.8349 142.099 72.7201 142.168C72.3081 142.421 71.8825 142.664 71.4249 142.84C70.7747 143.09 70.0908 143.251 69.4018 143.36V143.364L69.4052 143.357Z" fill="#111116"></path><path d="M71.2643 149.457C70.8877 149.604 70.5044 149.728 70.1194 149.854C69.4793 150.055 68.8275 150.213 68.1689 150.339C67.5086 150.453 66.8449 150.55 66.1745 150.592C65.879 150.621 65.5818 150.644 65.2862 150.659C64.6918 150.668 64.0991 150.654 63.5046 150.602C63.3983 150.594 63.2851 150.572 63.1855 150.587C62.6755 150.651 62.1638 150.554 61.6589 150.446C61.132 150.346 60.6017 150.237 60.0816 150.081C59.8384 149.998 59.5868 149.938 59.3504 149.832C59.2322 149.782 59.114 149.73 59.0008 149.665C58.8911 149.596 58.7847 149.519 58.685 149.43C58.5533 149.321 58.3507 149.225 58.1751 149.16C58.1024 149.131 58.0298 149.101 57.9623 149.066C57.8964 149.027 57.8322 148.985 57.7698 148.94C57.6465 148.849 57.5232 148.761 57.4151 148.646C56.9051 148.163 56.358 147.694 55.9915 147.075C55.9594 147.023 55.9257 146.971 55.8953 146.919L55.8159 146.753L55.6572 146.422C55.6183 146.344 55.6031 146.248 55.5558 146.179C55.2451 145.684 55.1793 145.102 55.0323 144.577C54.7993 143.754 54.752 142.93 54.4953 142.174C54.1238 141.01 53.4078 139.967 52.533 139.106C52.0585 138.64 51.5198 138.237 50.9439 137.902C50.1671 137.436 49.3008 137.117 48.4075 136.964C48.1103 136.907 47.8029 136.916 47.499 136.909C46.6917 136.902 45.866 136.86 45.052 137.013C44.4373 137.127 43.8209 137.218 43.1995 137.313C42.9935 137.345 42.784 137.364 42.578 137.401C41.916 137.516 41.249 137.63 40.5735 137.719C39.795 137.823 39.0013 137.892 38.1992 137.853C37.2923 137.806 36.3754 137.602 35.5462 137.193C34.6005 136.718 33.8017 135.992 33.1516 135.198C32.0539 133.895 31.3362 132.38 30.2824 131.175C30.1963 131.077 30.1102 130.98 30.0241 130.883C29.938 130.787 29.8434 130.7 29.7556 130.606C29.585 130.411 29.3857 130.255 29.205 130.068C29.102 129.975 28.9855 129.898 28.8707 129.818C28.8133 129.779 28.7542 129.739 28.6951 129.704L28.5076 129.61C28.3843 129.544 28.2492 129.502 28.1192 129.45C27.9841 129.412 27.8524 129.365 27.7156 129.336C26.8966 129.137 26.0505 129.063 25.1893 129.063C24.5796 129.066 23.9616 129.117 23.3553 129.234C22.8673 129.323 22.3927 129.481 21.9199 129.628C21.7426 129.683 21.5602 129.725 21.3795 129.769C20.6584 129.942 19.9238 130.109 19.2416 130.44C19.1673 130.477 19.0845 130.495 19.0069 130.525C18.2284 130.826 17.4651 131.18 16.7322 131.597C16.5481 131.7 16.3877 131.84 16.2137 131.959C16.1715 131.988 16.0668 132.008 16.0634 131.996C16.0448 131.943 16.0229 131.869 16.0567 131.815C16.1056 131.736 16.1918 131.661 16.2762 131.601C16.7001 131.309 17.1374 131.035 17.5866 130.782C17.7724 130.675 17.9599 130.572 18.1473 130.47C18.6573 130.203 19.1825 129.965 19.7144 129.746C20.7243 129.325 21.7747 129.008 22.8403 128.759C23.7066 128.56 24.5999 128.424 25.5084 128.415C26.4136 128.407 27.3424 128.523 28.2155 128.85C28.5684 128.987 28.9365 129.115 29.2523 129.333C29.9751 129.786 30.5746 130.386 31.088 131.02C31.603 131.656 32.0455 132.328 32.4812 132.988C32.9169 133.645 33.3475 134.294 33.8305 134.883C34.3134 135.47 34.8538 135.992 35.4786 136.376C36.2909 136.879 37.2349 137.159 38.2194 137.216C39.6498 137.3 41.1072 137.016 42.5696 136.75C44.0337 136.483 45.5333 136.203 47.0785 136.216C47.4753 136.223 47.8739 136.248 48.2707 136.302C48.4683 136.332 48.6659 136.372 48.8651 136.408C49.061 136.451 49.2535 136.508 49.4477 136.557C50.2178 136.785 50.9473 137.129 51.6177 137.56C52.9366 138.412 54.0326 139.608 54.725 141.017C54.9665 141.527 55.1742 142.062 55.3093 142.603C55.4495 143.145 55.5474 143.683 55.6572 144.212C55.7669 144.738 55.8885 145.255 56.0709 145.743C56.1148 145.866 56.1672 145.985 56.2178 146.104L56.3968 146.448C56.4272 146.505 56.4526 146.563 56.488 146.619L56.5944 146.781C56.6687 146.887 56.7295 147.003 56.8139 147.102C57.2581 147.69 57.8474 148.158 58.4756 148.551C59.0718 148.925 59.7152 149.23 60.389 149.465C60.5257 149.509 60.6608 149.556 60.7976 149.596C61.7366 149.866 62.7143 149.988 63.6904 150.042C65.2761 150.109 66.872 149.978 68.4323 149.666C68.7481 149.613 69.0572 149.527 69.3679 149.455C69.6752 149.364 69.986 149.287 70.2882 149.182C70.8996 148.99 71.4923 148.747 72.08 148.497C72.6845 148.231 73.2722 147.927 73.8497 147.608C74.0068 147.519 74.1807 147.449 74.3513 147.394C74.4644 147.357 74.5928 147.352 74.6333 147.457C74.6705 147.555 74.6114 147.65 74.4982 147.732C74.2956 147.882 74.0946 148.036 73.8835 148.175C73.6758 148.319 73.463 148.459 73.2384 148.576C72.9243 148.754 72.5933 148.901 72.2657 149.051C71.9314 149.188 71.5987 149.331 71.2576 149.452V149.455H71.2643V149.457Z" fill="#111116"></path></g><path d="M86.4805 62.2321C86.4805 62.2321 87.4549 64.2398 88.7805 63.8457C89.7735 63.5505 92.8757 62.6129 94.4023 62.0594C94.8633 61.8917 95.152 61.1755 94.9697 60.7243C94.7231 60.1121 93.6322 60.4006 91.7679 60.6236C89.8849 60.8501 86.4805 62.2338 86.4805 62.2338V62.2321Z" fill="#D03C0B"></path><path d="M120.562 68.788C119.295 67.4596 116.722 68.5515 115.232 69.6954C113.741 70.8393 113.315 71.8826 114.482 72.8352C115.198 73.4206 116.213 73.4776 116.995 72.9795C118.768 71.8507 121.553 69.8246 120.563 68.7864H120.562V68.788Z" fill="#D03C0B"></path></g><defs><clipPath id="clip0_230_55477"><rect width="140" height="148" fill="white" transform="translate(10 6)"></rect></clipPath></defs></svg> 