<?xml version="1.0" encoding="UTF-8"?> <svg xmlns="http://www.w3.org/2000/svg" width="145" height="28" viewBox="0 0 145 28" fill="none"><rect width="145" height="28" rx="14" fill="#DDDDE1"></rect><path d="M8.77557 19V17.7223L13.8565 10.593H8.76562V8.81818H16.5611V10.0959L11.4751 17.2251H16.571V19H8.77557ZM18.1831 19V11.3636H20.301V19H18.1831ZM19.247 10.3793C18.9321 10.3793 18.662 10.2749 18.4366 10.0661C18.2145 9.85393 18.1035 9.60038 18.1035 9.3054C18.1035 9.01373 18.2145 8.76349 18.4366 8.55469C18.662 8.34257 18.9321 8.23651 19.247 8.23651C19.5618 8.23651 19.8303 8.34257 20.0524 8.55469C20.2778 8.76349 20.3904 9.01373 20.3904 9.3054C20.3904 9.60038 20.2778 9.85393 20.0524 10.0661C19.8303 10.2749 19.5618 10.3793 19.247 10.3793ZM24.1154 8.81818V19H21.9975V8.81818H24.1154ZM27.9299 8.81818V19H25.812V8.81818H27.9299ZM33.0767 19.1491C32.3045 19.1491 31.6366 18.9851 31.0732 18.657C30.513 18.3255 30.0805 17.8648 29.7756 17.2749C29.4706 16.6816 29.3182 15.9938 29.3182 15.2116C29.3182 14.4228 29.4706 13.7334 29.7756 13.1435C30.0805 12.5502 30.513 12.0895 31.0732 11.7614C31.6366 11.4299 32.3045 11.2642 33.0767 11.2642C33.849 11.2642 34.5152 11.4299 35.0753 11.7614C35.6387 12.0895 36.0729 12.5502 36.3778 13.1435C36.6828 13.7334 36.8352 14.4228 36.8352 15.2116C36.8352 15.9938 36.6828 16.6816 36.3778 17.2749C36.0729 17.8648 35.6387 18.3255 35.0753 18.657C34.5152 18.9851 33.849 19.1491 33.0767 19.1491ZM33.0866 17.5085C33.438 17.5085 33.7313 17.4091 33.9666 17.2102C34.2019 17.008 34.3793 16.733 34.4986 16.3849C34.6212 16.0369 34.6825 15.6409 34.6825 15.1967C34.6825 14.7526 34.6212 14.3565 34.4986 14.0085C34.3793 13.6605 34.2019 13.3854 33.9666 13.1832C33.7313 12.9811 33.438 12.88 33.0866 12.88C32.732 12.88 32.4337 12.9811 32.1918 13.1832C31.9531 13.3854 31.7725 13.6605 31.6499 14.0085C31.5305 14.3565 31.4709 14.7526 31.4709 15.1967C31.4709 15.6409 31.5305 16.0369 31.6499 16.3849C31.7725 16.733 31.9531 17.008 32.1918 17.2102C32.4337 17.4091 32.732 17.5085 33.0866 17.5085ZM39.5273 19L37.4492 11.3636H39.592L40.7752 16.4943H40.8448L42.0778 11.3636H44.1808L45.4336 16.4645H45.4982L46.6616 11.3636H48.7994L46.7262 19H44.484L43.1715 14.1974H43.0771L41.7646 19H39.5273ZM53.2092 19V8.81818H55.3619V13.0192H59.7319V8.81818H61.8796V19H59.7319V14.794H55.3619V19H53.2092ZM67.065 19.1491C66.2927 19.1491 65.6249 18.9851 65.0614 18.657C64.5013 18.3255 64.0688 17.8648 63.7638 17.2749C63.4589 16.6816 63.3065 15.9938 63.3065 15.2116C63.3065 14.4228 63.4589 13.7334 63.7638 13.1435C64.0688 12.5502 64.5013 12.0895 65.0614 11.7614C65.6249 11.4299 66.2927 11.2642 67.065 11.2642C67.8372 11.2642 68.5034 11.4299 69.0636 11.7614C69.627 12.0895 70.0612 12.5502 70.3661 13.1435C70.671 13.7334 70.8235 14.4228 70.8235 15.2116C70.8235 15.9938 70.671 16.6816 70.3661 17.2749C70.0612 17.8648 69.627 18.3255 69.0636 18.657C68.5034 18.9851 67.8372 19.1491 67.065 19.1491ZM67.0749 17.5085C67.4263 17.5085 67.7196 17.4091 67.9549 17.2102C68.1902 17.008 68.3675 16.733 68.4869 16.3849C68.6095 16.0369 68.6708 15.6409 68.6708 15.1967C68.6708 14.7526 68.6095 14.3565 68.4869 14.0085C68.3675 13.6605 68.1902 13.3854 67.9549 13.1832C67.7196 12.9811 67.4263 12.88 67.0749 12.88C66.7203 12.88 66.422 12.9811 66.18 13.1832C65.9414 13.3854 65.7608 13.6605 65.6381 14.0085C65.5188 14.3565 65.4592 14.7526 65.4592 15.1967C65.4592 15.6409 65.5188 16.0369 65.6381 16.3849C65.7608 16.733 65.9414 17.008 66.18 17.2102C66.422 17.4091 66.7203 17.5085 67.0749 17.5085ZM72.2006 19V11.3636H74.2191V12.7109H74.3086C74.4677 12.2635 74.7328 11.9105 75.104 11.652C75.4753 11.3935 75.9194 11.2642 76.4364 11.2642C76.9601 11.2642 77.4059 11.3951 77.7738 11.657C78.1417 11.9155 78.387 12.2668 78.5096 12.7109H78.5891C78.7449 12.2734 79.0266 11.9238 79.4343 11.6619C79.8453 11.3968 80.3308 11.2642 80.891 11.2642C81.6036 11.2642 82.1819 11.4912 82.6261 11.9453C83.0735 12.3961 83.2972 13.0357 83.2972 13.8643V19H81.1843V14.282C81.1843 13.8577 81.0716 13.5395 80.8462 13.3274C80.6209 13.1153 80.3391 13.0092 80.0011 13.0092C79.6166 13.0092 79.3166 13.1319 79.1012 13.3771C78.8858 13.6191 78.7781 13.9389 78.7781 14.3366V19H76.7248V14.2372C76.7248 13.8627 76.6171 13.5644 76.4016 13.3423C76.1895 13.1203 75.9094 13.0092 75.5614 13.0092C75.3261 13.0092 75.114 13.0689 74.9251 13.1882C74.7395 13.3042 74.592 13.4683 74.4826 13.6804C74.3732 13.8892 74.3185 14.1345 74.3185 14.4162V19H72.2006ZM88.4503 19.1491C87.6648 19.1491 86.9886 18.9901 86.4219 18.6719C85.8584 18.3504 85.4242 17.8963 85.1193 17.3097C84.8144 16.7197 84.6619 16.022 84.6619 15.2166C84.6619 14.4311 84.8144 13.7417 85.1193 13.1484C85.4242 12.5552 85.8535 12.0928 86.407 11.7614C86.9638 11.4299 87.6167 11.2642 88.3658 11.2642C88.8696 11.2642 89.3385 11.3454 89.7727 11.5078C90.2102 11.6669 90.5914 11.9072 90.9162 12.2287C91.2443 12.5502 91.4995 12.9545 91.6818 13.4418C91.8641 13.9257 91.9553 14.4924 91.9553 15.142V15.7237H85.5071V14.4112H89.9616C89.9616 14.1063 89.8954 13.8362 89.7628 13.6009C89.6302 13.3655 89.4463 13.1816 89.2109 13.049C88.9789 12.9131 88.7088 12.8452 88.4006 12.8452C88.0791 12.8452 87.794 12.9197 87.5455 13.0689C87.3002 13.2147 87.108 13.4119 86.9688 13.6605C86.8295 13.9058 86.7583 14.1792 86.755 14.4808V15.7287C86.755 16.1065 86.8246 16.433 86.9638 16.7081C87.1063 16.9832 87.3068 17.1953 87.5653 17.3445C87.8239 17.4936 88.1304 17.5682 88.4851 17.5682C88.7204 17.5682 88.9358 17.535 89.1314 17.4688C89.3269 17.4025 89.4943 17.303 89.6335 17.1705C89.7727 17.0379 89.8788 16.8755 89.9517 16.6832L91.9105 16.8125C91.8111 17.2831 91.6072 17.6941 91.299 18.0455C90.9941 18.3935 90.5997 18.6652 90.1158 18.8608C89.6352 19.053 89.08 19.1491 88.4503 19.1491ZM96.6174 19V8.81818H98.7701V17.2251H103.135V19H96.6174ZM107.971 19.1491C107.199 19.1491 106.531 18.9851 105.968 18.657C105.408 18.3255 104.975 17.8648 104.67 17.2749C104.365 16.6816 104.213 15.9938 104.213 15.2116C104.213 14.4228 104.365 13.7334 104.67 13.1435C104.975 12.5502 105.408 12.0895 105.968 11.7614C106.531 11.4299 107.199 11.2642 107.971 11.2642C108.743 11.2642 109.41 11.4299 109.97 11.7614C110.533 12.0895 110.967 12.5502 111.272 13.1435C111.577 13.7334 111.73 14.4228 111.73 15.2116C111.73 15.9938 111.577 16.6816 111.272 17.2749C110.967 17.8648 110.533 18.3255 109.97 18.657C109.41 18.9851 108.743 19.1491 107.971 19.1491ZM107.981 17.5085C108.333 17.5085 108.626 17.4091 108.861 17.2102C109.096 17.008 109.274 16.733 109.393 16.3849C109.516 16.0369 109.577 15.6409 109.577 15.1967C109.577 14.7526 109.516 14.3565 109.393 14.0085C109.274 13.6605 109.096 13.3854 108.861 13.1832C108.626 12.9811 108.333 12.88 107.981 12.88C107.627 12.88 107.328 12.9811 107.086 13.1832C106.848 13.3854 106.667 13.6605 106.544 14.0085C106.425 14.3565 106.365 14.7526 106.365 15.1967C106.365 15.6409 106.425 16.0369 106.544 16.3849C106.667 16.733 106.848 17.008 107.086 17.2102C107.328 17.4091 107.627 17.5085 107.981 17.5085ZM115.284 19.1442C114.797 19.1442 114.363 19.0597 113.982 18.8906C113.601 18.7183 113.299 18.4647 113.077 18.13C112.858 17.7919 112.749 17.371 112.749 16.8672C112.749 16.4429 112.827 16.0866 112.983 15.7983C113.138 15.5099 113.35 15.2779 113.619 15.1023C113.887 14.9266 114.192 14.794 114.534 14.7045C114.878 14.6151 115.24 14.5521 115.618 14.5156C116.062 14.4692 116.42 14.4261 116.691 14.3864C116.963 14.3433 117.16 14.2803 117.283 14.1974C117.406 14.1146 117.467 13.992 117.467 13.8295V13.7997C117.467 13.4848 117.368 13.2412 117.169 13.0689C116.973 12.8965 116.695 12.8104 116.333 12.8104C115.952 12.8104 115.649 12.8949 115.424 13.0639C115.198 13.2296 115.049 13.4384 114.976 13.6903L113.017 13.5312C113.117 13.0672 113.312 12.6662 113.604 12.3281C113.896 11.9867 114.272 11.7249 114.733 11.5426C115.197 11.357 115.734 11.2642 116.343 11.2642C116.768 11.2642 117.174 11.3139 117.561 11.4134C117.953 11.5128 118.299 11.6669 118.6 11.8757C118.905 12.0845 119.146 12.353 119.321 12.6811C119.497 13.0059 119.585 13.3954 119.585 13.8494V19H117.576V17.9411H117.517C117.394 18.1797 117.23 18.3902 117.025 18.5724C116.819 18.7514 116.572 18.8923 116.284 18.995C115.995 19.0945 115.662 19.1442 115.284 19.1442ZM115.891 17.6825C116.203 17.6825 116.478 17.6212 116.716 17.4986C116.955 17.3726 117.142 17.2036 117.278 16.9915C117.414 16.7794 117.482 16.5391 117.482 16.2706V15.4602C117.416 15.5033 117.324 15.5431 117.208 15.5795C117.096 15.6127 116.968 15.6442 116.826 15.674C116.683 15.7005 116.541 15.7254 116.398 15.7486C116.256 15.7685 116.126 15.7867 116.01 15.8033C115.762 15.8397 115.545 15.8977 115.359 15.9773C115.173 16.0568 115.029 16.1645 114.926 16.3004C114.824 16.433 114.772 16.5987 114.772 16.7976C114.772 17.0859 114.877 17.3063 115.086 17.4588C115.298 17.608 115.566 17.6825 115.891 17.6825ZM123.346 14.5852V19H121.228V11.3636H123.246V12.7109H123.336C123.505 12.2668 123.788 11.9155 124.186 11.657C124.584 11.3951 125.066 11.2642 125.633 11.2642C126.163 11.2642 126.625 11.3802 127.02 11.6122C127.414 11.8442 127.721 12.1757 127.94 12.6065C128.158 13.0341 128.268 13.5445 128.268 14.1378V19H126.15V14.5156C126.153 14.0483 126.034 13.6837 125.792 13.4219C125.55 13.1567 125.217 13.0241 124.793 13.0241C124.508 13.0241 124.256 13.0855 124.037 13.2081C123.821 13.3307 123.652 13.5097 123.53 13.745C123.411 13.977 123.349 14.2571 123.346 14.5852ZM136.291 13.5412L134.352 13.6605C134.319 13.4948 134.247 13.3456 134.138 13.2131C134.029 13.0772 133.884 12.9695 133.705 12.8899C133.53 12.8071 133.319 12.7656 133.074 12.7656C132.746 12.7656 132.469 12.8352 132.244 12.9744C132.018 13.1103 131.906 13.2926 131.906 13.5213C131.906 13.7036 131.979 13.8577 132.124 13.9837C132.27 14.1096 132.521 14.2107 132.875 14.2869L134.257 14.5653C135 14.7178 135.553 14.9631 135.918 15.3011C136.282 15.6392 136.465 16.0833 136.465 16.6335C136.465 17.134 136.317 17.5732 136.022 17.951C135.731 18.3288 135.329 18.6238 134.819 18.8359C134.312 19.0447 133.727 19.1491 133.064 19.1491C132.053 19.1491 131.248 18.9387 130.648 18.5178C130.051 18.0935 129.702 17.5168 129.599 16.7876L131.682 16.6783C131.745 16.9865 131.897 17.2218 132.139 17.3842C132.381 17.5433 132.691 17.6229 133.069 17.6229C133.44 17.6229 133.739 17.5516 133.964 17.4091C134.193 17.2633 134.309 17.076 134.312 16.8473C134.309 16.6551 134.227 16.4976 134.068 16.375C133.909 16.2491 133.664 16.1529 133.333 16.0866L132.01 15.8232C131.264 15.674 130.709 15.4155 130.345 15.0476C129.983 14.6797 129.803 14.2107 129.803 13.6406C129.803 13.1501 129.935 12.7275 130.2 12.3729C130.469 12.0182 130.845 11.7448 131.329 11.5526C131.816 11.3603 132.386 11.2642 133.039 11.2642C134.004 11.2642 134.763 11.468 135.316 11.8757C135.873 12.2834 136.198 12.8385 136.291 13.5412Z" fill="#111116"></path></svg> 