<?xml version="1.0" encoding="UTF-8"?> <svg xmlns="http://www.w3.org/2000/svg" width="382" height="376" viewBox="0 0 382 376" fill="none"><path d="M40.1932 333C40.0838 332.665 39.9396 332.365 39.7607 332.1C39.585 331.832 39.3745 331.603 39.1293 331.414C38.8873 331.225 38.6122 331.081 38.304 330.982C37.9957 330.882 37.6577 330.832 37.2898 330.832C36.6866 330.832 36.138 330.988 35.6442 331.3C35.1503 331.611 34.7576 332.07 34.4659 332.677C34.1742 333.283 34.0284 334.027 34.0284 334.909C34.0284 335.791 34.1759 336.535 34.4709 337.141C34.7659 337.748 35.1652 338.207 35.669 338.518C36.1728 338.83 36.7396 338.986 37.3693 338.986C37.9527 338.986 38.4664 338.862 38.9105 338.613C39.358 338.361 39.706 338.006 39.9545 337.549C40.2064 337.088 40.3324 336.546 40.3324 335.923L40.7102 336.003H37.6477V334.909H41.5256V336.003C41.5256 336.841 41.3466 337.571 40.9886 338.19C40.634 338.81 40.1435 339.291 39.517 339.632C38.8939 339.97 38.178 340.139 37.3693 340.139C36.4678 340.139 35.6757 339.927 34.9929 339.503C34.3134 339.079 33.7831 338.475 33.402 337.693C33.0241 336.911 32.8352 335.983 32.8352 334.909C32.8352 334.104 32.9429 333.379 33.1584 332.737C33.3771 332.09 33.6854 331.54 34.0831 331.086C34.4808 330.632 34.9515 330.284 35.495 330.042C36.0386 329.8 36.6368 329.679 37.2898 329.679C37.8267 329.679 38.3272 329.76 38.7912 329.923C39.2585 330.082 39.6745 330.309 40.0391 330.604C40.407 330.895 40.7135 331.245 40.9588 331.653C41.2041 332.057 41.3731 332.506 41.4659 333H40.1932ZM43.4782 340V332.364H44.6117V333.517H44.6912C44.8304 333.139 45.0823 332.833 45.4469 332.597C45.8115 332.362 46.2225 332.244 46.6799 332.244C46.766 332.244 46.8738 332.246 47.003 332.249C47.1323 332.253 47.2301 332.258 47.2963 332.264V333.457C47.2566 333.447 47.1654 333.433 47.0229 333.413C46.8837 333.389 46.7362 333.378 46.5804 333.378C46.2092 333.378 45.8778 333.456 45.5861 333.612C45.2978 333.764 45.0691 333.976 44.9 334.248C44.7343 334.516 44.6515 334.823 44.6515 335.168V340H43.4782ZM51.6564 340.159C50.9206 340.159 50.2859 339.997 49.7523 339.672C49.222 339.344 48.8127 338.886 48.5243 338.3C48.2393 337.71 48.0968 337.024 48.0968 336.241C48.0968 335.459 48.2393 334.77 48.5243 334.173C48.8127 333.573 49.2137 333.106 49.7275 332.771C50.2445 332.433 50.8477 332.264 51.5371 332.264C51.9348 332.264 52.3276 332.33 52.7154 332.463C53.1032 332.596 53.4561 332.811 53.7743 333.109C54.0925 333.404 54.3461 333.795 54.535 334.283C54.7239 334.77 54.8184 335.37 54.8184 336.082V336.58H48.932V335.565H53.6252C53.6252 335.134 53.539 334.75 53.3667 334.412C53.1976 334.074 52.9557 333.807 52.6408 333.612C52.3292 333.416 51.9614 333.318 51.5371 333.318C51.0698 333.318 50.6654 333.434 50.324 333.666C49.986 333.895 49.7258 334.193 49.5435 334.561C49.3612 334.929 49.2701 335.323 49.2701 335.744V336.42C49.2701 336.997 49.3695 337.486 49.5684 337.887C49.7705 338.285 50.0506 338.588 50.4086 338.797C50.7665 339.002 51.1825 339.105 51.6564 339.105C51.9647 339.105 52.2431 339.062 52.4917 338.976C52.7435 338.886 52.9606 338.754 53.1429 338.578C53.3252 338.399 53.4661 338.177 53.5655 337.912L54.699 338.23C54.5797 338.615 54.3792 338.953 54.0975 339.244C53.8158 339.533 53.4677 339.758 53.0534 339.92C52.6391 340.08 52.1735 340.159 51.6564 340.159ZM59.6855 343.023C59.1188 343.023 58.6316 342.95 58.2239 342.804C57.8162 342.661 57.4765 342.473 57.2047 342.237C56.9363 342.005 56.7225 341.757 56.5634 341.491L57.498 340.835C57.6041 340.974 57.7383 341.134 57.9007 341.312C58.0632 341.495 58.2852 341.652 58.5669 341.785C58.852 341.921 59.2248 341.989 59.6855 341.989C60.302 341.989 60.8108 341.839 61.2118 341.541C61.6129 341.243 61.8134 340.776 61.8134 340.139V338.588H61.714C61.6278 338.727 61.5051 338.9 61.3461 339.105C61.1903 339.307 60.9649 339.488 60.6699 339.647C60.3783 339.803 59.9838 339.881 59.4867 339.881C58.8702 339.881 58.3167 339.735 57.8262 339.443C57.339 339.152 56.9528 338.727 56.6678 338.17C56.3861 337.614 56.2452 336.937 56.2452 336.142C56.2452 335.36 56.3828 334.679 56.6578 334.099C56.9329 333.515 57.3158 333.065 57.8063 332.746C58.2968 332.425 58.8636 332.264 59.5066 332.264C60.0037 332.264 60.3981 332.347 60.6898 332.513C60.9848 332.675 61.2102 332.861 61.3659 333.07C61.525 333.275 61.6477 333.444 61.7338 333.577H61.8532V332.364H62.9867V340.219C62.9867 340.875 62.8375 341.409 62.5392 341.82C62.2443 342.234 61.8465 342.537 61.3461 342.729C60.8489 342.925 60.2954 343.023 59.6855 343.023ZM59.6458 338.827C60.1164 338.827 60.5141 338.719 60.839 338.504C61.1638 338.288 61.4107 337.978 61.5797 337.574C61.7488 337.17 61.8333 336.686 61.8333 336.122C61.8333 335.572 61.7504 335.086 61.5847 334.665C61.419 334.245 61.1737 333.915 60.8489 333.676C60.5241 333.437 60.123 333.318 59.6458 333.318C59.1486 333.318 58.7343 333.444 58.4029 333.696C58.0748 333.948 57.8278 334.286 57.6621 334.71C57.4997 335.134 57.4185 335.605 57.4185 336.122C57.4185 336.652 57.5014 337.121 57.6671 337.529C57.8361 337.933 58.0847 338.252 58.4128 338.484C58.7443 338.712 59.1552 338.827 59.6458 338.827ZM78.1662 329.818L81.1889 338.389H81.3082L84.331 329.818H85.6236L81.8849 340H80.6122L76.8736 329.818H78.1662ZM87.0504 340V332.364H88.2237V340H87.0504ZM87.647 331.091C87.4183 331.091 87.2211 331.013 87.0554 330.857C86.893 330.701 86.8118 330.514 86.8118 330.295C86.8118 330.077 86.893 329.889 87.0554 329.734C87.2211 329.578 87.4183 329.5 87.647 329.5C87.8757 329.5 88.0713 329.578 88.2337 329.734C88.3994 329.889 88.4822 330.077 88.4822 330.295C88.4822 330.514 88.3994 330.701 88.2337 330.857C88.0713 331.013 87.8757 331.091 87.647 331.091ZM90.3727 340V332.364H91.5062V333.517H91.5858C91.725 333.139 91.9769 332.833 92.3414 332.597C92.706 332.362 93.117 332.244 93.5744 332.244C93.6606 332.244 93.7683 332.246 93.8975 332.249C94.0268 332.253 94.1246 332.258 94.1909 332.264V333.457C94.1511 333.447 94.06 333.433 93.9174 333.413C93.7782 333.389 93.6307 333.378 93.475 333.378C93.1038 333.378 92.7723 333.456 92.4806 333.612C92.1923 333.764 91.9636 333.976 91.7946 334.248C91.6288 334.516 91.546 334.823 91.546 335.168V340H90.3727ZM98.4316 343.023C97.8649 343.023 97.3777 342.95 96.97 342.804C96.5623 342.661 96.2226 342.473 95.9508 342.237C95.6824 342.005 95.4686 341.757 95.3095 341.491L96.2441 340.835C96.3502 340.974 96.4844 341.134 96.6468 341.312C96.8092 341.495 97.0313 341.652 97.313 341.785C97.5981 341.921 97.9709 341.989 98.4316 341.989C99.0481 341.989 99.5569 341.839 99.9579 341.541C100.359 341.243 100.559 340.776 100.559 340.139V338.588H100.46C100.374 338.727 100.251 338.9 100.092 339.105C99.9364 339.307 99.711 339.488 99.416 339.647C99.1243 339.803 98.7299 339.881 98.2328 339.881C97.6163 339.881 97.0628 339.735 96.5723 339.443C96.085 339.152 95.6989 338.727 95.4139 338.17C95.1322 337.614 94.9913 336.937 94.9913 336.142C94.9913 335.36 95.1288 334.679 95.4039 334.099C95.679 333.515 96.0618 333.065 96.5524 332.746C97.0429 332.425 97.6097 332.264 98.2527 332.264C98.7498 332.264 99.1442 332.347 99.4359 332.513C99.7309 332.675 99.9563 332.861 100.112 333.07C100.271 333.275 100.394 333.444 100.48 333.577H100.599V332.364H101.733V340.219C101.733 340.875 101.584 341.409 101.285 341.82C100.99 342.234 100.593 342.537 100.092 342.729C99.595 342.925 99.0415 343.023 98.4316 343.023ZM98.3919 338.827C98.8625 338.827 99.2602 338.719 99.585 338.504C99.9099 338.288 100.157 337.978 100.326 337.574C100.495 337.17 100.579 336.686 100.579 336.122C100.579 335.572 100.497 335.086 100.331 334.665C100.165 334.245 99.9198 333.915 99.595 333.676C99.2702 333.437 98.8691 333.318 98.3919 333.318C97.8947 333.318 97.4804 333.444 97.149 333.696C96.8208 333.948 96.5739 334.286 96.4082 334.71C96.2458 335.134 96.1646 335.605 96.1646 336.122C96.1646 336.652 96.2475 337.121 96.4132 337.529C96.5822 337.933 96.8308 338.252 97.1589 338.484C97.4904 338.712 97.9013 338.827 98.3919 338.827ZM103.881 340V332.364H105.054V340H103.881ZM104.477 331.091C104.248 331.091 104.051 331.013 103.885 330.857C103.723 330.701 103.642 330.514 103.642 330.295C103.642 330.077 103.723 329.889 103.885 329.734C104.051 329.578 104.248 329.5 104.477 329.5C104.706 329.5 104.901 329.578 105.064 329.734C105.229 329.889 105.312 330.077 105.312 330.295C105.312 330.514 105.229 330.701 105.064 330.857C104.901 331.013 104.706 331.091 104.477 331.091ZM108.376 335.406V340H107.203V332.364H108.336V333.557H108.436C108.615 333.169 108.886 332.857 109.251 332.622C109.616 332.384 110.086 332.264 110.663 332.264C111.18 332.264 111.632 332.37 112.02 332.582C112.408 332.791 112.71 333.109 112.925 333.537C113.141 333.961 113.248 334.498 113.248 335.148V340H112.075V335.227C112.075 334.627 111.919 334.16 111.608 333.825C111.296 333.487 110.868 333.318 110.325 333.318C109.95 333.318 109.616 333.399 109.321 333.562C109.029 333.724 108.799 333.961 108.63 334.273C108.461 334.584 108.376 334.962 108.376 335.406ZM115.392 340V332.364H116.566V340H115.392ZM115.989 331.091C115.76 331.091 115.563 331.013 115.397 330.857C115.235 330.701 115.154 330.514 115.154 330.295C115.154 330.077 115.235 329.889 115.397 329.734C115.563 329.578 115.76 329.5 115.989 329.5C116.218 329.5 116.413 329.578 116.575 329.734C116.741 329.889 116.824 330.077 116.824 330.295C116.824 330.514 116.741 330.701 116.575 330.857C116.413 331.013 116.218 331.091 115.989 331.091ZM120.962 340.179C120.478 340.179 120.039 340.088 119.644 339.906C119.25 339.72 118.937 339.453 118.705 339.105C118.473 338.754 118.357 338.33 118.357 337.832C118.357 337.395 118.443 337.04 118.615 336.768C118.787 336.493 119.018 336.278 119.306 336.122C119.594 335.966 119.913 335.85 120.261 335.774C120.612 335.695 120.965 335.632 121.32 335.585C121.784 335.526 122.16 335.481 122.448 335.451C122.74 335.418 122.952 335.363 123.085 335.287C123.22 335.211 123.288 335.078 123.288 334.889V334.849C123.288 334.359 123.154 333.978 122.886 333.706C122.621 333.434 122.218 333.298 121.678 333.298C121.117 333.298 120.678 333.421 120.36 333.666C120.042 333.911 119.818 334.173 119.689 334.452L118.575 334.054C118.774 333.59 119.039 333.229 119.371 332.97C119.705 332.708 120.07 332.526 120.464 332.423C120.862 332.317 121.253 332.264 121.638 332.264C121.883 332.264 122.165 332.294 122.483 332.354C122.804 332.41 123.114 332.528 123.413 332.707C123.714 332.886 123.964 333.156 124.163 333.517C124.362 333.878 124.462 334.362 124.462 334.969V340H123.288V338.966H123.229C123.149 339.132 123.017 339.309 122.831 339.498C122.645 339.687 122.398 339.848 122.09 339.98C121.782 340.113 121.406 340.179 120.962 340.179ZM121.141 339.125C121.605 339.125 121.996 339.034 122.314 338.852C122.635 338.669 122.877 338.434 123.04 338.146C123.205 337.857 123.288 337.554 123.288 337.236V336.162C123.239 336.222 123.129 336.276 122.96 336.326C122.795 336.372 122.602 336.414 122.384 336.45C122.168 336.483 121.958 336.513 121.752 336.54C121.55 336.563 121.386 336.583 121.26 336.599C120.955 336.639 120.67 336.704 120.405 336.793C120.143 336.879 119.931 337.01 119.768 337.186C119.609 337.358 119.53 337.594 119.53 337.892C119.53 338.3 119.681 338.608 119.982 338.817C120.287 339.022 120.673 339.125 121.141 339.125Z" fill="white"></path><path d="M70.7821 326.537V343.281H69.7878V326.537H70.7821Z" fill="#DEDEDE"></path><rect width="382" height="376" rx="20" fill="#6000B6"></rect><path d="M44.3239 32L50.2932 34.3542L44.3239 48.3815C46.6988 48.8392 48.5923 49.951 50.0044 51.7166C51.4807 53.4823 52.2188 55.6076 52.2188 58.0926C52.2188 60.97 51.256 63.3569 49.3304 65.2534C47.4048 67.0845 44.9978 68 42.1094 68C39.1568 68 36.7177 67.0845 34.7921 65.2534C32.9307 63.3569 32 60.97 32 58.0926C32 55.673 32.8344 52.9264 34.5033 49.8529L44.3239 32ZM68.0088 32L74.0744 34.3542L68.105 48.3815C70.4799 48.8392 72.3735 49.951 73.7856 51.7166C75.2619 53.4823 76 55.6076 76 58.0926C76 60.97 75.0372 63.3569 73.1116 65.2534C71.186 67.0845 68.779 68 65.8906 68C62.938 68 60.4989 67.0845 58.5733 65.2534C56.7119 63.3569 55.7812 60.97 55.7812 58.0926C55.7812 55.673 56.6156 52.9264 58.2845 49.8529L68.0088 32Z" fill="#E6A8FF"></path><path d="M37.22 187H33.14V172.68H38.72L41.98 181.96H42.18L45.36 172.68H51.04V187H46.96V178.4H46.76L43.72 187H40.46L37.42 178.42H37.22V187ZM56.0753 191.7C55.6753 191.7 55.242 191.667 54.7753 191.6C54.322 191.533 53.9553 191.44 53.6753 191.32V188.42C53.8886 188.513 54.1486 188.587 54.4553 188.64C54.762 188.693 55.0486 188.72 55.3153 188.72C55.8486 188.72 56.2753 188.573 56.5953 188.28C56.9286 187.987 57.1753 187.613 57.3353 187.16L52.2753 176.68H56.3353L58.6553 182.38H58.8553L60.6553 176.68H64.4953L60.5753 187.48C60.0286 188.947 59.4086 190.013 58.7153 190.68C58.022 191.36 57.142 191.7 56.0753 191.7ZM74.0614 187H70.3214V172.08H74.0614V187ZM81.1892 187.26C80.0559 187.26 79.0492 187.04 78.1692 186.6C77.3026 186.147 76.6226 185.507 76.1292 184.68C75.6492 183.853 75.4092 182.893 75.4092 181.8C75.4092 180.72 75.6559 179.773 76.1492 178.96C76.6426 178.147 77.3292 177.52 78.2092 177.08C79.0892 176.64 80.0959 176.42 81.2292 176.42C82.3492 176.42 83.3359 176.647 84.1892 177.1C85.0426 177.54 85.7026 178.167 86.1692 178.98C86.6359 179.793 86.8692 180.747 86.8692 181.84C86.8692 182.32 86.8492 182.66 86.8092 182.86H79.2692C79.3892 183.433 79.6359 183.88 80.0092 184.2C80.3826 184.52 80.8426 184.68 81.3892 184.68C81.8292 184.68 82.2092 184.58 82.5292 184.38C82.8492 184.18 83.0892 183.907 83.2492 183.56L86.4692 184.14C86.2159 185.1 85.6026 185.86 84.6292 186.42C83.6692 186.98 82.5226 187.26 81.1892 187.26ZM83.0892 180.86C83.0359 180.34 82.8292 179.9 82.4692 179.54C82.1092 179.18 81.6692 179 81.1492 179C80.6426 179 80.2226 179.167 79.8892 179.5C79.5559 179.833 79.3359 180.287 79.2292 180.86H83.0892ZM88.1925 187V176.68H91.9325V178.2H92.1325C92.5458 177.587 92.9792 177.14 93.4325 176.86C93.8992 176.58 94.4325 176.44 95.0325 176.44C95.7392 176.44 96.3658 176.62 96.9125 176.98C97.4725 177.327 97.9058 177.813 98.2125 178.44C98.5192 179.067 98.6725 179.773 98.6725 180.56V187H94.9325V181.26C94.9325 180.753 94.7992 180.347 94.5325 180.04C94.2792 179.733 93.9325 179.58 93.4925 179.58C93.0525 179.58 92.6792 179.747 92.3725 180.08C92.0792 180.4 91.9325 180.813 91.9325 181.32V187H88.1925ZM104.481 187.26C103.575 187.26 102.775 187.04 102.081 186.6C101.388 186.16 100.848 185.533 100.461 184.72C100.088 183.893 99.9014 182.933 99.9014 181.84C99.9014 180.76 100.088 179.813 100.461 179C100.848 178.173 101.388 177.54 102.081 177.1C102.775 176.647 103.568 176.42 104.461 176.42C105.755 176.42 106.755 176.907 107.461 177.88H107.661V172.08H111.401V187H107.661V185.8H107.461C106.755 186.773 105.761 187.26 104.481 187.26ZM105.741 184.12C106.341 184.12 106.835 183.907 107.221 183.48C107.621 183.04 107.821 182.493 107.821 181.84C107.821 181.187 107.621 180.647 107.221 180.22C106.835 179.78 106.341 179.56 105.741 179.56C105.141 179.56 104.641 179.78 104.241 180.22C103.855 180.647 103.661 181.187 103.661 181.84C103.661 182.493 103.855 183.04 104.241 183.48C104.641 183.907 105.141 184.12 105.741 184.12ZM118.513 187.26C117.38 187.26 116.373 187.04 115.493 186.6C114.627 186.147 113.947 185.507 113.453 184.68C112.973 183.853 112.733 182.893 112.733 181.8C112.733 180.72 112.98 179.773 113.473 178.96C113.967 178.147 114.653 177.52 115.533 177.08C116.413 176.64 117.42 176.42 118.553 176.42C119.673 176.42 120.66 176.647 121.513 177.1C122.367 177.54 123.027 178.167 123.493 178.98C123.96 179.793 124.193 180.747 124.193 181.84C124.193 182.32 124.173 182.66 124.133 182.86H116.593C116.713 183.433 116.96 183.88 117.333 184.2C117.707 184.52 118.167 184.68 118.713 184.68C119.153 184.68 119.533 184.58 119.853 184.38C120.173 184.18 120.413 183.907 120.573 183.56L123.793 184.14C123.54 185.1 122.927 185.86 121.953 186.42C120.993 186.98 119.847 187.26 118.513 187.26ZM120.413 180.86C120.36 180.34 120.153 179.9 119.793 179.54C119.433 179.18 118.993 179 118.473 179C117.967 179 117.547 179.167 117.213 179.5C116.88 179.833 116.66 180.287 116.553 180.86H120.413ZM125.517 187V176.68H129.237V178.14H129.457C129.683 177.633 130.01 177.233 130.437 176.94C130.863 176.633 131.337 176.48 131.857 176.48C132.27 176.48 132.65 176.567 132.997 176.74V180.06C132.703 179.927 132.39 179.827 132.057 179.76C131.723 179.68 131.437 179.64 131.197 179.64C130.623 179.64 130.157 179.847 129.797 180.26C129.437 180.673 129.257 181.213 129.257 181.88V187H125.517ZM146.071 187H141.291L138.411 176.68H142.251L143.891 183.22H144.091L145.711 176.68H149.111L150.911 183.32H151.111L152.731 176.68H156.451L153.531 187H148.771L147.531 181.08H147.331L146.071 187ZM159.902 187.24C158.862 187.24 158.028 186.98 157.402 186.46C156.775 185.927 156.462 185.2 156.462 184.28C156.462 183.293 156.868 182.52 157.682 181.96C158.495 181.387 159.755 180.987 161.462 180.76L163.262 180.54V180.08C163.262 179.693 163.142 179.387 162.902 179.16C162.662 178.92 162.328 178.8 161.902 178.8C161.488 178.8 161.148 178.927 160.882 179.18C160.628 179.433 160.502 179.773 160.502 180.2H156.882C156.882 179.44 157.088 178.773 157.502 178.2C157.915 177.627 158.502 177.187 159.262 176.88C160.035 176.573 160.928 176.42 161.942 176.42C162.955 176.42 163.842 176.58 164.602 176.9C165.375 177.207 165.968 177.647 166.382 178.22C166.808 178.793 167.022 179.46 167.022 180.22V187H163.262V185.78H163.062C162.782 186.247 162.355 186.607 161.782 186.86C161.222 187.113 160.595 187.24 159.902 187.24ZM161.362 184.98C161.922 184.98 162.375 184.807 162.722 184.46C163.082 184.113 163.262 183.673 163.262 183.14V182.52L161.602 182.76C160.575 182.893 160.062 183.28 160.062 183.92C160.062 184.24 160.175 184.5 160.402 184.7C160.642 184.887 160.962 184.98 161.362 184.98ZM173.301 187.34C171.755 187.34 170.528 187.007 169.621 186.34C168.715 185.673 168.261 184.76 168.261 183.6H171.441C171.441 184.04 171.615 184.393 171.961 184.66C172.321 184.927 172.795 185.06 173.381 185.06C173.821 185.06 174.181 184.973 174.461 184.8C174.741 184.613 174.881 184.367 174.881 184.06C174.881 183.727 174.721 183.5 174.401 183.38C174.081 183.26 173.588 183.167 172.921 183.1C171.975 183.007 171.201 182.893 170.601 182.76C170.015 182.627 169.488 182.34 169.021 181.9C168.555 181.447 168.321 180.78 168.321 179.9C168.321 178.82 168.761 177.96 169.641 177.32C170.535 176.68 171.721 176.36 173.201 176.36C174.148 176.36 175.001 176.507 175.761 176.8C176.521 177.08 177.115 177.48 177.541 178C177.968 178.52 178.181 179.127 178.181 179.82H174.861C174.848 179.46 174.688 179.173 174.381 178.96C174.075 178.733 173.681 178.62 173.201 178.62C172.775 178.62 172.428 178.707 172.161 178.88C171.895 179.053 171.761 179.28 171.761 179.56C171.761 179.867 171.928 180.08 172.261 180.2C172.608 180.307 173.168 180.407 173.941 180.5C174.035 180.5 174.175 180.513 174.361 180.54C175.615 180.673 176.635 180.953 177.421 181.38C178.208 181.807 178.601 182.56 178.601 183.64C178.601 184.787 178.128 185.693 177.181 186.36C176.235 187.013 174.941 187.34 173.301 187.34ZM190.233 187.26C189.046 187.26 188.013 187.04 187.133 186.6C186.266 186.16 185.593 185.533 185.113 184.72C184.633 183.907 184.393 182.947 184.393 181.84C184.393 180.72 184.626 179.753 185.093 178.94C185.573 178.127 186.253 177.507 187.133 177.08C188.013 176.64 189.046 176.42 190.233 176.42C191.406 176.42 192.433 176.64 193.313 177.08C194.193 177.52 194.866 178.147 195.333 178.96C195.813 179.773 196.053 180.733 196.053 181.84C196.053 182.96 195.813 183.927 195.333 184.74C194.866 185.553 194.193 186.18 193.313 186.62C192.433 187.047 191.406 187.26 190.233 187.26ZM190.233 184.12C190.846 184.12 191.346 183.907 191.733 183.48C192.12 183.053 192.313 182.507 192.313 181.84C192.313 181.173 192.12 180.627 191.733 180.2C191.346 179.773 190.846 179.56 190.233 179.56C189.62 179.56 189.12 179.773 188.733 180.2C188.346 180.627 188.153 181.173 188.153 181.84C188.153 182.507 188.346 183.053 188.733 183.48C189.12 183.907 189.62 184.12 190.233 184.12ZM207.732 176.68V187H203.992V185.48H203.792C203.379 186.093 202.939 186.54 202.472 186.82C202.019 187.1 201.492 187.24 200.892 187.24C200.186 187.24 199.552 187.067 198.992 186.72C198.446 186.36 198.019 185.867 197.712 185.24C197.406 184.613 197.252 183.907 197.252 183.12V176.68H200.992V182.42C200.992 182.927 201.119 183.34 201.372 183.66C201.639 183.967 201.992 184.12 202.432 184.12C202.872 184.12 203.239 183.96 203.532 183.64C203.839 183.307 203.992 182.88 203.992 182.36V176.68H207.732ZM213.921 187.26C212.801 187.26 211.901 186.9 211.221 186.18C210.541 185.447 210.201 184.48 210.201 183.28V179.34H208.881V176.68H210.341L211.021 173.46H213.961V176.68H216.121V179.34H213.961V183.1C213.961 183.5 214.068 183.827 214.281 184.08C214.508 184.32 214.808 184.44 215.181 184.44C215.474 184.44 215.808 184.393 216.181 184.3V186.9C215.874 187.02 215.508 187.107 215.081 187.16C214.654 187.227 214.268 187.26 213.921 187.26ZM222.286 187.34C220.739 187.34 219.512 187.007 218.606 186.34C217.699 185.673 217.246 184.76 217.246 183.6H220.426C220.426 184.04 220.599 184.393 220.946 184.66C221.306 184.927 221.779 185.06 222.366 185.06C222.806 185.06 223.166 184.973 223.446 184.8C223.726 184.613 223.866 184.367 223.866 184.06C223.866 183.727 223.706 183.5 223.386 183.38C223.066 183.26 222.572 183.167 221.906 183.1C220.959 183.007 220.186 182.893 219.586 182.76C218.999 182.627 218.472 182.34 218.006 181.9C217.539 181.447 217.306 180.78 217.306 179.9C217.306 178.82 217.746 177.96 218.626 177.32C219.519 176.68 220.706 176.36 222.186 176.36C223.132 176.36 223.986 176.507 224.746 176.8C225.506 177.08 226.099 177.48 226.526 178C226.952 178.52 227.166 179.127 227.166 179.82H223.846C223.832 179.46 223.672 179.173 223.366 178.96C223.059 178.733 222.666 178.62 222.186 178.62C221.759 178.62 221.412 178.707 221.146 178.88C220.879 179.053 220.746 179.28 220.746 179.56C220.746 179.867 220.912 180.08 221.246 180.2C221.592 180.307 222.152 180.407 222.926 180.5C223.019 180.5 223.159 180.513 223.346 180.54C224.599 180.673 225.619 180.953 226.406 181.38C227.192 181.807 227.586 182.56 227.586 183.64C227.586 184.787 227.112 185.693 226.166 186.36C225.219 187.013 223.926 187.34 222.286 187.34ZM233.374 187.26C232.254 187.26 231.354 186.9 230.674 186.18C229.994 185.447 229.654 184.48 229.654 183.28V179.34H228.334V176.68H229.794L230.474 173.46H233.414V176.68H235.574V179.34H233.414V183.1C233.414 183.5 233.521 183.827 233.734 184.08C233.961 184.32 234.261 184.44 234.634 184.44C234.928 184.44 235.261 184.393 235.634 184.3V186.9C235.328 187.02 234.961 187.107 234.534 187.16C234.108 187.227 233.721 187.26 233.374 187.26ZM240.019 187.24C238.979 187.24 238.145 186.98 237.519 186.46C236.892 185.927 236.579 185.2 236.579 184.28C236.579 183.293 236.985 182.52 237.799 181.96C238.612 181.387 239.872 180.987 241.579 180.76L243.379 180.54V180.08C243.379 179.693 243.259 179.387 243.019 179.16C242.779 178.92 242.445 178.8 242.019 178.8C241.605 178.8 241.265 178.927 240.999 179.18C240.745 179.433 240.619 179.773 240.619 180.2H236.999C236.999 179.44 237.205 178.773 237.619 178.2C238.032 177.627 238.619 177.187 239.379 176.88C240.152 176.573 241.045 176.42 242.059 176.42C243.072 176.42 243.959 176.58 244.719 176.9C245.492 177.207 246.085 177.647 246.499 178.22C246.925 178.793 247.139 179.46 247.139 180.22V187H243.379V185.78H243.179C242.899 186.247 242.472 186.607 241.899 186.86C241.339 187.113 240.712 187.24 240.019 187.24ZM241.479 184.98C242.039 184.98 242.492 184.807 242.839 184.46C243.199 184.113 243.379 183.673 243.379 183.14V182.52L241.719 182.76C240.692 182.893 240.179 183.28 240.179 183.92C240.179 184.24 240.292 184.5 240.519 184.7C240.759 184.887 241.079 184.98 241.479 184.98ZM248.778 187V176.68H252.518V178.2H252.718C253.132 177.587 253.565 177.14 254.018 176.86C254.485 176.58 255.018 176.44 255.618 176.44C256.325 176.44 256.952 176.62 257.498 176.98C258.058 177.327 258.492 177.813 258.798 178.44C259.105 179.067 259.258 179.773 259.258 180.56V187H255.518V181.26C255.518 180.753 255.385 180.347 255.118 180.04C254.865 179.733 254.518 179.58 254.078 179.58C253.638 179.58 253.265 179.747 252.958 180.08C252.665 180.4 252.518 180.813 252.518 181.32V187H248.778ZM265.067 187.26C264.161 187.26 263.361 187.04 262.667 186.6C261.974 186.16 261.434 185.533 261.047 184.72C260.674 183.893 260.487 182.933 260.487 181.84C260.487 180.76 260.674 179.813 261.047 179C261.434 178.173 261.974 177.54 262.667 177.1C263.361 176.647 264.154 176.42 265.047 176.42C266.341 176.42 267.341 176.907 268.047 177.88H268.247V172.08H271.987V187H268.247V185.8H268.047C267.341 186.773 266.347 187.26 265.067 187.26ZM266.327 184.12C266.927 184.12 267.421 183.907 267.807 183.48C268.207 183.04 268.407 182.493 268.407 181.84C268.407 181.187 268.207 180.647 267.807 180.22C267.421 179.78 266.927 179.56 266.327 179.56C265.727 179.56 265.227 179.78 264.827 180.22C264.441 180.647 264.247 181.187 264.247 181.84C264.247 182.493 264.441 183.04 264.827 183.48C265.227 183.907 265.727 184.12 266.327 184.12ZM275.659 175.56C275.046 175.56 274.539 175.367 274.139 174.98C273.739 174.593 273.539 174.1 273.539 173.5C273.539 172.9 273.739 172.413 274.139 172.04C274.539 171.653 275.046 171.46 275.659 171.46C276.286 171.46 276.799 171.653 277.199 172.04C277.599 172.413 277.799 172.9 277.799 173.5C277.799 174.1 277.599 174.593 277.199 174.98C276.799 175.367 276.286 175.56 275.659 175.56ZM277.539 187H273.799V176.68H277.539V187ZM279.364 187V176.68H283.104V178.2H283.304C283.718 177.587 284.151 177.14 284.604 176.86C285.071 176.58 285.604 176.44 286.204 176.44C286.911 176.44 287.538 176.62 288.084 176.98C288.644 177.327 289.078 177.813 289.384 178.44C289.691 179.067 289.844 179.773 289.844 180.56V187H286.104V181.26C286.104 180.753 285.971 180.347 285.704 180.04C285.451 179.733 285.104 179.58 284.664 179.58C284.224 179.58 283.851 179.747 283.544 180.08C283.251 180.4 283.104 180.813 283.104 181.32V187H279.364ZM296.893 191.86C295.253 191.86 293.927 191.533 292.913 190.88C291.9 190.227 291.3 189.293 291.113 188.08L294.713 187.58C294.833 188.02 295.073 188.367 295.433 188.62C295.793 188.873 296.22 189 296.713 189C297.367 189 297.88 188.8 298.253 188.4C298.64 188 298.833 187.467 298.833 186.8V185.74H298.633C297.847 186.633 296.847 187.08 295.633 187.08C294.74 187.08 293.947 186.867 293.253 186.44C292.56 186.013 292.02 185.407 291.633 184.62C291.26 183.82 291.073 182.893 291.073 181.84C291.073 180.72 291.26 179.753 291.633 178.94C292.02 178.127 292.553 177.507 293.233 177.08C293.913 176.653 294.707 176.44 295.613 176.44C296.307 176.44 296.907 176.567 297.413 176.82C297.933 177.073 298.387 177.453 298.773 177.96H298.973V176.68H302.573V186.94C302.573 188.487 302.067 189.693 301.053 190.56C300.04 191.427 298.653 191.86 296.893 191.86ZM296.913 184.08C297.513 184.08 298.007 183.873 298.393 183.46C298.793 183.033 298.993 182.493 298.993 181.84C298.993 181.187 298.793 180.647 298.393 180.22C298.007 179.78 297.513 179.56 296.913 179.56C296.3 179.56 295.8 179.773 295.413 180.2C295.027 180.627 294.833 181.173 294.833 181.84C294.833 182.493 295.027 183.033 295.413 183.46C295.8 183.873 296.3 184.08 296.913 184.08ZM306.005 187.22C305.392 187.22 304.885 187.033 304.485 186.66C304.098 186.273 303.905 185.787 303.905 185.2C303.905 184.613 304.098 184.133 304.485 183.76C304.885 183.373 305.392 183.18 306.005 183.18C306.618 183.18 307.118 183.373 307.505 183.76C307.905 184.133 308.105 184.613 308.105 185.2C308.105 185.787 307.905 186.273 307.505 186.66C307.118 187.033 306.618 187.22 306.005 187.22ZM318.766 187H314.546V172.68H318.766V177.96H323.666V172.68H327.886V187H323.666V181.26H318.766V187ZM335.271 187.26C334.138 187.26 333.131 187.04 332.251 186.6C331.385 186.147 330.705 185.507 330.211 184.68C329.731 183.853 329.491 182.893 329.491 181.8C329.491 180.72 329.738 179.773 330.231 178.96C330.725 178.147 331.411 177.52 332.291 177.08C333.171 176.64 334.178 176.42 335.311 176.42C336.431 176.42 337.418 176.647 338.271 177.1C339.125 177.54 339.785 178.167 340.251 178.98C340.718 179.793 340.951 180.747 340.951 181.84C340.951 182.32 340.931 182.66 340.891 182.86H333.351C333.471 183.433 333.718 183.88 334.091 184.2C334.465 184.52 334.925 184.68 335.471 184.68C335.911 184.68 336.291 184.58 336.611 184.38C336.931 184.18 337.171 183.907 337.331 183.56L340.551 184.14C340.298 185.1 339.685 185.86 338.711 186.42C337.751 186.98 336.605 187.26 335.271 187.26ZM337.171 180.86C337.118 180.34 336.911 179.9 336.551 179.54C336.191 179.18 335.751 179 335.231 179C334.725 179 334.305 179.167 333.971 179.5C333.638 179.833 333.418 180.287 333.311 180.86H337.171ZM39.88 211H35.1L32.22 200.68H36.06L37.7 207.22H37.9L39.52 200.68H42.92L44.72 207.32H44.92L46.54 200.68H50.26L47.34 211H42.58L41.34 205.08H41.14L39.88 211ZM53.7102 211.24C52.6702 211.24 51.8368 210.98 51.2102 210.46C50.5835 209.927 50.2702 209.2 50.2702 208.28C50.2702 207.293 50.6768 206.52 51.4902 205.96C52.3035 205.387 53.5635 204.987 55.2702 204.76L57.0702 204.54V204.08C57.0702 203.693 56.9502 203.387 56.7102 203.16C56.4702 202.92 56.1368 202.8 55.7102 202.8C55.2968 202.8 54.9568 202.927 54.6902 203.18C54.4368 203.433 54.3102 203.773 54.3102 204.2H50.6902C50.6902 203.44 50.8968 202.773 51.3102 202.2C51.7235 201.627 52.3102 201.187 53.0702 200.88C53.8435 200.573 54.7368 200.42 55.7502 200.42C56.7635 200.42 57.6502 200.58 58.4102 200.9C59.1835 201.207 59.7768 201.647 60.1902 202.22C60.6168 202.793 60.8302 203.46 60.8302 204.22V211H57.0702V209.78H56.8702C56.5902 210.247 56.1635 210.607 55.5902 210.86C55.0302 211.113 54.4035 211.24 53.7102 211.24ZM55.1702 208.98C55.7302 208.98 56.1835 208.807 56.5302 208.46C56.8902 208.113 57.0702 207.673 57.0702 207.14V206.52L55.4102 206.76C54.3835 206.893 53.8702 207.28 53.8702 207.92C53.8702 208.24 53.9835 208.5 54.2102 208.7C54.4502 208.887 54.7702 208.98 55.1702 208.98ZM67.1098 211.34C65.5632 211.34 64.3365 211.007 63.4298 210.34C62.5232 209.673 62.0698 208.76 62.0698 207.6H65.2498C65.2498 208.04 65.4232 208.393 65.7698 208.66C66.1298 208.927 66.6032 209.06 67.1898 209.06C67.6298 209.06 67.9898 208.973 68.2698 208.8C68.5498 208.613 68.6898 208.367 68.6898 208.06C68.6898 207.727 68.5298 207.5 68.2098 207.38C67.8898 207.26 67.3965 207.167 66.7298 207.1C65.7832 207.007 65.0098 206.893 64.4098 206.76C63.8232 206.627 63.2965 206.34 62.8298 205.9C62.3632 205.447 62.1298 204.78 62.1298 203.9C62.1298 202.82 62.5698 201.96 63.4498 201.32C64.3432 200.68 65.5298 200.36 67.0098 200.36C67.9565 200.36 68.8098 200.507 69.5698 200.8C70.3298 201.08 70.9232 201.48 71.3498 202C71.7765 202.52 71.9898 203.127 71.9898 203.82H68.6698C68.6565 203.46 68.4965 203.173 68.1898 202.96C67.8832 202.733 67.4898 202.62 67.0098 202.62C66.5832 202.62 66.2365 202.707 65.9698 202.88C65.7032 203.053 65.5698 203.28 65.5698 203.56C65.5698 203.867 65.7365 204.08 66.0698 204.2C66.4165 204.307 66.9765 204.407 67.7498 204.5C67.8432 204.5 67.9832 204.513 68.1698 204.54C69.4232 204.673 70.4432 204.953 71.2298 205.38C72.0165 205.807 72.4098 206.56 72.4098 207.64C72.4098 208.787 71.9365 209.693 70.9898 210.36C70.0432 211.013 68.7498 211.34 67.1098 211.34ZM81.5617 211.24C80.5217 211.24 79.6884 210.98 79.0617 210.46C78.4351 209.927 78.1217 209.2 78.1217 208.28C78.1217 207.293 78.5284 206.52 79.3417 205.96C80.1551 205.387 81.4151 204.987 83.1217 204.76L84.9217 204.54V204.08C84.9217 203.693 84.8017 203.387 84.5617 203.16C84.3217 202.92 83.9884 202.8 83.5617 202.8C83.1484 202.8 82.8084 202.927 82.5417 203.18C82.2884 203.433 82.1617 203.773 82.1617 204.2H78.5417C78.5417 203.44 78.7484 202.773 79.1617 202.2C79.5751 201.627 80.1617 201.187 80.9217 200.88C81.6951 200.573 82.5884 200.42 83.6017 200.42C84.6151 200.42 85.5017 200.58 86.2617 200.9C87.0351 201.207 87.6284 201.647 88.0417 202.22C88.4684 202.793 88.6817 203.46 88.6817 204.22V211H84.9217V209.78H84.7217C84.4417 210.247 84.0151 210.607 83.4417 210.86C82.8817 211.113 82.2551 211.24 81.5617 211.24ZM83.0217 208.98C83.5817 208.98 84.0351 208.807 84.3817 208.46C84.7417 208.113 84.9217 207.673 84.9217 207.14V206.52L83.2617 206.76C82.2351 206.893 81.7217 207.28 81.7217 207.92C81.7217 208.24 81.8351 208.5 82.0617 208.7C82.3017 208.887 82.6217 208.98 83.0217 208.98ZM95.2047 211V196.08H98.9447V202.16H99.1447C99.5447 201.56 99.978 201.12 100.445 200.84C100.911 200.56 101.445 200.42 102.045 200.42C102.751 200.42 103.378 200.6 103.925 200.96C104.485 201.307 104.918 201.8 105.225 202.44C105.531 203.067 105.685 203.773 105.685 204.56V211H101.925V205.24C101.925 204.747 101.791 204.347 101.525 204.04C101.271 203.72 100.925 203.56 100.485 203.56C100.045 203.56 99.678 203.727 99.3847 204.06C99.0914 204.38 98.9447 204.8 98.9447 205.32V211H95.2047ZM117.693 200.68V211H113.953V209.48H113.753C113.34 210.093 112.9 210.54 112.433 210.82C111.98 211.1 111.453 211.24 110.853 211.24C110.146 211.24 109.513 211.067 108.953 210.72C108.406 210.36 107.98 209.867 107.673 209.24C107.366 208.613 107.213 207.907 107.213 207.12V200.68H110.953V206.42C110.953 206.927 111.08 207.34 111.333 207.66C111.6 207.967 111.953 208.12 112.393 208.12C112.833 208.12 113.2 207.96 113.493 207.64C113.8 207.307 113.953 206.88 113.953 206.36V200.68H117.693ZM124.862 215.86C123.222 215.86 121.895 215.533 120.882 214.88C119.869 214.227 119.269 213.293 119.082 212.08L122.682 211.58C122.802 212.02 123.042 212.367 123.402 212.62C123.762 212.873 124.189 213 124.682 213C125.335 213 125.849 212.8 126.222 212.4C126.609 212 126.802 211.467 126.802 210.8V209.74H126.602C125.815 210.633 124.815 211.08 123.602 211.08C122.709 211.08 121.915 210.867 121.222 210.44C120.529 210.013 119.989 209.407 119.602 208.62C119.229 207.82 119.042 206.893 119.042 205.84C119.042 204.72 119.229 203.753 119.602 202.94C119.989 202.127 120.522 201.507 121.202 201.08C121.882 200.653 122.675 200.44 123.582 200.44C124.275 200.44 124.875 200.567 125.382 200.82C125.902 201.073 126.355 201.453 126.742 201.96H126.942V200.68H130.542V210.94C130.542 212.487 130.035 213.693 129.022 214.56C128.009 215.427 126.622 215.86 124.862 215.86ZM124.882 208.08C125.482 208.08 125.975 207.873 126.362 207.46C126.762 207.033 126.962 206.493 126.962 205.84C126.962 205.187 126.762 204.647 126.362 204.22C125.975 203.78 125.482 203.56 124.882 203.56C124.269 203.56 123.769 203.773 123.382 204.2C122.995 204.627 122.802 205.173 122.802 205.84C122.802 206.493 122.995 207.033 123.382 207.46C123.769 207.873 124.269 208.08 124.882 208.08ZM137.674 211.26C136.54 211.26 135.534 211.04 134.654 210.6C133.787 210.147 133.107 209.507 132.614 208.68C132.134 207.853 131.894 206.893 131.894 205.8C131.894 204.72 132.14 203.773 132.634 202.96C133.127 202.147 133.814 201.52 134.694 201.08C135.574 200.64 136.58 200.42 137.714 200.42C138.834 200.42 139.82 200.647 140.674 201.1C141.527 201.54 142.187 202.167 142.654 202.98C143.12 203.793 143.354 204.747 143.354 205.84C143.354 206.32 143.334 206.66 143.294 206.86H135.754C135.874 207.433 136.12 207.88 136.494 208.2C136.867 208.52 137.327 208.68 137.874 208.68C138.314 208.68 138.694 208.58 139.014 208.38C139.334 208.18 139.574 207.907 139.734 207.56L142.954 208.14C142.7 209.1 142.087 209.86 141.114 210.42C140.154 210.98 139.007 211.26 137.674 211.26ZM139.574 204.86C139.52 204.34 139.314 203.9 138.954 203.54C138.594 203.18 138.154 203 137.634 203C137.127 203 136.707 203.167 136.374 203.5C136.04 203.833 135.82 204.287 135.714 204.86H139.574ZM149.56 211V196.08H153.3V202.16H153.5C153.9 201.56 154.333 201.12 154.8 200.84C155.267 200.56 155.8 200.42 156.4 200.42C157.107 200.42 157.733 200.6 158.28 200.96C158.84 201.307 159.273 201.8 159.58 202.44C159.887 203.067 160.04 203.773 160.04 204.56V211H156.28V205.24C156.28 204.747 156.147 204.347 155.88 204.04C155.627 203.72 155.28 203.56 154.84 203.56C154.4 203.56 154.033 203.727 153.74 204.06C153.447 204.38 153.3 204.8 153.3 205.32V211H149.56ZM167.049 211.26C165.915 211.26 164.909 211.04 164.029 210.6C163.162 210.147 162.482 209.507 161.989 208.68C161.509 207.853 161.269 206.893 161.269 205.8C161.269 204.72 161.515 203.773 162.009 202.96C162.502 202.147 163.189 201.52 164.069 201.08C164.949 200.64 165.955 200.42 167.089 200.42C168.209 200.42 169.195 200.647 170.049 201.1C170.902 201.54 171.562 202.167 172.029 202.98C172.495 203.793 172.729 204.747 172.729 205.84C172.729 206.32 172.709 206.66 172.669 206.86H165.129C165.249 207.433 165.495 207.88 165.869 208.2C166.242 208.52 166.702 208.68 167.249 208.68C167.689 208.68 168.069 208.58 168.389 208.38C168.709 208.18 168.949 207.907 169.109 207.56L172.329 208.14C172.075 209.1 171.462 209.86 170.489 210.42C169.529 210.98 168.382 211.26 167.049 211.26ZM168.949 204.86C168.895 204.34 168.689 203.9 168.329 203.54C167.969 203.18 167.529 203 167.009 203C166.502 203 166.082 203.167 165.749 203.5C165.415 203.833 165.195 204.287 165.089 204.86H168.949ZM177.792 211H174.052V196.08H177.792V211ZM186.48 200.42C187.386 200.42 188.186 200.64 188.88 201.08C189.573 201.52 190.106 202.153 190.48 202.98C190.866 203.793 191.06 204.747 191.06 205.84C191.06 206.92 190.866 207.873 190.48 208.7C190.106 209.513 189.573 210.147 188.88 210.6C188.186 211.04 187.393 211.26 186.5 211.26C185.206 211.26 184.206 210.773 183.5 209.8H183.3V215.6H179.56V200.68H183.3V201.88H183.5C184.206 200.907 185.2 200.42 186.48 200.42ZM185.22 203.56C184.62 203.56 184.12 203.78 183.72 204.22C183.333 204.647 183.14 205.187 183.14 205.84C183.14 206.493 183.333 207.04 183.72 207.48C184.12 207.907 184.62 208.12 185.22 208.12C185.82 208.12 186.313 207.907 186.7 207.48C187.1 207.04 187.3 206.493 187.3 205.84C187.3 205.187 187.1 204.647 186.7 204.22C186.313 203.78 185.82 203.56 185.22 203.56ZM199.175 199.56C198.562 199.56 198.055 199.367 197.655 198.98C197.255 198.593 197.055 198.1 197.055 197.5C197.055 196.9 197.255 196.413 197.655 196.04C198.055 195.653 198.562 195.46 199.175 195.46C199.802 195.46 200.315 195.653 200.715 196.04C201.115 196.413 201.315 196.9 201.315 197.5C201.315 198.1 201.115 198.593 200.715 198.98C200.315 199.367 199.802 199.56 199.175 199.56ZM201.055 211H197.315V200.68H201.055V211ZM202.88 211V200.68H206.62V202.2H206.82C207.233 201.587 207.667 201.14 208.12 200.86C208.587 200.58 209.12 200.44 209.72 200.44C210.427 200.44 211.053 200.62 211.6 200.98C212.16 201.327 212.593 201.813 212.9 202.44C213.207 203.067 213.36 203.773 213.36 204.56V211H209.62V205.26C209.62 204.753 209.487 204.347 209.22 204.04C208.967 203.733 208.62 203.58 208.18 203.58C207.74 203.58 207.367 203.747 207.06 204.08C206.767 204.4 206.62 204.813 206.62 205.32V211H202.88ZM222.792 211.24C221.752 211.24 220.919 210.98 220.292 210.46C219.666 209.927 219.352 209.2 219.352 208.28C219.352 207.293 219.759 206.52 220.572 205.96C221.386 205.387 222.646 204.987 224.352 204.76L226.152 204.54V204.08C226.152 203.693 226.032 203.387 225.792 203.16C225.552 202.92 225.219 202.8 224.792 202.8C224.379 202.8 224.039 202.927 223.772 203.18C223.519 203.433 223.392 203.773 223.392 204.2H219.772C219.772 203.44 219.979 202.773 220.392 202.2C220.806 201.627 221.392 201.187 222.152 200.88C222.926 200.573 223.819 200.42 224.832 200.42C225.846 200.42 226.732 200.58 227.492 200.9C228.266 201.207 228.859 201.647 229.272 202.22C229.699 202.793 229.912 203.46 229.912 204.22V211H226.152V209.78H225.952C225.672 210.247 225.246 210.607 224.672 210.86C224.112 211.113 223.486 211.24 222.792 211.24ZM224.252 208.98C224.812 208.98 225.266 208.807 225.612 208.46C225.972 208.113 226.152 207.673 226.152 207.14V206.52L224.492 206.76C223.466 206.893 222.952 207.28 222.952 207.92C222.952 208.24 223.066 208.5 223.292 208.7C223.532 208.887 223.852 208.98 224.252 208.98ZM243.335 200.42C244.242 200.42 245.042 200.64 245.735 201.08C246.428 201.52 246.962 202.153 247.335 202.98C247.722 203.793 247.915 204.747 247.915 205.84C247.915 206.92 247.722 207.873 247.335 208.7C246.962 209.513 246.428 210.147 245.735 210.6C245.042 211.04 244.248 211.26 243.355 211.26C242.062 211.26 241.062 210.773 240.355 209.8H240.155V215.6H236.415V200.68H240.155V201.88H240.355C241.062 200.907 242.055 200.42 243.335 200.42ZM242.075 203.56C241.475 203.56 240.975 203.78 240.575 204.22C240.188 204.647 239.995 205.187 239.995 205.84C239.995 206.493 240.188 207.04 240.575 207.48C240.975 207.907 241.475 208.12 242.075 208.12C242.675 208.12 243.168 207.907 243.555 207.48C243.955 207.04 244.155 206.493 244.155 205.84C244.155 205.187 243.955 204.647 243.555 204.22C243.168 203.78 242.675 203.56 242.075 203.56ZM249.247 211V200.68H252.967V202.14H253.187C253.414 201.633 253.741 201.233 254.167 200.94C254.594 200.633 255.067 200.48 255.587 200.48C256.001 200.48 256.381 200.567 256.727 200.74V204.06C256.434 203.927 256.121 203.827 255.787 203.76C255.454 203.68 255.167 203.64 254.927 203.64C254.354 203.64 253.887 203.847 253.527 204.26C253.167 204.673 252.987 205.213 252.987 205.88V211H249.247ZM263.221 211.26C262.035 211.26 261.001 211.04 260.121 210.6C259.255 210.16 258.581 209.533 258.101 208.72C257.621 207.907 257.381 206.947 257.381 205.84C257.381 204.72 257.615 203.753 258.081 202.94C258.561 202.127 259.241 201.507 260.121 201.08C261.001 200.64 262.035 200.42 263.221 200.42C264.395 200.42 265.421 200.64 266.301 201.08C267.181 201.52 267.855 202.147 268.321 202.96C268.801 203.773 269.041 204.733 269.041 205.84C269.041 206.96 268.801 207.927 268.321 208.74C267.855 209.553 267.181 210.18 266.301 210.62C265.421 211.047 264.395 211.26 263.221 211.26ZM263.221 208.12C263.835 208.12 264.335 207.907 264.721 207.48C265.108 207.053 265.301 206.507 265.301 205.84C265.301 205.173 265.108 204.627 264.721 204.2C264.335 203.773 263.835 203.56 263.221 203.56C262.608 203.56 262.108 203.773 261.721 204.2C261.335 204.627 261.141 205.173 261.141 205.84C261.141 206.507 261.335 207.053 261.721 207.48C262.108 207.907 262.608 208.12 263.221 208.12ZM275.817 211.26C274.697 211.26 273.704 211.04 272.837 210.6C271.971 210.147 271.291 209.513 270.797 208.7C270.317 207.873 270.077 206.92 270.077 205.84C270.077 204.747 270.317 203.793 270.797 202.98C271.277 202.153 271.951 201.52 272.817 201.08C273.684 200.64 274.684 200.42 275.817 200.42C277.311 200.42 278.551 200.787 279.537 201.52C280.524 202.253 281.097 203.26 281.257 204.54L277.797 204.98C277.704 204.527 277.471 204.153 277.097 203.86C276.737 203.567 276.331 203.42 275.877 203.42C275.277 203.42 274.784 203.647 274.397 204.1C274.011 204.553 273.817 205.133 273.817 205.84C273.817 206.547 274.011 207.127 274.397 207.58C274.784 208.033 275.271 208.26 275.857 208.26C276.324 208.26 276.737 208.12 277.097 207.84C277.457 207.547 277.691 207.173 277.797 206.72L281.257 207.14C281.084 208.42 280.504 209.427 279.517 210.16C278.531 210.893 277.297 211.26 275.817 211.26ZM288.103 211.26C286.97 211.26 285.963 211.04 285.083 210.6C284.217 210.147 283.537 209.507 283.043 208.68C282.563 207.853 282.323 206.893 282.323 205.8C282.323 204.72 282.57 203.773 283.063 202.96C283.557 202.147 284.243 201.52 285.123 201.08C286.003 200.64 287.01 200.42 288.143 200.42C289.263 200.42 290.25 200.647 291.103 201.1C291.957 201.54 292.617 202.167 293.083 202.98C293.55 203.793 293.783 204.747 293.783 205.84C293.783 206.32 293.763 206.66 293.723 206.86H286.183C286.303 207.433 286.55 207.88 286.923 208.2C287.297 208.52 287.757 208.68 288.303 208.68C288.743 208.68 289.123 208.58 289.443 208.38C289.763 208.18 290.003 207.907 290.163 207.56L293.383 208.14C293.13 209.1 292.517 209.86 291.543 210.42C290.583 210.98 289.437 211.26 288.103 211.26ZM290.003 204.86C289.95 204.34 289.743 203.9 289.383 203.54C289.023 203.18 288.583 203 288.063 203C287.557 203 287.137 203.167 286.803 203.5C286.47 203.833 286.25 204.287 286.143 204.86H290.003ZM299.747 211.34C298.2 211.34 296.973 211.007 296.067 210.34C295.16 209.673 294.707 208.76 294.707 207.6H297.887C297.887 208.04 298.06 208.393 298.407 208.66C298.767 208.927 299.24 209.06 299.827 209.06C300.267 209.06 300.627 208.973 300.907 208.8C301.187 208.613 301.327 208.367 301.327 208.06C301.327 207.727 301.167 207.5 300.847 207.38C300.527 207.26 300.033 207.167 299.367 207.1C298.42 207.007 297.647 206.893 297.047 206.76C296.46 206.627 295.933 206.34 295.467 205.9C295 205.447 294.767 204.78 294.767 203.9C294.767 202.82 295.207 201.96 296.087 201.32C296.98 200.68 298.167 200.36 299.647 200.36C300.593 200.36 301.447 200.507 302.207 200.8C302.967 201.08 303.56 201.48 303.987 202C304.413 202.52 304.627 203.127 304.627 203.82H301.307C301.293 203.46 301.133 203.173 300.827 202.96C300.52 202.733 300.127 202.62 299.647 202.62C299.22 202.62 298.873 202.707 298.607 202.88C298.34 203.053 298.207 203.28 298.207 203.56C298.207 203.867 298.373 204.08 298.707 204.2C299.053 204.307 299.613 204.407 300.387 204.5C300.48 204.5 300.62 204.513 300.807 204.54C302.06 204.673 303.08 204.953 303.867 205.38C304.653 205.807 305.047 206.56 305.047 207.64C305.047 208.787 304.573 209.693 303.627 210.36C302.68 211.013 301.387 211.34 299.747 211.34ZM311.055 211.34C309.508 211.34 308.282 211.007 307.375 210.34C306.468 209.673 306.015 208.76 306.015 207.6H309.195C309.195 208.04 309.368 208.393 309.715 208.66C310.075 208.927 310.548 209.06 311.135 209.06C311.575 209.06 311.935 208.973 312.215 208.8C312.495 208.613 312.635 208.367 312.635 208.06C312.635 207.727 312.475 207.5 312.155 207.38C311.835 207.26 311.342 207.167 310.675 207.1C309.728 207.007 308.955 206.893 308.355 206.76C307.768 206.627 307.242 206.34 306.775 205.9C306.308 205.447 306.075 204.78 306.075 203.9C306.075 202.82 306.515 201.96 307.395 201.32C308.288 200.68 309.475 200.36 310.955 200.36C311.902 200.36 312.755 200.507 313.515 200.8C314.275 201.08 314.868 201.48 315.295 202C315.722 202.52 315.935 203.127 315.935 203.82H312.615C312.602 203.46 312.442 203.173 312.135 202.96C311.828 202.733 311.435 202.62 310.955 202.62C310.528 202.62 310.182 202.707 309.915 202.88C309.648 203.053 309.515 203.28 309.515 203.56C309.515 203.867 309.682 204.08 310.015 204.2C310.362 204.307 310.922 204.407 311.695 204.5C311.788 204.5 311.928 204.513 312.115 204.54C313.368 204.673 314.388 204.953 315.175 205.38C315.962 205.807 316.355 206.56 316.355 207.64C316.355 208.787 315.882 209.693 314.935 210.36C313.988 211.013 312.695 211.34 311.055 211.34ZM37.3 235.26C36.18 235.26 35.28 234.9 34.6 234.18C33.92 233.447 33.58 232.48 33.58 231.28V227.34H32.26V224.68H33.72L34.4 221.46H37.34V224.68H39.5V227.34H37.34V231.1C37.34 231.5 37.4467 231.827 37.66 232.08C37.8867 232.32 38.1867 232.44 38.56 232.44C38.8533 232.44 39.1867 232.393 39.56 232.3V234.9C39.2533 235.02 38.8867 235.107 38.46 235.16C38.0333 235.227 37.6467 235.26 37.3 235.26ZM40.9078 235V220.08H44.6478V226.16H44.8478C45.2478 225.56 45.6811 225.12 46.1478 224.84C46.6145 224.56 47.1478 224.42 47.7478 224.42C48.4545 224.42 49.0811 224.6 49.6278 224.96C50.1878 225.307 50.6211 225.8 50.9278 226.44C51.2345 227.067 51.3878 227.773 51.3878 228.56V235H47.6278V229.24C47.6278 228.747 47.4945 228.347 47.2278 228.04C46.9745 227.72 46.6278 227.56 46.1878 227.56C45.7478 227.56 45.3811 227.727 45.0878 228.06C44.7945 228.38 44.6478 228.8 44.6478 229.32V235H40.9078ZM55.9563 235.24C54.9163 235.24 54.0829 234.98 53.4563 234.46C52.8296 233.927 52.5163 233.2 52.5163 232.28C52.5163 231.293 52.9229 230.52 53.7363 229.96C54.5496 229.387 55.8096 228.987 57.5163 228.76L59.3163 228.54V228.08C59.3163 227.693 59.1963 227.387 58.9563 227.16C58.7163 226.92 58.3829 226.8 57.9563 226.8C57.5429 226.8 57.2029 226.927 56.9363 227.18C56.6829 227.433 56.5563 227.773 56.5563 228.2H52.9363C52.9363 227.44 53.1429 226.773 53.5563 226.2C53.9696 225.627 54.5563 225.187 55.3163 224.88C56.0896 224.573 56.9829 224.42 57.9963 224.42C59.0096 224.42 59.8963 224.58 60.6563 224.9C61.4296 225.207 62.0229 225.647 62.4362 226.22C62.8629 226.793 63.0763 227.46 63.0763 228.22V235H59.3163V233.78H59.1163C58.8363 234.247 58.4096 234.607 57.8363 234.86C57.2763 235.113 56.6496 235.24 55.9563 235.24ZM57.4163 232.98C57.9763 232.98 58.4296 232.807 58.7763 232.46C59.1363 232.113 59.3163 231.673 59.3163 231.14V230.52L57.6563 230.76C56.6296 230.893 56.1163 231.28 56.1163 231.92C56.1163 232.24 56.2296 232.5 56.4563 232.7C56.6963 232.887 57.0163 232.98 57.4163 232.98ZM69.1359 235.26C68.0159 235.26 67.1159 234.9 66.4359 234.18C65.7559 233.447 65.4159 232.48 65.4159 231.28V227.34H64.0959V224.68H65.5559L66.2359 221.46H69.1759V224.68H71.3359V227.34H69.1759V231.1C69.1759 231.5 69.2826 231.827 69.4959 232.08C69.7226 232.32 70.0226 232.44 70.3959 232.44C70.6893 232.44 71.0226 232.393 71.3959 232.3V234.9C71.0893 235.02 70.7226 235.107 70.2959 235.16C69.8693 235.227 69.4826 235.26 69.1359 235.26ZM82.067 235H77.847V220.68H82.067V235ZM95.9542 235H91.1742L88.2942 224.68H92.1342L93.7742 231.22H93.9742L95.5942 224.68H98.9942L100.794 231.32H100.994L102.614 224.68H106.334L103.414 235H98.6542L97.4142 229.08H97.2142L95.9542 235ZM109.784 235.24C108.744 235.24 107.911 234.98 107.284 234.46C106.658 233.927 106.344 233.2 106.344 232.28C106.344 231.293 106.751 230.52 107.564 229.96C108.378 229.387 109.638 228.987 111.344 228.76L113.144 228.54V228.08C113.144 227.693 113.024 227.387 112.784 227.16C112.544 226.92 112.211 226.8 111.784 226.8C111.371 226.8 111.031 226.927 110.764 227.18C110.511 227.433 110.384 227.773 110.384 228.2H106.764C106.764 227.44 106.971 226.773 107.384 226.2C107.798 225.627 108.384 225.187 109.144 224.88C109.918 224.573 110.811 224.42 111.824 224.42C112.838 224.42 113.724 224.58 114.484 224.9C115.258 225.207 115.851 225.647 116.264 226.22C116.691 226.793 116.904 227.46 116.904 228.22V235H113.144V233.78H112.944C112.664 234.247 112.238 234.607 111.664 234.86C111.104 235.113 110.478 235.24 109.784 235.24ZM111.244 232.98C111.804 232.98 112.258 232.807 112.604 232.46C112.964 232.113 113.144 231.673 113.144 231.14V230.52L111.484 230.76C110.458 230.893 109.944 231.28 109.944 231.92C109.944 232.24 110.058 232.5 110.284 232.7C110.524 232.887 110.844 232.98 111.244 232.98ZM123.184 235.34C121.637 235.34 120.411 235.007 119.504 234.34C118.597 233.673 118.144 232.76 118.144 231.6H121.324C121.324 232.04 121.497 232.393 121.844 232.66C122.204 232.927 122.677 233.06 123.264 233.06C123.704 233.06 124.064 232.973 124.344 232.8C124.624 232.613 124.764 232.367 124.764 232.06C124.764 231.727 124.604 231.5 124.284 231.38C123.964 231.26 123.471 231.167 122.804 231.1C121.857 231.007 121.084 230.893 120.484 230.76C119.897 230.627 119.371 230.34 118.904 229.9C118.437 229.447 118.204 228.78 118.204 227.9C118.204 226.82 118.644 225.96 119.524 225.32C120.417 224.68 121.604 224.36 123.084 224.36C124.031 224.36 124.884 224.507 125.644 224.8C126.404 225.08 126.997 225.48 127.424 226C127.851 226.52 128.064 227.127 128.064 227.82H124.744C124.731 227.46 124.571 227.173 124.264 226.96C123.957 226.733 123.564 226.62 123.084 226.62C122.657 226.62 122.311 226.707 122.044 226.88C121.777 227.053 121.644 227.28 121.644 227.56C121.644 227.867 121.811 228.08 122.144 228.2C122.491 228.307 123.051 228.407 123.824 228.5C123.917 228.5 124.057 228.513 124.244 228.54C125.497 228.673 126.517 228.953 127.304 229.38C128.091 229.807 128.484 230.56 128.484 231.64C128.484 232.787 128.011 233.693 127.064 234.36C126.117 235.013 124.824 235.34 123.184 235.34ZM134.716 235V224.68H138.456V226.2H138.656C139.069 225.587 139.503 225.14 139.956 224.86C140.423 224.58 140.956 224.44 141.556 224.44C142.263 224.44 142.889 224.62 143.436 224.98C143.996 225.327 144.429 225.813 144.736 226.44C145.043 227.067 145.196 227.773 145.196 228.56V235H141.456V229.26C141.456 228.753 141.323 228.347 141.056 228.04C140.803 227.733 140.456 227.58 140.016 227.58C139.576 227.58 139.203 227.747 138.896 228.08C138.603 228.4 138.456 228.813 138.456 229.32V235H134.716ZM152.205 235.26C151.072 235.26 150.065 235.04 149.185 234.6C148.318 234.147 147.638 233.507 147.145 232.68C146.665 231.853 146.425 230.893 146.425 229.8C146.425 228.72 146.672 227.773 147.165 226.96C147.658 226.147 148.345 225.52 149.225 225.08C150.105 224.64 151.112 224.42 152.245 224.42C153.365 224.42 154.352 224.647 155.205 225.1C156.058 225.54 156.718 226.167 157.185 226.98C157.652 227.793 157.885 228.747 157.885 229.84C157.885 230.32 157.865 230.66 157.825 230.86H150.285C150.405 231.433 150.652 231.88 151.025 232.2C151.398 232.52 151.858 232.68 152.405 232.68C152.845 232.68 153.225 232.58 153.545 232.38C153.865 232.18 154.105 231.907 154.265 231.56L157.485 232.14C157.232 233.1 156.618 233.86 155.645 234.42C154.685 234.98 153.538 235.26 152.205 235.26ZM154.105 228.86C154.052 228.34 153.845 227.9 153.485 227.54C153.125 227.18 152.685 227 152.165 227C151.658 227 151.238 227.167 150.905 227.5C150.572 227.833 150.352 228.287 150.245 228.86H154.105ZM165.778 235H160.998L158.118 224.68H161.958L163.598 231.22H163.798L165.418 224.68H168.818L170.618 231.32H170.818L172.438 224.68H176.158L173.238 235H168.478L167.238 229.08H167.038L165.778 235ZM186.538 235.26C185.418 235.26 184.518 234.9 183.838 234.18C183.158 233.447 182.818 232.48 182.818 231.28V227.34H181.498V224.68H182.958L183.638 221.46H186.578V224.68H188.738V227.34H186.578V231.1C186.578 231.5 186.685 231.827 186.898 232.08C187.125 232.32 187.425 232.44 187.798 232.44C188.092 232.44 188.425 232.393 188.798 232.3V234.9C188.492 235.02 188.125 235.107 187.698 235.16C187.272 235.227 186.885 235.26 186.538 235.26ZM195.409 235.26C194.222 235.26 193.189 235.04 192.309 234.6C191.442 234.16 190.769 233.533 190.289 232.72C189.809 231.907 189.569 230.947 189.569 229.84C189.569 228.72 189.802 227.753 190.269 226.94C190.749 226.127 191.429 225.507 192.309 225.08C193.189 224.64 194.222 224.42 195.409 224.42C196.582 224.42 197.609 224.64 198.489 225.08C199.369 225.52 200.042 226.147 200.509 226.96C200.989 227.773 201.229 228.733 201.229 229.84C201.229 230.96 200.989 231.927 200.509 232.74C200.042 233.553 199.369 234.18 198.489 234.62C197.609 235.047 196.582 235.26 195.409 235.26ZM195.409 232.12C196.022 232.12 196.522 231.907 196.909 231.48C197.296 231.053 197.489 230.507 197.489 229.84C197.489 229.173 197.296 228.627 196.909 228.2C196.522 227.773 196.022 227.56 195.409 227.56C194.796 227.56 194.296 227.773 193.909 228.2C193.522 228.627 193.329 229.173 193.329 229.84C193.329 230.507 193.522 231.053 193.909 231.48C194.296 231.907 194.796 232.12 195.409 232.12ZM204.091 235.22C203.477 235.22 202.971 235.033 202.571 234.66C202.184 234.273 201.991 233.787 201.991 233.2C201.991 232.613 202.184 232.133 202.571 231.76C202.971 231.373 203.477 231.18 204.091 231.18C204.704 231.18 205.204 231.373 205.591 231.76C205.991 232.133 206.191 232.613 206.191 233.2C206.191 233.787 205.991 234.273 205.591 234.66C205.204 235.033 204.704 235.22 204.091 235.22ZM216.852 235H212.632V220.68H216.852V225.96H221.752V220.68H225.972V235H221.752V229.26H216.852V235ZM233.357 235.26C232.224 235.26 231.217 235.04 230.337 234.6C229.471 234.147 228.791 233.507 228.297 232.68C227.817 231.853 227.577 230.893 227.577 229.8C227.577 228.72 227.824 227.773 228.317 226.96C228.811 226.147 229.497 225.52 230.377 225.08C231.257 224.64 232.264 224.42 233.397 224.42C234.517 224.42 235.504 224.647 236.357 225.1C237.211 225.54 237.871 226.167 238.337 226.98C238.804 227.793 239.037 228.747 239.037 229.84C239.037 230.32 239.017 230.66 238.977 230.86H231.437C231.557 231.433 231.804 231.88 232.177 232.2C232.551 232.52 233.011 232.68 233.557 232.68C233.997 232.68 234.377 232.58 234.697 232.38C235.017 232.18 235.257 231.907 235.417 231.56L238.637 232.14C238.384 233.1 237.771 233.86 236.797 234.42C235.837 234.98 234.691 235.26 233.357 235.26ZM235.257 228.86C235.204 228.34 234.997 227.9 234.637 227.54C234.277 227.18 233.837 227 233.317 227C232.811 227 232.391 227.167 232.057 227.5C231.724 227.833 231.504 228.287 231.397 228.86H235.257ZM252.224 235H247.444L244.564 224.68H248.404L250.044 231.22H250.244L251.864 224.68H255.264L257.064 231.32H257.264L258.884 224.68H262.604L259.684 235H254.924L253.684 229.08H253.484L252.224 235ZM268.631 235.26C267.497 235.26 266.491 235.04 265.611 234.6C264.744 234.147 264.064 233.507 263.571 232.68C263.091 231.853 262.851 230.893 262.851 229.8C262.851 228.72 263.097 227.773 263.591 226.96C264.084 226.147 264.771 225.52 265.651 225.08C266.531 224.64 267.537 224.42 268.671 224.42C269.791 224.42 270.777 224.647 271.631 225.1C272.484 225.54 273.144 226.167 273.611 226.98C274.077 227.793 274.311 228.747 274.311 229.84C274.311 230.32 274.291 230.66 274.251 230.86H266.711C266.831 231.433 267.077 231.88 267.451 232.2C267.824 232.52 268.284 232.68 268.831 232.68C269.271 232.68 269.651 232.58 269.971 232.38C270.291 232.18 270.531 231.907 270.691 231.56L273.911 232.14C273.657 233.1 273.044 233.86 272.071 234.42C271.111 234.98 269.964 235.26 268.631 235.26ZM270.531 228.86C270.477 228.34 270.271 227.9 269.911 227.54C269.551 227.18 269.111 227 268.591 227C268.084 227 267.664 227.167 267.331 227.5C266.997 227.833 266.777 228.287 266.671 228.86H270.531ZM275.634 235V224.68H279.374V226.2H279.574C279.987 225.587 280.421 225.14 280.874 224.86C281.341 224.58 281.874 224.44 282.474 224.44C283.181 224.44 283.807 224.62 284.354 224.98C284.914 225.327 285.347 225.813 285.654 226.44C285.961 227.067 286.114 227.773 286.114 228.56V235H282.374V229.26C282.374 228.753 282.241 228.347 281.974 228.04C281.721 227.733 281.374 227.58 280.934 227.58C280.494 227.58 280.121 227.747 279.814 228.08C279.521 228.4 279.374 228.813 279.374 229.32V235H275.634ZM292.183 235.26C291.063 235.26 290.163 234.9 289.483 234.18C288.803 233.447 288.463 232.48 288.463 231.28V227.34H287.143V224.68H288.603L289.283 221.46H292.223V224.68H294.383V227.34H292.223V231.1C292.223 231.5 292.329 231.827 292.543 232.08C292.769 232.32 293.069 232.44 293.443 232.44C293.736 232.44 294.069 232.393 294.443 232.3V234.9C294.136 235.02 293.769 235.107 293.343 235.16C292.916 235.227 292.529 235.26 292.183 235.26ZM306.034 235.26C304.847 235.26 303.814 235.04 302.934 234.6C302.067 234.16 301.394 233.533 300.914 232.72C300.434 231.907 300.194 230.947 300.194 229.84C300.194 228.72 300.427 227.753 300.894 226.94C301.374 226.127 302.054 225.507 302.934 225.08C303.814 224.64 304.847 224.42 306.034 224.42C307.207 224.42 308.234 224.64 309.114 225.08C309.994 225.52 310.667 226.147 311.134 226.96C311.614 227.773 311.854 228.733 311.854 229.84C311.854 230.96 311.614 231.927 311.134 232.74C310.667 233.553 309.994 234.18 309.114 234.62C308.234 235.047 307.207 235.26 306.034 235.26ZM306.034 232.12C306.647 232.12 307.147 231.907 307.534 231.48C307.921 231.053 308.114 230.507 308.114 229.84C308.114 229.173 307.921 228.627 307.534 228.2C307.147 227.773 306.647 227.56 306.034 227.56C305.421 227.56 304.921 227.773 304.534 228.2C304.147 228.627 303.954 229.173 303.954 229.84C303.954 230.507 304.147 231.053 304.534 231.48C304.921 231.907 305.421 232.12 306.034 232.12ZM323.533 224.68V235H319.793V233.48H319.593C319.18 234.093 318.74 234.54 318.273 234.82C317.82 235.1 317.293 235.24 316.693 235.24C315.986 235.24 315.353 235.067 314.793 234.72C314.246 234.36 313.82 233.867 313.513 233.24C313.206 232.613 313.053 231.907 313.053 231.12V224.68H316.793V230.42C316.793 230.927 316.92 231.34 317.173 231.66C317.44 231.967 317.793 232.12 318.233 232.12C318.673 232.12 319.04 231.96 319.333 231.64C319.64 231.307 319.793 230.88 319.793 230.36V224.68H323.533ZM329.722 235.26C328.602 235.26 327.702 234.9 327.022 234.18C326.342 233.447 326.002 232.48 326.002 231.28V227.34H324.682V224.68H326.142L326.822 221.46H329.762V224.68H331.922V227.34H329.762V231.1C329.762 231.5 329.869 231.827 330.082 232.08C330.309 232.32 330.609 232.44 330.982 232.44C331.275 232.44 331.609 232.393 331.982 232.3V234.9C331.675 235.02 331.309 235.107 330.882 235.16C330.455 235.227 330.069 235.26 329.722 235.26ZM38.28 259.26C37.0933 259.26 36.06 259.04 35.18 258.6C34.3133 258.16 33.64 257.533 33.16 256.72C32.68 255.907 32.44 254.947 32.44 253.84C32.44 252.72 32.6733 251.753 33.14 250.94C33.62 250.127 34.3 249.507 35.18 249.08C36.06 248.64 37.0933 248.42 38.28 248.42C39.4533 248.42 40.48 248.64 41.36 249.08C42.24 249.52 42.9133 250.147 43.38 250.96C43.86 251.773 44.1 252.733 44.1 253.84C44.1 254.96 43.86 255.927 43.38 256.74C42.9133 257.553 42.24 258.18 41.36 258.62C40.48 259.047 39.4533 259.26 38.28 259.26ZM38.28 256.12C38.8933 256.12 39.3933 255.907 39.78 255.48C40.1667 255.053 40.36 254.507 40.36 253.84C40.36 253.173 40.1667 252.627 39.78 252.2C39.3933 251.773 38.8933 251.56 38.28 251.56C37.6667 251.56 37.1667 251.773 36.78 252.2C36.3933 252.627 36.2 253.173 36.2 253.84C36.2 254.507 36.3933 255.053 36.78 255.48C37.1667 255.907 37.6667 256.12 38.28 256.12ZM46.1419 259V251.34H44.8219V248.68H46.1419V247.96C46.1419 247.147 46.2885 246.427 46.5819 245.8C46.8885 245.173 47.3152 244.687 47.8619 244.34C48.4219 243.993 49.0619 243.82 49.7819 243.82C50.5419 243.82 51.2952 243.94 52.0419 244.18V247.08C51.6419 247 51.3285 246.96 51.1019 246.96C50.7285 246.96 50.4285 247.06 50.2019 247.26C49.9885 247.447 49.8819 247.693 49.8819 248V248.68H52.0419V251.34H49.8819V259H46.1419ZM58.2125 259V244.08H61.9525V250.16H62.1525C62.5525 249.56 62.9858 249.12 63.4525 248.84C63.9192 248.56 64.4525 248.42 65.0525 248.42C65.7592 248.42 66.3858 248.6 66.9325 248.96C67.4925 249.307 67.9258 249.8 68.2325 250.44C68.5392 251.067 68.6925 251.773 68.6925 252.56V259H64.9325V253.24C64.9325 252.747 64.7992 252.347 64.5325 252.04C64.2792 251.72 63.9325 251.56 63.4925 251.56C63.0525 251.56 62.6858 251.727 62.3925 252.06C62.0992 252.38 61.9525 252.8 61.9525 253.32V259H58.2125ZM72.2609 247.56C71.6476 247.56 71.1409 247.367 70.7409 246.98C70.3409 246.593 70.1409 246.1 70.1409 245.5C70.1409 244.9 70.3409 244.413 70.7409 244.04C71.1409 243.653 71.6476 243.46 72.2609 243.46C72.8876 243.46 73.4009 243.653 73.8009 244.04C74.2009 244.413 74.4009 244.9 74.4009 245.5C74.4009 246.1 74.2009 246.593 73.8009 246.98C73.4009 247.367 72.8876 247.56 72.2609 247.56ZM74.1409 259H70.4009V248.68H74.1409V259ZM80.6059 259.34C79.0593 259.34 77.8326 259.007 76.9259 258.34C76.0193 257.673 75.5659 256.76 75.5659 255.6H78.7459C78.7459 256.04 78.9193 256.393 79.2659 256.66C79.6259 256.927 80.0993 257.06 80.6859 257.06C81.1259 257.06 81.4859 256.973 81.7659 256.8C82.0459 256.613 82.1859 256.367 82.1859 256.06C82.1859 255.727 82.0259 255.5 81.7059 255.38C81.3859 255.26 80.8926 255.167 80.2259 255.1C79.2793 255.007 78.5059 254.893 77.9059 254.76C77.3193 254.627 76.7926 254.34 76.3259 253.9C75.8593 253.447 75.6259 252.78 75.6259 251.9C75.6259 250.82 76.0659 249.96 76.9459 249.32C77.8393 248.68 79.0259 248.36 80.5059 248.36C81.4526 248.36 82.3059 248.507 83.0659 248.8C83.8259 249.08 84.4193 249.48 84.8459 250C85.2726 250.52 85.4859 251.127 85.4859 251.82H82.1659C82.1526 251.46 81.9926 251.173 81.6859 250.96C81.3793 250.733 80.9859 250.62 80.5059 250.62C80.0793 250.62 79.7326 250.707 79.4659 250.88C79.1993 251.053 79.0659 251.28 79.0659 251.56C79.0659 251.867 79.2326 252.08 79.5659 252.2C79.9126 252.307 80.4726 252.407 81.2459 252.5C81.3393 252.5 81.4793 252.513 81.6659 252.54C82.9193 252.673 83.9393 252.953 84.7259 253.38C85.5126 253.807 85.9059 254.56 85.9059 255.64C85.9059 256.787 85.4326 257.693 84.4859 258.36C83.5393 259.013 82.2459 259.34 80.6059 259.34ZM99.1378 259H94.3578L91.4778 248.68H95.3178L96.9578 255.22H97.1578L98.7778 248.68H102.178L103.978 255.32H104.178L105.798 248.68H109.518L106.598 259H101.838L100.598 253.08H100.398L99.1378 259ZM112.968 259.24C111.928 259.24 111.095 258.98 110.468 258.46C109.841 257.927 109.528 257.2 109.528 256.28C109.528 255.293 109.935 254.52 110.748 253.96C111.561 253.387 112.821 252.987 114.528 252.76L116.328 252.54V252.08C116.328 251.693 116.208 251.387 115.968 251.16C115.728 250.92 115.395 250.8 114.968 250.8C114.555 250.8 114.215 250.927 113.948 251.18C113.695 251.433 113.568 251.773 113.568 252.2H109.948C109.948 251.44 110.155 250.773 110.568 250.2C110.981 249.627 111.568 249.187 112.328 248.88C113.101 248.573 113.995 248.42 115.008 248.42C116.021 248.42 116.908 248.58 117.668 248.9C118.441 249.207 119.035 249.647 119.448 250.22C119.875 250.793 120.088 251.46 120.088 252.22V259H116.328V257.78H116.128C115.848 258.247 115.421 258.607 114.848 258.86C114.288 259.113 113.661 259.24 112.968 259.24ZM114.428 256.98C114.988 256.98 115.441 256.807 115.788 256.46C116.148 256.113 116.328 255.673 116.328 255.14V254.52L114.668 254.76C113.641 254.893 113.128 255.28 113.128 255.92C113.128 256.24 113.241 256.5 113.468 256.7C113.708 256.887 114.028 256.98 114.428 256.98ZM124.161 263.7C123.761 263.7 123.328 263.667 122.861 263.6C122.408 263.533 122.041 263.44 121.761 263.32V260.42C121.975 260.513 122.235 260.587 122.541 260.64C122.848 260.693 123.135 260.72 123.401 260.72C123.935 260.72 124.361 260.573 124.681 260.28C125.015 259.987 125.261 259.613 125.421 259.16L120.361 248.68H124.421L126.741 254.38H126.941L128.741 248.68H132.581L128.661 259.48C128.115 260.947 127.495 262.013 126.801 262.68C126.108 263.36 125.228 263.7 124.161 263.7ZM142.827 259.26C141.707 259.26 140.807 258.9 140.127 258.18C139.447 257.447 139.107 256.48 139.107 255.28V251.34H137.787V248.68H139.247L139.927 245.46H142.867V248.68H145.027V251.34H142.867V255.1C142.867 255.5 142.974 255.827 143.187 256.08C143.414 256.32 143.714 256.44 144.087 256.44C144.381 256.44 144.714 256.393 145.087 256.3V258.9C144.781 259.02 144.414 259.107 143.987 259.16C143.561 259.227 143.174 259.26 142.827 259.26ZM151.698 259.26C150.511 259.26 149.478 259.04 148.598 258.6C147.731 258.16 147.058 257.533 146.578 256.72C146.098 255.907 145.858 254.947 145.858 253.84C145.858 252.72 146.091 251.753 146.558 250.94C147.038 250.127 147.718 249.507 148.598 249.08C149.478 248.64 150.511 248.42 151.698 248.42C152.871 248.42 153.898 248.64 154.778 249.08C155.658 249.52 156.331 250.147 156.798 250.96C157.278 251.773 157.518 252.733 157.518 253.84C157.518 254.96 157.278 255.927 156.798 256.74C156.331 257.553 155.658 258.18 154.778 258.62C153.898 259.047 152.871 259.26 151.698 259.26ZM151.698 256.12C152.311 256.12 152.811 255.907 153.198 255.48C153.585 255.053 153.778 254.507 153.778 253.84C153.778 253.173 153.585 252.627 153.198 252.2C152.811 251.773 152.311 251.56 151.698 251.56C151.085 251.56 150.585 251.773 150.198 252.2C149.811 252.627 149.618 253.173 149.618 253.84C149.618 254.507 149.811 255.053 150.198 255.48C150.585 255.907 151.085 256.12 151.698 256.12ZM163.72 259V244.08H167.46V250.16H167.66C168.06 249.56 168.494 249.12 168.96 248.84C169.427 248.56 169.96 248.42 170.56 248.42C171.267 248.42 171.894 248.6 172.44 248.96C173 249.307 173.434 249.8 173.74 250.44C174.047 251.067 174.2 251.773 174.2 252.56V259H170.44V253.24C170.44 252.747 170.307 252.347 170.04 252.04C169.787 251.72 169.44 251.56 169 251.56C168.56 251.56 168.194 251.727 167.9 252.06C167.607 252.38 167.46 252.8 167.46 253.32V259H163.72ZM181.209 259.26C180.075 259.26 179.069 259.04 178.189 258.6C177.322 258.147 176.642 257.507 176.149 256.68C175.669 255.853 175.429 254.893 175.429 253.8C175.429 252.72 175.675 251.773 176.169 250.96C176.662 250.147 177.349 249.52 178.229 249.08C179.109 248.64 180.115 248.42 181.249 248.42C182.369 248.42 183.355 248.647 184.209 249.1C185.062 249.54 185.722 250.167 186.189 250.98C186.655 251.793 186.889 252.747 186.889 253.84C186.889 254.32 186.869 254.66 186.829 254.86H179.289C179.409 255.433 179.655 255.88 180.029 256.2C180.402 256.52 180.862 256.68 181.409 256.68C181.849 256.68 182.229 256.58 182.549 256.38C182.869 256.18 183.109 255.907 183.269 255.56L186.489 256.14C186.235 257.1 185.622 257.86 184.649 258.42C183.689 258.98 182.542 259.26 181.209 259.26ZM183.109 252.86C183.055 252.34 182.849 251.9 182.489 251.54C182.129 251.18 181.689 251 181.169 251C180.662 251 180.242 251.167 179.909 251.5C179.575 251.833 179.355 252.287 179.249 252.86H183.109ZM191.952 259H188.212V244.08H191.952V259ZM200.64 248.42C201.547 248.42 202.347 248.64 203.04 249.08C203.733 249.52 204.267 250.153 204.64 250.98C205.027 251.793 205.22 252.747 205.22 253.84C205.22 254.92 205.027 255.873 204.64 256.7C204.267 257.513 203.733 258.147 203.04 258.6C202.347 259.04 201.553 259.26 200.66 259.26C199.367 259.26 198.367 258.773 197.66 257.8H197.46V263.6H193.72V248.68H197.46V249.88H197.66C198.367 248.907 199.36 248.42 200.64 248.42ZM199.38 251.56C198.78 251.56 198.28 251.78 197.88 252.22C197.493 252.647 197.3 253.187 197.3 253.84C197.3 254.493 197.493 255.04 197.88 255.48C198.28 255.907 198.78 256.12 199.38 256.12C199.98 256.12 200.473 255.907 200.86 255.48C201.26 255.04 201.46 254.493 201.46 253.84C201.46 253.187 201.26 252.647 200.86 252.22C200.473 251.78 199.98 251.56 199.38 251.56ZM214.335 259.24C213.295 259.24 212.462 258.98 211.835 258.46C211.208 257.927 210.895 257.2 210.895 256.28C210.895 255.293 211.302 254.52 212.115 253.96C212.928 253.387 214.188 252.987 215.895 252.76L217.695 252.54V252.08C217.695 251.693 217.575 251.387 217.335 251.16C217.095 250.92 216.762 250.8 216.335 250.8C215.922 250.8 215.582 250.927 215.315 251.18C215.062 251.433 214.935 251.773 214.935 252.2H211.315C211.315 251.44 211.522 250.773 211.935 250.2C212.348 249.627 212.935 249.187 213.695 248.88C214.468 248.573 215.362 248.42 216.375 248.42C217.388 248.42 218.275 248.58 219.035 248.9C219.808 249.207 220.402 249.647 220.815 250.22C221.242 250.793 221.455 251.46 221.455 252.22V259H217.695V257.78H217.495C217.215 258.247 216.788 258.607 216.215 258.86C215.655 259.113 215.028 259.24 214.335 259.24ZM215.795 256.98C216.355 256.98 216.808 256.807 217.155 256.46C217.515 256.113 217.695 255.673 217.695 255.14V254.52L216.035 254.76C215.008 254.893 214.495 255.28 214.495 255.92C214.495 256.24 214.608 256.5 214.835 256.7C215.075 256.887 215.395 256.98 215.795 256.98ZM223.095 259V248.68H226.835V250.2H227.035C227.448 249.587 227.882 249.14 228.335 248.86C228.802 248.58 229.335 248.44 229.935 248.44C230.642 248.44 231.268 248.62 231.815 248.98C232.375 249.327 232.808 249.813 233.115 250.44C233.422 251.067 233.575 251.773 233.575 252.56V259H229.835V253.26C229.835 252.753 229.702 252.347 229.435 252.04C229.182 251.733 228.835 251.58 228.395 251.58C227.955 251.58 227.582 251.747 227.275 252.08C226.982 252.4 226.835 252.813 226.835 253.32V259H223.095ZM239.384 259.26C238.477 259.26 237.677 259.04 236.984 258.6C236.29 258.16 235.75 257.533 235.364 256.72C234.99 255.893 234.804 254.933 234.804 253.84C234.804 252.76 234.99 251.813 235.364 251C235.75 250.173 236.29 249.54 236.984 249.1C237.677 248.647 238.47 248.42 239.364 248.42C240.657 248.42 241.657 248.907 242.364 249.88H242.564V244.08H246.304V259H242.564V257.8H242.364C241.657 258.773 240.664 259.26 239.384 259.26ZM240.644 256.12C241.244 256.12 241.737 255.907 242.124 255.48C242.524 255.04 242.724 254.493 242.724 253.84C242.724 253.187 242.524 252.647 242.124 252.22C241.737 251.78 241.244 251.56 240.644 251.56C240.044 251.56 239.544 251.78 239.144 252.22C238.757 252.647 238.564 253.187 238.564 253.84C238.564 254.493 238.757 255.04 239.144 255.48C239.544 255.907 240.044 256.12 240.644 256.12ZM258.319 263.86C256.679 263.86 255.352 263.533 254.339 262.88C253.326 262.227 252.726 261.293 252.539 260.08L256.139 259.58C256.259 260.02 256.499 260.367 256.859 260.62C257.219 260.873 257.646 261 258.139 261C258.792 261 259.306 260.8 259.679 260.4C260.066 260 260.259 259.467 260.259 258.8V257.74H260.059C259.272 258.633 258.272 259.08 257.059 259.08C256.166 259.08 255.372 258.867 254.679 258.44C253.986 258.013 253.446 257.407 253.059 256.62C252.686 255.82 252.499 254.893 252.499 253.84C252.499 252.72 252.686 251.753 253.059 250.94C253.446 250.127 253.979 249.507 254.659 249.08C255.339 248.653 256.132 248.44 257.039 248.44C257.732 248.44 258.332 248.567 258.839 248.82C259.359 249.073 259.812 249.453 260.199 249.96H260.399V248.68H263.999V258.94C263.999 260.487 263.492 261.693 262.479 262.56C261.466 263.427 260.079 263.86 258.319 263.86ZM258.339 256.08C258.939 256.08 259.432 255.873 259.819 255.46C260.219 255.033 260.419 254.493 260.419 253.84C260.419 253.187 260.219 252.647 259.819 252.22C259.432 251.78 258.939 251.56 258.339 251.56C257.726 251.56 257.226 251.773 256.839 252.2C256.452 252.627 256.259 253.173 256.259 253.84C256.259 254.493 256.452 255.033 256.839 255.46C257.226 255.873 257.726 256.08 258.339 256.08ZM271.171 259.26C269.984 259.26 268.951 259.04 268.071 258.6C267.204 258.16 266.531 257.533 266.051 256.72C265.571 255.907 265.331 254.947 265.331 253.84C265.331 252.72 265.564 251.753 266.031 250.94C266.511 250.127 267.191 249.507 268.071 249.08C268.951 248.64 269.984 248.42 271.171 248.42C272.344 248.42 273.371 248.64 274.251 249.08C275.131 249.52 275.804 250.147 276.271 250.96C276.751 251.773 276.991 252.733 276.991 253.84C276.991 254.96 276.751 255.927 276.271 256.74C275.804 257.553 275.131 258.18 274.251 258.62C273.371 259.047 272.344 259.26 271.171 259.26ZM271.171 256.12C271.784 256.12 272.284 255.907 272.671 255.48C273.057 255.053 273.251 254.507 273.251 253.84C273.251 253.173 273.057 252.627 272.671 252.2C272.284 251.773 271.784 251.56 271.171 251.56C270.557 251.56 270.057 251.773 269.671 252.2C269.284 252.627 269.091 253.173 269.091 253.84C269.091 254.507 269.284 255.053 269.671 255.48C270.057 255.907 270.557 256.12 271.171 256.12ZM282.613 259.26C281.493 259.26 280.593 258.9 279.913 258.18C279.233 257.447 278.893 256.48 278.893 255.28V251.34H277.573V248.68H279.033L279.713 245.46H282.653V248.68H284.813V251.34H282.653V255.1C282.653 255.5 282.759 255.827 282.973 256.08C283.199 256.32 283.499 256.44 283.873 256.44C284.166 256.44 284.499 256.393 284.873 256.3V258.9C284.566 259.02 284.199 259.107 283.773 259.16C283.346 259.227 282.959 259.26 282.613 259.26ZM291.064 259V248.68H294.784V250.34H295.004C295.31 249.753 295.724 249.287 296.244 248.94C296.764 248.593 297.344 248.42 297.984 248.42C298.65 248.42 299.264 248.607 299.824 248.98C300.384 249.34 300.79 249.813 301.044 250.4H301.244C301.51 249.787 301.917 249.307 302.464 248.96C303.01 248.613 303.65 248.44 304.384 248.44C305.104 248.44 305.744 248.607 306.304 248.94C306.864 249.273 307.304 249.747 307.624 250.36C307.944 250.96 308.104 251.653 308.104 252.44V259H304.344V253.28C304.344 252.8 304.21 252.4 303.944 252.08C303.677 251.747 303.317 251.573 302.864 251.56C302.41 251.56 302.05 251.72 301.784 252.04C301.517 252.36 301.384 252.773 301.384 253.28V259H297.624V253.28C297.624 252.76 297.497 252.347 297.244 252.04C296.99 251.72 296.65 251.56 296.224 251.56C295.784 251.56 295.437 251.72 295.184 252.04C294.93 252.347 294.804 252.76 294.804 253.28V259H291.064ZM315.095 259.26C313.962 259.26 312.955 259.04 312.075 258.6C311.209 258.147 310.529 257.507 310.035 256.68C309.555 255.853 309.315 254.893 309.315 253.8C309.315 252.72 309.562 251.773 310.055 250.96C310.549 250.147 311.235 249.52 312.115 249.08C312.995 248.64 314.002 248.42 315.135 248.42C316.255 248.42 317.242 248.647 318.095 249.1C318.949 249.54 319.609 250.167 320.075 250.98C320.542 251.793 320.775 252.747 320.775 253.84C320.775 254.32 320.755 254.66 320.715 254.86H313.175C313.295 255.433 313.542 255.88 313.915 256.2C314.289 256.52 314.749 256.68 315.295 256.68C315.735 256.68 316.115 256.58 316.435 256.38C316.755 256.18 316.995 255.907 317.155 255.56L320.375 256.14C320.122 257.1 319.509 257.86 318.535 258.42C317.575 258.98 316.429 259.26 315.095 259.26ZM316.995 252.86C316.942 252.34 316.735 251.9 316.375 251.54C316.015 251.18 315.575 251 315.055 251C314.549 251 314.129 251.167 313.795 251.5C313.462 251.833 313.242 252.287 313.135 252.86H316.995ZM329.882 259.24C328.842 259.24 328.009 258.98 327.382 258.46C326.755 257.927 326.442 257.2 326.442 256.28C326.442 255.293 326.849 254.52 327.662 253.96C328.475 253.387 329.735 252.987 331.442 252.76L333.242 252.54V252.08C333.242 251.693 333.122 251.387 332.882 251.16C332.642 250.92 332.309 250.8 331.882 250.8C331.469 250.8 331.129 250.927 330.862 251.18C330.609 251.433 330.482 251.773 330.482 252.2H326.862C326.862 251.44 327.069 250.773 327.482 250.2C327.895 249.627 328.482 249.187 329.242 248.88C330.015 248.573 330.909 248.42 331.922 248.42C332.935 248.42 333.822 248.58 334.582 248.9C335.355 249.207 335.949 249.647 336.362 250.22C336.789 250.793 337.002 251.46 337.002 252.22V259H333.242V257.78H333.042C332.762 258.247 332.335 258.607 331.762 258.86C331.202 259.113 330.575 259.24 329.882 259.24ZM331.342 256.98C331.902 256.98 332.355 256.807 332.702 256.46C333.062 256.113 333.242 255.673 333.242 255.14V254.52L331.582 254.76C330.555 254.893 330.042 255.28 330.042 255.92C330.042 256.24 330.155 256.5 330.382 256.7C330.622 256.887 330.942 256.98 331.342 256.98ZM38.28 287.86C36.64 287.86 35.3133 287.533 34.3 286.88C33.2867 286.227 32.6867 285.293 32.5 284.08L36.1 283.58C36.22 284.02 36.46 284.367 36.82 284.62C37.18 284.873 37.6067 285 38.1 285C38.7533 285 39.2667 284.8 39.64 284.4C40.0267 284 40.22 283.467 40.22 282.8V281.74H40.02C39.2333 282.633 38.2333 283.08 37.02 283.08C36.1267 283.08 35.3333 282.867 34.64 282.44C33.9467 282.013 33.4067 281.407 33.02 280.62C32.6467 279.82 32.46 278.893 32.46 277.84C32.46 276.72 32.6467 275.753 33.02 274.94C33.4067 274.127 33.94 273.507 34.62 273.08C35.3 272.653 36.0933 272.44 37 272.44C37.6933 272.44 38.2933 272.567 38.8 272.82C39.32 273.073 39.7733 273.453 40.16 273.96H40.36V272.68H43.96V282.94C43.96 284.487 43.4533 285.693 42.44 286.56C41.4267 287.427 40.04 287.86 38.28 287.86ZM38.3 280.08C38.9 280.08 39.3933 279.873 39.78 279.46C40.18 279.033 40.38 278.493 40.38 277.84C40.38 277.187 40.18 276.647 39.78 276.22C39.3933 275.78 38.9 275.56 38.3 275.56C37.6867 275.56 37.1867 275.773 36.8 276.2C36.4133 276.627 36.22 277.173 36.22 277.84C36.22 278.493 36.4133 279.033 36.8 279.46C37.1867 279.873 37.6867 280.08 38.3 280.08ZM45.7316 283V272.68H49.4516V274.14H49.6716C49.8982 273.633 50.2249 273.233 50.6516 272.94C51.0782 272.633 51.5516 272.48 52.0716 272.48C52.4849 272.48 52.8649 272.567 53.2116 272.74V276.06C52.9182 275.927 52.6049 275.827 52.2716 275.76C51.9382 275.68 51.6516 275.64 51.4116 275.64C50.8382 275.64 50.3716 275.847 50.0116 276.26C49.6516 276.673 49.4716 277.213 49.4716 277.88V283H45.7316ZM59.6658 283.26C58.5324 283.26 57.5258 283.04 56.6458 282.6C55.7791 282.147 55.0991 281.507 54.6058 280.68C54.1258 279.853 53.8858 278.893 53.8858 277.8C53.8858 276.72 54.1324 275.773 54.6258 274.96C55.1191 274.147 55.8058 273.52 56.6858 273.08C57.5658 272.64 58.5724 272.42 59.7058 272.42C60.8258 272.42 61.8124 272.647 62.6658 273.1C63.5191 273.54 64.1791 274.167 64.6458 274.98C65.1124 275.793 65.3458 276.747 65.3458 277.84C65.3458 278.32 65.3258 278.66 65.2858 278.86H57.7458C57.8658 279.433 58.1124 279.88 58.4858 280.2C58.8591 280.52 59.3191 280.68 59.8658 280.68C60.3058 280.68 60.6858 280.58 61.0058 280.38C61.3258 280.18 61.5658 279.907 61.7258 279.56L64.9458 280.14C64.6924 281.1 64.0791 281.86 63.1058 282.42C62.1458 282.98 60.9991 283.26 59.6658 283.26ZM61.5658 276.86C61.5124 276.34 61.3058 275.9 60.9458 275.54C60.5858 275.18 60.1458 275 59.6258 275C59.1191 275 58.6991 275.167 58.3658 275.5C58.0324 275.833 57.8124 276.287 57.7058 276.86H61.5658ZM69.5891 283.24C68.5491 283.24 67.7157 282.98 67.0891 282.46C66.4624 281.927 66.1491 281.2 66.1491 280.28C66.1491 279.293 66.5557 278.52 67.3691 277.96C68.1824 277.387 69.4424 276.987 71.1491 276.76L72.9491 276.54V276.08C72.9491 275.693 72.8291 275.387 72.5891 275.16C72.3491 274.92 72.0157 274.8 71.5891 274.8C71.1757 274.8 70.8357 274.927 70.5691 275.18C70.3157 275.433 70.1891 275.773 70.1891 276.2H66.5691C66.5691 275.44 66.7757 274.773 67.1891 274.2C67.6024 273.627 68.1891 273.187 68.9491 272.88C69.7224 272.573 70.6157 272.42 71.6291 272.42C72.6424 272.42 73.5291 272.58 74.2891 272.9C75.0624 273.207 75.6557 273.647 76.0691 274.22C76.4957 274.793 76.7091 275.46 76.7091 276.22V283H72.9491V281.78H72.7491C72.4691 282.247 72.0424 282.607 71.4691 282.86C70.9091 283.113 70.2824 283.24 69.5891 283.24ZM71.0491 280.98C71.6091 280.98 72.0624 280.807 72.4091 280.46C72.7691 280.113 72.9491 279.673 72.9491 279.14V278.52L71.2891 278.76C70.2624 278.893 69.7491 279.28 69.7491 279.92C69.7491 280.24 69.8624 280.5 70.0891 280.7C70.3291 280.887 70.6491 280.98 71.0491 280.98ZM82.7688 283.26C81.6488 283.26 80.7488 282.9 80.0688 282.18C79.3888 281.447 79.0488 280.48 79.0488 279.28V275.34H77.7288V272.68H79.1888L79.8688 269.46H82.8088V272.68H84.9688V275.34H82.8088V279.1C82.8088 279.5 82.9154 279.827 83.1288 280.08C83.3554 280.32 83.6554 280.44 84.0288 280.44C84.3221 280.44 84.6554 280.393 85.0288 280.3V282.9C84.7221 283.02 84.3554 283.107 83.9288 283.16C83.5021 283.227 83.1154 283.26 82.7688 283.26ZM91.2198 283V272.68H94.9398V274.14H95.1598C95.3865 273.633 95.7132 273.233 96.1398 272.94C96.5665 272.633 97.0398 272.48 97.5598 272.48C97.9732 272.48 98.3532 272.567 98.6998 272.74V276.06C98.4065 275.927 98.0932 275.827 97.7598 275.76C97.4265 275.68 97.1398 275.64 96.8998 275.64C96.3265 275.64 95.8598 275.847 95.4998 276.26C95.1398 276.673 94.9598 277.213 94.9598 277.88V283H91.2198ZM102.636 283.24C101.596 283.24 100.763 282.98 100.136 282.46C99.5093 281.927 99.1959 281.2 99.1959 280.28C99.1959 279.293 99.6026 278.52 100.416 277.96C101.229 277.387 102.489 276.987 104.196 276.76L105.996 276.54V276.08C105.996 275.693 105.876 275.387 105.636 275.16C105.396 274.92 105.063 274.8 104.636 274.8C104.223 274.8 103.883 274.927 103.616 275.18C103.363 275.433 103.236 275.773 103.236 276.2H99.6159C99.6159 275.44 99.8226 274.773 100.236 274.2C100.649 273.627 101.236 273.187 101.996 272.88C102.769 272.573 103.663 272.42 104.676 272.42C105.689 272.42 106.576 272.58 107.336 272.9C108.109 273.207 108.703 273.647 109.116 274.22C109.543 274.793 109.756 275.46 109.756 276.22V283H105.996V281.78H105.796C105.516 282.247 105.089 282.607 104.516 282.86C103.956 283.113 103.329 283.24 102.636 283.24ZM104.096 280.98C104.656 280.98 105.109 280.807 105.456 280.46C105.816 280.113 105.996 279.673 105.996 279.14V278.52L104.336 278.76C103.309 278.893 102.796 279.28 102.796 279.92C102.796 280.24 102.909 280.5 103.136 280.7C103.376 280.887 103.696 280.98 104.096 280.98ZM115.816 283.26C114.696 283.26 113.796 282.9 113.116 282.18C112.436 281.447 112.096 280.48 112.096 279.28V275.34H110.776V272.68H112.236L112.916 269.46H115.856V272.68H118.016V275.34H115.856V279.1C115.856 279.5 115.962 279.827 116.176 280.08C116.402 280.32 116.702 280.44 117.076 280.44C117.369 280.44 117.702 280.393 118.076 280.3V282.9C117.769 283.02 117.402 283.107 116.976 283.16C116.549 283.227 116.162 283.26 115.816 283.26ZM124.646 283.26C123.513 283.26 122.506 283.04 121.626 282.6C120.76 282.147 120.08 281.507 119.586 280.68C119.106 279.853 118.866 278.893 118.866 277.8C118.866 276.72 119.113 275.773 119.606 274.96C120.1 274.147 120.786 273.52 121.666 273.08C122.546 272.64 123.553 272.42 124.686 272.42C125.806 272.42 126.793 272.647 127.646 273.1C128.5 273.54 129.16 274.167 129.626 274.98C130.093 275.793 130.326 276.747 130.326 277.84C130.326 278.32 130.306 278.66 130.266 278.86H122.726C122.846 279.433 123.093 279.88 123.466 280.2C123.84 280.52 124.3 280.68 124.846 280.68C125.286 280.68 125.666 280.58 125.986 280.38C126.306 280.18 126.546 279.907 126.706 279.56L129.926 280.14C129.673 281.1 129.06 281.86 128.086 282.42C127.126 282.98 125.98 283.26 124.646 283.26ZM126.546 276.86C126.493 276.34 126.286 275.9 125.926 275.54C125.566 275.18 125.126 275 124.606 275C124.1 275 123.68 275.167 123.346 275.5C123.013 275.833 122.793 276.287 122.686 276.86H126.546ZM141.913 283.26C140.726 283.26 139.693 283.04 138.813 282.6C137.946 282.16 137.273 281.533 136.793 280.72C136.313 279.907 136.073 278.947 136.073 277.84C136.073 276.72 136.306 275.753 136.773 274.94C137.253 274.127 137.933 273.507 138.813 273.08C139.693 272.64 140.726 272.42 141.913 272.42C143.086 272.42 144.113 272.64 144.993 273.08C145.873 273.52 146.546 274.147 147.013 274.96C147.493 275.773 147.733 276.733 147.733 277.84C147.733 278.96 147.493 279.927 147.013 280.74C146.546 281.553 145.873 282.18 144.993 282.62C144.113 283.047 143.086 283.26 141.913 283.26ZM141.913 280.12C142.526 280.12 143.026 279.907 143.413 279.48C143.799 279.053 143.993 278.507 143.993 277.84C143.993 277.173 143.799 276.627 143.413 276.2C143.026 275.773 142.526 275.56 141.913 275.56C141.299 275.56 140.799 275.773 140.413 276.2C140.026 276.627 139.833 277.173 139.833 277.84C139.833 278.507 140.026 279.053 140.413 279.48C140.799 279.907 141.299 280.12 141.913 280.12ZM149.052 283V272.68H152.792V274.2H152.992C153.405 273.587 153.839 273.14 154.292 272.86C154.759 272.58 155.292 272.44 155.892 272.44C156.599 272.44 157.225 272.62 157.772 272.98C158.332 273.327 158.765 273.813 159.072 274.44C159.379 275.067 159.532 275.773 159.532 276.56V283H155.792V277.26C155.792 276.753 155.659 276.347 155.392 276.04C155.139 275.733 154.792 275.58 154.352 275.58C153.912 275.58 153.539 275.747 153.232 276.08C152.939 276.4 152.792 276.813 152.792 277.32V283H149.052ZM166.044 283V272.68H169.764V274.34H169.984C170.291 273.753 170.704 273.287 171.224 272.94C171.744 272.593 172.324 272.42 172.964 272.42C173.631 272.42 174.244 272.607 174.804 272.98C175.364 273.34 175.771 273.813 176.024 274.4H176.224C176.491 273.787 176.897 273.307 177.444 272.96C177.991 272.613 178.631 272.44 179.364 272.44C180.084 272.44 180.724 272.607 181.284 272.94C181.844 273.273 182.284 273.747 182.604 274.36C182.924 274.96 183.084 275.653 183.084 276.44V283H179.324V277.28C179.324 276.8 179.191 276.4 178.924 276.08C178.657 275.747 178.297 275.573 177.844 275.56C177.391 275.56 177.031 275.72 176.764 276.04C176.497 276.36 176.364 276.773 176.364 277.28V283H172.604V277.28C172.604 276.76 172.477 276.347 172.224 276.04C171.971 275.72 171.631 275.56 171.204 275.56C170.764 275.56 170.417 275.72 170.164 276.04C169.911 276.347 169.784 276.76 169.784 277.28V283H166.044ZM187.15 287.7C186.75 287.7 186.316 287.667 185.85 287.6C185.396 287.533 185.03 287.44 184.75 287.32V284.42C184.963 284.513 185.223 284.587 185.53 284.64C185.836 284.693 186.123 284.72 186.39 284.72C186.923 284.72 187.35 284.573 187.67 284.28C188.003 283.987 188.25 283.613 188.41 283.16L183.35 272.68H187.41L189.73 278.38H189.93L191.73 272.68H195.57L191.65 283.48C191.103 284.947 190.483 286.013 189.79 286.68C189.096 287.36 188.216 287.7 187.15 287.7ZM205.136 283H201.396V268.08H205.136V283ZM212.303 283.26C211.117 283.26 210.083 283.04 209.203 282.6C208.337 282.16 207.663 281.533 207.183 280.72C206.703 279.907 206.463 278.947 206.463 277.84C206.463 276.72 206.697 275.753 207.163 274.94C207.643 274.127 208.323 273.507 209.203 273.08C210.083 272.64 211.117 272.42 212.303 272.42C213.477 272.42 214.503 272.64 215.383 273.08C216.263 273.52 216.937 274.147 217.403 274.96C217.883 275.773 218.123 276.733 218.123 277.84C218.123 278.96 217.883 279.927 217.403 280.74C216.937 281.553 216.263 282.18 215.383 282.62C214.503 283.047 213.477 283.26 212.303 283.26ZM212.303 280.12C212.917 280.12 213.417 279.907 213.803 279.48C214.19 279.053 214.383 278.507 214.383 277.84C214.383 277.173 214.19 276.627 213.803 276.2C213.417 275.773 212.917 275.56 212.303 275.56C211.69 275.56 211.19 275.773 210.803 276.2C210.417 276.627 210.223 277.173 210.223 277.84C210.223 278.507 210.417 279.053 210.803 279.48C211.19 279.907 211.69 280.12 212.303 280.12ZM222.363 283.24C221.323 283.24 220.489 282.98 219.863 282.46C219.236 281.927 218.923 281.2 218.923 280.28C218.923 279.293 219.329 278.52 220.143 277.96C220.956 277.387 222.216 276.987 223.923 276.76L225.723 276.54V276.08C225.723 275.693 225.603 275.387 225.363 275.16C225.123 274.92 224.789 274.8 224.363 274.8C223.949 274.8 223.609 274.927 223.343 275.18C223.089 275.433 222.963 275.773 222.963 276.2H219.343C219.343 275.44 219.549 274.773 219.963 274.2C220.376 273.627 220.963 273.187 221.723 272.88C222.496 272.573 223.389 272.42 224.403 272.42C225.416 272.42 226.303 272.58 227.063 272.9C227.836 273.207 228.429 273.647 228.842 274.22C229.269 274.793 229.483 275.46 229.483 276.22V283H225.723V281.78H225.523C225.243 282.247 224.816 282.607 224.243 282.86C223.683 283.113 223.056 283.24 222.363 283.24ZM223.823 280.98C224.383 280.98 224.836 280.807 225.183 280.46C225.543 280.113 225.723 279.673 225.723 279.14V278.52L224.063 278.76C223.036 278.893 222.523 279.28 222.523 279.92C222.523 280.24 222.636 280.5 222.863 280.7C223.103 280.887 223.423 280.98 223.823 280.98ZM231.122 283V272.68H234.862V274.2H235.062C235.476 273.587 235.909 273.14 236.362 272.86C236.829 272.58 237.362 272.44 237.962 272.44C238.669 272.44 239.296 272.62 239.842 272.98C240.402 273.327 240.836 273.813 241.142 274.44C241.449 275.067 241.602 275.773 241.602 276.56V283H237.862V277.26C237.862 276.753 237.729 276.347 237.462 276.04C237.209 275.733 236.862 275.58 236.422 275.58C235.982 275.58 235.609 275.747 235.302 276.08C235.009 276.4 234.862 276.813 234.862 277.32V283H231.122ZM244.911 283.22C244.298 283.22 243.791 283.033 243.391 282.66C243.004 282.273 242.811 281.787 242.811 281.2C242.811 280.613 243.004 280.133 243.391 279.76C243.791 279.373 244.298 279.18 244.911 279.18C245.524 279.18 246.024 279.373 246.411 279.76C246.811 280.133 247.011 280.613 247.011 281.2C247.011 281.787 246.811 282.273 246.411 282.66C246.024 283.033 245.524 283.22 244.911 283.22Z" fill="white"></path><path d="M40.1932 330C40.0838 329.665 39.9396 329.365 39.7607 329.1C39.585 328.832 39.3745 328.603 39.1293 328.414C38.8873 328.225 38.6122 328.081 38.304 327.982C37.9957 327.882 37.6577 327.832 37.2898 327.832C36.6866 327.832 36.138 327.988 35.6442 328.3C35.1503 328.611 34.7576 329.07 34.4659 329.677C34.1742 330.283 34.0284 331.027 34.0284 331.909C34.0284 332.791 34.1759 333.535 34.4709 334.141C34.7659 334.748 35.1652 335.207 35.669 335.518C36.1728 335.83 36.7396 335.986 37.3693 335.986C37.9527 335.986 38.4664 335.862 38.9105 335.613C39.358 335.361 39.706 335.006 39.9545 334.549C40.2064 334.088 40.3324 333.546 40.3324 332.923L40.7102 333.003H37.6477V331.909H41.5256V333.003C41.5256 333.841 41.3466 334.571 40.9886 335.19C40.634 335.81 40.1435 336.291 39.517 336.632C38.8939 336.97 38.178 337.139 37.3693 337.139C36.4678 337.139 35.6757 336.927 34.9929 336.503C34.3134 336.079 33.7831 335.475 33.402 334.693C33.0241 333.911 32.8352 332.983 32.8352 331.909C32.8352 331.104 32.9429 330.379 33.1584 329.737C33.3771 329.09 33.6854 328.54 34.0831 328.086C34.4808 327.632 34.9515 327.284 35.495 327.042C36.0386 326.8 36.6368 326.679 37.2898 326.679C37.8267 326.679 38.3272 326.76 38.7912 326.923C39.2585 327.082 39.6745 327.309 40.0391 327.604C40.407 327.895 40.7135 328.245 40.9588 328.653C41.2041 329.057 41.3731 329.506 41.4659 330H40.1932ZM43.4782 337V329.364H44.6117V330.517H44.6912C44.8304 330.139 45.0823 329.833 45.4469 329.597C45.8115 329.362 46.2225 329.244 46.6799 329.244C46.766 329.244 46.8738 329.246 47.003 329.249C47.1323 329.253 47.2301 329.258 47.2963 329.264V330.457C47.2566 330.447 47.1654 330.433 47.0229 330.413C46.8837 330.389 46.7362 330.378 46.5804 330.378C46.2092 330.378 45.8778 330.456 45.5861 330.612C45.2978 330.764 45.0691 330.976 44.9 331.248C44.7343 331.516 44.6515 331.823 44.6515 332.168V337H43.4782ZM51.6564 337.159C50.9206 337.159 50.2859 336.997 49.7523 336.672C49.222 336.344 48.8127 335.886 48.5243 335.3C48.2393 334.71 48.0968 334.024 48.0968 333.241C48.0968 332.459 48.2393 331.77 48.5243 331.173C48.8127 330.573 49.2137 330.106 49.7275 329.771C50.2445 329.433 50.8477 329.264 51.5371 329.264C51.9348 329.264 52.3276 329.33 52.7154 329.463C53.1032 329.596 53.4561 329.811 53.7743 330.109C54.0925 330.404 54.3461 330.795 54.535 331.283C54.7239 331.77 54.8184 332.37 54.8184 333.082V333.58H48.932V332.565H53.6252C53.6252 332.134 53.539 331.75 53.3667 331.412C53.1976 331.074 52.9557 330.807 52.6408 330.612C52.3292 330.416 51.9614 330.318 51.5371 330.318C51.0698 330.318 50.6654 330.434 50.324 330.666C49.986 330.895 49.7258 331.193 49.5435 331.561C49.3612 331.929 49.2701 332.323 49.2701 332.744V333.42C49.2701 333.997 49.3695 334.486 49.5684 334.887C49.7705 335.285 50.0506 335.588 50.4086 335.797C50.7665 336.002 51.1825 336.105 51.6564 336.105C51.9647 336.105 52.2431 336.062 52.4917 335.976C52.7435 335.886 52.9606 335.754 53.1429 335.578C53.3252 335.399 53.4661 335.177 53.5655 334.912L54.699 335.23C54.5797 335.615 54.3792 335.953 54.0975 336.244C53.8158 336.533 53.4677 336.758 53.0534 336.92C52.6391 337.08 52.1735 337.159 51.6564 337.159ZM59.6855 340.023C59.1188 340.023 58.6316 339.95 58.2239 339.804C57.8162 339.661 57.4765 339.473 57.2047 339.237C56.9363 339.005 56.7225 338.757 56.5634 338.491L57.498 337.835C57.6041 337.974 57.7383 338.134 57.9007 338.312C58.0632 338.495 58.2852 338.652 58.5669 338.785C58.852 338.921 59.2248 338.989 59.6855 338.989C60.302 338.989 60.8108 338.839 61.2118 338.541C61.6129 338.243 61.8134 337.776 61.8134 337.139V335.588H61.714C61.6278 335.727 61.5051 335.9 61.3461 336.105C61.1903 336.307 60.9649 336.488 60.6699 336.647C60.3783 336.803 59.9838 336.881 59.4867 336.881C58.8702 336.881 58.3167 336.735 57.8262 336.443C57.339 336.152 56.9528 335.727 56.6678 335.17C56.3861 334.614 56.2452 333.937 56.2452 333.142C56.2452 332.36 56.3828 331.679 56.6578 331.099C56.9329 330.515 57.3158 330.065 57.8063 329.746C58.2968 329.425 58.8636 329.264 59.5066 329.264C60.0037 329.264 60.3981 329.347 60.6898 329.513C60.9848 329.675 61.2102 329.861 61.3659 330.07C61.525 330.275 61.6477 330.444 61.7338 330.577H61.8532V329.364H62.9867V337.219C62.9867 337.875 62.8375 338.409 62.5392 338.82C62.2443 339.234 61.8465 339.537 61.3461 339.729C60.8489 339.925 60.2954 340.023 59.6855 340.023ZM59.6458 335.827C60.1164 335.827 60.5141 335.719 60.839 335.504C61.1638 335.288 61.4107 334.978 61.5797 334.574C61.7488 334.17 61.8333 333.686 61.8333 333.122C61.8333 332.572 61.7504 332.086 61.5847 331.665C61.419 331.245 61.1737 330.915 60.8489 330.676C60.5241 330.437 60.123 330.318 59.6458 330.318C59.1486 330.318 58.7343 330.444 58.4029 330.696C58.0748 330.948 57.8278 331.286 57.6621 331.71C57.4997 332.134 57.4185 332.605 57.4185 333.122C57.4185 333.652 57.5014 334.121 57.6671 334.529C57.8361 334.933 58.0847 335.252 58.4128 335.484C58.7443 335.712 59.1552 335.827 59.6458 335.827ZM78.1662 326.818L81.1889 335.389H81.3082L84.331 326.818H85.6236L81.8849 337H80.6122L76.8736 326.818H78.1662ZM87.0504 337V329.364H88.2237V337H87.0504ZM87.647 328.091C87.4183 328.091 87.2211 328.013 87.0554 327.857C86.893 327.701 86.8118 327.514 86.8118 327.295C86.8118 327.077 86.893 326.889 87.0554 326.734C87.2211 326.578 87.4183 326.5 87.647 326.5C87.8757 326.5 88.0713 326.578 88.2337 326.734C88.3994 326.889 88.4822 327.077 88.4822 327.295C88.4822 327.514 88.3994 327.701 88.2337 327.857C88.0713 328.013 87.8757 328.091 87.647 328.091ZM90.3727 337V329.364H91.5062V330.517H91.5858C91.725 330.139 91.9769 329.833 92.3414 329.597C92.706 329.362 93.117 329.244 93.5744 329.244C93.6606 329.244 93.7683 329.246 93.8975 329.249C94.0268 329.253 94.1246 329.258 94.1909 329.264V330.457C94.1511 330.447 94.06 330.433 93.9174 330.413C93.7782 330.389 93.6307 330.378 93.475 330.378C93.1038 330.378 92.7723 330.456 92.4806 330.612C92.1923 330.764 91.9636 330.976 91.7946 331.248C91.6288 331.516 91.546 331.823 91.546 332.168V337H90.3727ZM98.4316 340.023C97.8649 340.023 97.3777 339.95 96.97 339.804C96.5623 339.661 96.2226 339.473 95.9508 339.237C95.6824 339.005 95.4686 338.757 95.3095 338.491L96.2441 337.835C96.3502 337.974 96.4844 338.134 96.6468 338.312C96.8092 338.495 97.0313 338.652 97.313 338.785C97.5981 338.921 97.9709 338.989 98.4316 338.989C99.0481 338.989 99.5569 338.839 99.9579 338.541C100.359 338.243 100.559 337.776 100.559 337.139V335.588H100.46C100.374 335.727 100.251 335.9 100.092 336.105C99.9364 336.307 99.711 336.488 99.416 336.647C99.1243 336.803 98.7299 336.881 98.2328 336.881C97.6163 336.881 97.0628 336.735 96.5723 336.443C96.085 336.152 95.6989 335.727 95.4139 335.17C95.1322 334.614 94.9913 333.937 94.9913 333.142C94.9913 332.36 95.1288 331.679 95.4039 331.099C95.679 330.515 96.0618 330.065 96.5524 329.746C97.0429 329.425 97.6097 329.264 98.2527 329.264C98.7498 329.264 99.1442 329.347 99.4359 329.513C99.7309 329.675 99.9563 329.861 100.112 330.07C100.271 330.275 100.394 330.444 100.48 330.577H100.599V329.364H101.733V337.219C101.733 337.875 101.584 338.409 101.285 338.82C100.99 339.234 100.593 339.537 100.092 339.729C99.595 339.925 99.0415 340.023 98.4316 340.023ZM98.3919 335.827C98.8625 335.827 99.2602 335.719 99.585 335.504C99.9099 335.288 100.157 334.978 100.326 334.574C100.495 334.17 100.579 333.686 100.579 333.122C100.579 332.572 100.497 332.086 100.331 331.665C100.165 331.245 99.9198 330.915 99.595 330.676C99.2702 330.437 98.8691 330.318 98.3919 330.318C97.8947 330.318 97.4804 330.444 97.149 330.696C96.8208 330.948 96.5739 331.286 96.4082 331.71C96.2458 332.134 96.1646 332.605 96.1646 333.122C96.1646 333.652 96.2475 334.121 96.4132 334.529C96.5822 334.933 96.8308 335.252 97.1589 335.484C97.4904 335.712 97.9013 335.827 98.3919 335.827ZM103.881 337V329.364H105.054V337H103.881ZM104.477 328.091C104.248 328.091 104.051 328.013 103.885 327.857C103.723 327.701 103.642 327.514 103.642 327.295C103.642 327.077 103.723 326.889 103.885 326.734C104.051 326.578 104.248 326.5 104.477 326.5C104.706 326.5 104.901 326.578 105.064 326.734C105.229 326.889 105.312 327.077 105.312 327.295C105.312 327.514 105.229 327.701 105.064 327.857C104.901 328.013 104.706 328.091 104.477 328.091ZM108.376 332.406V337H107.203V329.364H108.336V330.557H108.436C108.615 330.169 108.886 329.857 109.251 329.622C109.616 329.384 110.086 329.264 110.663 329.264C111.18 329.264 111.632 329.37 112.02 329.582C112.408 329.791 112.71 330.109 112.925 330.537C113.141 330.961 113.248 331.498 113.248 332.148V337H112.075V332.227C112.075 331.627 111.919 331.16 111.608 330.825C111.296 330.487 110.868 330.318 110.325 330.318C109.95 330.318 109.616 330.399 109.321 330.562C109.029 330.724 108.799 330.961 108.63 331.273C108.461 331.584 108.376 331.962 108.376 332.406ZM115.392 337V329.364H116.566V337H115.392ZM115.989 328.091C115.76 328.091 115.563 328.013 115.397 327.857C115.235 327.701 115.154 327.514 115.154 327.295C115.154 327.077 115.235 326.889 115.397 326.734C115.563 326.578 115.76 326.5 115.989 326.5C116.218 326.5 116.413 326.578 116.575 326.734C116.741 326.889 116.824 327.077 116.824 327.295C116.824 327.514 116.741 327.701 116.575 327.857C116.413 328.013 116.218 328.091 115.989 328.091ZM120.962 337.179C120.478 337.179 120.039 337.088 119.644 336.906C119.25 336.72 118.937 336.453 118.705 336.105C118.473 335.754 118.357 335.33 118.357 334.832C118.357 334.395 118.443 334.04 118.615 333.768C118.787 333.493 119.018 333.278 119.306 333.122C119.594 332.966 119.913 332.85 120.261 332.774C120.612 332.695 120.965 332.632 121.32 332.585C121.784 332.526 122.16 332.481 122.448 332.451C122.74 332.418 122.952 332.363 123.085 332.287C123.22 332.211 123.288 332.078 123.288 331.889V331.849C123.288 331.359 123.154 330.978 122.886 330.706C122.621 330.434 122.218 330.298 121.678 330.298C121.117 330.298 120.678 330.421 120.36 330.666C120.042 330.911 119.818 331.173 119.689 331.452L118.575 331.054C118.774 330.59 119.039 330.229 119.371 329.97C119.705 329.708 120.07 329.526 120.464 329.423C120.862 329.317 121.253 329.264 121.638 329.264C121.883 329.264 122.165 329.294 122.483 329.354C122.804 329.41 123.114 329.528 123.413 329.707C123.714 329.886 123.964 330.156 124.163 330.517C124.362 330.878 124.462 331.362 124.462 331.969V337H123.288V335.966H123.229C123.149 336.132 123.017 336.309 122.831 336.498C122.645 336.687 122.398 336.848 122.09 336.98C121.782 337.113 121.406 337.179 120.962 337.179ZM121.141 336.125C121.605 336.125 121.996 336.034 122.314 335.852C122.635 335.669 122.877 335.434 123.04 335.146C123.205 334.857 123.288 334.554 123.288 334.236V333.162C123.239 333.222 123.129 333.276 122.96 333.326C122.795 333.372 122.602 333.414 122.384 333.45C122.168 333.483 121.958 333.513 121.752 333.54C121.55 333.563 121.386 333.583 121.26 333.599C120.955 333.639 120.67 333.704 120.405 333.793C120.143 333.879 119.931 334.01 119.768 334.186C119.609 334.358 119.53 334.594 119.53 334.892C119.53 335.3 119.681 335.608 119.982 335.817C120.287 336.022 120.673 336.125 121.141 336.125Z" fill="white"></path><path d="M70.7821 323.537V340.281H69.7878V323.537H70.7821Z" fill="#DEDEDE"></path></svg> 