<?xml version="1.0" encoding="UTF-8"?> <svg xmlns="http://www.w3.org/2000/svg" width="382" height="376" viewBox="0 0 382 376" fill="none"><rect width="382" height="376" rx="20" fill="#136F65"></rect><g clip-path="url(#clip0_2549_4178)"><path d="M44.3239 32L50.2932 34.3542L44.3239 48.3815C46.6988 48.8392 48.5923 49.951 50.0044 51.7166C51.4807 53.4823 52.2188 55.6076 52.2188 58.0926C52.2188 60.97 51.256 63.3569 49.3304 65.2534C47.4048 67.0845 44.9978 68 42.1094 68C39.1568 68 36.7177 67.0845 34.7921 65.2534C32.9307 63.3569 32 60.97 32 58.0926C32 55.673 32.8344 52.9264 34.5033 49.8529L44.3239 32ZM68.0088 32L74.0744 34.3542L68.105 48.3815C70.4799 48.8392 72.3735 49.951 73.7856 51.7166C75.2619 53.4823 76 55.6076 76 58.0926C76 60.97 75.0372 63.3569 73.1116 65.2534C71.186 67.0845 68.779 68 65.8906 68C62.938 68 60.4989 67.0845 58.5733 65.2534C56.7119 63.3569 55.7812 60.97 55.7812 58.0926C55.7812 55.673 56.6156 52.9264 58.2845 49.8529L68.0088 32Z" fill="#9FF17B"></path></g><path d="M36.54 196H32.2L36.7 181.68H42.9L47.38 196H43.04L42.36 193.82H37.22L36.54 196ZM39.7 185.26L38.06 190.82H41.54L39.9 185.26H39.7ZM52.852 196.34C51.3054 196.34 50.0787 196.007 49.172 195.34C48.2654 194.673 47.812 193.76 47.812 192.6H50.992C50.992 193.04 51.1654 193.393 51.512 193.66C51.872 193.927 52.3454 194.06 52.932 194.06C53.372 194.06 53.732 193.973 54.012 193.8C54.292 193.613 54.432 193.367 54.432 193.06C54.432 192.727 54.272 192.5 53.952 192.38C53.632 192.26 53.1387 192.167 52.472 192.1C51.5254 192.007 50.752 191.893 50.152 191.76C49.5654 191.627 49.0387 191.34 48.572 190.9C48.1054 190.447 47.872 189.78 47.872 188.9C47.872 187.82 48.312 186.96 49.192 186.32C50.0854 185.68 51.272 185.36 52.752 185.36C53.6987 185.36 54.552 185.507 55.312 185.8C56.072 186.08 56.6654 186.48 57.092 187C57.5187 187.52 57.732 188.127 57.732 188.82H54.412C54.3987 188.46 54.2387 188.173 53.932 187.96C53.6254 187.733 53.232 187.62 52.752 187.62C52.3254 187.62 51.9787 187.707 51.712 187.88C51.4454 188.053 51.312 188.28 51.312 188.56C51.312 188.867 51.4787 189.08 51.812 189.2C52.1587 189.307 52.7187 189.407 53.492 189.5C53.5854 189.5 53.7254 189.513 53.912 189.54C55.1654 189.673 56.1854 189.953 56.972 190.38C57.7587 190.807 58.152 191.56 58.152 192.64C58.152 193.787 57.6787 194.693 56.732 195.36C55.7854 196.013 54.492 196.34 52.852 196.34ZM67.3039 196.24C66.2639 196.24 65.4306 195.98 64.8039 195.46C64.1772 194.927 63.8639 194.2 63.8639 193.28C63.8639 192.293 64.2706 191.52 65.0839 190.96C65.8972 190.387 67.1572 189.987 68.8639 189.76L70.6639 189.54V189.08C70.6639 188.693 70.5439 188.387 70.3039 188.16C70.0639 187.92 69.7306 187.8 69.3039 187.8C68.8906 187.8 68.5506 187.927 68.2839 188.18C68.0306 188.433 67.9039 188.773 67.9039 189.2H64.2839C64.2839 188.44 64.4906 187.773 64.9039 187.2C65.3172 186.627 65.9039 186.187 66.6639 185.88C67.4372 185.573 68.3306 185.42 69.3439 185.42C70.3572 185.42 71.2439 185.58 72.0039 185.9C72.7772 186.207 73.3706 186.647 73.7839 187.22C74.2106 187.793 74.4239 188.46 74.4239 189.22V196H70.6639V194.78H70.4639C70.1839 195.247 69.7572 195.607 69.1839 195.86C68.6239 196.113 67.9972 196.24 67.3039 196.24ZM68.7639 193.98C69.3239 193.98 69.7772 193.807 70.1239 193.46C70.4839 193.113 70.6639 192.673 70.6639 192.14V191.52L69.0039 191.76C67.9772 191.893 67.4639 192.28 67.4639 192.92C67.4639 193.24 67.5772 193.5 67.8039 193.7C68.0439 193.887 68.3639 193.98 68.7639 193.98ZM81.7669 196V188.34H80.4469V185.68H81.7669V184.96C81.7669 184.147 81.9135 183.427 82.2069 182.8C82.5135 182.173 82.9402 181.687 83.4869 181.34C84.0469 180.993 84.6869 180.82 85.4069 180.82C86.1669 180.82 86.9202 180.94 87.6669 181.18V184.08C87.2669 184 86.9535 183.96 86.7269 183.96C86.3535 183.96 86.0535 184.06 85.8269 184.26C85.6135 184.447 85.5069 184.693 85.5069 185V185.68H87.6669V188.34H85.5069V196H81.7669ZM90.8742 184.56C90.2609 184.56 89.7542 184.367 89.3542 183.98C88.9542 183.593 88.7542 183.1 88.7542 182.5C88.7542 181.9 88.9542 181.413 89.3542 181.04C89.7542 180.653 90.2609 180.46 90.8742 180.46C91.5009 180.46 92.0142 180.653 92.4142 181.04C92.8142 181.413 93.0142 181.9 93.0142 182.5C93.0142 183.1 92.8142 183.593 92.4142 183.98C92.0142 184.367 91.5009 184.56 90.8742 184.56ZM92.7542 196H89.0142V185.68H92.7542V196ZM94.5792 196V185.68H98.2992V187.14H98.5192C98.7459 186.633 99.0726 186.233 99.4992 185.94C99.9259 185.633 100.399 185.48 100.919 185.48C101.333 185.48 101.713 185.567 102.059 185.74V189.06C101.766 188.927 101.453 188.827 101.119 188.76C100.786 188.68 100.499 188.64 100.259 188.64C99.6859 188.64 99.2192 188.847 98.8592 189.26C98.4992 189.673 98.3192 190.213 98.3192 190.88V196H94.5792ZM107.911 196.34C106.364 196.34 105.137 196.007 104.231 195.34C103.324 194.673 102.871 193.76 102.871 192.6H106.051C106.051 193.04 106.224 193.393 106.571 193.66C106.931 193.927 107.404 194.06 107.991 194.06C108.431 194.06 108.791 193.973 109.071 193.8C109.351 193.613 109.491 193.367 109.491 193.06C109.491 192.727 109.331 192.5 109.011 192.38C108.691 192.26 108.197 192.167 107.531 192.1C106.584 192.007 105.811 191.893 105.211 191.76C104.624 191.627 104.097 191.34 103.631 190.9C103.164 190.447 102.931 189.78 102.931 188.9C102.931 187.82 103.371 186.96 104.251 186.32C105.144 185.68 106.331 185.36 107.811 185.36C108.757 185.36 109.611 185.507 110.371 185.8C111.131 186.08 111.724 186.48 112.151 187C112.577 187.52 112.791 188.127 112.791 188.82H109.471C109.457 188.46 109.297 188.173 108.991 187.96C108.684 187.733 108.291 187.62 107.811 187.62C107.384 187.62 107.037 187.707 106.771 187.88C106.504 188.053 106.371 188.28 106.371 188.56C106.371 188.867 106.537 189.08 106.871 189.2C107.217 189.307 107.777 189.407 108.551 189.5C108.644 189.5 108.784 189.513 108.971 189.54C110.224 189.673 111.244 189.953 112.031 190.38C112.817 190.807 113.211 191.56 113.211 192.64C113.211 193.787 112.737 194.693 111.791 195.36C110.844 196.013 109.551 196.34 107.911 196.34ZM118.999 196.26C117.879 196.26 116.979 195.9 116.299 195.18C115.619 194.447 115.279 193.48 115.279 192.28V188.34H113.959V185.68H115.419L116.099 182.46H119.039V185.68H121.199V188.34H119.039V192.1C119.039 192.5 119.146 192.827 119.359 193.08C119.586 193.32 119.886 193.44 120.259 193.44C120.553 193.44 120.886 193.393 121.259 193.3V195.9C120.953 196.02 120.586 196.107 120.159 196.16C119.733 196.227 119.346 196.26 118.999 196.26ZM131.87 196.26C130.75 196.26 129.85 195.9 129.17 195.18C128.49 194.447 128.15 193.48 128.15 192.28V188.34H126.83V185.68H128.29L128.97 182.46H131.91V185.68H134.07V188.34H131.91V192.1C131.91 192.5 132.017 192.827 132.23 193.08C132.457 193.32 132.757 193.44 133.13 193.44C133.424 193.44 133.757 193.393 134.13 193.3V195.9C133.824 196.02 133.457 196.107 133.03 196.16C132.604 196.227 132.217 196.26 131.87 196.26ZM137.378 184.56C136.765 184.56 136.258 184.367 135.858 183.98C135.458 183.593 135.258 183.1 135.258 182.5C135.258 181.9 135.458 181.413 135.858 181.04C136.258 180.653 136.765 180.46 137.378 180.46C138.005 180.46 138.518 180.653 138.918 181.04C139.318 181.413 139.518 181.9 139.518 182.5C139.518 183.1 139.318 183.593 138.918 183.98C138.518 184.367 138.005 184.56 137.378 184.56ZM139.258 196H135.518V185.68H139.258V196ZM141.083 196V185.68H144.803V187.34H145.023C145.33 186.753 145.743 186.287 146.263 185.94C146.783 185.593 147.363 185.42 148.003 185.42C148.67 185.42 149.283 185.607 149.843 185.98C150.403 186.34 150.81 186.813 151.063 187.4H151.263C151.53 186.787 151.936 186.307 152.483 185.96C153.03 185.613 153.67 185.44 154.403 185.44C155.123 185.44 155.763 185.607 156.323 185.94C156.883 186.273 157.323 186.747 157.643 187.36C157.963 187.96 158.123 188.653 158.123 189.44V196H154.363V190.28C154.363 189.8 154.23 189.4 153.963 189.08C153.696 188.747 153.336 188.573 152.883 188.56C152.43 188.56 152.07 188.72 151.803 189.04C151.536 189.36 151.403 189.773 151.403 190.28V196H147.643V190.28C147.643 189.76 147.516 189.347 147.263 189.04C147.01 188.72 146.67 188.56 146.243 188.56C145.803 188.56 145.456 188.72 145.203 189.04C144.95 189.347 144.823 189.76 144.823 190.28V196H141.083ZM165.115 196.26C163.982 196.26 162.975 196.04 162.095 195.6C161.228 195.147 160.548 194.507 160.055 193.68C159.575 192.853 159.335 191.893 159.335 190.8C159.335 189.72 159.582 188.773 160.075 187.96C160.568 187.147 161.255 186.52 162.135 186.08C163.015 185.64 164.022 185.42 165.155 185.42C166.275 185.42 167.262 185.647 168.115 186.1C168.968 186.54 169.628 187.167 170.095 187.98C170.562 188.793 170.795 189.747 170.795 190.84C170.795 191.32 170.775 191.66 170.735 191.86H163.195C163.315 192.433 163.562 192.88 163.935 193.2C164.308 193.52 164.768 193.68 165.315 193.68C165.755 193.68 166.135 193.58 166.455 193.38C166.775 193.18 167.015 192.907 167.175 192.56L170.395 193.14C170.142 194.1 169.528 194.86 168.555 195.42C167.595 195.98 166.448 196.26 165.115 196.26ZM167.015 189.86C166.962 189.34 166.755 188.9 166.395 188.54C166.035 188.18 165.595 188 165.075 188C164.568 188 164.148 188.167 163.815 188.5C163.482 188.833 163.262 189.287 163.155 189.86H167.015ZM177.002 196V181.08H180.742V187.16H180.942C181.342 186.56 181.775 186.12 182.242 185.84C182.708 185.56 183.242 185.42 183.842 185.42C184.548 185.42 185.175 185.6 185.722 185.96C186.282 186.307 186.715 186.8 187.022 187.44C187.328 188.067 187.482 188.773 187.482 189.56V196H183.722V190.24C183.722 189.747 183.588 189.347 183.322 189.04C183.068 188.72 182.722 188.56 182.282 188.56C181.842 188.56 181.475 188.727 181.182 189.06C180.888 189.38 180.742 189.8 180.742 190.32V196H177.002ZM194.53 196.26C193.343 196.26 192.31 196.04 191.43 195.6C190.563 195.16 189.89 194.533 189.41 193.72C188.93 192.907 188.69 191.947 188.69 190.84C188.69 189.72 188.923 188.753 189.39 187.94C189.87 187.127 190.55 186.507 191.43 186.08C192.31 185.64 193.343 185.42 194.53 185.42C195.703 185.42 196.73 185.64 197.61 186.08C198.49 186.52 199.163 187.147 199.63 187.96C200.11 188.773 200.35 189.733 200.35 190.84C200.35 191.96 200.11 192.927 199.63 193.74C199.163 194.553 198.49 195.18 197.61 195.62C196.73 196.047 195.703 196.26 194.53 196.26ZM194.53 193.12C195.143 193.12 195.643 192.907 196.03 192.48C196.417 192.053 196.61 191.507 196.61 190.84C196.61 190.173 196.417 189.627 196.03 189.2C195.643 188.773 195.143 188.56 194.53 188.56C193.917 188.56 193.417 188.773 193.03 189.2C192.643 189.627 192.45 190.173 192.45 190.84C192.45 191.507 192.643 192.053 193.03 192.48C193.417 192.907 193.917 193.12 194.53 193.12ZM201.669 196V185.68H205.389V187.34H205.609C205.916 186.753 206.329 186.287 206.849 185.94C207.369 185.593 207.949 185.42 208.589 185.42C209.256 185.42 209.869 185.607 210.429 185.98C210.989 186.34 211.396 186.813 211.649 187.4H211.849C212.116 186.787 212.522 186.307 213.069 185.96C213.616 185.613 214.256 185.44 214.989 185.44C215.709 185.44 216.349 185.607 216.909 185.94C217.469 186.273 217.909 186.747 218.229 187.36C218.549 187.96 218.709 188.653 218.709 189.44V196H214.949V190.28C214.949 189.8 214.816 189.4 214.549 189.08C214.282 188.747 213.922 188.573 213.469 188.56C213.016 188.56 212.656 188.72 212.389 189.04C212.122 189.36 211.989 189.773 211.989 190.28V196H208.229V190.28C208.229 189.76 208.102 189.347 207.849 189.04C207.596 188.72 207.256 188.56 206.829 188.56C206.389 188.56 206.042 188.72 205.789 189.04C205.536 189.347 205.409 189.76 205.409 190.28V196H201.669ZM225.701 196.26C224.568 196.26 223.561 196.04 222.681 195.6C221.814 195.147 221.134 194.507 220.641 193.68C220.161 192.853 219.921 191.893 219.921 190.8C219.921 189.72 220.168 188.773 220.661 187.96C221.154 187.147 221.841 186.52 222.721 186.08C223.601 185.64 224.608 185.42 225.741 185.42C226.861 185.42 227.848 185.647 228.701 186.1C229.554 186.54 230.214 187.167 230.681 187.98C231.148 188.793 231.381 189.747 231.381 190.84C231.381 191.32 231.361 191.66 231.321 191.86H223.781C223.901 192.433 224.148 192.88 224.521 193.2C224.894 193.52 225.354 193.68 225.901 193.68C226.341 193.68 226.721 193.58 227.041 193.38C227.361 193.18 227.601 192.907 227.761 192.56L230.981 193.14C230.728 194.1 230.114 194.86 229.141 195.42C228.181 195.98 227.034 196.26 225.701 196.26ZM227.601 189.86C227.548 189.34 227.341 188.9 226.981 188.54C226.621 188.18 226.181 188 225.661 188C225.154 188 224.734 188.167 224.401 188.5C224.068 188.833 223.848 189.287 223.741 189.86H227.601ZM244.488 196.26C243.208 196.26 242.214 195.773 241.508 194.8H241.308V196H237.568V181.08H241.308V186.88H241.508C242.214 185.907 243.214 185.42 244.508 185.42C245.401 185.42 246.194 185.647 246.888 186.1C247.581 186.54 248.114 187.173 248.488 188C248.874 188.813 249.068 189.76 249.068 190.84C249.068 191.933 248.874 192.893 248.488 193.72C248.114 194.533 247.581 195.16 246.888 195.6C246.194 196.04 245.394 196.26 244.488 196.26ZM243.228 193.12C243.828 193.12 244.321 192.907 244.708 192.48C245.108 192.04 245.308 191.493 245.308 190.84C245.308 190.187 245.108 189.647 244.708 189.22C244.321 188.78 243.828 188.56 243.228 188.56C242.628 188.56 242.128 188.78 241.728 189.22C241.341 189.647 241.148 190.187 241.148 190.84C241.148 191.493 241.341 192.04 241.728 192.48C242.128 192.907 242.628 193.12 243.228 193.12ZM260.76 185.68V196H257.02V194.48H256.82C256.406 195.093 255.966 195.54 255.5 195.82C255.046 196.1 254.52 196.24 253.92 196.24C253.213 196.24 252.58 196.067 252.02 195.72C251.473 195.36 251.046 194.867 250.74 194.24C250.433 193.613 250.28 192.907 250.28 192.12V185.68H254.02V191.42C254.02 191.927 254.146 192.34 254.4 192.66C254.666 192.967 255.02 193.12 255.46 193.12C255.9 193.12 256.266 192.96 256.56 192.64C256.866 192.307 257.02 191.88 257.02 191.36V185.68H260.76ZM265.528 200.7C265.128 200.7 264.695 200.667 264.228 200.6C263.775 200.533 263.408 200.44 263.128 200.32V197.42C263.342 197.513 263.602 197.587 263.908 197.64C264.215 197.693 264.502 197.72 264.768 197.72C265.302 197.72 265.728 197.573 266.048 197.28C266.382 196.987 266.628 196.613 266.788 196.16L261.728 185.68H265.788L268.108 191.38H268.308L270.108 185.68H273.948L270.028 196.48C269.482 197.947 268.862 199.013 268.168 199.68C267.475 200.36 266.595 200.7 265.528 200.7ZM279.783 196.26C278.65 196.26 277.643 196.04 276.763 195.6C275.896 195.147 275.216 194.507 274.723 193.68C274.243 192.853 274.003 191.893 274.003 190.8C274.003 189.72 274.25 188.773 274.743 187.96C275.236 187.147 275.923 186.52 276.803 186.08C277.683 185.64 278.69 185.42 279.823 185.42C280.943 185.42 281.93 185.647 282.783 186.1C283.636 186.54 284.296 187.167 284.763 187.98C285.23 188.793 285.463 189.747 285.463 190.84C285.463 191.32 285.443 191.66 285.403 191.86H277.863C277.983 192.433 278.23 192.88 278.603 193.2C278.976 193.52 279.436 193.68 279.983 193.68C280.423 193.68 280.803 193.58 281.123 193.38C281.443 193.18 281.683 192.907 281.843 192.56L285.063 193.14C284.81 194.1 284.196 194.86 283.223 195.42C282.263 195.98 281.116 196.26 279.783 196.26ZM281.683 189.86C281.63 189.34 281.423 188.9 281.063 188.54C280.703 188.18 280.263 188 279.743 188C279.236 188 278.816 188.167 278.483 188.5C278.15 188.833 277.93 189.287 277.823 189.86H281.683ZM286.786 196V185.68H290.506V187.14H290.726C290.953 186.633 291.28 186.233 291.706 185.94C292.133 185.633 292.606 185.48 293.126 185.48C293.54 185.48 293.92 185.567 294.266 185.74V189.06C293.973 188.927 293.66 188.827 293.326 188.76C292.993 188.68 292.706 188.64 292.466 188.64C291.893 188.64 291.426 188.847 291.066 189.26C290.706 189.673 290.526 190.213 290.526 190.88V196H286.786ZM295.584 199.5L294.344 199.02L295.564 196.18C295.084 196.073 294.691 195.84 294.384 195.48C294.091 195.12 293.944 194.693 293.944 194.2C293.944 193.613 294.138 193.133 294.524 192.76C294.924 192.373 295.431 192.18 296.044 192.18C296.658 192.18 297.158 192.373 297.544 192.76C297.931 193.133 298.124 193.613 298.124 194.2C298.124 194.733 297.951 195.287 297.604 195.86L295.584 199.5ZM304.325 196V185.68H308.045V187.34H308.265C308.572 186.753 308.985 186.287 309.505 185.94C310.025 185.593 310.605 185.42 311.245 185.42C311.912 185.42 312.525 185.607 313.085 185.98C313.645 186.34 314.052 186.813 314.305 187.4H314.505C314.772 186.787 315.179 186.307 315.725 185.96C316.272 185.613 316.912 185.44 317.645 185.44C318.365 185.44 319.005 185.607 319.565 185.94C320.125 186.273 320.565 186.747 320.885 187.36C321.205 187.96 321.365 188.653 321.365 189.44V196H317.605V190.28C317.605 189.8 317.472 189.4 317.205 189.08C316.939 188.747 316.579 188.573 316.125 188.56C315.672 188.56 315.312 188.72 315.045 189.04C314.779 189.36 314.645 189.773 314.645 190.28V196H310.885V190.28C310.885 189.76 310.759 189.347 310.505 189.04C310.252 188.72 309.912 188.56 309.485 188.56C309.045 188.56 308.699 188.72 308.445 189.04C308.192 189.347 308.065 189.76 308.065 190.28V196H304.325ZM325.431 200.7C325.031 200.7 324.597 200.667 324.131 200.6C323.677 200.533 323.311 200.44 323.031 200.32V197.42C323.244 197.513 323.504 197.587 323.811 197.64C324.117 197.693 324.404 197.72 324.671 197.72C325.204 197.72 325.631 197.573 325.951 197.28C326.284 196.987 326.531 196.613 326.691 196.16L321.631 185.68H325.691L328.011 191.38H328.211L330.011 185.68H333.851L329.931 196.48C329.384 197.947 328.764 199.013 328.071 199.68C327.377 200.36 326.497 200.7 325.431 200.7ZM36.62 220H32.88V205.08H36.62V220ZM43.7878 220.26C42.6011 220.26 41.5678 220.04 40.6878 219.6C39.8211 219.16 39.1478 218.533 38.6678 217.72C38.1878 216.907 37.9478 215.947 37.9478 214.84C37.9478 213.72 38.1811 212.753 38.6478 211.94C39.1278 211.127 39.8078 210.507 40.6878 210.08C41.5678 209.64 42.6011 209.42 43.7878 209.42C44.9611 209.42 45.9878 209.64 46.8678 210.08C47.7478 210.52 48.4211 211.147 48.8878 211.96C49.3678 212.773 49.6078 213.733 49.6078 214.84C49.6078 215.96 49.3678 216.927 48.8878 217.74C48.4211 218.553 47.7478 219.18 46.8678 219.62C45.9878 220.047 44.9611 220.26 43.7878 220.26ZM43.7878 217.12C44.4011 217.12 44.9011 216.907 45.2878 216.48C45.6745 216.053 45.8678 215.507 45.8678 214.84C45.8678 214.173 45.6745 213.627 45.2878 213.2C44.9011 212.773 44.4011 212.56 43.7878 212.56C43.1745 212.56 42.6745 212.773 42.2878 213.2C41.9011 213.627 41.7078 214.173 41.7078 214.84C41.7078 215.507 41.9011 216.053 42.2878 216.48C42.6745 216.907 43.1745 217.12 43.7878 217.12ZM53.8469 220.24C52.8069 220.24 51.9735 219.98 51.3469 219.46C50.7202 218.927 50.4069 218.2 50.4069 217.28C50.4069 216.293 50.8135 215.52 51.6269 214.96C52.4402 214.387 53.7002 213.987 55.4069 213.76L57.2069 213.54V213.08C57.2069 212.693 57.0869 212.387 56.8469 212.16C56.6069 211.92 56.2735 211.8 55.8469 211.8C55.4335 211.8 55.0935 211.927 54.8269 212.18C54.5735 212.433 54.4469 212.773 54.4469 213.2H50.8269C50.8269 212.44 51.0335 211.773 51.4469 211.2C51.8602 210.627 52.4469 210.187 53.2069 209.88C53.9802 209.573 54.8735 209.42 55.8869 209.42C56.9002 209.42 57.7869 209.58 58.5469 209.9C59.3202 210.207 59.9135 210.647 60.3269 211.22C60.7535 211.793 60.9669 212.46 60.9669 213.22V220H57.2069V218.78H57.0069C56.7269 219.247 56.3002 219.607 55.7269 219.86C55.1669 220.113 54.5402 220.24 53.8469 220.24ZM55.3069 217.98C55.8669 217.98 56.3202 217.807 56.6669 217.46C57.0269 217.113 57.2069 216.673 57.2069 216.14V215.52L55.5469 215.76C54.5202 215.893 54.0069 216.28 54.0069 216.92C54.0069 217.24 54.1202 217.5 54.3469 217.7C54.5869 217.887 54.9069 217.98 55.3069 217.98ZM62.6066 220V209.68H66.3466V211.2H66.5466C66.9599 210.587 67.3932 210.14 67.8466 209.86C68.3132 209.58 68.8466 209.44 69.4466 209.44C70.1532 209.44 70.7799 209.62 71.3266 209.98C71.8866 210.327 72.3199 210.813 72.6266 211.44C72.9332 212.067 73.0866 212.773 73.0866 213.56V220H69.3466V214.26C69.3466 213.753 69.2132 213.347 68.9466 213.04C68.6932 212.733 68.3466 212.58 67.9066 212.58C67.4666 212.58 67.0932 212.747 66.7866 213.08C66.4932 213.4 66.3466 213.813 66.3466 214.32V220H62.6066ZM84.9988 220.26C83.8121 220.26 82.7788 220.04 81.8988 219.6C81.0321 219.16 80.3588 218.533 79.8788 217.72C79.3988 216.907 79.1588 215.947 79.1588 214.84C79.1588 213.72 79.3921 212.753 79.8588 211.94C80.3388 211.127 81.0188 210.507 81.8988 210.08C82.7788 209.64 83.8121 209.42 84.9988 209.42C86.1721 209.42 87.1988 209.64 88.0788 210.08C88.9588 210.52 89.6321 211.147 90.0988 211.96C90.5788 212.773 90.8188 213.733 90.8188 214.84C90.8188 215.96 90.5788 216.927 90.0988 217.74C89.6321 218.553 88.9588 219.18 88.0788 219.62C87.1988 220.047 86.1721 220.26 84.9988 220.26ZM84.9988 217.12C85.6121 217.12 86.1121 216.907 86.4988 216.48C86.8854 216.053 87.0788 215.507 87.0788 214.84C87.0788 214.173 86.8854 213.627 86.4988 213.2C86.1121 212.773 85.6121 212.56 84.9988 212.56C84.3854 212.56 83.8854 212.773 83.4988 213.2C83.1121 213.627 82.9188 214.173 82.9188 214.84C82.9188 215.507 83.1121 216.053 83.4988 216.48C83.8854 216.907 84.3854 217.12 84.9988 217.12ZM92.8606 220V212.34H91.5406V209.68H92.8606V208.96C92.8606 208.147 93.0073 207.427 93.3006 206.8C93.6073 206.173 94.034 205.687 94.5806 205.34C95.1406 204.993 95.7806 204.82 96.5006 204.82C97.2606 204.82 98.014 204.94 98.7606 205.18V208.08C98.3606 208 98.0473 207.96 97.8206 207.96C97.4473 207.96 97.1473 208.06 96.9206 208.26C96.7073 208.447 96.6006 208.693 96.6006 209V209.68H98.7606V212.34H96.6006V220H92.8606ZM100.79 220V212.34H99.4703V209.68H100.79V208.96C100.79 208.147 100.937 207.427 101.23 206.8C101.537 206.173 101.964 205.687 102.51 205.34C103.07 204.993 103.71 204.82 104.43 204.82C105.19 204.82 105.944 204.94 106.69 205.18V208.08C106.29 208 105.977 207.96 105.75 207.96C105.377 207.96 105.077 208.06 104.85 208.26C104.637 208.447 104.53 208.693 104.53 209V209.68H106.69V212.34H104.53V220H100.79ZM109.898 208.56C109.284 208.56 108.778 208.367 108.378 207.98C107.978 207.593 107.778 207.1 107.778 206.5C107.778 205.9 107.978 205.413 108.378 205.04C108.778 204.653 109.284 204.46 109.898 204.46C110.524 204.46 111.038 204.653 111.438 205.04C111.838 205.413 112.038 205.9 112.038 206.5C112.038 207.1 111.838 207.593 111.438 207.98C111.038 208.367 110.524 208.56 109.898 208.56ZM111.778 220H108.038V209.68H111.778V220ZM118.923 220.26C117.803 220.26 116.809 220.04 115.943 219.6C115.076 219.147 114.396 218.513 113.903 217.7C113.423 216.873 113.183 215.92 113.183 214.84C113.183 213.747 113.423 212.793 113.903 211.98C114.383 211.153 115.056 210.52 115.923 210.08C116.789 209.64 117.789 209.42 118.923 209.42C120.416 209.42 121.656 209.787 122.643 210.52C123.629 211.253 124.203 212.26 124.363 213.54L120.903 213.98C120.809 213.527 120.576 213.153 120.203 212.86C119.843 212.567 119.436 212.42 118.983 212.42C118.383 212.42 117.889 212.647 117.503 213.1C117.116 213.553 116.923 214.133 116.923 214.84C116.923 215.547 117.116 216.127 117.503 216.58C117.889 217.033 118.376 217.26 118.963 217.26C119.429 217.26 119.843 217.12 120.203 216.84C120.563 216.547 120.796 216.173 120.903 215.72L124.363 216.14C124.189 217.42 123.609 218.427 122.623 219.16C121.636 219.893 120.403 220.26 118.923 220.26ZM131.209 220.26C130.075 220.26 129.069 220.04 128.189 219.6C127.322 219.147 126.642 218.507 126.149 217.68C125.669 216.853 125.429 215.893 125.429 214.8C125.429 213.72 125.675 212.773 126.169 211.96C126.662 211.147 127.349 210.52 128.229 210.08C129.109 209.64 130.115 209.42 131.249 209.42C132.369 209.42 133.355 209.647 134.209 210.1C135.062 210.54 135.722 211.167 136.189 211.98C136.655 212.793 136.889 213.747 136.889 214.84C136.889 215.32 136.869 215.66 136.829 215.86H129.289C129.409 216.433 129.655 216.88 130.029 217.2C130.402 217.52 130.862 217.68 131.409 217.68C131.849 217.68 132.229 217.58 132.549 217.38C132.869 217.18 133.109 216.907 133.269 216.56L136.489 217.14C136.235 218.1 135.622 218.86 134.649 219.42C133.689 219.98 132.542 220.26 131.209 220.26ZM133.109 213.86C133.055 213.34 132.849 212.9 132.489 212.54C132.129 212.18 131.689 212 131.169 212C130.662 212 130.242 212.167 129.909 212.5C129.575 212.833 129.355 213.287 129.249 213.86H133.109ZM138.212 220V209.68H141.932V211.14H142.152C142.379 210.633 142.705 210.233 143.132 209.94C143.559 209.633 144.032 209.48 144.552 209.48C144.965 209.48 145.345 209.567 145.692 209.74V213.06C145.399 212.927 145.085 212.827 144.752 212.76C144.419 212.68 144.132 212.64 143.892 212.64C143.319 212.64 142.852 212.847 142.492 213.26C142.132 213.673 141.952 214.213 141.952 214.88V220H138.212ZM151.767 220V209.68H155.487V211.34H155.707C156.013 210.753 156.427 210.287 156.947 209.94C157.467 209.593 158.047 209.42 158.687 209.42C159.353 209.42 159.967 209.607 160.527 209.98C161.087 210.34 161.493 210.813 161.747 211.4H161.947C162.213 210.787 162.62 210.307 163.167 209.96C163.713 209.613 164.353 209.44 165.087 209.44C165.807 209.44 166.447 209.607 167.007 209.94C167.567 210.273 168.007 210.747 168.327 211.36C168.647 211.96 168.807 212.653 168.807 213.44V220H165.047V214.28C165.047 213.8 164.913 213.4 164.647 213.08C164.38 212.747 164.02 212.573 163.567 212.56C163.113 212.56 162.753 212.72 162.487 213.04C162.22 213.36 162.087 213.773 162.087 214.28V220H158.327V214.28C158.327 213.76 158.2 213.347 157.947 213.04C157.693 212.72 157.353 212.56 156.927 212.56C156.487 212.56 156.14 212.72 155.887 213.04C155.633 213.347 155.507 213.76 155.507 214.28V220H151.767ZM173.359 220.24C172.319 220.24 171.485 219.98 170.859 219.46C170.232 218.927 169.919 218.2 169.919 217.28C169.919 216.293 170.325 215.52 171.139 214.96C171.952 214.387 173.212 213.987 174.919 213.76L176.719 213.54V213.08C176.719 212.693 176.599 212.387 176.359 212.16C176.119 211.92 175.785 211.8 175.359 211.8C174.945 211.8 174.605 211.927 174.339 212.18C174.085 212.433 173.959 212.773 173.959 213.2H170.339C170.339 212.44 170.545 211.773 170.959 211.2C171.372 210.627 171.959 210.187 172.719 209.88C173.492 209.573 174.385 209.42 175.399 209.42C176.412 209.42 177.299 209.58 178.059 209.9C178.832 210.207 179.425 210.647 179.839 211.22C180.265 211.793 180.479 212.46 180.479 213.22V220H176.719V218.78H176.519C176.239 219.247 175.812 219.607 175.239 219.86C174.679 220.113 174.052 220.24 173.359 220.24ZM174.819 217.98C175.379 217.98 175.832 217.807 176.179 217.46C176.539 217.113 176.719 216.673 176.719 216.14V215.52L175.059 215.76C174.032 215.893 173.519 216.28 173.519 216.92C173.519 217.24 173.632 217.5 173.859 217.7C174.099 217.887 174.419 217.98 174.819 217.98ZM186.278 220.26C185.372 220.26 184.572 220.04 183.878 219.6C183.185 219.16 182.645 218.533 182.258 217.72C181.885 216.893 181.698 215.933 181.698 214.84C181.698 213.76 181.885 212.813 182.258 212C182.645 211.173 183.185 210.54 183.878 210.1C184.572 209.647 185.365 209.42 186.258 209.42C187.552 209.42 188.552 209.907 189.258 210.88H189.458V205.08H193.198V220H189.458V218.8H189.258C188.552 219.773 187.558 220.26 186.278 220.26ZM187.538 217.12C188.138 217.12 188.632 216.907 189.018 216.48C189.418 216.04 189.618 215.493 189.618 214.84C189.618 214.187 189.418 213.647 189.018 213.22C188.632 212.78 188.138 212.56 187.538 212.56C186.938 212.56 186.438 212.78 186.038 213.22C185.652 213.647 185.458 214.187 185.458 214.84C185.458 215.493 185.652 216.04 186.038 216.48C186.438 216.907 186.938 217.12 187.538 217.12ZM200.31 220.26C199.177 220.26 198.17 220.04 197.29 219.6C196.424 219.147 195.744 218.507 195.25 217.68C194.77 216.853 194.53 215.893 194.53 214.8C194.53 213.72 194.777 212.773 195.27 211.96C195.764 211.147 196.45 210.52 197.33 210.08C198.21 209.64 199.217 209.42 200.35 209.42C201.47 209.42 202.457 209.647 203.31 210.1C204.164 210.54 204.824 211.167 205.29 211.98C205.757 212.793 205.99 213.747 205.99 214.84C205.99 215.32 205.97 215.66 205.93 215.86H198.39C198.51 216.433 198.757 216.88 199.13 217.2C199.504 217.52 199.964 217.68 200.51 217.68C200.95 217.68 201.33 217.58 201.65 217.38C201.97 217.18 202.21 216.907 202.37 216.56L205.59 217.14C205.337 218.1 204.724 218.86 203.75 219.42C202.79 219.98 201.644 220.26 200.31 220.26ZM202.21 213.86C202.157 213.34 201.95 212.9 201.59 212.54C201.23 212.18 200.79 212 200.27 212C199.764 212 199.344 212.167 199.01 212.5C198.677 212.833 198.457 213.287 198.35 213.86H202.21ZM212.177 220V209.68H215.897V211.34H216.117C216.424 210.753 216.837 210.287 217.357 209.94C217.877 209.593 218.457 209.42 219.097 209.42C219.764 209.42 220.377 209.607 220.937 209.98C221.497 210.34 221.904 210.813 222.157 211.4H222.357C222.624 210.787 223.03 210.307 223.577 209.96C224.124 209.613 224.764 209.44 225.497 209.44C226.217 209.44 226.857 209.607 227.417 209.94C227.977 210.273 228.417 210.747 228.737 211.36C229.057 211.96 229.217 212.653 229.217 213.44V220H225.457V214.28C225.457 213.8 225.324 213.4 225.057 213.08C224.79 212.747 224.43 212.573 223.977 212.56C223.524 212.56 223.164 212.72 222.897 213.04C222.63 213.36 222.497 213.773 222.497 214.28V220H218.737V214.28C218.737 213.76 218.61 213.347 218.357 213.04C218.104 212.72 217.764 212.56 217.337 212.56C216.897 212.56 216.55 212.72 216.297 213.04C216.044 213.347 215.917 213.76 215.917 214.28V220H212.177ZM236.209 220.26C235.075 220.26 234.069 220.04 233.189 219.6C232.322 219.147 231.642 218.507 231.149 217.68C230.669 216.853 230.429 215.893 230.429 214.8C230.429 213.72 230.675 212.773 231.169 211.96C231.662 211.147 232.349 210.52 233.229 210.08C234.109 209.64 235.115 209.42 236.249 209.42C237.369 209.42 238.355 209.647 239.209 210.1C240.062 210.54 240.722 211.167 241.189 211.98C241.655 212.793 241.889 213.747 241.889 214.84C241.889 215.32 241.869 215.66 241.829 215.86H234.289C234.409 216.433 234.655 216.88 235.029 217.2C235.402 217.52 235.862 217.68 236.409 217.68C236.849 217.68 237.229 217.58 237.549 217.38C237.869 217.18 238.109 216.907 238.269 216.56L241.489 217.14C241.235 218.1 240.622 218.86 239.649 219.42C238.689 219.98 237.542 220.26 236.209 220.26ZM238.109 213.86C238.055 213.34 237.849 212.9 237.489 212.54C237.129 212.18 236.689 212 236.169 212C235.662 212 235.242 212.167 234.909 212.5C234.575 212.833 234.355 213.287 234.249 213.86H238.109ZM248.915 220V212.34H247.595V209.68H248.915V208.96C248.915 208.147 249.062 207.427 249.355 206.8C249.662 206.173 250.089 205.687 250.635 205.34C251.195 204.993 251.835 204.82 252.555 204.82C253.315 204.82 254.069 204.94 254.815 205.18V208.08C254.415 208 254.102 207.96 253.875 207.96C253.502 207.96 253.202 208.06 252.975 208.26C252.762 208.447 252.655 208.693 252.655 209V209.68H254.815V212.34H252.655V220H248.915ZM261.287 220.26C260.154 220.26 259.147 220.04 258.267 219.6C257.4 219.147 256.72 218.507 256.227 217.68C255.747 216.853 255.507 215.893 255.507 214.8C255.507 213.72 255.754 212.773 256.247 211.96C256.74 211.147 257.427 210.52 258.307 210.08C259.187 209.64 260.194 209.42 261.327 209.42C262.447 209.42 263.434 209.647 264.287 210.1C265.14 210.54 265.8 211.167 266.267 211.98C266.734 212.793 266.967 213.747 266.967 214.84C266.967 215.32 266.947 215.66 266.907 215.86H259.367C259.487 216.433 259.734 216.88 260.107 217.2C260.48 217.52 260.94 217.68 261.487 217.68C261.927 217.68 262.307 217.58 262.627 217.38C262.947 217.18 263.187 216.907 263.347 216.56L266.567 217.14C266.314 218.1 265.7 218.86 264.727 219.42C263.767 219.98 262.62 220.26 261.287 220.26ZM263.187 213.86C263.134 213.34 262.927 212.9 262.567 212.54C262.207 212.18 261.767 212 261.247 212C260.74 212 260.32 212.167 259.987 212.5C259.654 212.833 259.434 213.287 259.327 213.86H263.187ZM273.787 220.26C272.654 220.26 271.647 220.04 270.767 219.6C269.9 219.147 269.22 218.507 268.727 217.68C268.247 216.853 268.007 215.893 268.007 214.8C268.007 213.72 268.254 212.773 268.747 211.96C269.24 211.147 269.927 210.52 270.807 210.08C271.687 209.64 272.694 209.42 273.827 209.42C274.947 209.42 275.934 209.647 276.787 210.1C277.64 210.54 278.3 211.167 278.767 211.98C279.234 212.793 279.467 213.747 279.467 214.84C279.467 215.32 279.447 215.66 279.407 215.86H271.867C271.987 216.433 272.234 216.88 272.607 217.2C272.98 217.52 273.44 217.68 273.987 217.68C274.427 217.68 274.807 217.58 275.127 217.38C275.447 217.18 275.687 216.907 275.847 216.56L279.067 217.14C278.814 218.1 278.2 218.86 277.227 219.42C276.267 219.98 275.12 220.26 273.787 220.26ZM275.687 213.86C275.634 213.34 275.427 212.9 275.067 212.54C274.707 212.18 274.267 212 273.747 212C273.24 212 272.82 212.167 272.487 212.5C272.154 212.833 271.934 213.287 271.827 213.86H275.687ZM284.53 220H280.79V205.08H284.53V220ZM294.081 220.24C293.041 220.24 292.208 219.98 291.581 219.46C290.955 218.927 290.641 218.2 290.641 217.28C290.641 216.293 291.048 215.52 291.861 214.96C292.675 214.387 293.935 213.987 295.641 213.76L297.441 213.54V213.08C297.441 212.693 297.321 212.387 297.081 212.16C296.841 211.92 296.508 211.8 296.081 211.8C295.668 211.8 295.328 211.927 295.061 212.18C294.808 212.433 294.681 212.773 294.681 213.2H291.061C291.061 212.44 291.268 211.773 291.681 211.2C292.095 210.627 292.681 210.187 293.441 209.88C294.215 209.573 295.108 209.42 296.121 209.42C297.135 209.42 298.021 209.58 298.781 209.9C299.555 210.207 300.148 210.647 300.561 211.22C300.988 211.793 301.201 212.46 301.201 213.22V220H297.441V218.78H297.241C296.961 219.247 296.535 219.607 295.961 219.86C295.401 220.113 294.775 220.24 294.081 220.24ZM295.541 217.98C296.101 217.98 296.555 217.807 296.901 217.46C297.261 217.113 297.441 216.673 297.441 216.14V215.52L295.781 215.76C294.755 215.893 294.241 216.28 294.241 216.92C294.241 217.24 294.355 217.5 294.581 217.7C294.821 217.887 295.141 217.98 295.541 217.98ZM307.261 220.26C306.141 220.26 305.241 219.9 304.561 219.18C303.881 218.447 303.541 217.48 303.541 216.28V212.34H302.221V209.68H303.681L304.361 206.46H307.301V209.68H309.461V212.34H307.301V216.1C307.301 216.5 307.408 216.827 307.621 217.08C307.848 217.32 308.148 217.44 308.521 217.44C308.814 217.44 309.148 217.393 309.521 217.3V219.9C309.214 220.02 308.848 220.107 308.421 220.16C307.994 220.227 307.608 220.26 307.261 220.26ZM38.24 244.26C37.1067 244.26 36.1 244.04 35.22 243.6C34.3533 243.147 33.6733 242.507 33.18 241.68C32.7 240.853 32.46 239.893 32.46 238.8C32.46 237.72 32.7067 236.773 33.2 235.96C33.6933 235.147 34.38 234.52 35.26 234.08C36.14 233.64 37.1467 233.42 38.28 233.42C39.4 233.42 40.3867 233.647 41.24 234.1C42.0933 234.54 42.7533 235.167 43.22 235.98C43.6867 236.793 43.92 237.747 43.92 238.84C43.92 239.32 43.9 239.66 43.86 239.86H36.32C36.44 240.433 36.6867 240.88 37.06 241.2C37.4333 241.52 37.8933 241.68 38.44 241.68C38.88 241.68 39.26 241.58 39.58 241.38C39.9 241.18 40.14 240.907 40.3 240.56L43.52 241.14C43.2667 242.1 42.6533 242.86 41.68 243.42C40.72 243.98 39.5733 244.26 38.24 244.26ZM40.14 237.86C40.0867 237.34 39.88 236.9 39.52 236.54C39.16 236.18 38.72 236 38.2 236C37.6933 236 37.2733 236.167 36.94 236.5C36.6067 236.833 36.3867 237.287 36.28 237.86H40.14ZM48.1633 244.24C47.1233 244.24 46.2899 243.98 45.6633 243.46C45.0366 242.927 44.7233 242.2 44.7233 241.28C44.7233 240.293 45.1299 239.52 45.9433 238.96C46.7566 238.387 48.0166 237.987 49.7233 237.76L51.5233 237.54V237.08C51.5233 236.693 51.4033 236.387 51.1633 236.16C50.9233 235.92 50.5899 235.8 50.1633 235.8C49.7499 235.8 49.4099 235.927 49.1433 236.18C48.8899 236.433 48.7633 236.773 48.7633 237.2H45.1433C45.1433 236.44 45.3499 235.773 45.7633 235.2C46.1766 234.627 46.7633 234.187 47.5233 233.88C48.2966 233.573 49.1899 233.42 50.2033 233.42C51.2166 233.42 52.1033 233.58 52.8633 233.9C53.6366 234.207 54.2299 234.647 54.6433 235.22C55.0699 235.793 55.2833 236.46 55.2833 237.22V244H51.5233V242.78H51.3233C51.0433 243.247 50.6166 243.607 50.0433 243.86C49.4833 244.113 48.8566 244.24 48.1633 244.24ZM49.6233 241.98C50.1833 241.98 50.6366 241.807 50.9833 241.46C51.3433 241.113 51.5233 240.673 51.5233 240.14V239.52L49.8633 239.76C48.8366 239.893 48.3233 240.28 48.3233 240.92C48.3233 241.24 48.4366 241.5 48.6633 241.7C48.9033 241.887 49.2233 241.98 49.6233 241.98ZM61.563 244.34C60.0163 244.34 58.7896 244.007 57.883 243.34C56.9763 242.673 56.523 241.76 56.523 240.6H59.703C59.703 241.04 59.8763 241.393 60.223 241.66C60.583 241.927 61.0563 242.06 61.643 242.06C62.083 242.06 62.443 241.973 62.723 241.8C63.003 241.613 63.143 241.367 63.143 241.06C63.143 240.727 62.983 240.5 62.663 240.38C62.343 240.26 61.8496 240.167 61.183 240.1C60.2363 240.007 59.463 239.893 58.863 239.76C58.2763 239.627 57.7496 239.34 57.283 238.9C56.8163 238.447 56.583 237.78 56.583 236.9C56.583 235.82 57.023 234.96 57.903 234.32C58.7963 233.68 59.983 233.36 61.463 233.36C62.4096 233.36 63.263 233.507 64.023 233.8C64.783 234.08 65.3763 234.48 65.803 235C66.2296 235.52 66.443 236.127 66.443 236.82H63.123C63.1096 236.46 62.9496 236.173 62.643 235.96C62.3363 235.733 61.943 235.62 61.463 235.62C61.0363 235.62 60.6896 235.707 60.423 235.88C60.1563 236.053 60.023 236.28 60.023 236.56C60.023 236.867 60.1896 237.08 60.523 237.2C60.8696 237.307 61.4296 237.407 62.203 237.5C62.2963 237.5 62.4363 237.513 62.623 237.54C63.8763 237.673 64.8963 237.953 65.683 238.38C66.4696 238.807 66.863 239.56 66.863 240.64C66.863 241.787 66.3896 242.693 65.443 243.36C64.4963 244.013 63.203 244.34 61.563 244.34ZM73.5916 244.26C72.4582 244.26 71.4516 244.04 70.5716 243.6C69.7049 243.147 69.0249 242.507 68.5316 241.68C68.0516 240.853 67.8116 239.893 67.8116 238.8C67.8116 237.72 68.0582 236.773 68.5516 235.96C69.0449 235.147 69.7316 234.52 70.6116 234.08C71.4916 233.64 72.4982 233.42 73.6316 233.42C74.7516 233.42 75.7382 233.647 76.5916 234.1C77.4449 234.54 78.1049 235.167 78.5716 235.98C79.0382 236.793 79.2716 237.747 79.2716 238.84C79.2716 239.32 79.2516 239.66 79.2116 239.86H71.6716C71.7916 240.433 72.0382 240.88 72.4116 241.2C72.7849 241.52 73.2449 241.68 73.7916 241.68C74.2316 241.68 74.6116 241.58 74.9316 241.38C75.2516 241.18 75.4916 240.907 75.6516 240.56L78.8716 241.14C78.6182 242.1 78.0049 242.86 77.0316 243.42C76.0716 243.98 74.9249 244.26 73.5916 244.26ZM75.4916 237.86C75.4382 237.34 75.2316 236.9 74.8716 236.54C74.5116 236.18 74.0716 236 73.5516 236C73.0449 236 72.6249 236.167 72.2916 236.5C71.9582 236.833 71.7382 237.287 71.6316 237.86H75.4916ZM88.3781 244.24C87.3381 244.24 86.5048 243.98 85.8781 243.46C85.2515 242.927 84.9381 242.2 84.9381 241.28C84.9381 240.293 85.3448 239.52 86.1581 238.96C86.9715 238.387 88.2315 237.987 89.9381 237.76L91.7381 237.54V237.08C91.7381 236.693 91.6181 236.387 91.3781 236.16C91.1381 235.92 90.8048 235.8 90.3781 235.8C89.9648 235.8 89.6248 235.927 89.3581 236.18C89.1048 236.433 88.9781 236.773 88.9781 237.2H85.3581C85.3581 236.44 85.5648 235.773 85.9781 235.2C86.3915 234.627 86.9781 234.187 87.7381 233.88C88.5115 233.573 89.4048 233.42 90.4181 233.42C91.4315 233.42 92.3181 233.58 93.0781 233.9C93.8515 234.207 94.4448 234.647 94.8581 235.22C95.2848 235.793 95.4981 236.46 95.4981 237.22V244H91.7381V242.78H91.5381C91.2581 243.247 90.8315 243.607 90.2581 243.86C89.6981 244.113 89.0715 244.24 88.3781 244.24ZM89.8381 241.98C90.3981 241.98 90.8515 241.807 91.1981 241.46C91.5581 241.113 91.7381 240.673 91.7381 240.14V239.52L90.0781 239.76C89.0515 239.893 88.5381 240.28 88.5381 240.92C88.5381 241.24 88.6515 241.5 88.8781 241.7C89.1181 241.887 89.4381 241.98 89.8381 241.98ZM97.1378 244V233.68H100.878V235.2H101.078C101.491 234.587 101.924 234.14 102.378 233.86C102.844 233.58 103.378 233.44 103.978 233.44C104.684 233.44 105.311 233.62 105.858 233.98C106.418 234.327 106.851 234.813 107.158 235.44C107.464 236.067 107.618 236.773 107.618 237.56V244H103.878V238.26C103.878 237.753 103.744 237.347 103.478 237.04C103.224 236.733 102.878 236.58 102.438 236.58C101.998 236.58 101.624 236.747 101.318 237.08C101.024 237.4 100.878 237.813 100.878 238.32V244H97.1378ZM113.427 244.26C112.52 244.26 111.72 244.04 111.027 243.6C110.333 243.16 109.793 242.533 109.407 241.72C109.033 240.893 108.847 239.933 108.847 238.84C108.847 237.76 109.033 236.813 109.407 236C109.793 235.173 110.333 234.54 111.027 234.1C111.72 233.647 112.513 233.42 113.407 233.42C114.7 233.42 115.7 233.907 116.407 234.88H116.607V229.08H120.347V244H116.607V242.8H116.407C115.7 243.773 114.707 244.26 113.427 244.26ZM114.687 241.12C115.287 241.12 115.78 240.907 116.167 240.48C116.567 240.04 116.767 239.493 116.767 238.84C116.767 238.187 116.567 237.647 116.167 237.22C115.78 236.78 115.287 236.56 114.687 236.56C114.087 236.56 113.587 236.78 113.187 237.22C112.8 237.647 112.607 238.187 112.607 238.84C112.607 239.493 112.8 240.04 113.187 240.48C113.587 240.907 114.087 241.12 114.687 241.12ZM133.962 244H129.182L126.302 233.68H130.142L131.782 240.22H131.982L133.602 233.68H137.002L138.802 240.32H139.002L140.622 233.68H144.342L141.422 244H136.662L135.422 238.08H135.222L133.962 244ZM150.369 244.26C149.236 244.26 148.229 244.04 147.349 243.6C146.482 243.147 145.802 242.507 145.309 241.68C144.829 240.853 144.589 239.893 144.589 238.8C144.589 237.72 144.836 236.773 145.329 235.96C145.822 235.147 146.509 234.52 147.389 234.08C148.269 233.64 149.276 233.42 150.409 233.42C151.529 233.42 152.516 233.647 153.369 234.1C154.222 234.54 154.882 235.167 155.349 235.98C155.816 236.793 156.049 237.747 156.049 238.84C156.049 239.32 156.029 239.66 155.989 239.86H148.449C148.569 240.433 148.816 240.88 149.189 241.2C149.562 241.52 150.022 241.68 150.569 241.68C151.009 241.68 151.389 241.58 151.709 241.38C152.029 241.18 152.269 240.907 152.429 240.56L155.649 241.14C155.396 242.1 154.782 242.86 153.809 243.42C152.849 243.98 151.702 244.26 150.369 244.26ZM152.269 237.86C152.216 237.34 152.009 236.9 151.649 236.54C151.289 236.18 150.849 236 150.329 236C149.822 236 149.402 236.167 149.069 236.5C148.736 236.833 148.516 237.287 148.409 237.86H152.269ZM161.112 244H157.372V229.08H161.112V244ZM168.2 244.26C167.08 244.26 166.087 244.04 165.22 243.6C164.353 243.147 163.673 242.513 163.18 241.7C162.7 240.873 162.46 239.92 162.46 238.84C162.46 237.747 162.7 236.793 163.18 235.98C163.66 235.153 164.333 234.52 165.2 234.08C166.067 233.64 167.067 233.42 168.2 233.42C169.693 233.42 170.933 233.787 171.92 234.52C172.907 235.253 173.48 236.26 173.64 237.54L170.18 237.98C170.087 237.527 169.853 237.153 169.48 236.86C169.12 236.567 168.713 236.42 168.26 236.42C167.66 236.42 167.167 236.647 166.78 237.1C166.393 237.553 166.2 238.133 166.2 238.84C166.2 239.547 166.393 240.127 166.78 240.58C167.167 241.033 167.653 241.26 168.24 241.26C168.707 241.26 169.12 241.12 169.48 240.84C169.84 240.547 170.073 240.173 170.18 239.72L173.64 240.14C173.467 241.42 172.887 242.427 171.9 243.16C170.913 243.893 169.68 244.26 168.2 244.26ZM180.526 244.26C179.339 244.26 178.306 244.04 177.426 243.6C176.559 243.16 175.886 242.533 175.406 241.72C174.926 240.907 174.686 239.947 174.686 238.84C174.686 237.72 174.919 236.753 175.386 235.94C175.866 235.127 176.546 234.507 177.426 234.08C178.306 233.64 179.339 233.42 180.526 233.42C181.699 233.42 182.726 233.64 183.606 234.08C184.486 234.52 185.159 235.147 185.626 235.96C186.106 236.773 186.346 237.733 186.346 238.84C186.346 239.96 186.106 240.927 185.626 241.74C185.159 242.553 184.486 243.18 183.606 243.62C182.726 244.047 181.699 244.26 180.526 244.26ZM180.526 241.12C181.139 241.12 181.639 240.907 182.026 240.48C182.413 240.053 182.606 239.507 182.606 238.84C182.606 238.173 182.413 237.627 182.026 237.2C181.639 236.773 181.139 236.56 180.526 236.56C179.913 236.56 179.413 236.773 179.026 237.2C178.639 237.627 178.446 238.173 178.446 238.84C178.446 239.507 178.639 240.053 179.026 240.48C179.413 240.907 179.913 241.12 180.526 241.12ZM187.665 244V233.68H191.385V235.34H191.605C191.912 234.753 192.325 234.287 192.845 233.94C193.365 233.593 193.945 233.42 194.585 233.42C195.252 233.42 195.865 233.607 196.425 233.98C196.985 234.34 197.392 234.813 197.645 235.4H197.845C198.112 234.787 198.518 234.307 199.065 233.96C199.612 233.613 200.252 233.44 200.985 233.44C201.705 233.44 202.345 233.607 202.905 233.94C203.465 234.273 203.905 234.747 204.225 235.36C204.545 235.96 204.705 236.653 204.705 237.44V244H200.945V238.28C200.945 237.8 200.812 237.4 200.545 237.08C200.278 236.747 199.918 236.573 199.465 236.56C199.012 236.56 198.652 236.72 198.385 237.04C198.118 237.36 197.985 237.773 197.985 238.28V244H194.225V238.28C194.225 237.76 194.098 237.347 193.845 237.04C193.592 236.72 193.252 236.56 192.825 236.56C192.385 236.56 192.038 236.72 191.785 237.04C191.532 237.347 191.405 237.76 191.405 238.28V244H187.665ZM211.697 244.26C210.564 244.26 209.557 244.04 208.677 243.6C207.81 243.147 207.13 242.507 206.637 241.68C206.157 240.853 205.917 239.893 205.917 238.8C205.917 237.72 206.164 236.773 206.657 235.96C207.15 235.147 207.837 234.52 208.717 234.08C209.597 233.64 210.604 233.42 211.737 233.42C212.857 233.42 213.844 233.647 214.697 234.1C215.55 234.54 216.21 235.167 216.677 235.98C217.144 236.793 217.377 237.747 217.377 238.84C217.377 239.32 217.357 239.66 217.317 239.86H209.777C209.897 240.433 210.144 240.88 210.517 241.2C210.89 241.52 211.35 241.68 211.897 241.68C212.337 241.68 212.717 241.58 213.037 241.38C213.357 241.18 213.597 240.907 213.757 240.56L216.977 241.14C216.724 242.1 216.11 242.86 215.137 243.42C214.177 243.98 213.03 244.26 211.697 244.26ZM213.597 237.86C213.544 237.34 213.337 236.9 212.977 236.54C212.617 236.18 212.177 236 211.657 236C211.15 236 210.73 236.167 210.397 236.5C210.064 236.833 209.844 237.287 209.737 237.86H213.597ZM222.997 244.26C222.09 244.26 221.29 244.04 220.597 243.6C219.904 243.16 219.364 242.533 218.977 241.72C218.604 240.893 218.417 239.933 218.417 238.84C218.417 237.76 218.604 236.813 218.977 236C219.364 235.173 219.904 234.54 220.597 234.1C221.29 233.647 222.084 233.42 222.977 233.42C224.27 233.42 225.27 233.907 225.977 234.88H226.177V229.08H229.917V244H226.177V242.8H225.977C225.27 243.773 224.277 244.26 222.997 244.26ZM224.257 241.12C224.857 241.12 225.35 240.907 225.737 240.48C226.137 240.04 226.337 239.493 226.337 238.84C226.337 238.187 226.137 237.647 225.737 237.22C225.35 236.78 224.857 236.56 224.257 236.56C223.657 236.56 223.157 236.78 222.757 237.22C222.37 237.647 222.177 238.187 222.177 238.84C222.177 239.493 222.37 240.04 222.757 240.48C223.157 240.907 223.657 241.12 224.257 241.12ZM239.452 244.24C238.412 244.24 237.579 243.98 236.952 243.46C236.326 242.927 236.012 242.2 236.012 241.28C236.012 240.293 236.419 239.52 237.232 238.96C238.046 238.387 239.306 237.987 241.012 237.76L242.812 237.54V237.08C242.812 236.693 242.692 236.387 242.452 236.16C242.212 235.92 241.879 235.8 241.452 235.8C241.039 235.8 240.699 235.927 240.432 236.18C240.179 236.433 240.052 236.773 240.052 237.2H236.432C236.432 236.44 236.639 235.773 237.052 235.2C237.466 234.627 238.052 234.187 238.812 233.88C239.586 233.573 240.479 233.42 241.492 233.42C242.506 233.42 243.392 233.58 244.152 233.9C244.926 234.207 245.519 234.647 245.932 235.22C246.359 235.793 246.572 236.46 246.572 237.22V244H242.812V242.78H242.612C242.332 243.247 241.906 243.607 241.332 243.86C240.772 244.113 240.146 244.24 239.452 244.24ZM240.912 241.98C241.472 241.98 241.926 241.807 242.272 241.46C242.632 241.113 242.812 240.673 242.812 240.14V239.52L241.152 239.76C240.126 239.893 239.612 240.28 239.612 240.92C239.612 241.24 239.726 241.5 239.952 241.7C240.192 241.887 240.512 241.98 240.912 241.98ZM251.952 244H248.212V229.08H251.952V244ZM257.46 244H253.72V229.08H257.46V244ZM37.04 257.42C38.32 257.42 39.3133 257.907 40.02 258.88H40.22V257.68H43.96V272.6H40.22V266.8H40.02C39.3133 267.773 38.3133 268.26 37.02 268.26C36.1267 268.26 35.3333 268.04 34.64 267.6C33.9467 267.147 33.4067 266.513 33.02 265.7C32.6467 264.873 32.46 263.92 32.46 262.84C32.46 261.747 32.6467 260.793 33.02 259.98C33.4067 259.153 33.9467 258.52 34.64 258.08C35.3333 257.64 36.1333 257.42 37.04 257.42ZM38.3 260.56C37.7 260.56 37.2 260.78 36.8 261.22C36.4133 261.647 36.22 262.187 36.22 262.84C36.22 263.493 36.4133 264.04 36.8 264.48C37.2 264.907 37.7 265.12 38.3 265.12C38.9 265.12 39.3933 264.907 39.78 264.48C40.18 264.04 40.38 263.493 40.38 262.84C40.38 262.187 40.18 261.647 39.78 261.22C39.3933 260.78 38.9 260.56 38.3 260.56ZM56.072 257.68V268H52.332V266.48H52.132C51.7187 267.093 51.2787 267.54 50.812 267.82C50.3587 268.1 49.832 268.24 49.232 268.24C48.5254 268.24 47.892 268.067 47.332 267.72C46.7854 267.36 46.3587 266.867 46.052 266.24C45.7454 265.613 45.592 264.907 45.592 264.12V257.68H49.332V263.42C49.332 263.927 49.4587 264.34 49.712 264.66C49.9787 264.967 50.332 265.12 50.772 265.12C51.212 265.12 51.5787 264.96 51.872 264.64C52.1787 264.307 52.332 263.88 52.332 263.36V257.68H56.072ZM63.2009 268.26C62.0676 268.26 61.0609 268.04 60.1809 267.6C59.3143 267.147 58.6343 266.507 58.1409 265.68C57.6609 264.853 57.4209 263.893 57.4209 262.8C57.4209 261.72 57.6676 260.773 58.1609 259.96C58.6543 259.147 59.3409 258.52 60.2209 258.08C61.1009 257.64 62.1076 257.42 63.2409 257.42C64.3609 257.42 65.3476 257.647 66.2009 258.1C67.0543 258.54 67.7143 259.167 68.1809 259.98C68.6476 260.793 68.8809 261.747 68.8809 262.84C68.8809 263.32 68.8609 263.66 68.8209 263.86H61.2809C61.4009 264.433 61.6476 264.88 62.0209 265.2C62.3943 265.52 62.8543 265.68 63.4009 265.68C63.8409 265.68 64.2209 265.58 64.5409 265.38C64.8609 265.18 65.1009 264.907 65.2609 264.56L68.4809 265.14C68.2276 266.1 67.6143 266.86 66.6409 267.42C65.6809 267.98 64.5343 268.26 63.2009 268.26ZM65.1009 261.86C65.0476 261.34 64.8409 260.9 64.4809 260.54C64.1209 260.18 63.6809 260 63.1609 260C62.6543 260 62.2343 260.167 61.9009 260.5C61.5676 260.833 61.3476 261.287 61.2409 261.86H65.1009ZM74.8442 268.34C73.2976 268.34 72.0709 268.007 71.1642 267.34C70.2576 266.673 69.8042 265.76 69.8042 264.6H72.9842C72.9842 265.04 73.1576 265.393 73.5042 265.66C73.8642 265.927 74.3376 266.06 74.9242 266.06C75.3642 266.06 75.7242 265.973 76.0042 265.8C76.2842 265.613 76.4242 265.367 76.4242 265.06C76.4242 264.727 76.2642 264.5 75.9442 264.38C75.6242 264.26 75.1309 264.167 74.4642 264.1C73.5176 264.007 72.7442 263.893 72.1442 263.76C71.5576 263.627 71.0309 263.34 70.5642 262.9C70.0976 262.447 69.8642 261.78 69.8642 260.9C69.8642 259.82 70.3042 258.96 71.1842 258.32C72.0776 257.68 73.2642 257.36 74.7442 257.36C75.6909 257.36 76.5442 257.507 77.3042 257.8C78.0642 258.08 78.6576 258.48 79.0842 259C79.5109 259.52 79.7242 260.127 79.7242 260.82H76.4042C76.3909 260.46 76.2309 260.173 75.9242 259.96C75.6176 259.733 75.2242 259.62 74.7442 259.62C74.3176 259.62 73.9709 259.707 73.7042 259.88C73.4376 260.053 73.3042 260.28 73.3042 260.56C73.3042 260.867 73.4709 261.08 73.8042 261.2C74.1509 261.307 74.7109 261.407 75.4842 261.5C75.5776 261.5 75.7176 261.513 75.9042 261.54C77.1576 261.673 78.1776 261.953 78.9642 262.38C79.7509 262.807 80.1442 263.56 80.1442 264.64C80.1442 265.787 79.6709 266.693 78.7242 267.36C77.7776 268.013 76.4842 268.34 74.8442 268.34ZM85.9328 268.26C84.8128 268.26 83.9128 267.9 83.2328 267.18C82.5528 266.447 82.2128 265.48 82.2128 264.28V260.34H80.8928V257.68H82.3528L83.0328 254.46H85.9728V257.68H88.1328V260.34H85.9728V264.1C85.9728 264.5 86.0795 264.827 86.2928 265.08C86.5195 265.32 86.8195 265.44 87.1928 265.44C87.4861 265.44 87.8195 265.393 88.1928 265.3V267.9C87.8861 268.02 87.5195 268.107 87.0928 268.16C86.6661 268.227 86.2795 268.26 85.9328 268.26ZM91.4406 256.56C90.8273 256.56 90.3206 256.367 89.9206 255.98C89.5206 255.593 89.3206 255.1 89.3206 254.5C89.3206 253.9 89.5206 253.413 89.9206 253.04C90.3206 252.653 90.8273 252.46 91.4406 252.46C92.0673 252.46 92.5806 252.653 92.9806 253.04C93.3806 253.413 93.5806 253.9 93.5806 254.5C93.5806 255.1 93.3806 255.593 92.9806 255.98C92.5806 256.367 92.0673 256.56 91.4406 256.56ZM93.3206 268H89.5806V257.68H93.3206V268ZM100.546 268.26C99.359 268.26 98.3256 268.04 97.4456 267.6C96.579 267.16 95.9056 266.533 95.4256 265.72C94.9456 264.907 94.7056 263.947 94.7056 262.84C94.7056 261.72 94.939 260.753 95.4056 259.94C95.8856 259.127 96.5656 258.507 97.4456 258.08C98.3256 257.64 99.359 257.42 100.546 257.42C101.719 257.42 102.746 257.64 103.626 258.08C104.506 258.52 105.179 259.147 105.646 259.96C106.126 260.773 106.366 261.733 106.366 262.84C106.366 263.96 106.126 264.927 105.646 265.74C105.179 266.553 104.506 267.18 103.626 267.62C102.746 268.047 101.719 268.26 100.546 268.26ZM100.546 265.12C101.159 265.12 101.659 264.907 102.046 264.48C102.432 264.053 102.626 263.507 102.626 262.84C102.626 262.173 102.432 261.627 102.046 261.2C101.659 260.773 101.159 260.56 100.546 260.56C99.9323 260.56 99.4323 260.773 99.0456 261.2C98.659 261.627 98.4656 262.173 98.4656 262.84C98.4656 263.507 98.659 264.053 99.0456 264.48C99.4323 264.907 99.9323 265.12 100.546 265.12ZM107.685 268V257.68H111.425V259.2H111.625C112.038 258.587 112.471 258.14 112.925 257.86C113.391 257.58 113.925 257.44 114.525 257.44C115.231 257.44 115.858 257.62 116.405 257.98C116.965 258.327 117.398 258.813 117.705 259.44C118.011 260.067 118.165 260.773 118.165 261.56V268H114.425V262.26C114.425 261.753 114.291 261.347 114.025 261.04C113.771 260.733 113.425 260.58 112.985 260.58C112.545 260.58 112.171 260.747 111.865 261.08C111.571 261.4 111.425 261.813 111.425 262.32V268H107.685ZM124.454 268.34C122.907 268.34 121.68 268.007 120.774 267.34C119.867 266.673 119.414 265.76 119.414 264.6H122.594C122.594 265.04 122.767 265.393 123.114 265.66C123.474 265.927 123.947 266.06 124.534 266.06C124.974 266.06 125.334 265.973 125.614 265.8C125.894 265.613 126.034 265.367 126.034 265.06C126.034 264.727 125.874 264.5 125.554 264.38C125.234 264.26 124.74 264.167 124.074 264.1C123.127 264.007 122.354 263.893 121.754 263.76C121.167 263.627 120.64 263.34 120.174 262.9C119.707 262.447 119.474 261.78 119.474 260.9C119.474 259.82 119.914 258.96 120.794 258.32C121.687 257.68 122.874 257.36 124.354 257.36C125.3 257.36 126.154 257.507 126.914 257.8C127.674 258.08 128.267 258.48 128.694 259C129.12 259.52 129.334 260.127 129.334 260.82H126.014C126 260.46 125.84 260.173 125.534 259.96C125.227 259.733 124.834 259.62 124.354 259.62C123.927 259.62 123.58 259.707 123.314 259.88C123.047 260.053 122.914 260.28 122.914 260.56C122.914 260.867 123.08 261.08 123.414 261.2C123.76 261.307 124.32 261.407 125.094 261.5C125.187 261.5 125.327 261.513 125.514 261.54C126.767 261.673 127.787 261.953 128.574 262.38C129.36 262.807 129.754 263.56 129.754 264.64C129.754 265.787 129.28 266.693 128.334 267.36C127.387 268.013 126.094 268.34 124.454 268.34ZM140.465 268H136.245V253.68H140.465V268ZM147.373 268V253.08H151.113V259.16H151.313C151.713 258.56 152.146 258.12 152.613 257.84C153.079 257.56 153.613 257.42 154.213 257.42C154.919 257.42 155.546 257.6 156.093 257.96C156.653 258.307 157.086 258.8 157.393 259.44C157.699 260.067 157.853 260.773 157.853 261.56V268H154.093V262.24C154.093 261.747 153.959 261.347 153.693 261.04C153.439 260.72 153.093 260.56 152.653 260.56C152.213 260.56 151.846 260.727 151.553 261.06C151.259 261.38 151.113 261.8 151.113 262.32V268H147.373ZM162.421 268.24C161.381 268.24 160.548 267.98 159.921 267.46C159.294 266.927 158.981 266.2 158.981 265.28C158.981 264.293 159.388 263.52 160.201 262.96C161.014 262.387 162.274 261.987 163.981 261.76L165.781 261.54V261.08C165.781 260.693 165.661 260.387 165.421 260.16C165.181 259.92 164.848 259.8 164.421 259.8C164.008 259.8 163.668 259.927 163.401 260.18C163.148 260.433 163.021 260.773 163.021 261.2H159.401C159.401 260.44 159.608 259.773 160.021 259.2C160.434 258.627 161.021 258.187 161.781 257.88C162.554 257.573 163.448 257.42 164.461 257.42C165.474 257.42 166.361 257.58 167.121 257.9C167.894 258.207 168.488 258.647 168.901 259.22C169.328 259.793 169.541 260.46 169.541 261.22V268H165.781V266.78H165.581C165.301 267.247 164.874 267.607 164.301 267.86C163.741 268.113 163.114 268.24 162.421 268.24ZM163.881 265.98C164.441 265.98 164.894 265.807 165.241 265.46C165.601 265.113 165.781 264.673 165.781 264.14V263.52L164.121 263.76C163.094 263.893 162.581 264.28 162.581 264.92C162.581 265.24 162.694 265.5 162.921 265.7C163.161 265.887 163.481 265.98 163.881 265.98ZM175.341 268.26C174.434 268.26 173.634 268.04 172.941 267.6C172.247 267.16 171.707 266.533 171.321 265.72C170.947 264.893 170.761 263.933 170.761 262.84C170.761 261.76 170.947 260.813 171.321 260C171.707 259.173 172.247 258.54 172.941 258.1C173.634 257.647 174.427 257.42 175.321 257.42C176.614 257.42 177.614 257.907 178.321 258.88H178.521V253.08H182.261V268H178.521V266.8H178.321C177.614 267.773 176.621 268.26 175.341 268.26ZM176.601 265.12C177.201 265.12 177.694 264.907 178.081 264.48C178.481 264.04 178.681 263.493 178.681 262.84C178.681 262.187 178.481 261.647 178.081 261.22C177.694 260.78 177.201 260.56 176.601 260.56C176.001 260.56 175.501 260.78 175.101 261.22C174.714 261.647 174.521 262.187 174.521 262.84C174.521 263.493 174.714 264.04 175.101 264.48C175.501 264.907 176.001 265.12 176.601 265.12ZM195.876 268H191.096L188.216 257.68H192.056L193.696 264.22H193.896L195.516 257.68H198.916L200.716 264.32H200.916L202.536 257.68H206.256L203.336 268H198.576L197.336 262.08H197.136L195.876 268ZM209.273 256.56C208.659 256.56 208.153 256.367 207.753 255.98C207.353 255.593 207.153 255.1 207.153 254.5C207.153 253.9 207.353 253.413 207.753 253.04C208.153 252.653 208.659 252.46 209.273 252.46C209.899 252.46 210.413 252.653 210.813 253.04C211.213 253.413 211.413 253.9 211.413 254.5C211.413 255.1 211.213 255.593 210.813 255.98C210.413 256.367 209.899 256.56 209.273 256.56ZM211.153 268H207.413V257.68H211.153V268ZM217.398 268.26C216.278 268.26 215.378 267.9 214.698 267.18C214.018 266.447 213.678 265.48 213.678 264.28V260.34H212.358V257.68H213.818L214.498 254.46H217.438V257.68H219.598V260.34H217.438V264.1C217.438 264.5 217.544 264.827 217.758 265.08C217.984 265.32 218.284 265.44 218.658 265.44C218.951 265.44 219.284 265.393 219.658 265.3V267.9C219.351 268.02 218.984 268.107 218.558 268.16C218.131 268.227 217.744 268.26 217.398 268.26ZM221.005 268V253.08H224.745V259.16H224.945C225.345 258.56 225.779 258.12 226.245 257.84C226.712 257.56 227.245 257.42 227.845 257.42C228.552 257.42 229.179 257.6 229.725 257.96C230.285 258.307 230.719 258.8 231.025 259.44C231.332 260.067 231.485 260.773 231.485 261.56V268H227.725V262.24C227.725 261.747 227.592 261.347 227.325 261.04C227.072 260.72 226.725 260.56 226.285 260.56C225.845 260.56 225.479 260.727 225.185 261.06C224.892 261.38 224.745 261.8 224.745 262.32V268H221.005ZM242.637 268.34C241.091 268.34 239.864 268.007 238.957 267.34C238.051 266.673 237.597 265.76 237.597 264.6H240.777C240.777 265.04 240.951 265.393 241.297 265.66C241.657 265.927 242.131 266.06 242.717 266.06C243.157 266.06 243.517 265.973 243.797 265.8C244.077 265.613 244.217 265.367 244.217 265.06C244.217 264.727 244.057 264.5 243.737 264.38C243.417 264.26 242.924 264.167 242.257 264.1C241.311 264.007 240.537 263.893 239.937 263.76C239.351 263.627 238.824 263.34 238.357 262.9C237.891 262.447 237.657 261.78 237.657 260.9C237.657 259.82 238.097 258.96 238.977 258.32C239.871 257.68 241.057 257.36 242.537 257.36C243.484 257.36 244.337 257.507 245.097 257.8C245.857 258.08 246.451 258.48 246.877 259C247.304 259.52 247.517 260.127 247.517 260.82H244.197C244.184 260.46 244.024 260.173 243.717 259.96C243.411 259.733 243.017 259.62 242.537 259.62C242.111 259.62 241.764 259.707 241.497 259.88C241.231 260.053 241.097 260.28 241.097 260.56C241.097 260.867 241.264 261.08 241.597 261.2C241.944 261.307 242.504 261.407 243.277 261.5C243.371 261.5 243.511 261.513 243.697 261.54C244.951 261.673 245.971 261.953 246.757 262.38C247.544 262.807 247.937 263.56 247.937 264.64C247.937 265.787 247.464 266.693 246.517 267.36C245.571 268.013 244.277 268.34 242.637 268.34ZM254.706 268.26C253.519 268.26 252.486 268.04 251.606 267.6C250.739 267.16 250.066 266.533 249.586 265.72C249.106 264.907 248.866 263.947 248.866 262.84C248.866 261.72 249.099 260.753 249.566 259.94C250.046 259.127 250.726 258.507 251.606 258.08C252.486 257.64 253.519 257.42 254.706 257.42C255.879 257.42 256.906 257.64 257.786 258.08C258.666 258.52 259.339 259.147 259.806 259.96C260.286 260.773 260.526 261.733 260.526 262.84C260.526 263.96 260.286 264.927 259.806 265.74C259.339 266.553 258.666 267.18 257.786 267.62C256.906 268.047 255.879 268.26 254.706 268.26ZM254.706 265.12C255.319 265.12 255.819 264.907 256.206 264.48C256.592 264.053 256.786 263.507 256.786 262.84C256.786 262.173 256.592 261.627 256.206 261.2C255.819 260.773 255.319 260.56 254.706 260.56C254.092 260.56 253.592 260.773 253.206 261.2C252.819 261.627 252.626 262.173 252.626 262.84C252.626 263.507 252.819 264.053 253.206 264.48C253.592 264.907 254.092 265.12 254.706 265.12ZM266.708 268V257.68H270.428V259.34H270.648C270.955 258.753 271.368 258.287 271.888 257.94C272.408 257.593 272.988 257.42 273.628 257.42C274.295 257.42 274.908 257.607 275.468 257.98C276.028 258.34 276.435 258.813 276.688 259.4H276.888C277.155 258.787 277.561 258.307 278.108 257.96C278.655 257.613 279.295 257.44 280.028 257.44C280.748 257.44 281.388 257.607 281.948 257.94C282.508 258.273 282.948 258.747 283.268 259.36C283.588 259.96 283.748 260.653 283.748 261.44V268H279.988V262.28C279.988 261.8 279.855 261.4 279.588 261.08C279.321 260.747 278.961 260.573 278.508 260.56C278.055 260.56 277.695 260.72 277.428 261.04C277.161 261.36 277.028 261.773 277.028 262.28V268H273.268V262.28C273.268 261.76 273.141 261.347 272.888 261.04C272.635 260.72 272.295 260.56 271.868 260.56C271.428 260.56 271.081 260.72 270.828 261.04C270.575 261.347 270.448 261.76 270.448 262.28V268H266.708ZM295.74 257.68V268H292V266.48H291.8C291.387 267.093 290.947 267.54 290.48 267.82C290.027 268.1 289.5 268.24 288.9 268.24C288.193 268.24 287.56 268.067 287 267.72C286.453 267.36 286.027 266.867 285.72 266.24C285.413 265.613 285.26 264.907 285.26 264.12V257.68H289V263.42C289 263.927 289.127 264.34 289.38 264.66C289.647 264.967 290 265.12 290.44 265.12C290.88 265.12 291.247 264.96 291.54 264.64C291.847 264.307 292 263.88 292 263.36V257.68H295.74ZM302.829 268.26C301.709 268.26 300.716 268.04 299.849 267.6C298.982 267.147 298.302 266.513 297.809 265.7C297.329 264.873 297.089 263.92 297.089 262.84C297.089 261.747 297.329 260.793 297.809 259.98C298.289 259.153 298.962 258.52 299.829 258.08C300.696 257.64 301.696 257.42 302.829 257.42C304.322 257.42 305.562 257.787 306.549 258.52C307.536 259.253 308.109 260.26 308.269 261.54L304.809 261.98C304.716 261.527 304.482 261.153 304.109 260.86C303.749 260.567 303.342 260.42 302.889 260.42C302.289 260.42 301.796 260.647 301.409 261.1C301.022 261.553 300.829 262.133 300.829 262.84C300.829 263.547 301.022 264.127 301.409 264.58C301.796 265.033 302.282 265.26 302.869 265.26C303.336 265.26 303.749 265.12 304.109 264.84C304.469 264.547 304.702 264.173 304.809 263.72L308.269 264.14C308.096 265.42 307.516 266.427 306.529 267.16C305.542 267.893 304.309 268.26 302.829 268.26ZM309.638 268V253.08H313.378V259.16H313.578C313.978 258.56 314.412 258.12 314.878 257.84C315.345 257.56 315.878 257.42 316.478 257.42C317.185 257.42 317.812 257.6 318.358 257.96C318.918 258.307 319.352 258.8 319.658 259.44C319.965 260.067 320.118 260.773 320.118 261.56V268H316.358V262.24C316.358 261.747 316.225 261.347 315.958 261.04C315.705 260.72 315.358 260.56 314.918 260.56C314.478 260.56 314.112 260.727 313.818 261.06C313.525 261.38 313.378 261.8 313.378 262.32V268H309.638ZM39.8 281.42C40.7067 281.42 41.5067 281.64 42.2 282.08C42.8933 282.52 43.4267 283.153 43.8 283.98C44.1867 284.793 44.38 285.747 44.38 286.84C44.38 287.92 44.1867 288.873 43.8 289.7C43.4267 290.513 42.8933 291.147 42.2 291.6C41.5067 292.04 40.7133 292.26 39.82 292.26C38.5267 292.26 37.5267 291.773 36.82 290.8H36.62V296.6H32.88V281.68H36.62V282.88H36.82C37.5267 281.907 38.52 281.42 39.8 281.42ZM38.54 284.56C37.94 284.56 37.44 284.78 37.04 285.22C36.6533 285.647 36.46 286.187 36.46 286.84C36.46 287.493 36.6533 288.04 37.04 288.48C37.44 288.907 37.94 289.12 38.54 289.12C39.14 289.12 39.6333 288.907 40.02 288.48C40.42 288.04 40.62 287.493 40.62 286.84C40.62 286.187 40.42 285.647 40.02 285.22C39.6333 284.78 39.14 284.56 38.54 284.56ZM48.632 292.24C47.592 292.24 46.7587 291.98 46.132 291.46C45.5054 290.927 45.192 290.2 45.192 289.28C45.192 288.293 45.5987 287.52 46.412 286.96C47.2254 286.387 48.4854 285.987 50.192 285.76L51.992 285.54V285.08C51.992 284.693 51.872 284.387 51.632 284.16C51.392 283.92 51.0587 283.8 50.632 283.8C50.2187 283.8 49.8787 283.927 49.612 284.18C49.3587 284.433 49.232 284.773 49.232 285.2H45.612C45.612 284.44 45.8187 283.773 46.232 283.2C46.6454 282.627 47.232 282.187 47.992 281.88C48.7654 281.573 49.6587 281.42 50.672 281.42C51.6854 281.42 52.572 281.58 53.332 281.9C54.1054 282.207 54.6987 282.647 55.112 283.22C55.5387 283.793 55.752 284.46 55.752 285.22V292H51.992V290.78H51.792C51.512 291.247 51.0854 291.607 50.512 291.86C49.952 292.113 49.3254 292.24 48.632 292.24ZM50.092 289.98C50.652 289.98 51.1054 289.807 51.452 289.46C51.812 289.113 51.992 288.673 51.992 288.14V287.52L50.332 287.76C49.3054 287.893 48.792 288.28 48.792 288.92C48.792 289.24 48.9054 289.5 49.132 289.7C49.372 289.887 49.692 289.98 50.092 289.98ZM61.8117 292.26C60.6917 292.26 59.7917 291.9 59.1117 291.18C58.4317 290.447 58.0917 289.48 58.0917 288.28V284.34H56.7717V281.68H58.2317L58.9117 278.46H61.8517V281.68H64.0117V284.34H61.8517V288.1C61.8517 288.5 61.9584 288.827 62.1717 289.08C62.3984 289.32 62.6984 289.44 63.0717 289.44C63.3651 289.44 63.6984 289.393 64.0717 289.3V291.9C63.7651 292.02 63.3984 292.107 62.9717 292.16C62.5451 292.227 62.1584 292.26 61.8117 292.26ZM67.3195 280.56C66.7062 280.56 66.1995 280.367 65.7995 279.98C65.3995 279.593 65.1995 279.1 65.1995 278.5C65.1995 277.9 65.3995 277.413 65.7995 277.04C66.1995 276.653 66.7062 276.46 67.3195 276.46C67.9462 276.46 68.4595 276.653 68.8595 277.04C69.2595 277.413 69.4595 277.9 69.4595 278.5C69.4595 279.1 69.2595 279.593 68.8595 279.98C68.4595 280.367 67.9462 280.56 67.3195 280.56ZM69.1995 292H65.4595V281.68H69.1995V292ZM76.3845 292.26C75.2512 292.26 74.2445 292.04 73.3645 291.6C72.4979 291.147 71.8179 290.507 71.3245 289.68C70.8445 288.853 70.6045 287.893 70.6045 286.8C70.6045 285.72 70.8512 284.773 71.3445 283.96C71.8379 283.147 72.5245 282.52 73.4045 282.08C74.2845 281.64 75.2912 281.42 76.4245 281.42C77.5445 281.42 78.5312 281.647 79.3845 282.1C80.2379 282.54 80.8979 283.167 81.3645 283.98C81.8312 284.793 82.0645 285.747 82.0645 286.84C82.0645 287.32 82.0445 287.66 82.0045 287.86H74.4645C74.5845 288.433 74.8312 288.88 75.2045 289.2C75.5779 289.52 76.0379 289.68 76.5845 289.68C77.0245 289.68 77.4045 289.58 77.7245 289.38C78.0445 289.18 78.2845 288.907 78.4445 288.56L81.6645 289.14C81.4112 290.1 80.7979 290.86 79.8245 291.42C78.8645 291.98 77.7179 292.26 76.3845 292.26ZM78.2845 285.86C78.2312 285.34 78.0245 284.9 77.6645 284.54C77.3045 284.18 76.8645 284 76.3445 284C75.8379 284 75.4179 284.167 75.0845 284.5C74.7512 284.833 74.5312 285.287 74.4245 285.86H78.2845ZM83.3878 292V281.68H87.1278V283.2H87.3278C87.7411 282.587 88.1745 282.14 88.6278 281.86C89.0945 281.58 89.6278 281.44 90.2278 281.44C90.9345 281.44 91.5611 281.62 92.1078 281.98C92.6678 282.327 93.1011 282.813 93.4078 283.44C93.7145 284.067 93.8678 284.773 93.8678 285.56V292H90.1278V286.26C90.1278 285.753 89.9945 285.347 89.7278 285.04C89.4745 284.733 89.1278 284.58 88.6878 284.58C88.2478 284.58 87.8745 284.747 87.5678 285.08C87.2745 285.4 87.1278 285.813 87.1278 286.32V292H83.3878ZM100.837 292.26C99.7167 292.26 98.7234 292.04 97.8567 291.6C96.9901 291.147 96.3101 290.513 95.8167 289.7C95.3367 288.873 95.0967 287.92 95.0967 286.84C95.0967 285.747 95.3367 284.793 95.8167 283.98C96.2967 283.153 96.9701 282.52 97.8367 282.08C98.7034 281.64 99.7034 281.42 100.837 281.42C102.33 281.42 103.57 281.787 104.557 282.52C105.543 283.253 106.117 284.26 106.277 285.54L102.817 285.98C102.723 285.527 102.49 285.153 102.117 284.86C101.757 284.567 101.35 284.42 100.897 284.42C100.297 284.42 99.8034 284.647 99.4167 285.1C99.0301 285.553 98.8367 286.133 98.8367 286.84C98.8367 287.547 99.0301 288.127 99.4167 288.58C99.8034 289.033 100.29 289.26 100.877 289.26C101.343 289.26 101.757 289.12 102.117 288.84C102.477 288.547 102.71 288.173 102.817 287.72L106.277 288.14C106.103 289.42 105.523 290.427 104.537 291.16C103.55 291.893 102.317 292.26 100.837 292.26ZM113.123 292.26C111.989 292.26 110.983 292.04 110.103 291.6C109.236 291.147 108.556 290.507 108.063 289.68C107.583 288.853 107.343 287.893 107.343 286.8C107.343 285.72 107.589 284.773 108.083 283.96C108.576 283.147 109.263 282.52 110.143 282.08C111.023 281.64 112.029 281.42 113.163 281.42C114.283 281.42 115.269 281.647 116.123 282.1C116.976 282.54 117.636 283.167 118.103 283.98C118.569 284.793 118.803 285.747 118.803 286.84C118.803 287.32 118.783 287.66 118.743 287.86H111.203C111.323 288.433 111.569 288.88 111.943 289.2C112.316 289.52 112.776 289.68 113.323 289.68C113.763 289.68 114.143 289.58 114.463 289.38C114.783 289.18 115.023 288.907 115.183 288.56L118.403 289.14C118.149 290.1 117.536 290.86 116.563 291.42C115.603 291.98 114.456 292.26 113.123 292.26ZM115.023 285.86C114.969 285.34 114.763 284.9 114.403 284.54C114.043 284.18 113.603 284 113.083 284C112.576 284 112.156 284.167 111.823 284.5C111.489 284.833 111.269 285.287 111.163 285.86H115.023ZM121.669 292.22C121.056 292.22 120.549 292.033 120.149 291.66C119.762 291.273 119.569 290.787 119.569 290.2C119.569 289.613 119.762 289.133 120.149 288.76C120.549 288.373 121.056 288.18 121.669 288.18C122.282 288.18 122.782 288.373 123.169 288.76C123.569 289.133 123.769 289.613 123.769 290.2C123.769 290.787 123.569 291.273 123.169 291.66C122.782 292.033 122.282 292.22 121.669 292.22Z" fill="white"></path><path d="M33.233 326.818H34.7045L38.1648 335.27H38.2841L41.7443 326.818H43.2159V337H42.0625V329.264H41.9631L38.7812 337H37.6676L34.4858 329.264H34.3864V337H33.233V326.818ZM45.5289 337V329.364H46.7022V337H45.5289ZM46.1255 328.091C45.8968 328.091 45.6996 328.013 45.5339 327.857C45.3715 327.701 45.2903 327.514 45.2903 327.295C45.2903 327.077 45.3715 326.889 45.5339 326.734C45.6996 326.578 45.8968 326.5 46.1255 326.5C46.3542 326.5 46.5498 326.578 46.7122 326.734C46.8779 326.889 46.9608 327.077 46.9608 327.295C46.9608 327.514 46.8779 327.701 46.7122 327.857C46.5498 328.013 46.3542 328.091 46.1255 328.091ZM51.9535 337.159C51.2376 337.159 50.6211 336.99 50.104 336.652C49.587 336.314 49.1893 335.848 48.9109 335.255C48.6325 334.662 48.4933 333.984 48.4933 333.222C48.4933 332.446 48.6358 331.762 48.9208 331.168C49.2092 330.572 49.6102 330.106 50.1239 329.771C50.641 329.433 51.2442 329.264 51.9336 329.264C52.4705 329.264 52.9544 329.364 53.3853 329.562C53.8162 329.761 54.1692 330.04 54.4442 330.398C54.7193 330.756 54.89 331.173 54.9563 331.651H53.783C53.6935 331.303 53.4947 330.994 53.1864 330.726C52.8815 330.454 52.4705 330.318 51.9535 330.318C51.4961 330.318 51.0951 330.437 50.7504 330.676C50.409 330.911 50.1422 331.245 49.9499 331.675C49.761 332.103 49.6665 332.605 49.6665 333.182C49.6665 333.772 49.7594 334.286 49.945 334.723C50.1339 335.161 50.399 335.5 50.7404 335.742C51.0851 335.984 51.4895 336.105 51.9535 336.105C52.2584 336.105 52.5352 336.052 52.7837 335.946C53.0323 335.84 53.2428 335.688 53.4151 335.489C53.5875 335.29 53.7101 335.051 53.783 334.773H54.9563C54.89 335.223 54.726 335.629 54.4641 335.991C54.2056 336.349 53.8626 336.634 53.435 336.846C53.0108 337.055 52.5169 337.159 51.9535 337.159ZM57.8448 332.406V337H56.6715V326.818H57.8448V330.557H57.9442C58.1232 330.162 58.3917 329.849 58.7496 329.617C59.1109 329.382 59.5915 329.264 60.1914 329.264C60.7118 329.264 61.1675 329.369 61.5586 329.577C61.9497 329.783 62.253 330.099 62.4684 330.527C62.6871 330.951 62.7965 331.491 62.7965 332.148V337H61.6232V332.227C61.6232 331.621 61.4658 331.152 61.1509 330.82C60.8394 330.486 60.4068 330.318 59.8533 330.318C59.4689 330.318 59.1242 330.399 58.8192 330.562C58.5176 330.724 58.279 330.961 58.1033 331.273C57.931 331.584 57.8448 331.962 57.8448 332.406ZM68.1447 337.159C67.4089 337.159 66.7742 336.997 66.2406 336.672C65.7103 336.344 65.301 335.886 65.0126 335.3C64.7276 334.71 64.585 334.024 64.585 333.241C64.585 332.459 64.7276 331.77 65.0126 331.173C65.301 330.573 65.702 330.106 66.2157 329.771C66.7328 329.433 67.336 329.264 68.0254 329.264C68.4231 329.264 68.8159 329.33 69.2037 329.463C69.5914 329.596 69.9444 329.811 70.2626 330.109C70.5808 330.404 70.8343 330.795 71.0233 331.283C71.2122 331.77 71.3066 332.37 71.3066 333.082V333.58H65.4203V332.565H70.1135C70.1135 332.134 70.0273 331.75 69.8549 331.412C69.6859 331.074 69.444 330.807 69.1291 330.612C68.8175 330.416 68.4496 330.318 68.0254 330.318C67.5581 330.318 67.1537 330.434 66.8123 330.666C66.4743 330.895 66.2141 331.193 66.0318 331.561C65.8495 331.929 65.7583 332.323 65.7583 332.744V333.42C65.7583 333.997 65.8578 334.486 66.0566 334.887C66.2588 335.285 66.5389 335.588 66.8968 335.797C67.2548 336.002 67.6708 336.105 68.1447 336.105C68.4529 336.105 68.7314 336.062 68.9799 335.976C69.2318 335.886 69.4489 335.754 69.6312 335.578C69.8135 335.399 69.9544 335.177 70.0538 334.912L71.1873 335.23C71.068 335.615 70.8675 335.953 70.5858 336.244C70.304 336.533 69.956 336.758 69.5417 336.92C69.1274 337.08 68.6618 337.159 68.1447 337.159ZM74.2647 326.818V337H73.0914V326.818H74.2647ZM77.587 326.818V337H76.4137V326.818H77.587ZM82.9377 337.159C82.2019 337.159 81.5672 336.997 81.0336 336.672C80.5033 336.344 80.0939 335.886 79.8056 335.3C79.5205 334.71 79.378 334.024 79.378 333.241C79.378 332.459 79.5205 331.77 79.8056 331.173C80.0939 330.573 80.495 330.106 81.0087 329.771C81.5257 329.433 82.129 329.264 82.8184 329.264C83.2161 329.264 83.6088 329.33 83.9966 329.463C84.3844 329.596 84.7374 329.811 85.0556 330.109C85.3738 330.404 85.6273 330.795 85.8162 331.283C86.0051 331.77 86.0996 332.37 86.0996 333.082V333.58H80.2132V332.565H84.9064C84.9064 332.134 84.8203 331.75 84.6479 331.412C84.4789 331.074 84.2369 330.807 83.9221 330.612C83.6105 330.416 83.2426 330.318 82.8184 330.318C82.351 330.318 81.9467 330.434 81.6053 330.666C81.2672 330.895 81.007 331.193 80.8248 331.561C80.6425 331.929 80.5513 332.323 80.5513 332.744V333.42C80.5513 333.997 80.6507 334.486 80.8496 334.887C81.0518 335.285 81.3319 335.588 81.6898 335.797C82.0478 336.002 82.4637 336.105 82.9377 336.105C83.2459 336.105 83.5243 336.062 83.7729 335.976C84.0248 335.886 84.2419 335.754 84.4242 335.578C84.6065 335.399 84.7473 335.177 84.8468 334.912L85.9803 335.23C85.861 335.615 85.6605 335.953 85.3787 336.244C85.097 336.533 84.749 336.758 84.3347 336.92C83.9204 337.08 83.4547 337.159 82.9377 337.159ZM93.5321 323.537V340.281H92.5378V323.537H93.5321ZM100.916 337H99.6236L103.362 326.818H104.635L108.374 337H107.081L104.038 328.429H103.959L100.916 337ZM101.393 333.023H106.604V334.116H101.393V333.023ZM109.8 337V329.364H110.934V330.517H111.013C111.153 330.139 111.405 329.833 111.769 329.597C112.134 329.362 112.545 329.244 113.002 329.244C113.088 329.244 113.196 329.246 113.325 329.249C113.455 329.253 113.552 329.258 113.619 329.264V330.457C113.579 330.447 113.488 330.433 113.345 330.413C113.206 330.389 113.058 330.378 112.903 330.378C112.531 330.378 112.2 330.456 111.908 330.612C111.62 330.764 111.391 330.976 111.222 331.248C111.057 331.516 110.974 331.823 110.974 332.168V337H109.8ZM115.009 337V329.364H116.183V337H115.009ZM115.606 328.091C115.377 328.091 115.18 328.013 115.014 327.857C114.852 327.701 114.771 327.514 114.771 327.295C114.771 327.077 114.852 326.889 115.014 326.734C115.18 326.578 115.377 326.5 115.606 326.5C115.835 326.5 116.03 326.578 116.193 326.734C116.358 326.889 116.441 327.077 116.441 327.295C116.441 327.514 116.358 327.701 116.193 327.857C116.03 328.013 115.835 328.091 115.606 328.091ZM118.113 337V336.105L122.448 330.537V330.457H118.252V329.364H123.96V330.298L119.744 335.827V335.906H124.099V337H118.113ZM128.789 337.159C128.1 337.159 127.495 336.995 126.975 336.667C126.458 336.339 126.053 335.88 125.762 335.29C125.473 334.7 125.329 334.01 125.329 333.222C125.329 332.426 125.473 331.732 125.762 331.138C126.053 330.545 126.458 330.085 126.975 329.756C127.495 329.428 128.1 329.264 128.789 329.264C129.479 329.264 130.082 329.428 130.599 329.756C131.119 330.085 131.524 330.545 131.812 331.138C132.104 331.732 132.25 332.426 132.25 333.222C132.25 334.01 132.104 334.7 131.812 335.29C131.524 335.88 131.119 336.339 130.599 336.667C130.082 336.995 129.479 337.159 128.789 337.159ZM128.789 336.105C129.313 336.105 129.744 335.971 130.082 335.702C130.42 335.434 130.67 335.081 130.833 334.643C130.995 334.206 131.076 333.732 131.076 333.222C131.076 332.711 130.995 332.236 130.833 331.795C130.67 331.354 130.42 330.998 130.082 330.726C129.744 330.454 129.313 330.318 128.789 330.318C128.266 330.318 127.835 330.454 127.497 330.726C127.159 330.998 126.908 331.354 126.746 331.795C126.584 332.236 126.502 332.711 126.502 333.222C126.502 333.732 126.584 334.206 126.746 334.643C126.908 335.081 127.159 335.434 127.497 335.702C127.835 335.971 128.266 336.105 128.789 336.105ZM135.214 332.406V337H134.041V329.364H135.174V330.557H135.274C135.453 330.169 135.724 329.857 136.089 329.622C136.454 329.384 136.924 329.264 137.501 329.264C138.018 329.264 138.47 329.37 138.858 329.582C139.246 329.791 139.548 330.109 139.763 330.537C139.978 330.961 140.086 331.498 140.086 332.148V337H138.913V332.227C138.913 331.627 138.757 331.16 138.445 330.825C138.134 330.487 137.706 330.318 137.163 330.318C136.788 330.318 136.454 330.399 136.159 330.562C135.867 330.724 135.637 330.961 135.468 331.273C135.298 331.584 135.214 331.962 135.214 332.406ZM144.477 337.179C143.993 337.179 143.554 337.088 143.16 336.906C142.765 336.72 142.452 336.453 142.22 336.105C141.988 335.754 141.872 335.33 141.872 334.832C141.872 334.395 141.958 334.04 142.131 333.768C142.303 333.493 142.533 333.278 142.822 333.122C143.11 332.966 143.428 332.85 143.776 332.774C144.128 332.695 144.481 332.632 144.835 332.585C145.299 332.526 145.675 332.481 145.964 332.451C146.255 332.418 146.468 332.363 146.6 332.287C146.736 332.211 146.804 332.078 146.804 331.889V331.849C146.804 331.359 146.67 330.978 146.401 330.706C146.136 330.434 145.733 330.298 145.193 330.298C144.633 330.298 144.194 330.421 143.876 330.666C143.558 330.911 143.334 331.173 143.205 331.452L142.091 331.054C142.29 330.59 142.555 330.229 142.886 329.97C143.221 329.708 143.586 329.526 143.98 329.423C144.378 329.317 144.769 329.264 145.153 329.264C145.399 329.264 145.68 329.294 145.999 329.354C146.32 329.41 146.63 329.528 146.928 329.707C147.23 329.886 147.48 330.156 147.679 330.517C147.878 330.878 147.977 331.362 147.977 331.969V337H146.804V335.966H146.744C146.665 336.132 146.532 336.309 146.347 336.498C146.161 336.687 145.914 336.848 145.606 336.98C145.298 337.113 144.921 337.179 144.477 337.179ZM144.656 336.125C145.12 336.125 145.511 336.034 145.83 335.852C146.151 335.669 146.393 335.434 146.555 335.146C146.721 334.857 146.804 334.554 146.804 334.236V333.162C146.754 333.222 146.645 333.276 146.476 333.326C146.31 333.372 146.118 333.414 145.899 333.45C145.684 333.483 145.473 333.513 145.268 333.54C145.066 333.563 144.902 333.583 144.776 333.599C144.471 333.639 144.186 333.704 143.92 333.793C143.659 333.879 143.446 334.01 143.284 334.186C143.125 334.358 143.045 334.594 143.045 334.892C143.045 335.3 143.196 335.608 143.498 335.817C143.803 336.022 144.189 336.125 144.656 336.125Z" fill="white"></path><defs><clipPath id="clip0_2549_4178"><rect width="44" height="36" fill="white" transform="translate(32 32)"></rect></clipPath></defs></svg> 