<?xml version="1.0" encoding="UTF-8"?> <svg xmlns="http://www.w3.org/2000/svg" width="316" height="95" viewBox="0 0 316 95" fill="none"><path d="M37.723 0.0210931C21.8584 0.364258 5.71438 6.73698 4.34762 24.9341C2.89006 44.353 -0.591116 55.1975 1.19192 67.9794C2.97496 80.7614 22.6049 93.4833 50.4319 91.3677C81.7695 88.9844 108.481 90.4455 110.81 66.0148C113.102 41.9673 94.2815 31.2172 85.3639 22.552C76.4487 13.8856 67.7859 -0.628679 37.723 0.0210931Z" fill="#FFF0E1"></path><path d="M105.579 94.7435H40.3201L9.72656 21.7698L64.2767 21.0469C64.2944 21.0575 64.3109 21.0669 64.3286 21.0787C66.2661 22.2403 72.0929 25.7368 74.7486 27.33C74.8394 27.3842 74.929 27.4373 75.0115 27.488L105.579 94.7447V94.7435Z" fill="#136F65"></path><mask id="mask0_2112_19076" style="mask-type:alpha" maskUnits="userSpaceOnUse" x="9" y="21" width="97" height="74"><path d="M105.579 94.7435H40.3201L9.72656 21.7698L64.2767 21.0469C64.2944 21.0575 64.3109 21.0669 64.3286 21.0787C66.2661 22.2403 72.0929 25.7368 74.7486 27.33C74.8394 27.3842 74.929 27.4373 75.0115 27.488L105.579 94.7447V94.7435Z" fill="#136F65"></path></mask><g mask="url(#mask0_2112_19076)"><path d="M9.89826 37.9486C10.2072 38.0406 10.5268 38.0983 10.8464 38.1526C11.1671 38.195 11.4891 38.234 11.811 38.2458C12.3853 38.2764 12.9584 38.2528 13.5327 38.1137C13.6813 38.0783 13.8441 38.0547 13.9985 38.0182C14.2804 37.9557 14.5599 37.8802 14.837 37.7965C14.9632 37.7587 15.0882 37.695 15.2061 37.6644C15.7875 37.5075 16.3488 37.2882 16.8818 37.0028C17.3276 36.846 17.7285 36.6066 18.1354 36.3672C18.5434 36.1278 18.962 35.8896 19.3394 35.6125C19.4396 35.5405 19.5576 35.4592 19.6661 35.3967C20.3265 35.0146 20.9456 34.5641 21.5493 34.09C22.1956 33.5818 22.8277 33.0606 23.4362 32.5157C23.5977 32.3695 23.7605 32.2174 23.9102 32.0499L24.1378 31.8023C24.2121 31.7186 24.2805 31.6289 24.3524 31.544C24.6968 31.1384 24.981 30.6879 25.2569 30.2362C25.639 29.5699 25.9209 28.8494 26.0411 28.1029C26.0706 27.9803 26.0765 27.8529 26.0883 27.7279C26.0989 27.6029 26.1143 27.4779 26.1213 27.3518L26.1178 26.9744C26.1178 26.8494 26.1178 26.722 26.1025 26.6053C26.0753 26.3694 25.9963 26.156 25.8501 26.064C25.7074 25.9649 25.4598 25.9484 25.2227 25.9532C24.7416 25.9661 24.2569 26.1159 23.8418 26.3895C23.4255 26.6619 23.0741 27.0404 22.8088 27.4732C22.5435 27.906 22.363 28.3942 22.2946 28.8989C22.2675 29.0876 22.2593 29.2798 22.2675 29.4697C22.2746 29.6607 22.2982 29.8482 22.3477 30.0358C22.4267 30.4131 22.58 30.7728 22.7652 31.1101C22.9362 31.4273 23.1579 31.7162 23.3996 31.9815C23.639 32.2516 23.9161 32.4863 24.2027 32.708C25.0612 33.3554 26.073 33.787 27.1296 33.9933C27.2629 34.0169 27.3938 34.0488 27.527 34.0641L27.928 34.116C28.1968 34.136 28.4645 34.1596 28.7346 34.1573C29.2723 34.1596 29.8112 34.1207 30.3407 34.0252C30.849 33.932 31.3466 33.7929 31.8325 33.6183C32.0719 33.5228 32.3136 33.4344 32.5471 33.3247L32.711 33.2528C32.7653 33.2268 32.8172 33.1985 32.8702 33.1714C32.9764 33.116 33.0837 33.0641 33.1875 33.0063C33.3926 32.8848 33.6014 32.7681 33.796 32.6301C33.9976 32.5028 34.1816 32.3506 34.3726 32.2068C34.5519 32.0487 34.7394 31.9002 34.9056 31.728C35.8868 30.7716 36.6297 29.5735 37.0743 28.2775C37.3314 27.544 37.4823 26.7704 37.4918 25.9991C37.4941 25.7833 37.5248 25.7138 37.5767 25.7963C37.6215 25.8682 37.6686 25.9331 37.7087 26.0298C37.7477 26.1265 37.7877 26.2539 37.7913 26.4484C37.7948 26.5805 37.8019 26.7091 37.7913 26.8435C37.7783 26.9779 37.7583 27.1194 37.7229 27.2798C37.6014 27.7362 37.5165 28.235 37.2925 28.6489C37.2642 28.7079 37.2323 28.7975 37.204 28.8695C36.7453 30.1855 35.8891 31.3589 34.8384 32.2763C34.5 32.583 34.1309 32.8577 33.75 33.1124L33.3691 33.3424C33.2393 33.4132 33.1061 33.4804 32.974 33.5488C32.8797 33.6007 32.7783 33.6396 32.6804 33.6844C32.5813 33.7268 32.4834 33.7728 32.3832 33.8117C32.1804 33.8837 31.9823 33.9709 31.7759 34.0323C31.4705 34.1396 31.1674 34.2363 30.869 34.2445C30.8065 34.2445 30.6403 34.2811 30.5848 34.307C30.4775 34.3589 30.3561 34.3872 30.2287 34.4108C30.1013 34.432 29.9681 34.4556 29.8336 34.4639C29.1108 34.5334 28.382 34.5134 27.6638 34.4143C27.3973 34.3837 27.1343 34.3271 26.8702 34.2764C26.6095 34.2127 26.3478 34.1525 26.0919 34.0688C25.6944 33.9415 25.3053 33.7882 24.9315 33.5995C24.5588 33.4084 24.2003 33.1867 23.8631 32.9308C23.3088 32.4945 22.8088 31.9627 22.4538 31.3353C22.4137 31.2622 22.3666 31.1938 22.3288 31.1195C22.2911 31.0452 22.2545 30.9709 22.2192 30.8943L22.1708 30.7893L22.1307 30.6796C22.1036 30.6065 22.0777 30.5322 22.0505 30.4591C22.0022 30.3105 21.9727 30.1596 21.9456 30.0181C21.9043 29.6926 21.8949 29.4438 21.8607 29.1407C21.8394 28.9697 21.8772 28.7008 21.9302 28.4886C21.9963 28.215 22.1024 27.9555 22.2274 27.715C22.3807 27.426 22.547 27.176 22.7286 26.8753C22.8253 26.7114 23.0104 26.5227 23.1767 26.3859C23.5399 26.0841 23.9562 25.8376 24.4138 25.6984C24.6425 25.6289 24.8796 25.5852 25.119 25.5734C25.3595 25.5664 25.5954 25.564 25.8536 25.6501C25.9397 25.6807 26.027 25.7256 26.1048 25.7869C26.1827 25.8482 26.2463 25.926 26.2959 26.0074C26.3937 26.1725 26.435 26.347 26.4586 26.5133C26.4692 26.597 26.4763 26.6784 26.4798 26.7598V26.9968C26.4739 27.1548 26.4834 27.314 26.468 27.4709C26.4244 28.1041 26.2711 28.7244 26.0553 29.3199C25.8725 29.781 25.6532 30.2303 25.3878 30.6466C24.9833 31.3011 24.4999 31.9002 23.9739 32.4497C23.4444 32.9969 22.8748 33.4981 22.2828 33.9686C22.0517 34.1549 21.81 34.3342 21.5835 34.5181C21.0564 34.9415 20.5045 35.3212 19.9314 35.6738C19.2415 36.0983 18.5587 36.5264 17.85 36.9191C17.6849 37.0099 17.5198 37.1066 17.35 37.1832C16.7592 37.4556 16.1613 37.7139 15.5469 37.9356C14.9337 38.1585 14.3028 38.3436 13.6554 38.4568C12.6094 38.6432 11.5268 38.6597 10.4796 38.4734C10.0752 38.4002 9.67774 38.2965 9.29094 38.1656C8.90179 38.03 8.50791 37.8519 8.18716 37.5488C8.14588 37.5087 8.09871 37.4698 8.06215 37.4238C7.89824 37.2281 7.85107 37.0547 7.85578 36.9781C7.85814 36.899 7.91003 36.9085 7.99847 36.9839C8.16239 37.116 8.35225 37.2929 8.67537 37.4946C9.03151 37.7186 9.46076 37.8472 9.89001 37.9616L9.89826 37.9486Z" fill="#9FF17B"></path><path d="M16.9975 50.5465C17.1048 50.3578 17.231 50.1797 17.3536 49.9993L17.7204 49.4592C17.8477 49.2823 17.9834 49.1136 18.1154 48.9415C18.2499 48.7728 18.376 48.5971 18.5187 48.4368C18.6449 48.2929 18.7711 48.1502 18.8973 48.0075L19.0848 47.7929L19.1779 47.6856L19.2758 47.583C19.4067 47.445 19.5364 47.3058 19.665 47.1632C19.7947 47.0228 19.9162 46.8719 20.0541 46.7327C20.1921 46.5865 20.3537 46.4391 20.5034 46.2917L20.7086 46.0912C20.7782 46.0264 20.8525 45.965 20.9232 45.9013L21.3537 45.5228C21.4185 45.465 21.4834 45.4025 21.5459 45.3412C21.6108 45.2822 21.678 45.228 21.7428 45.1808C22.3855 44.7103 23.0306 44.2539 23.6898 43.8058C23.8278 43.7339 23.9634 43.6596 24.0966 43.5806C24.2299 43.5016 24.3608 43.4214 24.4976 43.3494C24.7665 43.1973 25.0353 43.044 25.3066 42.8907C25.5884 42.7563 25.8726 42.6195 26.1556 42.4839C26.2959 42.4119 26.4422 42.3565 26.586 42.294C26.7299 42.2327 26.8726 42.1702 27.0141 42.1053C27.1639 42.0381 27.3361 41.9603 27.4976 41.919C27.7405 41.8494 27.9823 41.7775 28.224 41.7032L28.4045 41.6466L28.5884 41.5982L28.9564 41.5015C29.4493 41.3848 29.9481 41.2845 30.454 41.2209C30.9965 41.1572 31.5448 41.1289 32.092 41.1631C32.638 41.2008 33.1793 41.2904 33.7005 41.4485C34.2524 41.6254 34.8137 41.8647 35.3055 42.1973L35.5248 42.3459L35.7288 42.5157C35.7961 42.5735 35.8668 42.6265 35.9317 42.6879L36.1156 42.8789C36.3704 43.1254 36.5732 43.4214 36.7548 43.7256C37.269 44.623 37.4812 45.6572 37.4812 46.6797C37.4859 46.8518 37.4706 47.0228 37.4635 47.195L37.4364 47.4521C37.4282 47.5382 37.4175 47.6231 37.4022 47.708C37.355 48.05 37.2678 48.386 37.1711 48.7198C37.0673 49.05 36.9447 49.3743 36.8032 49.6915C36.6581 50.0064 36.5048 50.3177 36.3279 50.6148C35.9753 51.2245 35.539 51.7953 35.085 52.333C34.9034 52.55 34.7159 52.7611 34.526 52.9698L34.4517 53.0512L34.3326 53.1786L34.0968 53.4309L33.6298 53.925C33.6215 53.5937 33.6121 53.2434 33.6121 52.9203L33.6286 52.5194C33.6357 52.4132 33.6486 52.3071 33.6592 52.201C33.6758 51.9875 33.7158 51.7788 33.7477 51.5677C33.7642 51.4627 33.7913 51.359 33.8114 51.254C33.835 51.1502 33.8538 51.0453 33.8833 50.9427C34.0107 50.4238 34.1923 49.9191 34.4057 49.4297C34.6215 48.9415 34.868 48.4662 35.1581 48.0193C35.4281 47.6018 35.7171 47.1962 36.0355 46.8141C36.355 46.4344 36.6947 46.0688 37.059 45.7304C38.1393 44.7256 39.4011 43.9167 40.7619 43.3388C41.4435 43.0511 42.1499 42.8188 42.8752 42.6619C43.0568 42.6277 43.2384 42.5817 43.4212 42.5581L43.9695 42.4791L44.2443 42.439C44.3363 42.4261 44.4282 42.4237 44.5202 42.4143L45.0733 42.3718C45.2502 42.3541 45.4283 42.3541 45.6051 42.3518L46.137 42.3435C46.2254 42.34 46.3139 42.3435 46.4035 42.3482L46.6688 42.36L47.2007 42.3848C47.5533 42.4202 47.9071 42.4603 48.2585 42.5074C49.5592 42.7067 50.8316 43.0546 52.0628 43.5004C52.9413 43.8282 53.8057 44.1938 54.643 44.6112C55.4779 45.0346 56.301 45.4815 57.0888 45.9851C57.3164 46.1219 57.5369 46.2693 57.7562 46.4167C57.9756 46.5641 58.1996 46.7068 58.4119 46.8624C58.8411 47.1667 59.2728 47.4674 59.7091 47.7599C59.9544 47.9238 60.0157 48.0004 59.893 47.9827C59.6808 47.9521 59.498 47.9462 59.0546 47.7021C58.7539 47.5358 58.4779 47.3766 58.143 47.1195C57.6513 46.7528 57.0864 46.4379 56.6017 46.0759C56.5333 46.024 56.4272 45.9603 56.3388 45.912C54.7503 45.0582 53.1324 44.2327 51.413 43.6608L50.992 43.5204L50.5639 43.4025L50.1359 43.2858C49.9932 43.2457 49.8481 43.2197 49.7042 43.1855L49.1441 43.0582C48.9566 43.0216 48.7667 42.9909 48.5781 42.9567L48.1677 42.8824L47.7538 42.8294C47.4778 42.7964 47.2019 42.7539 46.9247 42.7468C46.716 42.7362 46.5096 42.7303 46.308 42.7162C46.1075 42.7067 45.9106 42.7032 45.7219 42.6737C45.6429 42.6619 45.4212 42.6655 45.3445 42.6796C45.0497 42.7457 44.7054 42.7692 44.3598 42.7893C44.1275 42.8152 43.8964 42.8494 43.6653 42.8789C43.5497 42.8954 43.4329 42.906 43.3186 42.9273L42.9754 42.9921C42.5202 43.09 42.0662 43.2032 41.6263 43.3589C40.973 43.5817 40.3398 43.8683 39.7419 44.2068C38.815 44.7362 37.9624 45.3801 37.2041 46.123C36.5661 46.7386 35.993 47.4273 35.513 48.1702C35.4093 48.3471 35.3031 48.5193 35.21 48.6997C35.1652 48.7823 35.1192 48.8648 35.0744 48.9486C35.0331 49.0335 34.9906 49.1195 34.9494 49.2045C34.8621 49.3731 34.789 49.5441 34.71 49.7009C34.6192 49.8743 34.5602 50.0382 34.4989 50.1974C34.4446 50.3589 34.4069 50.5217 34.3751 50.6998C34.3621 50.8012 34.335 50.9285 34.3019 51.0618C34.2677 51.195 34.243 51.3377 34.2123 51.4639C34.1416 51.7906 34.0838 52.1172 34.0401 52.4427C34.0248 52.5264 34.0236 52.6102 34.0154 52.6939C34.013 52.721 34.013 52.7186 34.0118 52.7269L34.0083 52.7469L34.0024 52.7894C33.9977 52.846 33.9977 52.9191 34.0118 52.9451C34.026 52.925 34.0413 52.9038 34.0555 52.8814C34.0826 52.8389 34.1015 52.8153 34.1251 52.7929L34.1439 52.7764L34.1545 52.767L34.1899 52.7304C34.2394 52.6797 34.2878 52.6302 34.3326 52.583C35.1392 51.7517 35.855 50.8071 36.3633 49.7611C36.7135 49.0547 36.9623 48.3047 37.0791 47.5358C37.1864 46.7669 37.1758 45.9792 36.9954 45.2327C36.8633 44.6466 36.6274 44.0865 36.2914 43.5971C36.1605 43.4072 36.0142 43.2291 35.8503 43.0652C35.7005 42.8883 35.5107 42.7539 35.3385 42.6006C34.9635 42.3306 34.5555 42.1041 34.1192 41.9379C33.2406 41.6147 32.2842 41.4921 31.3302 41.5216C31.237 41.5251 31.1427 41.5239 31.0484 41.531L30.7653 41.5534C30.5767 41.5652 30.3903 41.5959 30.2076 41.6242C29.9953 41.6537 29.7866 41.7055 29.5766 41.7433C29.3679 41.7905 29.1592 41.8364 28.9516 41.8883C28.5377 41.9897 28.1285 42.1277 27.7158 42.2515C26.7299 42.5782 25.7794 42.9992 24.8891 43.5216C24.6792 43.6395 24.4693 43.761 24.2676 43.886C22.8277 44.7115 21.5435 45.7763 20.3702 46.9379C19.4232 47.8813 18.5565 48.9073 17.8065 50.017L17.5907 50.3389C17.5187 50.4462 17.4444 50.5523 17.3819 50.6656L16.9869 51.3318C16.9539 51.3873 16.9197 51.4427 16.889 51.4993L16.8006 51.6715L16.6225 52.0158C16.5046 52.2458 16.3796 52.4734 16.2805 52.7128C16.2546 52.7753 16.2274 52.8413 16.2027 52.9038C15.9621 53.4415 15.8241 53.5913 15.8324 53.2929C15.8371 53.1609 15.8642 52.9981 15.9173 52.8047C15.9432 52.708 15.9763 52.6043 16.0163 52.4934C16.0364 52.438 16.0588 52.3814 16.08 52.3212C16.1071 52.2646 16.1355 52.2045 16.1649 52.1443L16.5659 51.3413L17.014 50.5641L17.0046 50.5512L16.9975 50.5465Z" fill="#9FF17B"></path><path d="M20.9536 59.802C21.6493 59.6806 22.351 59.5697 23.0444 59.4966C23.6635 59.4318 24.2708 59.3834 24.8994 59.2832C25.0609 59.2572 25.239 59.2466 25.4088 59.2313C25.719 59.2006 26.0291 59.1782 26.3392 59.1523C26.4808 59.1417 26.6282 59.1122 26.7591 59.111C27.4088 59.1086 28.0527 59.1051 28.706 59.131C29.2072 59.223 29.7049 59.2773 30.2013 59.4235C30.6954 59.5709 31.1707 59.815 31.5905 60.1204C31.6447 60.1629 31.7013 60.2101 31.7579 60.2596C31.7851 60.2844 31.8134 60.3091 31.8405 60.3339C31.8641 60.3622 31.8877 60.3893 31.9113 60.4153L32.0127 60.5379C32.0469 60.578 32.0811 60.6181 32.1094 60.6641L32.2874 60.9259C32.3452 61.0143 32.3888 61.111 32.4396 61.203C32.4631 61.2502 32.4914 61.295 32.5127 61.3433L32.5716 61.4896C32.6601 61.6818 32.7096 61.887 32.7698 62.0898C32.8075 62.2974 32.8535 62.5037 32.8653 62.7148C32.9042 63.1641 32.883 63.6181 32.8039 64.058C32.7273 64.4979 32.6153 64.9295 32.4631 65.3434C32.3039 65.7856 32.1341 66.2455 31.9466 66.6877C31.7214 67.2137 31.4903 67.7337 31.2544 68.2538C30.9101 69.0062 30.574 69.7562 30.2815 70.5215C29.8876 71.5439 29.5362 72.5864 29.2921 73.6501C29.1695 74.1902 29.0574 74.7433 28.9855 75.2963C28.9619 75.5735 28.9265 75.8518 28.9206 76.1277C28.9124 76.2657 28.9206 76.4048 28.9183 76.5428C28.9206 76.6808 28.9324 76.8199 28.9395 76.9579C28.9843 77.5098 29.094 78.0593 29.2791 78.5806C29.5492 79.3636 30.0256 80.0853 30.686 80.5676C30.765 80.6207 30.8369 80.6832 30.9219 80.7268L31.1707 80.866C31.3464 80.9379 31.5162 81.0252 31.7013 81.0688C31.8806 81.1313 32.0693 81.1561 32.2556 81.1926C32.4455 81.2068 32.633 81.2327 32.8252 81.2245C33.39 81.2221 33.9561 81.1101 34.5021 80.932C35.0481 80.7539 35.5752 80.5098 36.0823 80.2292C36.5906 79.9485 37.0752 79.6289 37.5516 79.2846C37.6708 79.1997 37.7922 79.1171 37.9101 79.0299L38.2604 78.7634L38.6106 78.498L38.9514 78.2209C39.1684 78.0416 39.3878 77.8659 39.5953 77.6749C39.8029 77.485 40.0187 77.3046 40.2203 77.1089C40.4255 76.9166 40.6307 76.7232 40.8347 76.531C41.5883 75.8093 42.2982 75.0428 42.9633 74.2374C43.9102 73.0817 44.7628 71.8458 45.5069 70.5498C45.7098 70.1772 45.9267 69.8128 46.1084 69.4307C46.2015 69.2408 46.2982 69.0522 46.3855 68.8599C46.4704 68.6665 46.5529 68.472 46.6343 68.2774C46.7251 68.0592 46.7805 68.0003 46.7959 68.1029C46.8218 68.2809 46.8643 68.4342 46.7463 68.8328C46.6709 69.1052 46.573 69.347 46.4067 69.6512C46.2876 69.8729 46.1661 70.1005 46.0459 70.3269C45.922 70.5522 45.8006 70.7774 45.6449 70.9732C45.6025 71.0286 45.5529 71.117 45.514 71.189C44.8112 72.4921 43.9185 73.6925 42.9515 74.8175C42.7911 74.9992 42.6331 75.1843 42.4762 75.3694C42.3194 75.5546 42.1508 75.7303 41.988 75.9107C41.7781 76.1454 41.5529 76.3671 41.3288 76.5876C41.1673 76.7492 41.0022 76.9084 40.8312 77.0605C40.6637 77.2162 40.4951 77.3706 40.3276 77.5263C40.0694 77.7539 39.8288 77.9886 39.5552 78.1454C39.4962 78.1773 39.3583 78.2928 39.317 78.3424C39.159 78.5346 38.9385 78.7162 38.7073 78.8825C38.3972 79.1101 38.0906 79.3436 37.7698 79.5546L37.2934 79.8801C37.1307 79.9827 36.9703 80.0912 36.804 80.1891C36.317 80.4863 35.8134 80.761 35.2898 80.9933C34.8853 81.1761 34.4643 81.3294 34.0292 81.4379C33.5952 81.544 33.1448 81.6207 32.686 81.6077C32.3051 81.5936 31.916 81.5499 31.548 81.4226L31.4089 81.3801L31.2744 81.3235L31.0068 81.208C30.8381 81.1113 30.6624 81.024 30.5079 80.9049C30.3558 80.807 30.219 80.6926 30.0834 80.5735C29.8475 80.3436 29.6105 80.0829 29.4631 79.8117C29.4218 79.7362 29.3794 79.6678 29.3428 79.5995C29.3086 79.5299 29.2732 79.4638 29.2367 79.399C29.16 79.2716 29.0987 79.1419 29.0103 79.0086C28.9584 78.9343 28.9183 78.827 28.8735 78.715C28.8263 78.603 28.7921 78.4803 28.7626 78.3707C28.7202 78.2303 28.6931 78.0876 28.6671 77.9449C28.6376 77.8034 28.6258 77.6607 28.6093 77.5192C28.5869 77.3506 28.5857 77.1855 28.5669 77.0192C28.5598 76.853 28.5374 76.6843 28.5173 76.5015C28.5067 76.4037 28.4985 76.2869 28.5032 76.1666C28.5091 76.0463 28.5173 75.9237 28.5291 75.8128C28.6435 74.847 28.8263 73.8883 29.0822 72.9472C29.4395 71.6736 29.9266 70.446 30.4513 69.2455C30.6565 68.7738 30.8735 68.3069 31.0858 67.8399C31.416 67.1111 31.7532 66.3976 32.0115 65.6594C32.1424 65.2903 32.2521 64.9177 32.344 64.5403C32.3664 64.446 32.383 64.3504 32.403 64.2561C32.4242 64.1618 32.4419 64.0662 32.4537 63.9707L32.495 63.6853L32.5186 63.3988C32.5268 63.3233 32.528 63.249 32.528 63.1735V62.9483C32.5221 62.7985 32.508 62.6511 32.4879 62.5061C32.3688 61.8457 32.1259 61.2195 31.6872 60.7219C31.4301 60.4188 31.1046 60.1759 30.7461 59.9966C30.3865 59.8162 29.9961 59.6947 29.5964 59.6169C29.4089 59.5839 29.2178 59.5579 29.0303 59.5308C28.7037 59.4789 28.3711 59.4518 28.0374 59.4447C27.7037 59.4341 27.3676 59.4447 27.0315 59.4636C26.3569 59.5049 25.6789 59.5685 25.0043 59.6334C23.9112 59.7384 22.8215 59.8716 21.739 60.0532C20.9029 60.1924 20.0715 60.3551 19.2448 60.5462C19.1906 60.5603 19.1352 60.5756 19.0809 60.5898C18.6116 60.7006 18.4441 60.6735 18.6375 60.5108C18.8085 60.3657 19.1057 60.2301 19.5337 60.124C20.0066 60.0108 20.4807 59.9094 20.9571 59.815L20.9595 59.7997L20.9536 59.802Z" fill="#9FF17B"></path><path d="M34.7835 91.9775C35.2234 91.244 35.688 90.52 36.1845 89.836C36.6255 89.224 37.0831 88.6461 37.5253 88.0176C37.6408 87.856 37.7753 87.6886 37.9074 87.5294L38.2635 87.0907L38.6267 86.6579C38.7352 86.5247 38.8437 86.3796 38.9522 86.264C39.497 85.7004 40.0383 85.1414 40.5772 84.5694C40.8095 84.369 41.0371 84.1685 41.2541 83.955C41.4746 83.7451 41.6951 83.5329 41.9428 83.3418C42.1892 83.1508 42.4652 82.9857 42.7659 82.8737C42.9157 82.8182 43.0737 82.7746 43.2329 82.7557L43.4723 82.7263C43.5525 82.7263 43.6338 82.7263 43.714 82.7274H43.7789C43.8001 82.731 43.8225 82.7345 43.8449 82.7381C43.8897 82.7463 43.9346 82.7534 43.9805 82.7616C44.0725 82.7734 44.1586 82.8088 44.2388 82.8383C44.7306 83.0258 45.135 83.3595 45.4794 83.7286C45.8237 84.1013 46.1115 84.5211 46.3509 84.9669C46.4794 85.2062 46.595 85.4515 46.6928 85.7039C46.7919 85.9539 46.8815 86.2051 46.9735 86.4539C47.1575 86.9527 47.3367 87.4492 47.5631 87.9233C47.6787 88.178 47.8285 88.4233 47.9936 88.6591C48.1622 88.8926 48.3615 89.1037 48.5785 89.2877L48.7813 89.4398C48.8532 89.4846 48.9264 89.527 48.9995 89.5695C49.0372 89.5943 49.069 89.6072 49.1021 89.6214L49.1999 89.665L49.2483 89.6862C49.2554 89.6886 49.266 89.6969 49.2719 89.6933L49.286 89.6709L49.3415 89.5813L49.6056 89.1568L49.8839 88.7204C50.4287 87.8784 50.9842 87.053 51.5561 86.2346C52.3214 85.1426 53.1611 84.0848 54.1009 83.1107C54.5785 82.6154 55.108 82.152 55.654 81.7204C56.7448 80.856 57.9489 80.126 59.2449 79.6059C59.7307 79.409 60.2307 79.2463 60.7366 79.1083L61.1187 79.0116L61.5043 78.9338C61.6329 78.909 61.7614 78.8807 61.8911 78.8583L62.2815 78.8052C63.252 78.6767 64.2355 78.6543 65.2107 78.7356C65.5728 78.7592 65.9313 78.8135 66.291 78.8595C66.4702 78.8878 66.6483 78.9208 66.8263 78.9515L67.094 78.9986L67.3594 79.0552C68.0693 79.1991 68.7662 79.3949 69.4561 79.6083C70.1471 79.8206 70.8228 80.0729 71.4962 80.3324C72.166 80.5953 72.8299 80.889 73.4809 81.1685C74.1094 81.435 74.7415 81.6744 75.3842 81.8288C75.705 81.9102 76.0293 81.9597 76.3512 81.9857C76.9479 82.034 77.5423 81.9409 78.0788 81.6991C78.6166 81.4527 79.0942 81.0647 79.5211 80.6225C79.8277 80.3052 80.1083 79.9538 80.3807 79.5977C80.6508 79.2404 80.9008 78.8677 81.1366 78.4856C81.6013 77.7191 81.9999 76.9113 82.3147 76.0717C82.6744 75.12 82.9386 74.1295 83.0494 73.1247C83.0801 72.8429 83.119 72.7556 83.1603 72.8676C83.2287 73.061 83.3218 73.2238 83.2888 73.7238C83.2664 74.0622 83.2287 74.3795 83.1095 74.7828C82.935 75.3653 82.7735 75.9927 82.4928 76.5269C82.4527 76.6024 82.4102 76.7168 82.3749 76.8099C82.047 77.6436 81.6308 78.4491 81.1237 79.1944C80.8748 79.5706 80.5977 79.9267 80.3135 80.2769C80.0246 80.6236 79.7192 80.9586 79.3784 81.2581C78.9361 81.6508 78.4326 81.9951 77.8607 82.1921C77.4904 82.3147 77.1 82.3772 76.7121 82.3831C76.429 82.3925 76.1484 82.3572 75.8713 82.3194C75.5953 82.2687 75.3217 82.2109 75.0552 82.1343C74.6507 82.0234 74.2604 81.8996 73.9326 81.7062C73.8642 81.6649 73.6601 81.5847 73.5847 81.567C73.2922 81.501 72.9785 81.356 72.666 81.2145C71.8229 80.8347 70.9679 80.4762 70.0964 80.1684C69.936 80.1095 69.7733 80.0552 69.6106 80.0033C69.4478 79.9515 69.2851 79.8972 69.1212 79.8489C68.7922 79.7569 68.4655 79.6578 68.133 79.5835C67.1058 79.3335 66.0657 79.1708 65.0173 79.1036C64.1423 79.0493 63.2591 79.0599 62.3911 79.1743C62.2909 79.1897 62.1918 79.205 62.0928 79.2203L61.9442 79.2439L61.7968 79.2746C61.6152 79.3123 61.4289 79.35 61.2461 79.3878C61.0645 79.4326 60.8852 79.4762 60.7142 79.5104C60.5267 79.5564 60.3581 79.5965 60.1989 79.6519C60.0409 79.7109 59.8864 79.7699 59.7284 79.8571C59.6399 79.9067 59.522 79.9585 59.3946 80.0104C59.2685 80.0647 59.1364 80.1213 59.0173 80.172C58.7119 80.3029 58.4088 80.4361 58.1128 80.5765C57.9347 80.659 57.7673 80.7498 57.5975 80.843C57.4312 80.9432 57.2637 81.0494 57.0986 81.1826C57.0102 81.2545 56.8993 81.3324 56.7826 81.409C56.6682 81.4892 56.5491 81.5682 56.4418 81.639C55.4948 82.2746 54.6375 83.0659 53.8604 83.9232C52.8002 85.0836 51.8662 86.3513 50.9853 87.6556C50.641 88.1674 50.2978 88.6839 49.9653 89.2051L49.5077 89.9256L49.4146 90.0719C49.4063 90.0813 49.4004 90.1014 49.3898 90.1037L49.3521 90.0872L49.2778 90.053L48.9782 89.9162L48.9039 89.882C48.8804 89.8714 48.8733 89.8643 48.8568 89.8549L48.7719 89.8042C48.7153 89.77 48.6575 89.737 48.6021 89.7004C48.1657 89.3973 47.8226 88.994 47.5502 88.5683C47.0112 87.7063 46.7117 86.7629 46.3733 85.8702C46.2447 85.527 46.0855 85.1862 45.8945 84.8819C45.674 84.5293 45.4287 84.1968 45.148 83.9055C44.8673 83.6178 44.5525 83.3642 44.1952 83.218C44.0867 83.1803 43.9794 83.1331 43.8662 83.1166C43.8095 83.1072 43.7553 83.0871 43.6975 83.0871L43.5265 83.0777C43.4699 83.0694 43.4121 83.0848 43.3555 83.0871C43.2989 83.0942 43.2411 83.0942 43.1845 83.106C43.0725 83.1248 42.9617 83.1614 42.8532 83.2003C42.4168 83.3678 42.0324 83.6838 41.6645 84.0258C41.4923 84.185 41.326 84.3631 41.1515 84.5199C39.9392 85.6331 38.8696 86.8855 37.859 88.1744C37.0359 89.2157 36.2694 90.2995 35.5653 91.4245L35.1668 92.0813L34.7823 92.7464L34.5972 93.0825L34.504 93.2512C34.4722 93.3078 34.4415 93.3644 34.4191 93.4127C34.3236 93.6191 34.2646 93.8596 34.2658 94.0837C34.2658 94.1427 34.2776 94.2028 34.2882 94.2547C34.3366 94.4882 34.4462 94.5248 34.5111 94.5696C34.5712 94.6097 34.5701 94.6604 34.4144 94.6816C34.3814 94.6804 34.3401 94.6828 34.3024 94.6663C34.2823 94.6592 34.2623 94.6521 34.241 94.6427C34.2222 94.6309 34.2033 94.6179 34.1833 94.6038C34.1408 94.5766 34.1125 94.5354 34.0771 94.4929C34.0512 94.4481 34.0193 94.3997 34.0017 94.3467C33.9592 94.2405 33.9403 94.1203 33.938 93.9929C33.9344 93.8655 33.9509 93.7299 33.9863 93.5908C34.0241 93.4387 34.0854 93.2818 34.1573 93.1462L34.3649 92.757C34.5005 92.4964 34.6502 92.2429 34.7929 91.9858L34.7835 91.9728V91.9775Z" fill="#9FF17B"></path><path d="M55.1115 96.5054C56.0184 95.7966 56.766 94.878 57.4323 93.9393C58.0243 93.0973 58.5349 92.214 58.9111 91.2282C58.9606 91.102 59.0125 90.9699 59.0644 90.8367C59.1175 90.7034 59.1717 90.5702 59.2177 90.4357C59.3958 89.951 59.5408 89.4546 59.6682 88.9558C59.6953 88.8414 59.7189 88.7234 59.7436 88.6067C59.766 88.4899 59.7861 88.3756 59.812 88.2706C59.9347 87.7482 60.0479 87.2234 60.0609 86.6904C60.0762 86.1621 60.0196 85.6161 59.7908 85.1432C59.6505 84.7623 59.3769 84.4298 59.016 84.2446C58.838 84.1515 58.6422 84.0901 58.4417 84.0654C58.2401 84.0418 58.0361 84.05 57.8344 84.0807C57.4299 84.142 57.0384 84.3036 56.687 84.5217C56.3391 84.7434 56.0313 85.0324 55.7872 85.3567C55.654 85.5265 55.5195 85.7328 55.4028 85.9168C55.0502 86.4793 54.8379 87.1303 54.753 87.7954C54.6681 88.4616 54.707 89.1433 54.8533 89.8013C55.0113 90.5065 55.2872 91.1834 55.6787 91.7871C56.082 92.3827 56.575 92.9216 57.1363 93.3791C57.7306 93.8733 58.4571 94.2577 59.1965 94.5454C60.0785 94.8933 61.0137 95.0808 61.9536 95.1787C63.3203 95.3108 64.6989 95.1858 66.0114 94.8367C66.89 94.6044 67.7426 94.2778 68.561 93.8792C69.3747 93.4711 70.1565 92.9971 70.8794 92.4452C71.2497 92.1681 71.6082 91.8685 71.9596 91.5607C72.3051 91.2459 72.6471 90.9228 72.9584 90.5761C73.594 89.8909 74.1483 89.1326 74.6282 88.3296C74.8594 87.9239 75.0834 87.5123 75.2674 87.0819C75.3676 86.8708 75.4455 86.6491 75.5351 86.4333L75.6507 86.1019L75.7085 85.9357C75.7261 85.8826 75.7403 85.8307 75.7533 85.7765C75.8287 85.4534 75.8382 85.1066 75.7792 84.78C75.7485 84.6173 75.7002 84.4581 75.6259 84.3224C75.5528 84.1845 75.4502 84.0748 75.3287 84.0217C75.2686 83.9946 75.2025 83.9828 75.133 83.9828C75.0634 83.9828 74.9903 83.9958 74.9242 84.0194C74.7886 84.0677 74.6601 84.1668 74.5386 84.2812C74.2922 84.517 74.0764 84.7859 73.9065 85.0819C73.5858 85.6338 73.4148 86.267 73.3771 86.9062C73.3381 87.5465 73.4266 88.1928 73.6188 88.806C73.903 89.714 74.4219 90.5536 75.1365 91.1692C75.5021 91.4735 75.8983 91.74 76.3217 91.9593C76.7497 92.1692 77.1967 92.3402 77.6589 92.4652C78.1236 92.582 78.5965 92.6645 79.0752 92.7023C79.554 92.7341 80.0363 92.74 80.5163 92.6987C81.4774 92.6221 82.4196 92.4027 83.3276 92.0655C83.764 91.9063 84.1932 91.7223 84.6119 91.5171C85.0329 91.3166 85.4432 91.0926 85.8489 90.8591C86.2557 90.6279 86.6555 90.3791 87.0541 90.1303C87.7911 89.6621 88.5129 89.168 89.2334 88.6657L91.3961 87.1538L97.5837 82.8094C98.7547 81.9887 99.9269 81.1738 101.072 80.3295C101.393 80.0924 101.514 80.0405 101.425 80.1726C101.27 80.4014 101.162 80.6031 100.636 81.0441C100.279 81.3436 99.9434 81.6172 99.4635 81.9368C98.7689 82.4002 98.0743 82.9439 97.3679 83.3684C97.2677 83.4286 97.1321 83.5276 97.0224 83.609C95.0495 85.0783 93.0058 86.4711 90.981 87.885C90.323 88.352 89.6638 88.819 89.0046 89.2871C88.5754 89.5878 88.1437 89.8862 87.7039 90.1727C87.0659 90.5914 86.409 90.9841 85.7428 91.3532C85.2404 91.6327 84.7451 91.8968 84.2428 92.0466C84.139 92.082 83.8595 92.1952 83.7663 92.2471C83.5883 92.3508 83.3807 92.4298 83.1661 92.5124C83.0576 92.5501 82.9456 92.5855 82.8324 92.6209C82.7758 92.6386 82.7191 92.6563 82.6625 92.674L82.4892 92.7188C81.2415 93.049 79.9314 93.1598 78.6483 92.9912C77.7026 92.8626 76.7627 92.5938 75.9243 92.1232C75.758 92.0395 75.6035 91.9334 75.4467 91.832L75.3287 91.7553C75.291 91.7282 75.2544 91.6987 75.2179 91.6704L74.9962 91.4994C74.7025 91.2671 74.4372 90.9959 74.2025 90.7022C73.7355 90.1126 73.3936 89.4263 73.1907 88.6975C73.0233 88.089 72.9513 87.4475 73.0009 86.8095C73.0516 86.1727 73.2238 85.5383 73.5363 84.9699C73.6801 84.7081 73.8429 84.4569 74.0433 84.2316C74.1389 84.1314 74.2297 84.0288 74.3393 83.9309C74.449 83.8342 74.574 83.7387 74.7273 83.6715C74.8028 83.6385 74.8877 83.6125 74.9702 83.6007C75.0516 83.5866 75.1377 83.583 75.2238 83.5925C75.3971 83.6078 75.5646 83.6892 75.6849 83.793C75.8181 83.9121 75.9042 84.0453 75.9679 84.175C76.0304 84.3048 76.0728 84.4333 76.107 84.5595C76.1731 84.813 76.2061 85.0607 76.2202 85.3342C76.2273 85.4876 76.2144 85.688 76.1648 85.8991C76.153 85.951 76.1377 86.0052 76.1212 86.0571L76.0728 86.1998C76.0398 86.2942 76.0068 86.3873 75.9761 86.4746C75.8075 86.9227 75.6094 87.3555 75.3853 87.7635C75.1212 88.2576 74.8441 88.6987 74.5422 89.2199C74.5021 89.2895 74.4561 89.3661 74.4042 89.444C74.3511 89.5206 74.2945 89.5996 74.2356 89.6798C74.1212 89.8414 73.9891 89.997 73.8723 90.1374C72.8322 91.3721 71.6093 92.4652 70.2414 93.3497C68.3864 94.5443 66.2496 95.3285 64.0291 95.5183C63.16 95.5891 62.2779 95.5643 61.4088 95.444C60.0597 95.2518 58.7318 94.8167 57.5644 94.0844C56.9818 93.7188 56.4441 93.2766 55.9818 92.7624C55.8603 92.6398 55.7577 92.4994 55.6493 92.365C55.5396 92.2317 55.4393 92.0879 55.345 91.9428C55.1563 91.6504 54.9948 91.3414 54.8615 91.0206C54.6516 90.5183 54.5089 89.9817 54.4216 89.4546C54.22 88.2364 54.391 86.9369 55.0113 85.8425C55.3863 85.1868 55.9004 84.6125 56.5526 84.2092C56.878 84.0099 57.2354 83.8602 57.6151 83.7764C57.9948 83.6974 58.4052 83.6833 58.7991 83.8C59.1682 83.9014 59.5113 84.1208 59.7543 84.4097C59.9677 84.6609 60.1151 84.9557 60.2118 85.2541C60.3085 85.5536 60.358 85.8578 60.3816 86.1597C60.4253 86.7623 60.358 87.3637 60.2519 87.9322C60.0526 89.076 59.7283 90.1975 59.2837 91.2706C58.9193 92.1362 58.4877 92.9735 57.9783 93.7601C57.47 94.5478 56.9099 95.2966 56.2566 95.9794C55.7483 96.4995 55.1917 96.9783 54.5632 97.3544C53.9417 97.7377 53.2412 98.0125 52.5065 98.1103C52.4098 98.1198 52.3084 98.1292 52.2117 98.1386C52.1068 98.1504 52.0101 98.1386 51.9228 98.1363C51.8355 98.1304 51.7577 98.1292 51.6893 98.1174C51.5537 98.0915 51.457 98.0667 51.3992 98.0431C51.2836 97.9971 51.3273 97.9582 51.523 97.9264C51.8685 97.8768 52.3827 97.8391 53.0584 97.6434C53.8061 97.4264 54.4948 97.016 55.1115 96.5231L55.1092 96.5065H55.1115V96.5054Z" fill="#9FF17B"></path><path d="M90.6323 97.3662C90.7691 97.0325 90.9011 96.694 91.0509 96.3697C91.183 96.0796 91.3174 95.7966 91.3988 95.4806C91.42 95.3992 91.4589 95.3166 91.4896 95.2341L91.6571 94.7871C91.6818 94.7188 91.6913 94.6409 91.7219 94.5808C91.8752 94.2848 92.0085 93.9853 92.1052 93.6657C92.2514 93.4475 92.3198 93.1999 92.4189 92.9593C92.5144 92.7164 92.6394 92.4829 92.7219 92.2364C92.7432 92.1704 92.7762 92.0996 92.8139 92.0407C92.9271 91.8626 93.0274 91.6786 93.1311 91.4947C93.2314 91.3095 93.3304 91.1232 93.4342 90.938C93.6535 90.5406 93.9106 90.1644 94.2007 89.8177C94.3576 89.635 94.5002 89.4286 94.6512 89.2352C94.7385 89.1184 94.8257 89.0005 94.9165 88.885C95.0073 88.7706 95.0934 88.6515 95.1889 88.5406C95.3281 88.3802 95.4602 88.214 95.6017 88.0571L95.8092 87.8165L96.0203 87.5783C96.3965 87.1526 96.8057 86.7458 97.2562 86.3849C97.367 86.2882 97.492 86.208 97.6159 86.1255L97.8022 86.0028L97.9944 85.8896C98.5027 85.5842 99.0369 85.3248 99.5876 85.1101C99.9991 84.9439 100.42 84.7976 100.846 84.6715C101.243 84.5559 101.643 84.4498 102.05 84.3684C103.255 84.1325 104.48 84.05 105.695 84.0075C105.987 83.9969 106.279 83.9828 106.572 83.9781C106.719 83.9745 106.866 83.9781 107.012 83.9804C107.557 83.9957 108.102 84.0299 108.648 84.083C109.427 84.1597 110.21 84.2764 110.973 84.4875C111.407 84.6054 111.831 84.7528 112.258 84.8979C112.378 84.9368 112.405 84.9769 112.339 85.0111C112.226 85.0712 112.127 85.1408 111.912 85.1172C111.766 85.1031 111.631 85.0901 111.472 85.017C111.354 84.9698 111.228 84.9368 111.104 84.8991C110.979 84.866 110.855 84.8295 110.741 84.7682C110.709 84.7505 110.658 84.7422 110.617 84.7363C110.246 84.6774 109.875 84.6196 109.505 84.5606C109.134 84.5075 108.761 84.4509 108.385 84.4191C108.14 84.3979 107.893 84.3932 107.647 84.3861L107.167 84.3707C106.934 84.3637 106.702 84.3507 106.47 84.3554C106.294 84.3578 106.125 84.3778 105.966 84.3212C105.933 84.3094 105.841 84.313 105.808 84.3271C105.684 84.3837 105.54 84.379 105.395 84.3814C105.004 84.3861 104.614 84.392 104.223 84.4156C103.936 84.4344 103.647 84.4639 103.362 84.5052C102.92 84.5689 102.485 84.6573 102.052 84.7552C101.691 84.8389 101.328 84.9203 100.974 85.0276C100.892 85.0512 100.815 85.0877 100.734 85.1137C100.583 85.1585 100.433 85.2257 100.287 85.254C100.125 85.287 100.005 85.3318 99.8812 85.4274C99.814 85.4852 99.6902 85.5359 99.5888 85.5748C99.4567 85.6208 99.3246 85.6668 99.1937 85.7116C99.0357 85.7646 98.8859 85.8118 98.7491 85.9333C98.676 85.9969 98.5534 86.05 98.4543 86.0937C98.0168 86.2929 97.6135 86.5724 97.242 86.8861C96.7373 87.3118 96.2762 87.7835 95.8458 88.28C95.7597 88.3755 95.6748 88.4734 95.5922 88.5724C95.5097 88.6715 95.4224 88.767 95.3422 88.8684C94.8363 89.4923 94.3587 90.1397 93.9236 90.8178C93.8363 90.9487 93.7526 91.0878 93.683 91.227C93.5226 91.5501 93.3469 91.8626 93.1677 92.1763C92.9507 92.5525 92.7832 92.9534 92.6252 93.3555C92.5887 93.4499 92.558 93.5477 92.5144 93.6362C92.2113 94.2624 92.0002 94.9263 91.749 95.5737C91.5427 96.0985 91.3363 96.6221 91.1287 97.1457C90.9707 97.5513 90.8127 97.957 90.6547 98.3627C90.6441 98.3898 90.6394 98.4193 90.6287 98.4452C90.5368 98.6763 90.446 98.7282 90.3811 98.5844C90.3245 98.4558 90.3233 98.2837 90.3952 98.0702C90.4754 97.8355 90.5603 97.6032 90.6453 97.3709L90.6323 97.3638V97.3662Z" fill="#9FF17B"></path><path d="M9.61754 29.6447C9.82509 29.3299 10.035 29.0126 10.2579 28.7119C10.3593 28.5799 10.4607 28.449 10.5562 28.3133C10.6518 28.1777 10.7461 28.0421 10.8275 27.8912C10.8699 27.8133 10.9277 27.739 10.9831 27.6648L11.2744 27.2579C11.3192 27.1966 11.3534 27.1223 11.4018 27.0704C11.6376 26.8145 11.8687 26.5598 12.0728 26.2756C12.2945 26.1105 12.4466 25.8888 12.6412 25.6966C12.7379 25.5999 12.8322 25.4985 12.9372 25.41C13.0409 25.3192 13.1423 25.2272 13.2367 25.127C13.285 25.0727 13.3499 25.0209 13.4136 24.9843C13.607 24.8723 13.7827 24.739 13.9773 24.6305L14.2603 24.4548C14.3546 24.397 14.456 24.3487 14.5539 24.2944C14.6601 24.2402 14.7638 24.18 14.8747 24.134C14.9855 24.0904 15.0976 24.0468 15.2096 24.0067L15.3782 23.9465C15.4348 23.93 15.4938 23.9159 15.5516 23.9006C15.6671 23.8734 15.7815 23.8416 15.8995 23.8227C16.0245 23.8039 16.1506 23.7791 16.2768 23.7508C16.4042 23.7284 16.5315 23.7048 16.6589 23.6824C16.9608 23.6329 17.2639 23.5857 17.5693 23.5621C18.0127 23.5279 18.4537 23.5067 18.8948 23.4855C19.4856 23.4536 20.0799 23.4548 20.6707 23.463C20.9714 23.4678 21.2757 23.4972 21.5764 23.5161C22.179 23.5527 22.7793 23.5833 23.3783 23.5444C23.4903 23.5397 23.6036 23.535 23.7168 23.5267L24.0529 23.4855L24.3889 23.4418L24.5564 23.4194L24.7227 23.3852L25.3394 23.2531C25.5434 23.2024 25.7439 23.1388 25.9479 23.0857C27.1461 22.7472 28.2994 22.2531 29.3678 21.621C29.619 21.4607 29.869 21.2979 30.1166 21.1328C30.2369 21.0456 30.3595 20.9595 30.4822 20.8758C30.5954 20.7967 30.7121 20.7225 30.8242 20.6411L31.1532 20.3887L31.481 20.1352L31.7923 19.8616C32.0966 19.6081 32.369 19.3203 32.6497 19.0408C32.7888 18.9005 32.9126 18.746 33.0459 18.5998C33.1768 18.4524 33.31 18.305 33.428 18.1458C33.5648 17.9677 33.7074 17.7943 33.8383 17.6127C33.9622 17.4264 34.0813 17.2377 34.1933 17.0443C34.2558 16.9358 34.3006 16.917 34.323 16.9854C34.3608 17.1045 34.4103 17.2142 34.336 17.4288C34.2853 17.5738 34.2322 17.7083 34.1167 17.8533C33.9374 18.055 33.7983 18.3073 33.5907 18.4795C33.5612 18.5043 33.5306 18.5491 33.5034 18.5833C33.2652 18.8993 33.0199 19.2154 32.731 19.4878C32.5883 19.6269 32.4515 19.7708 32.3018 19.9017L31.8501 20.2908L31.7051 20.4206L31.5541 20.5432L31.2522 20.7908L31.0541 20.9489C30.9881 21.0008 30.9161 21.0456 30.8466 21.0951C30.6437 21.2319 30.4397 21.3687 30.2369 21.5055C30.0812 21.6045 29.9374 21.7142 29.7664 21.7508C29.7298 21.7578 29.6496 21.8109 29.6272 21.8416C29.5447 21.9595 29.4032 22.0196 29.2687 22.0916C29.0848 22.1847 28.9043 22.2838 28.718 22.3711L28.1543 22.6246C28.0847 22.6553 28.0163 22.6906 27.9468 22.7201L27.7357 22.8074C27.5954 22.8675 27.455 22.9277 27.3147 22.9866L27.1519 23.0574L26.9857 23.1199L26.6543 23.2449L26.3217 23.3699L25.9809 23.4725C25.7899 23.5267 25.6 23.5869 25.4043 23.6293L24.8182 23.752C24.7274 23.7697 24.6401 23.8039 24.5493 23.8133C24.3819 23.8369 24.2062 23.8711 24.0458 23.8723C23.8677 23.8723 23.7321 23.8888 23.5717 23.9418C23.4821 23.9737 23.3359 23.9796 23.2168 23.9819C23.0635 23.9819 22.9113 23.9796 22.7627 23.9619C22.5835 23.9406 22.4172 23.9241 22.2262 23.9548C22.1236 23.9725 21.9809 23.9595 21.8653 23.943C21.3547 23.8711 20.8406 23.8463 20.3252 23.8345C19.6271 23.818 18.9325 23.8145 18.2462 23.8487C17.9773 23.864 17.7084 23.8746 17.4419 23.9029C17.2332 23.9182 17.0304 23.9524 16.824 23.976L16.5186 24.0291L16.3664 24.0562L16.2167 24.0916C15.8122 24.1718 15.4254 24.3098 15.0421 24.4583C14.8924 24.5173 14.7461 24.5951 14.6082 24.673C14.2945 24.8664 13.9832 25.055 13.6766 25.2626L13.5374 25.3546L13.4077 25.4595C13.3216 25.5303 13.2367 25.6022 13.153 25.6742C12.989 25.8239 12.8369 25.9878 12.6836 26.147C12.6164 26.2261 12.5515 26.3098 12.4784 26.3805C11.9678 26.8829 11.5657 27.4808 11.1494 28.0657C10.8098 28.5386 10.4819 29.0233 10.1624 29.5138C9.91825 29.8947 9.67297 30.2768 9.43594 30.6636C9.42061 30.6896 9.40881 30.719 9.39348 30.7438C9.25551 30.9631 9.15409 31.0009 9.11989 30.8429C9.08923 30.7025 9.12461 30.5256 9.239 30.3216C9.36754 30.0964 9.49962 29.8747 9.63523 29.653L9.62344 29.6435H9.61754V29.6447Z" fill="#9FF17B"></path></g><path d="M109.231 90.2232H43.9736L13.3789 17.2482L75.415 16.6562L109.231 90.2232Z" fill="white"></path><path d="M62.978 41.039C62.3342 40.5284 61.4509 39.9977 60.3318 39.447C59.5004 39.0378 58.5228 38.6073 57.4025 38.158L55.0239 31.02C56.1407 31.4221 57.2492 32.2299 58.3494 33.4422L61.1974 31.586C59.9297 30.2004 58.7398 29.1733 57.6277 28.5023C56.5157 27.8324 55.2244 27.3902 53.7527 27.1744L52.6407 23.8359H49.5298L50.6418 27.1744C49.7609 27.4126 49.0109 27.7428 48.393 28.1626C47.7738 28.5825 47.3033 29.0801 46.9778 29.6532C46.6535 30.2263 46.4719 30.8643 46.433 31.5683C46.3941 32.2724 46.512 33.033 46.7844 33.8514C47.3587 35.5766 48.4283 37.059 49.9909 38.296C50.9649 39.1038 52.7102 39.9871 55.2291 40.9446L58.3813 50.407C57.4803 50.2655 56.6548 49.9412 55.906 49.4353C54.8895 48.6971 53.8282 47.4659 52.7185 45.7395L49.0687 46.5237C50.4626 48.9648 51.9649 50.7702 53.5758 51.94C55.1867 53.1099 57.2138 53.8752 59.6584 54.2396L60.7988 57.663H63.9097L62.7351 54.137C64.5677 53.6264 65.8401 52.6382 66.5488 51.1747C67.2658 49.6983 67.3036 47.9954 66.6597 46.065C66.0052 44.1015 64.7776 42.4258 62.9757 41.0413L62.978 41.039ZM52.2621 35.8278C51.5274 35.2948 51.0251 34.6238 50.7574 33.8184C50.4626 32.9316 50.5604 32.1945 51.051 31.6037C51.2762 31.3313 51.564 31.1214 51.9095 30.9764L53.8164 36.6993C53.1454 36.3833 52.6277 36.0932 52.2633 35.8278H52.2621ZM62.346 49.2832C62.0865 49.6263 61.7634 49.8976 61.3778 50.0933L58.8412 42.4788C59.5959 42.8527 60.1926 43.1899 60.6301 43.4918C61.5806 44.1734 62.2422 45.0744 62.6172 46.1994C63.037 47.4589 62.9462 48.4872 62.346 49.282V49.2832Z" fill="#136F65"></path><path d="M96.1327 78.3676H49.0555L48.4258 77.4219H95.503L96.1327 78.3676Z" fill="#0041D9"></path><path d="M51.4643 75.4419C54.0929 74.9619 56.0115 72.8794 57.4927 70.7991C58.337 69.614 59.1377 68.3734 59.7675 67.0597C60.0847 66.397 60.3571 65.7106 60.5505 65.0019C60.6472 64.647 60.7239 64.2849 60.7757 63.9205C60.8205 63.6116 60.8665 63.2943 60.8323 62.9818C60.7769 62.4818 60.4951 61.8946 59.8972 61.9795C59.5682 62.0266 59.3182 62.2743 59.1059 62.5101C58.8712 62.7708 58.6495 63.042 58.4373 63.3203C57.5729 64.4536 56.9042 65.7342 56.4561 67.0868C55.6389 69.5503 55.2639 73.0374 57.462 74.9266C58.4078 75.7379 59.7286 76.1388 60.9243 75.6648C62.2451 75.1412 63.1496 73.8688 63.9633 72.7662C64.2038 72.4395 64.4373 72.1081 64.6626 71.772L64.3324 71.6824C64.4763 72.943 65.6673 73.8239 66.8878 73.8935C68.3737 73.9773 69.6945 73.0445 70.6579 72.0032C71.2629 71.3487 71.7841 70.6234 72.3513 69.9371L72.0495 69.8121C71.9304 71.4418 72.7028 73.0704 74.053 73.9938C74.7146 74.4454 75.4929 74.7166 76.2889 74.7921C77.125 74.8711 77.954 74.6942 78.7205 74.3629C80.2217 73.7131 81.4918 72.5103 82.5118 71.2532C83.5272 70.0008 84.3362 68.5963 85.0213 67.1411C85.8055 65.4736 86.4364 63.7389 87.0544 62.0042C87.131 61.7896 86.789 61.6964 86.7135 61.9099C85.6746 64.8262 84.5968 67.8015 82.7725 70.3345C81.0673 72.7013 78.0519 75.4902 74.9174 74.0751C73.2735 73.3322 72.2735 71.6081 72.4032 69.8133C72.4138 69.6671 72.198 69.5715 72.1013 69.6883C71.211 70.7685 70.4126 71.9902 69.2393 72.7909C68.2074 73.4949 66.856 73.8546 65.7215 73.1706C65.1873 72.8487 64.7593 72.3169 64.6873 71.6836C64.6673 71.5114 64.4609 71.4407 64.3572 71.594C63.9314 72.2261 63.4821 72.8416 63.0057 73.436C62.6036 73.9372 62.1791 74.436 61.6684 74.831C61.1779 75.2108 60.5965 75.4867 59.9691 75.5162C59.3913 75.5433 58.8193 75.3818 58.3182 75.0999C55.883 73.7296 55.9372 70.4878 56.5257 68.1187C56.8453 66.8309 57.3689 65.5986 58.0705 64.4724C58.4172 63.9158 58.8076 63.3875 59.238 62.8946C59.4267 62.6788 59.679 62.3285 59.9974 62.3262C60.2451 62.3238 60.3748 62.5561 60.4338 62.766C60.5057 63.0196 60.4963 63.279 60.4703 63.5384C60.4349 63.8793 60.376 64.2189 60.2993 64.5526C60.1437 65.2272 59.9137 65.884 59.6319 66.5173C59.0729 67.7732 58.3358 68.9454 57.5646 70.081C56.2309 72.0456 54.5646 74.1105 52.2273 74.8853C51.9466 74.9784 51.6612 75.0504 51.37 75.1034C51.1459 75.1447 51.2414 75.4855 51.4643 75.4443V75.4419Z" fill="#111116"></path><path d="M104.152 13.9007L105.038 14.1908C105.979 14.4997 106.492 15.5127 106.183 16.4538L101.172 31.7323C101.064 32.0613 100.662 32.1839 100.389 31.9705L98.9661 30.8596C98.6937 30.6473 98.7137 30.2299 99.0038 30.0436L100.327 29.1945C100.424 29.132 100.497 29.0388 100.532 28.9292L104.127 17.9691C104.435 17.0281 103.922 16.0139 102.981 15.7061C102.626 15.5894 102.519 15.1401 102.785 14.8759L103.643 14.021C103.776 13.8877 103.973 13.8417 104.152 13.8995V13.9007Z" fill="#111116"></path><path d="M91.7285 52.625L88.5563 62.302C88.5539 62.3103 88.5516 62.3173 88.5469 62.3256L91.7285 52.625Z" fill="#111116"></path><path d="M81.4391 64.7578L87.1726 66.5102L87.1172 66.68L87.096 66.746C87.0429 66.9064 86.9592 67.0562 86.8495 67.1871L83.4297 71.3322C82.7929 72.0775 81.7586 71.7414 81.6796 70.765L81.3459 65.397C81.3282 65.2154 81.3494 65.0314 81.4072 64.858L81.4214 64.8132L81.4402 64.759H81.4391V64.7578Z" fill="#0041D9"></path><path d="M105.078 11.4381C105.078 11.7471 105.031 12.0619 104.928 12.3721L91.8324 52.3042L86.0977 50.5518L99.2287 10.5029C99.7452 8.92864 101.439 8.07132 103.013 8.58783C104.276 9.00057 105.078 10.1751 105.078 11.4369V11.4381Z" fill="#0041D9"></path><path d="M91.8291 52.3071L91.7242 52.6243L88.5425 62.3249L87.1711 66.5101L81.4375 64.7577L82.8491 60.4498L86.0284 50.7563L86.0944 50.5547L91.8291 52.3071Z" fill="#73E4F9"></path><rect x="226" width="90" height="28" rx="14" fill="#EEEEF0"></rect><path d="M240.408 11.7464C240.369 11.3454 240.198 11.0339 239.896 10.8118C239.595 10.5897 239.185 10.4787 238.668 10.4787C238.317 10.4787 238.02 10.5284 237.778 10.6278C237.536 10.724 237.351 10.8582 237.222 11.0305C237.096 11.2029 237.033 11.3984 237.033 11.6172C237.026 11.7995 237.064 11.9586 237.147 12.0945C237.233 12.2304 237.351 12.348 237.5 12.4474C237.649 12.5436 237.821 12.6281 238.017 12.701C238.213 12.7706 238.421 12.8303 238.643 12.88L239.558 13.0987C240.002 13.1982 240.41 13.3307 240.781 13.4964C241.152 13.6622 241.474 13.866 241.746 14.108C242.018 14.3499 242.228 14.6349 242.377 14.9631C242.53 15.2912 242.607 15.6674 242.611 16.0916C242.607 16.7147 242.448 17.255 242.134 17.7124C241.822 18.1664 241.371 18.5194 240.781 18.7713C240.195 19.0199 239.487 19.1442 238.658 19.1442C237.836 19.1442 237.121 19.0182 236.511 18.7663C235.904 18.5144 235.43 18.1416 235.089 17.6477C234.751 17.1506 234.573 16.5357 234.557 15.8033H236.64C236.663 16.1446 236.761 16.4297 236.933 16.6584C237.109 16.8838 237.343 17.0545 237.634 17.1705C237.929 17.2831 238.262 17.3395 238.634 17.3395C238.998 17.3395 239.315 17.2865 239.583 17.1804C239.855 17.0743 240.065 16.9268 240.214 16.7379C240.364 16.549 240.438 16.3319 240.438 16.0866C240.438 15.858 240.37 15.6657 240.234 15.5099C240.102 15.3542 239.906 15.2216 239.648 15.1122C239.393 15.0028 239.079 14.9034 238.708 14.8139L237.599 14.5355C236.741 14.3267 236.063 14.0002 235.566 13.5561C235.069 13.112 234.822 12.5137 234.825 11.7614C234.822 11.1449 234.986 10.6063 235.317 10.1456C235.652 9.6849 236.111 9.32528 236.695 9.06676C237.278 8.80824 237.941 8.67898 238.683 8.67898C239.439 8.67898 240.098 8.80824 240.662 9.06676C241.229 9.32528 241.67 9.6849 241.984 10.1456C242.299 10.6063 242.462 11.1399 242.472 11.7464H240.408ZM248.081 11.3636V12.9545H243.482V11.3636H248.081ZM244.526 9.53409H246.644V16.6534C246.644 16.849 246.674 17.0014 246.733 17.1108C246.793 17.2169 246.876 17.2914 246.982 17.3345C247.091 17.3776 247.217 17.3991 247.36 17.3991C247.459 17.3991 247.559 17.3909 247.658 17.3743C247.758 17.3544 247.834 17.3395 247.887 17.3295L248.22 18.9055C248.114 18.9387 247.965 18.9768 247.773 19.0199C247.58 19.0663 247.347 19.0945 247.072 19.1044C246.561 19.1243 246.114 19.0563 245.729 18.9006C245.348 18.7448 245.051 18.5028 244.839 18.1747C244.627 17.8466 244.523 17.4323 244.526 16.9318V9.53409ZM252.858 19.1491C252.073 19.1491 251.397 18.9901 250.83 18.6719C250.267 18.3504 249.832 17.8963 249.528 17.3097C249.223 16.7197 249.07 16.022 249.07 15.2166C249.07 14.4311 249.223 13.7417 249.528 13.1484C249.832 12.5552 250.262 12.0928 250.815 11.7614C251.372 11.4299 252.025 11.2642 252.774 11.2642C253.278 11.2642 253.747 11.3454 254.181 11.5078C254.618 11.6669 255 11.9072 255.324 12.2287C255.653 12.5502 255.908 12.9545 256.09 13.4418C256.272 13.9257 256.363 14.4924 256.363 15.142V15.7237H249.915V14.4112H254.37C254.37 14.1063 254.304 13.8362 254.171 13.6009C254.038 13.3655 253.854 13.1816 253.619 13.049C253.387 12.9131 253.117 12.8452 252.809 12.8452C252.487 12.8452 252.202 12.9197 251.954 13.0689C251.708 13.2147 251.516 13.4119 251.377 13.6605C251.238 13.9058 251.166 14.1792 251.163 14.4808V15.7287C251.163 16.1065 251.233 16.433 251.372 16.7081C251.515 16.9832 251.715 17.1953 251.974 17.3445C252.232 17.4936 252.539 17.5682 252.893 17.5682C253.129 17.5682 253.344 17.535 253.54 17.4688C253.735 17.4025 253.903 17.303 254.042 17.1705C254.181 17.0379 254.287 16.8755 254.36 16.6832L256.319 16.8125C256.219 17.2831 256.015 17.6941 255.707 18.0455C255.402 18.3935 255.008 18.6652 254.524 18.8608C254.043 19.053 253.488 19.1491 252.858 19.1491ZM257.746 21.8636V11.3636H259.834V12.6463H259.928C260.021 12.4408 260.155 12.232 260.331 12.0199C260.51 11.8045 260.742 11.6255 261.027 11.483C261.315 11.3371 261.673 11.2642 262.101 11.2642C262.657 11.2642 263.171 11.41 263.642 11.7017C264.113 11.9901 264.489 12.4259 264.77 13.0092C265.052 13.5893 265.193 14.3168 265.193 15.1918C265.193 16.0436 265.055 16.7628 264.78 17.3494C264.509 17.9328 264.137 18.3752 263.667 18.6768C263.199 18.9751 262.676 19.1243 262.096 19.1243C261.685 19.1243 261.335 19.0563 261.047 18.9205C260.762 18.7846 260.528 18.6139 260.346 18.4084C260.163 18.1996 260.024 17.9891 259.928 17.777H259.863V21.8636H257.746ZM259.819 15.1818C259.819 15.6359 259.882 16.032 260.008 16.37C260.134 16.7081 260.316 16.9716 260.555 17.1605C260.793 17.3461 261.083 17.4389 261.425 17.4389C261.769 17.4389 262.061 17.3445 262.3 17.1555C262.538 16.9633 262.719 16.6982 262.841 16.3601C262.967 16.0187 263.03 15.6259 263.03 15.1818C263.03 14.741 262.969 14.3532 262.846 14.0185C262.724 13.6837 262.543 13.4219 262.305 13.233C262.066 13.044 261.773 12.9496 261.425 12.9496C261.08 12.9496 260.788 13.0407 260.55 13.223C260.314 13.4053 260.134 13.6638 260.008 13.9986C259.882 14.3333 259.819 14.7277 259.819 15.1818ZM273.589 19.1392C272.846 19.1392 272.185 19.0116 271.605 18.7564C271.028 18.4979 270.573 18.1432 270.238 17.6925C269.906 17.2384 269.736 16.7147 269.726 16.1214H271.893C271.907 16.37 271.988 16.5888 272.137 16.7777C272.29 16.9633 272.492 17.1075 272.744 17.2102C272.996 17.313 273.279 17.3643 273.594 17.3643C273.922 17.3643 274.212 17.3063 274.464 17.1903C274.716 17.0743 274.913 16.9136 275.055 16.7081C275.198 16.5026 275.269 16.2656 275.269 15.9972C275.269 15.7254 275.193 15.4851 275.04 15.2763C274.891 15.0642 274.676 14.8984 274.394 14.7791C274.116 14.6598 273.784 14.6001 273.4 14.6001H272.45V13.0192H273.4C273.725 13.0192 274.011 12.9628 274.26 12.8501C274.512 12.7375 274.707 12.5817 274.847 12.3828C274.986 12.1806 275.055 11.9453 275.055 11.6768C275.055 11.4216 274.994 11.1979 274.871 11.0057C274.752 10.8101 274.583 10.6577 274.364 10.5483C274.149 10.4389 273.897 10.3842 273.609 10.3842C273.317 10.3842 273.05 10.4373 272.808 10.5433C272.566 10.6461 272.372 10.7936 272.227 10.9858C272.081 11.178 272.003 11.4034 271.993 11.6619H269.93C269.94 11.0753 270.107 10.5582 270.432 10.1108C270.757 9.66335 271.194 9.31368 271.744 9.06179C272.298 8.80658 272.923 8.67898 273.619 8.67898C274.321 8.67898 274.936 8.80658 275.463 9.06179C275.99 9.317 276.399 9.66169 276.691 10.0959C276.986 10.5268 277.132 11.0107 277.129 11.5476C277.132 12.1177 276.955 12.5933 276.597 12.9744C276.242 13.3556 275.78 13.5975 275.21 13.7003V13.7798C275.959 13.8759 276.529 14.1361 276.92 14.5604C277.314 14.9813 277.51 15.5083 277.506 16.1413C277.51 16.7214 277.342 17.2367 277.004 17.6875C276.67 18.1383 276.207 18.4929 275.617 18.7514C275.027 19.0099 274.351 19.1392 273.589 19.1392ZM285.764 19.1491C284.992 19.1491 284.324 18.9851 283.761 18.657C283.201 18.3255 282.768 17.8648 282.463 17.2749C282.158 16.6816 282.006 15.9938 282.006 15.2116C282.006 14.4228 282.158 13.7334 282.463 13.1435C282.768 12.5502 283.201 12.0895 283.761 11.7614C284.324 11.4299 284.992 11.2642 285.764 11.2642C286.536 11.2642 287.203 11.4299 287.763 11.7614C288.326 12.0895 288.76 12.5502 289.065 13.1435C289.37 13.7334 289.523 14.4228 289.523 15.2116C289.523 15.9938 289.37 16.6816 289.065 17.2749C288.76 17.8648 288.326 18.3255 287.763 18.657C287.203 18.9851 286.536 19.1491 285.764 19.1491ZM285.774 17.5085C286.125 17.5085 286.419 17.4091 286.654 17.2102C286.889 17.008 287.067 16.733 287.186 16.3849C287.309 16.0369 287.37 15.6409 287.37 15.1967C287.37 14.7526 287.309 14.3565 287.186 14.0085C287.067 13.6605 286.889 13.3854 286.654 13.1832C286.419 12.9811 286.125 12.88 285.774 12.88C285.42 12.88 285.121 12.9811 284.879 13.1832C284.641 13.3854 284.46 13.6605 284.337 14.0085C284.218 14.3565 284.158 14.7526 284.158 15.1967C284.158 15.6409 284.218 16.0369 284.337 16.3849C284.46 16.733 284.641 17.008 284.879 17.2102C285.121 17.4091 285.42 17.5085 285.774 17.5085ZM295.006 11.3636V12.9545H290.293V11.3636H295.006ZM291.372 19V10.8118C291.372 10.2583 291.48 9.79924 291.695 9.43466C291.914 9.07008 292.212 8.79664 292.59 8.61435C292.968 8.43205 293.397 8.34091 293.878 8.34091C294.203 8.34091 294.499 8.36577 294.768 8.41548C295.04 8.4652 295.242 8.50994 295.374 8.54972L294.996 10.1406C294.914 10.1141 294.811 10.0893 294.688 10.0661C294.569 10.0429 294.446 10.0312 294.32 10.0312C294.009 10.0312 293.792 10.1042 293.669 10.25C293.546 10.3925 293.485 10.593 293.485 10.8516V19H291.372ZM303.239 19.1392C302.537 19.1392 301.91 19.0099 301.36 18.7514C300.813 18.4929 300.379 18.1366 300.058 17.6825C299.736 17.2285 299.569 16.7081 299.555 16.1214H301.643C301.667 16.5159 301.832 16.8357 302.141 17.081C302.449 17.3262 302.815 17.4489 303.239 17.4489C303.577 17.4489 303.876 17.3743 304.134 17.2251C304.396 17.0727 304.6 16.8622 304.746 16.5938C304.895 16.322 304.969 16.0104 304.969 15.6591C304.969 15.3011 304.893 14.9863 304.741 14.7145C304.592 14.4427 304.384 14.2306 304.119 14.0781C303.854 13.9257 303.551 13.8478 303.21 13.8445C302.911 13.8445 302.621 13.9058 302.339 14.0284C302.061 14.151 301.844 14.3184 301.688 14.5305L299.774 14.1875L300.256 8.81818H306.481V10.5781H302.031L301.768 13.1286H301.827C302.006 12.8767 302.277 12.6679 302.638 12.5021C302.999 12.3364 303.403 12.2536 303.851 12.2536C304.464 12.2536 305.011 12.3977 305.491 12.6861C305.972 12.9744 306.352 13.3705 306.63 13.8743C306.908 14.3748 307.046 14.9515 307.043 15.6044C307.046 16.2905 306.887 16.9003 306.565 17.4339C306.247 17.9643 305.801 18.3819 305.228 18.6868C304.658 18.9884 303.995 19.1392 303.239 19.1392Z" fill="#111116"></path></svg> 