<?xml version="1.0" encoding="UTF-8"?> <svg xmlns="http://www.w3.org/2000/svg" width="318" height="107" viewBox="0 0 318 107" fill="none"><g clip-path="url(#clip0_2112_19074)"><path d="M65.6726 0.0490443C47.6616 0.672057 40.0687 19.1871 30.2851 28.547C20.5016 37.9081 1.97514 42.9008 2.80844 62.4546C3.64051 82.0083 13.008 85.961 27.3717 89.9125C41.7353 93.8652 103.35 100.521 112.3 82.0083C121.251 63.4946 112.092 56.2146 104.598 47.8935C97.1047 39.5723 113.757 -1.61518 65.6726 0.0490443Z" fill="#FFF0E1"></path><path d="M79.2416 40.72L63.4911 40.1264C63.4911 40.1264 64.2619 36.9513 63.7881 35.6721C63.3144 34.393 61.5742 35.2736 59.5848 34.7315C57.9502 34.2851 58.2901 32.2566 58.0864 31.0179C57.9416 30.1325 58.8853 29.5831 58.8853 29.5831L57.8814 28.3714L58.0741 26.9708L56.6566 26.3171C56.3572 26.116 56.4603 25.5801 56.6566 25.2772C56.853 24.9742 57.085 24.6198 57.3034 24.2408C57.4433 23.9992 57.5783 23.7478 57.6973 23.4952C57.6986 23.4915 57.701 23.4891 57.7023 23.4854C58.2005 22.4147 58.4349 21.8935 58.1747 18.6288C57.8839 14.9913 59.2829 13.5552 59.2829 13.5552H59.2805L64.4864 11.0312L79.8355 16.8137C79.8355 16.8137 78.083 29.5217 77.4584 31.5134C76.8337 33.5051 79.2416 40.72 79.2416 40.72Z" fill="#E59B78"></path><path d="M83.0816 31.1446C80.7744 33.102 74.9941 33.8979 74.9941 33.8979C74.9941 33.8979 75.6679 30.1856 76.7614 27.2704C77.8548 24.3553 79.5337 21.212 77.3222 20.0592C75.1107 18.9063 72.3678 21.9074 72.3678 21.9074C72.3678 21.9074 71.6953 21.6572 70.6963 21.196C70.4104 21.0648 70.0974 20.9164 69.7661 20.7509C68.5843 20.161 67.1643 19.3662 65.8782 18.4084C62.9709 16.2451 61.6884 12.7976 61.6884 12.7976L58.192 16.2021C58.192 16.2021 57.1967 14.4839 58.3196 12.3071C59.4413 10.1314 61.7682 10.3068 64.7344 8.18513V8.18268C68.4014 5.56063 75.1524 5.26016 79.1999 6.50373C82.7466 7.59278 87.2825 15.7447 88.1612 21.1274C89.0399 26.51 85.3889 29.1873 83.0816 31.1446Z" fill="#111116"></path><path d="M60.7591 21.3197C60.7591 21.3197 60.5738 21.3246 60.494 21.1639C60.4143 21.002 60.375 20.9297 60.375 20.9297C60.375 20.9297 61.2451 20.9567 61.6219 21.0082C61.9986 21.0597 62.4883 21.1443 62.9571 21.4632C63.4259 21.782 63.4713 22.0555 63.4713 22.0555C63.4713 22.0555 62.9129 21.7612 62.4368 21.6594C61.4746 21.4534 61.4488 21.614 61.7618 21.5797C61.7618 21.5797 61.8416 22.5767 61.2733 22.6234C60.7064 22.6712 60.7579 21.3197 60.7579 21.3197H60.7591Z" fill="#111116"></path><path d="M102.411 107H3.17188L13.7752 95.4297H113.015L102.411 107Z" fill="#F08B00"></path><path d="M14.989 48.6806C15.0774 48.7505 15.2075 48.6892 15.2075 48.5764C15.2099 48.2035 15.1436 47.4309 14.7031 46.2474C14.0551 44.5059 13.6489 42.8049 14.0551 42.1574C14.2698 41.8128 14.5312 41.5712 14.7288 41.4215C14.8859 41.3014 15.1081 41.332 15.2259 41.4914C15.9254 42.4382 18.2694 45.687 18.7161 47.3021C19.2426 49.2055 19.7703 52.648 20.1348 53.5801C20.4711 54.4386 22.2506 57.8051 22.5304 58.33C22.5537 58.3729 22.55 58.4232 22.5218 58.4636C22.0039 59.2068 17.1723 66.1287 17.095 66.0134C17.014 65.892 15.1498 61.396 13.6096 60.7484C12.0694 60.1009 8.26005 57.225 7.36785 56.131C6.47564 55.0371 1.0451 51.1898 0.923606 50.7447C0.80211 50.2995 1.53109 49.7721 2.1398 49.9352C2.6712 50.0775 5.49753 51.9846 6.19829 52.4604C6.2756 52.5131 6.38237 52.4739 6.40814 52.3844C6.4241 52.3292 6.40446 52.2691 6.3566 52.236C5.9737 51.9625 4.31938 50.6502 3.437 49.8138C2.93751 49.3404 0.604524 47.1403 0.123445 46.6632C-0.077822 46.4645 -0.0250506 46.1297 0.224079 45.996C0.611887 45.7875 1.1666 45.5656 1.61332 45.6833C2.3828 45.8856 5.54417 48.7211 5.90988 49.0449C6.16883 49.2754 6.69409 49.6887 6.97636 49.9095C7.08313 49.9929 7.2353 49.9769 7.32244 49.8751C7.3703 49.8187 7.36539 49.7341 7.31139 49.685C6.86345 49.2767 5.00909 47.583 4.3697 46.9796C3.83462 46.4743 1.82686 44.1613 1.37032 43.591C1.21692 43.3997 1.27337 43.1177 1.48691 42.9999C1.83299 42.8098 2.46625 42.6136 2.94978 42.8074C3.75976 43.1311 5.67916 45.2038 6.24738 45.649C6.72477 46.023 8.39382 47.2224 8.91417 47.5965C9.00253 47.6603 9.12403 47.6443 9.19398 47.5597C9.23939 47.5057 9.23571 47.426 9.18662 47.3757C8.72272 46.8987 6.51982 44.6286 5.86816 43.9406C5.32204 43.3642 4.38933 41.8569 3.95489 41.1358C3.82235 40.9163 3.91807 40.6305 4.15616 40.5373C4.6041 40.3619 5.4963 40.3546 5.90866 40.7409C6.55664 41.348 7.55316 42.5437 8.98903 43.8192C9.95364 44.6752 14.033 47.9227 14.989 48.6818V48.6806Z" fill="#E59B78"></path><path d="M60.0757 41.9085L62.0074 36.8594H79.6895L81.6212 42.9472C81.6212 42.9472 92.022 44.8776 96.7776 52.0055C101.532 59.1333 107.475 86.7519 105.395 92.9882C103.315 99.2244 101.529 102.079 94.1083 102.38C85.4771 102.729 79.1286 98.583 76.1575 95.4643L53.5934 95.5648C53.5934 95.5648 52.9246 95.8837 51.5881 93.3598C50.2504 90.8358 49.9731 90.1662 49.9731 90.1662C49.9731 90.1662 46.8522 97.2941 37.0453 97.2941C26.0137 97.2941 21.1464 87.4939 17.5801 81.406C14.0137 75.3182 12.082 69.8239 12.082 69.8239L22.6314 57.7965L39.2728 74.4266C39.2728 74.4266 44.3253 49.0351 49.0797 46.3628C53.834 43.6904 60.0757 41.9085 60.0757 41.9085Z" fill="#0041D9"></path><mask id="mask0_2112_19074" style="mask-type:alpha" maskUnits="userSpaceOnUse" x="12" y="36" width="94" height="67"><path d="M60.0757 41.9085L62.0074 36.8594H79.6895L81.6212 42.9472C81.6212 42.9472 92.022 44.8776 96.7776 52.0055C101.532 59.1333 107.475 86.7519 105.395 92.9882C103.315 99.2244 101.529 102.079 94.1083 102.38C85.4771 102.729 79.1286 98.583 76.1575 95.4643L53.5934 95.5648C53.5934 95.5648 52.9246 95.8837 51.5881 93.3598C50.2504 90.8358 49.9731 90.1662 49.9731 90.1662C49.9731 90.1662 46.8522 97.2941 37.0453 97.2941C26.0137 97.2941 21.1464 87.4939 17.5801 81.406C14.0137 75.3182 12.082 69.8239 12.082 69.8239L22.6314 57.7965L39.2728 74.4266C39.2728 74.4266 44.3253 49.0351 49.0797 46.3628C53.834 43.6904 60.0757 41.9085 60.0757 41.9085Z" fill="#0041D9"></path></mask><g mask="url(#mask0_2112_19074)"><path d="M90.3136 72.6467C95.0323 72.6467 98.8576 68.8241 98.8576 64.1085C98.8576 59.393 95.0323 55.5703 90.3136 55.5703C85.5948 55.5703 81.7695 59.393 81.7695 64.1085C81.7695 68.8241 85.5948 72.6467 90.3136 72.6467Z" fill="#73E4F9"></path><path d="M57.5471 41.166L71.2173 52.303L72.555 35.2266L57.1016 36.4149L57.5471 41.166Z" fill="#73E4F9"></path><path d="M62.8984 61.6577C63.7894 61.5093 73.0023 58.0938 73.0023 58.0938L74.34 62.1029L63.0469 65.2216L62.8984 61.6577Z" fill="#73E4F9"></path><path d="M52.4966 77.2498C52.9421 77.3982 68.841 80.5169 68.841 80.5169C68.841 80.5169 68.0985 88.3868 63.3429 87.9416C58.5874 87.4964 60.0736 85.4176 51.3074 86.6048C42.5412 87.7932 43.8777 76.5078 43.8777 76.5078L52.4953 77.2498H52.4966Z" fill="#73E4F9"></path><path d="M84.2947 92.9891C84.2947 92.3955 82.957 79.625 82.957 79.625L96.3303 82.8921L95.2896 95.3647L84.2935 92.9891H84.2947Z" fill="#73E4F9"></path><path d="M12.5275 75.4682L27.2372 80.5173C27.2372 80.5173 31.1005 75.7662 26.3462 73.2411C21.5919 70.7171 21.7404 66.2616 16.2423 64.6292C10.7443 62.9957 8.51562 70.5687 8.51562 70.5687L12.5275 75.4682Z" fill="#73E4F9"></path><path d="M26.6406 98.0337L33.7721 89.5703L40.3109 90.6091L36.002 99.3705L26.6406 98.0337Z" fill="#73E4F9"></path><path d="M27.832 59.875L30.5074 72.1991L40.7598 70.714L27.832 59.875Z" fill="#73E4F9"></path><path d="M87.4144 40.4219L82.957 47.8465C82.957 47.8465 84.8887 50.9653 91.7232 48.1433C98.5577 45.3226 98.5577 43.8374 98.5577 43.8374L87.4131 40.4219H87.4144Z" fill="#73E4F9"></path></g><path d="M30.2109 40.125H55.1742C55.1742 40.125 58.7406 56.1614 58.7406 61.5073C58.7406 66.8532 59.3346 79.6225 59.3346 79.6225H34.5198C34.5198 79.6225 34.8168 67.0016 33.7773 57.4982C32.7366 47.9948 30.2109 40.125 30.2109 40.125Z" fill="white"></path><path d="M68.617 65.8168C68.6624 65.7456 68.6489 65.6524 68.5851 65.5985C68.061 65.1447 65.8029 63.1113 64.6027 60.8449C63.238 58.2695 62.3286 55.694 61.1161 54.0274C59.9036 52.3607 57.2552 50.0808 57.2552 50.0808L57.5914 52.9481C57.6074 53.0842 57.4663 53.1824 57.3448 53.1198C56.7655 52.8193 55.3358 52.1031 53.3845 51.3011C50.8073 50.2402 48.9345 49.7852 48.3405 49.9336C47.9245 50.0379 47.3207 50.8473 48.3822 51.3011C49.4438 51.7548 52.172 53.1186 53.8398 54.3315C55.1198 55.2611 55.7469 55.9344 55.969 56.1969C56.0267 56.2643 56.0218 56.3636 55.9592 56.4262C55.85 56.5353 55.6794 56.5501 55.553 56.463C54.8154 55.9479 52.3671 54.2714 50.8662 53.6459C49.2278 52.9641 47.2998 52.0124 46.8543 52.1608C46.4481 52.2957 46.0836 53.1848 47.4483 53.9427C48.813 54.7006 50.8502 55.8608 51.6087 56.4667C52.2063 56.945 53.3391 57.7765 53.7919 58.1064C53.9085 58.191 53.9551 58.3406 53.9097 58.4767C53.8741 58.5847 53.7453 58.6276 53.652 58.5638C53.0482 58.1444 51.1153 56.8248 49.974 56.3183C48.6093 55.7124 47.3059 55.1238 47.0016 55.4279C46.6972 55.732 46.8285 56.604 48.0423 57.2099C49.256 57.8157 51.4123 59.3315 51.8676 59.7865C52.2112 60.1299 52.6518 60.5187 52.8457 60.6879C52.9046 60.7395 52.9206 60.8229 52.8862 60.8928C52.8396 60.986 52.7205 61.0166 52.6359 60.9553C51.9596 60.4721 49.3518 58.6349 48.4878 58.3983C47.7416 58.1947 46.8236 58.5258 48.3393 59.5866C49.8549 60.6475 55.0511 65.6954 56.7189 66.6053C58.3867 67.5141 59.7514 68.12 61.267 70.3925C62.4022 72.0935 63.1116 73.1997 63.3975 73.6498C63.465 73.7553 63.6184 73.7553 63.6847 73.6498L68.617 65.8217V65.8168Z" fill="#E59B78"></path><path d="M58.1835 29.6701C58.1835 29.6701 57.0533 29.5008 57.6276 28.4731C57.9479 27.9004 58.0142 28.3174 59.4476 28.6129C60.7301 28.8778 61.4554 28.8938 61.4554 28.8938C61.4554 28.8938 59.2991 31.7304 58.2584 31.2853C57.8264 31.1001 57.6337 30.596 57.7957 30.2085C57.9283 29.8908 58.1835 29.6689 58.1835 29.6689V29.6701Z" fill="#D03C0B"></path><path d="M75.4542 28.2506C76.069 28.2506 76.5685 27.7514 76.5685 27.137C76.5685 26.5226 76.069 26.0234 75.4542 26.0234C74.8393 26.0234 74.3398 26.5226 74.3398 27.137C74.3398 27.7514 74.8393 28.2506 75.4542 28.2506Z" fill="white"></path><path d="M71.1605 63.9962C71.4268 64.1777 71.6992 64.3543 71.9582 64.542C72.1889 64.71 72.4147 64.8756 72.6835 64.9896C72.7534 65.019 72.8197 65.0669 72.8872 65.1049C73.0111 65.1748 73.1339 65.2459 73.2591 65.3134C73.3155 65.344 73.3855 65.36 73.4345 65.3955C73.6739 65.5709 73.9254 65.7254 74.2016 65.8395C74.3783 65.9953 74.5931 66.0774 74.8029 66.1792C75.0116 66.281 75.2128 66.4061 75.43 66.487C75.4877 66.5091 75.5503 66.5398 75.6006 66.5753C75.9074 66.7936 76.24 66.9653 76.5738 67.1407C76.931 67.3284 77.2758 67.5381 77.6047 67.7711C77.7802 67.895 77.9753 68.0041 78.1668 68.1108C78.3951 68.2384 78.6282 68.3536 78.859 68.4775C79.1928 68.6566 79.5278 68.8282 79.8727 68.9815C80.3329 69.1876 80.7931 69.401 81.2496 69.6242C81.4816 69.737 81.7037 69.8781 81.9283 70.0093C82.3775 70.273 82.8217 70.5428 83.2733 70.8015C83.6133 70.9953 83.9594 71.1793 84.3067 71.3608C84.6307 71.53 84.9608 71.687 85.2848 71.8538L88.1762 73.3353L88.8757 73.6811C88.9923 73.7388 89.1064 73.8013 89.2205 73.8626L90.4895 74.558L92.3206 75.5305C92.6666 75.7145 93.009 75.9046 93.3698 76.0567C93.4705 76.0996 93.4901 76.1401 93.4263 76.1732C93.3158 76.2308 93.2177 76.2983 93.0225 76.2652C92.8912 76.2431 92.7709 76.2149 92.6384 76.1278C92.4457 76.0015 92.2101 75.9316 92.0383 75.7721C92.0137 75.7501 91.972 75.7304 91.9364 75.717C91.3069 75.4631 90.7251 75.1136 90.1299 74.7886C89.936 74.6819 89.7348 74.5874 89.5372 74.4869C89.4095 74.4206 89.2819 74.3544 89.1567 74.2857C88.9739 74.1864 88.7935 74.0785 88.6082 73.984C88.4682 73.9129 88.3247 73.8577 88.2277 73.7375C88.2081 73.7118 88.1332 73.6762 88.1013 73.675C87.9761 73.6713 87.8657 73.6051 87.7515 73.5425C87.4435 73.3733 87.1404 73.1979 86.8311 73.0324C86.6028 72.9097 86.3684 72.7944 86.1353 72.6828C85.772 72.5111 85.4051 72.348 85.0418 72.1727C84.7387 72.0267 84.4404 71.8685 84.1398 71.7164C84.0698 71.6809 83.9974 71.6551 83.9275 71.6183C83.801 71.5521 83.6624 71.492 83.5531 71.4098C83.4329 71.3191 83.3322 71.2602 83.1874 71.2369C83.1064 71.2246 82.9997 71.1633 82.9138 71.1106C82.8045 71.0431 82.7014 70.9646 82.6008 70.8886C82.4793 70.7966 82.3676 70.7071 82.2069 70.6617C82.121 70.6372 82.0203 70.5685 81.9406 70.5097C81.5871 70.2484 81.1981 70.0387 80.8041 69.84C80.2678 69.5727 79.7315 69.3053 79.1964 69.038C78.9866 68.9325 78.7804 68.8197 78.573 68.7081C77.9287 68.361 77.2967 67.9931 76.6683 67.619C76.5444 67.5454 76.4204 67.4694 76.2916 67.4105C75.9946 67.2719 75.7135 67.1076 75.4386 66.9322C75.1073 66.7201 74.7563 66.5459 74.4053 66.373C74.3231 66.3325 74.2372 66.2982 74.1611 66.2491C73.6297 65.9131 73.0602 65.6482 72.5227 65.3281C72.087 65.0681 71.6624 64.7922 71.2366 64.5187C70.9101 64.304 70.5837 64.0907 70.2572 63.876C70.2364 63.8625 70.2106 63.8527 70.1885 63.838C70.0044 63.7129 69.9799 63.616 70.1259 63.5719C70.256 63.5339 70.4119 63.5572 70.5837 63.659C70.7739 63.7718 70.9617 63.8895 71.1507 64.0048L71.1605 63.9925V63.9962Z" fill="#111116"></path><path d="M61.8507 79.092L62.1575 79.4771C62.2569 79.6071 62.3551 79.7384 62.4496 79.8708C62.6177 80.1075 62.7809 80.3405 63.0018 80.538C63.0595 80.5895 63.1074 80.6557 63.1601 80.7146L63.4448 81.0408C63.489 81.0898 63.5492 81.1291 63.5835 81.1794C63.7529 81.4296 63.9394 81.6626 64.164 81.8662C64.2818 82.0734 64.4536 82.2304 64.6169 82.4009C64.7789 82.5726 64.9249 82.7627 65.1028 82.9172C65.1495 82.9589 65.1986 83.0104 65.2329 83.0631C65.4477 83.3795 65.6981 83.6641 65.9496 83.9523C66.2184 84.2613 66.47 84.5851 66.6934 84.9273C66.8124 85.11 66.9572 85.2841 67.0983 85.4558C67.2665 85.6606 67.4444 85.8569 67.615 86.0592C67.8629 86.3523 68.1157 86.6393 68.3833 86.9128C68.7404 87.2795 69.0963 87.6511 69.4436 88.0301C69.6203 88.2226 69.7774 88.4385 69.9431 88.6433C70.272 89.0553 70.5923 89.4748 70.9286 89.8819C71.1826 90.1861 71.4452 90.4841 71.7103 90.7797C71.9558 91.0568 72.2196 91.3168 72.4712 91.5879L73.0321 92.19C73.2198 92.3899 73.4125 92.5849 73.6027 92.7811L74.1746 93.371C74.3648 93.5685 74.5637 93.7561 74.7576 93.9487L75.3258 94.4944L75.6056 94.7716L76.6438 95.8005C76.8991 96.0385 77.158 96.2715 77.4158 96.5057C77.6747 96.74 77.9287 96.9779 78.1975 97.1999C78.4982 97.4562 78.7964 97.7162 79.1179 97.9443C79.2075 98.0081 79.2186 98.0522 79.1498 98.0718C79.0308 98.105 78.9204 98.1516 78.7363 98.0755C78.6111 98.024 78.4982 97.9713 78.3853 97.856C78.2208 97.6892 78.0024 97.5678 77.8674 97.3728C77.8477 97.3458 77.8109 97.3176 77.779 97.2955C77.4968 97.0981 77.2403 96.8687 76.985 96.6382L76.607 96.2862L76.4192 96.1084L76.2364 95.9256C76.0768 95.7674 75.9075 95.619 75.743 95.4645C75.6363 95.3639 75.5319 95.2634 75.4276 95.1604L75.203 94.9347C75.1306 94.8574 75.057 94.7802 74.9821 94.7066C74.868 94.595 74.7453 94.4981 74.6888 94.3522C74.6766 94.3215 74.6164 94.2639 74.5845 94.2528C74.4655 94.2111 74.3771 94.1118 74.2863 94.0161C74.0372 93.761 73.804 93.4912 73.561 93.2312C73.3806 93.0387 73.194 92.8511 73.0051 92.6683C72.7105 92.3838 72.4209 92.098 72.1325 91.8074C71.8944 91.5621 71.66 91.3107 71.4293 91.058C71.3753 90.9992 71.3151 90.9489 71.2624 90.8888C71.1654 90.7809 71.055 90.6742 70.9813 90.5577C70.8991 90.4289 70.8242 90.3369 70.6954 90.2621C70.623 90.2204 70.5432 90.1248 70.4806 90.0438C70.4008 89.9396 70.3321 89.828 70.2646 89.7188C70.1824 89.5876 70.1088 89.4625 69.9738 89.3607C69.9014 89.3055 69.8314 89.2037 69.7774 89.1191C69.5369 88.7426 69.2472 88.4017 68.949 88.0668C68.5428 87.6143 68.1366 87.163 67.7291 86.7117C67.5708 86.5338 67.4174 86.3499 67.264 86.1684C66.7842 85.603 66.3264 85.018 65.8686 84.4367C65.7791 84.3226 65.6882 84.2049 65.5888 84.1019C65.3581 83.8627 65.1544 83.604 64.9556 83.3403C64.7163 83.0214 64.4463 82.732 64.1751 82.4426C64.1125 82.3751 64.0425 82.3113 63.9873 82.239C63.5946 81.7398 63.1479 81.2873 62.738 80.8053C62.4041 80.4166 62.09 80.0118 61.766 79.6157C61.5156 79.3103 61.2653 79.005 61.0149 78.6996C60.999 78.68 60.9769 78.6628 60.9609 78.6432C60.821 78.4666 60.8247 78.3648 60.9781 78.3672C61.1131 78.3697 61.2567 78.4408 61.3929 78.5917C61.5439 78.7584 61.6899 78.9301 61.8384 79.0994L61.8519 79.0908H61.8507V79.092Z" fill="#111116"></path><path d="M47.2951 81.0807C47.3074 81.2647 47.327 81.4486 47.3307 81.6314C47.3332 81.7957 47.3344 81.9564 47.4019 82.1109C47.4191 82.1501 47.4215 82.1967 47.4301 82.2409C47.4473 82.3194 47.4645 82.3991 47.4841 82.4764C47.4939 82.5119 47.5222 82.545 47.5222 82.5806C47.5246 82.7523 47.5504 82.9166 47.6228 83.0736C47.6044 83.2122 47.6658 83.3299 47.7099 83.455C47.7541 83.5801 47.7738 83.7126 47.8388 83.8315C47.856 83.8634 47.8683 83.9002 47.8695 83.9358C47.8781 84.1516 47.9431 84.354 48.0045 84.56C48.0708 84.7795 48.1088 85.0052 48.126 85.2358C48.1346 85.3584 48.1677 85.481 48.2008 85.6012C48.2389 85.7447 48.2892 85.8845 48.3322 86.0256C48.3972 86.2304 48.4684 86.4315 48.5592 86.6277C48.677 86.8902 48.801 87.1514 48.9102 87.4163C48.9666 87.5512 48.9949 87.6972 49.0354 87.8382C49.1176 88.1203 49.1912 88.406 49.2796 88.6869C49.352 88.8954 49.4354 89.1014 49.5201 89.305C49.5974 89.4963 49.6956 89.6778 49.784 89.8642C49.9141 90.1402 50.0405 90.4186 50.1841 90.6871C50.324 90.9582 50.459 91.2304 50.6148 91.4917L50.8394 91.8669L50.9462 92.0583L51.3389 92.7671C51.4395 92.9314 51.5475 93.0921 51.6518 93.2552C51.7574 93.4171 51.8592 93.5814 51.9746 93.736C52.1022 93.9138 52.225 94.0965 52.3796 94.2523C52.4225 94.2964 52.4127 94.3283 52.3526 94.3467C52.2483 94.3774 52.1452 94.4166 52.0335 94.3663C51.9574 94.3332 51.8924 94.2964 51.8519 94.2143C51.793 94.0953 51.6727 94.0119 51.6469 93.8721C51.6432 93.8525 51.6261 93.8329 51.6101 93.8181C51.4714 93.6808 51.3622 93.5201 51.2567 93.3582C51.1548 93.1939 51.0505 93.0308 50.9609 92.8591C50.8995 92.7487 50.8259 92.6457 50.7596 92.5378C50.7167 92.4679 50.675 92.3967 50.6345 92.3256C50.5743 92.2226 50.5277 92.1122 50.4688 92.0092C50.4234 91.9319 50.3657 91.8633 50.3829 91.7639C50.3866 91.7431 50.362 91.7026 50.3411 91.6952C50.2626 91.6646 50.2331 91.5959 50.2 91.5297C50.108 91.3518 50.0368 91.1642 49.9497 90.9839C49.8858 90.8502 49.8147 90.7202 49.7398 90.5915C49.6257 90.3916 49.5115 90.1917 49.4023 89.9881C49.3115 89.8176 49.2329 89.641 49.1569 89.4632C49.1384 89.4227 49.1114 89.3859 49.0943 89.3442C49.0624 89.2682 49.0194 89.1934 49.0096 89.1137C48.9998 89.0266 48.9801 88.9628 48.9053 88.9064C48.8635 88.8745 48.8402 88.8083 48.8267 88.7519C48.8083 88.6807 48.8022 88.6047 48.7973 88.5311C48.7899 88.4416 48.7862 88.3582 48.7212 88.2822C48.6856 88.2417 48.6746 88.1718 48.6684 88.1141C48.6402 87.8603 48.5653 87.6211 48.4721 87.3857C48.3444 87.0668 48.2205 86.7479 48.1039 86.4254C48.0585 86.2991 48.018 86.1703 47.9787 86.0415C47.8621 85.6405 47.7627 85.2345 47.6842 84.8249C47.6682 84.7452 47.6535 84.663 47.6228 84.587C47.5541 84.4116 47.5148 84.2301 47.4915 84.0449C47.462 83.8217 47.3921 83.6096 47.3197 83.3974C47.3025 83.3483 47.2792 83.2993 47.273 83.249C47.2252 82.8933 47.0988 82.5561 47.0362 82.2053C46.9859 81.9208 46.9552 81.6338 46.9208 81.3468C46.8951 81.1261 46.8766 80.9029 46.8546 80.6821C46.8533 80.6674 46.846 80.6539 46.8447 80.6392C46.8349 80.5129 46.8987 80.4589 47.019 80.4957C47.1258 80.5276 47.1982 80.5987 47.219 80.7103C47.2424 80.8342 47.2583 80.9593 47.278 81.0832H47.2927L47.2951 81.0807Z" fill="#111116"></path><path d="M33.6567 39.9674C33.691 39.5173 33.6935 39.0427 33.8383 38.6097C33.9561 38.259 34.2494 37.8874 34.6532 37.88C35.057 37.8727 35.3319 38.2639 35.4411 38.611C35.5834 39.0611 35.6031 39.5553 35.6608 40.0226C35.7221 40.518 35.7823 41.0135 35.8436 41.509C35.8866 41.8597 35.9234 42.2129 35.9136 42.5673C35.9038 42.8997 35.8534 43.2455 35.6853 43.5387C35.6092 43.6711 35.5098 43.7901 35.3883 43.8808C35.3208 43.9311 35.2202 44.0084 35.1355 43.9569C35.0692 43.9164 35.0373 43.806 35.0165 43.7373C34.8618 43.2296 34.7845 42.6814 34.7281 42.1565C34.6716 41.6316 34.6495 41.0687 34.6655 40.5229C34.6728 40.2862 34.3047 40.2862 34.2973 40.5229C34.2801 41.0981 34.3034 41.6721 34.3697 42.2436C34.4028 42.5306 34.4458 42.8175 34.4986 43.1008C34.5464 43.3572 34.5894 43.627 34.6741 43.8747C34.7391 44.0648 34.8545 44.2659 35.0606 44.3248C35.2963 44.3922 35.5184 44.2549 35.6902 44.1077C35.9933 43.8477 36.1602 43.4651 36.229 43.0788C36.3051 42.6544 36.2903 42.2215 36.2449 41.7947C36.186 41.2428 36.1112 40.6922 36.0437 40.1415C36.0068 39.846 35.9712 39.5504 35.9344 39.2548C35.9013 38.9875 35.8669 38.7177 35.7798 38.4626C35.635 38.0419 35.3196 37.6249 34.8594 37.5342C34.3439 37.4324 33.8567 37.7623 33.6162 38.2038C33.3278 38.7348 33.3351 39.3812 33.2897 39.9674C33.2713 40.2041 33.6395 40.2028 33.6579 39.9674H33.6567Z" fill="#111116"></path><path d="M57.7027 23.4864C57.7027 23.4864 57.699 23.4926 57.6978 23.4963C57.5787 23.7489 57.4437 24.0003 57.3038 24.2419L57.1774 24.2542L56.7344 19.5239L57.3247 19.4688L57.7027 23.4864Z" fill="#D03C0B"></path><path d="M64.9634 21.6212C64.8394 23.0279 63.5827 24.3181 61.9714 24.3181C60.36 24.3181 59.577 23.467 59.2788 22.0468C58.9867 20.6634 59.2788 19.4922 61.8977 19.4922C64.367 19.4922 65.1143 19.9177 64.9646 21.6212H64.9634Z" stroke="#D03C0B" stroke-width="0.592461" stroke-miterlimit="10"></path><path d="M70.6988 21.1952H64.9062V20.75H69.7686C70.0999 20.9156 70.4129 21.064 70.6988 21.1952Z" fill="#D03C0B"></path><path d="M57.25 21.2724C57.25 21.2724 57.5949 20.7132 58.314 20.7696C59.0332 20.826 59.2001 21.178 59.2001 21.178" stroke="#D03C0B" stroke-width="0.444346" stroke-miterlimit="10"></path><path d="M70.0771 64.3142C69.9434 64.4761 69.8157 64.6428 69.6758 64.7974C69.5506 64.936 69.4255 65.0696 69.3531 65.2462C69.3347 65.2916 69.2991 65.3321 69.2721 65.375C69.223 65.4523 69.1727 65.5295 69.1248 65.6092C69.1039 65.6448 69.0966 65.6939 69.0696 65.7221C68.937 65.8643 68.8266 66.0201 68.7542 66.2016C68.6339 66.3022 68.5823 66.4444 68.5136 66.5781C68.4449 66.7118 68.3529 66.8357 68.3038 66.9804C68.2903 67.0184 68.2694 67.0589 68.2424 67.0883C68.078 67.271 67.9589 67.4832 67.835 67.6941C67.7024 67.9198 67.5502 68.1332 67.3735 68.3282C67.279 68.4324 67.2017 68.5551 67.1256 68.674C67.0348 68.8163 66.9538 68.9659 66.8654 69.1106C66.7378 69.3204 66.6163 69.5325 66.5132 69.7545C66.3745 70.0525 66.2261 70.3468 66.0702 70.6375C65.9904 70.7847 65.8861 70.9196 65.7891 71.0582C65.594 71.3341 65.3928 71.6051 65.2025 71.8835C65.0589 72.0932 64.9252 72.3091 64.7939 72.5262C64.6711 72.7285 64.5595 72.9382 64.4392 73.1418L63.3568 74.9495L63.1039 75.3886C63.061 75.461 63.0156 75.5321 62.969 75.6032L62.4461 76.3832L61.7147 77.5103C61.5748 77.7224 61.4312 77.9322 61.322 78.1627C61.2913 78.2277 61.2557 78.2314 61.2201 78.1774C61.1588 78.0842 61.0888 77.9971 61.1035 77.861C61.1134 77.769 61.1281 77.6881 61.1968 77.6096C61.2962 77.4968 61.3404 77.3398 61.4717 77.249C61.4901 77.2368 61.5036 77.2098 61.5134 77.1865C61.6914 76.7818 61.9602 76.431 62.2044 76.0668C62.2842 75.9478 62.3529 75.8203 62.4277 75.6976C62.4768 75.6179 62.5259 75.5394 62.5775 75.4622C62.6523 75.3493 62.7345 75.2414 62.8033 75.1249C62.8548 75.0378 62.8929 74.9434 62.9935 74.8993C63.0144 74.8894 63.0414 74.8428 63.0389 74.8195C63.0303 74.7288 63.0819 74.6613 63.1285 74.5914C63.2549 74.4026 63.3862 74.2162 63.5089 74.0248C63.5998 73.8826 63.6832 73.7366 63.763 73.5882C63.8857 73.3577 63.9998 73.1222 64.1238 72.8929C64.2281 72.7015 64.3435 72.5151 64.4527 72.3263C64.4785 72.2821 64.4944 72.2343 64.5214 72.1914C64.5693 72.1116 64.611 72.0233 64.6748 71.9596C64.746 71.8897 64.7902 71.8283 64.7963 71.7265C64.8 71.6689 64.8454 71.6039 64.8847 71.5524C64.935 71.4862 64.9964 71.4261 65.0553 71.3684C65.1264 71.2985 65.1964 71.2348 65.2222 71.1256C65.2357 71.0667 65.2884 71.0079 65.3338 70.9613C65.5363 70.7552 65.6873 70.5124 65.8284 70.2634L66.3917 69.2431C66.4654 69.1106 66.5476 68.9806 66.6261 68.8506C66.8728 68.4459 67.1416 68.0547 67.4116 67.6659C67.4643 67.5899 67.5208 67.5126 67.5601 67.4305C67.6533 67.2391 67.7724 67.065 67.9012 66.897C68.0571 66.6946 68.1761 66.4702 68.294 66.2458C68.321 66.193 68.3443 66.1366 68.3786 66.09C68.6229 65.7638 68.7996 65.3946 69.0278 65.0598C69.2132 64.7888 69.4144 64.5288 69.612 64.2663C69.7654 64.064 69.9237 63.8653 70.0784 63.6654C70.0882 63.6519 70.0943 63.6347 70.1041 63.6225C70.1949 63.5097 70.2808 63.5109 70.3373 63.6286C70.3864 63.7329 70.3827 63.8432 70.3115 63.9524C70.2318 64.0713 70.1471 64.1879 70.0649 64.3056L70.0771 64.3154V64.3142Z" fill="#111116"></path><path d="M12.416 69.2572C12.5596 69.1223 12.697 68.9825 12.848 68.8562C12.9817 68.7433 13.1143 68.6342 13.2002 68.4772C13.2223 68.4367 13.2603 68.4036 13.2898 68.3668C13.3438 68.3006 13.4002 68.2344 13.453 68.1669C13.4775 68.1363 13.4874 68.0909 13.5168 68.0676C13.6579 67.9523 13.7807 67.8223 13.8678 67.6604C13.9942 67.5832 14.0568 67.4568 14.1366 67.3403C14.2163 67.2238 14.317 67.1208 14.3796 66.992C14.3967 66.9577 14.4213 66.9234 14.4495 66.8988C14.6262 66.7504 14.7637 66.5701 14.9048 66.3899C15.0558 66.1973 15.2239 66.0183 15.4166 65.8637C15.5184 65.7803 15.6068 65.6773 15.6939 65.5768C15.797 65.4566 15.8903 65.3278 15.9909 65.2064C16.1382 65.0298 16.2781 64.8495 16.4021 64.6557C16.569 64.397 16.7457 64.1443 16.9298 63.8966C17.0243 63.7715 17.1396 63.6611 17.2501 63.5483C17.471 63.3214 17.698 63.1019 17.9152 62.8725C18.0785 62.7008 18.2343 62.5206 18.3877 62.3391L18.8074 61.8227C19.2296 61.3187 19.6579 60.8208 20.0862 60.3216L20.3881 59.9562C20.4384 59.8961 20.4924 59.8372 20.5477 59.7808L21.1588 59.1492L22.024 58.2355C22.1897 58.0638 22.3591 57.897 22.4978 57.7033C22.537 57.6481 22.5714 57.6517 22.5972 57.7106C22.6413 57.8124 22.6953 57.9105 22.661 58.0344C22.6377 58.119 22.6119 58.1926 22.5346 58.2515C22.4229 58.3373 22.3566 58.4759 22.2179 58.5323C22.1983 58.5409 22.1811 58.563 22.1689 58.5814C21.9394 58.9272 21.6313 59.2007 21.3454 59.495C21.2521 59.5919 21.1687 59.6974 21.0791 59.798C21.0214 59.863 20.9625 59.9267 20.9023 59.9893C20.8152 60.08 20.7207 60.1671 20.6397 60.2628C20.5784 60.3351 20.5293 60.4161 20.4262 60.4381C20.4041 60.443 20.3734 60.4823 20.3722 60.5044C20.3673 60.5914 20.3096 60.6454 20.2556 60.7018C20.1083 60.8551 19.9574 61.006 19.815 61.1629C19.7095 61.2794 19.6101 61.4021 19.5143 61.526C19.3658 61.7197 19.2272 61.9221 19.0787 62.1146C18.9535 62.2765 18.8185 62.4298 18.6909 62.5892C18.6614 62.626 18.6393 62.669 18.6086 62.7045C18.5522 62.7708 18.5019 62.848 18.4331 62.8946C18.3571 62.9474 18.3067 62.9964 18.2871 63.0921C18.2761 63.146 18.2245 63.1988 18.1803 63.2405C18.1239 63.2944 18.0588 63.3398 17.9938 63.384C17.9165 63.4379 17.8416 63.4857 17.8048 63.5839C17.7852 63.6366 17.7275 63.6832 17.6772 63.7188C17.4563 63.8757 17.2844 64.0806 17.12 64.2915C16.8966 64.5785 16.6819 64.8716 16.4634 65.1598C16.3775 65.2726 16.2842 65.3818 16.1947 65.4909C15.9148 65.8343 15.6129 66.1581 15.3123 66.4831C15.2534 66.5468 15.192 66.6106 15.1441 66.683C15.0349 66.8498 14.9011 66.9945 14.7612 67.1343C14.5919 67.3023 14.4544 67.4961 14.3182 67.6899C14.2863 67.7352 14.2593 67.7855 14.2213 67.8248C13.9549 68.097 13.7488 68.4183 13.4984 68.7029C13.2959 68.9334 13.0762 69.1493 12.8627 69.3688C12.697 69.5393 12.5277 69.7036 12.3595 69.8716C12.3485 69.8827 12.3423 69.8986 12.3301 69.9084C12.2319 70.0016 12.1484 69.9881 12.1043 69.8692C12.0638 69.7637 12.0773 69.6582 12.1558 69.5663C12.2429 69.4645 12.335 69.3663 12.4246 69.2658L12.4135 69.2548L12.416 69.2572Z" fill="#111116"></path><path d="M16.7814 103.923L6.46517 77.3097C6.08718 76.3335 6.80757 75.2812 7.85564 75.2812H37.0186C37.8948 75.2812 38.6827 75.8172 39.0042 76.6315L48.5423 100.826H70.2314V102.664C70.2314 103.503 69.5539 104.184 68.7145 104.188C60.0084 104.224 16.7838 104.386 16.7838 103.923H16.7814Z" fill="#111116"></path><path d="M92.2466 30.1474C92.2687 30.1021 92.2871 30.0555 92.3043 30.0089C92.3644 29.8543 92.4184 29.6961 92.4626 29.5355C92.4724 29.4999 92.4736 29.4619 92.4835 29.4263L92.535 29.2092C92.5375 29.1958 92.5448 29.1823 92.5375 29.1688C92.5019 29.1013 92.5264 29.04 92.5289 28.9762C92.5326 28.91 92.5264 28.8438 92.5215 28.7763C92.5178 28.7138 92.4933 28.6512 92.5399 28.5887C92.5559 28.5678 92.5448 28.5409 92.5326 28.5188C92.5117 28.482 92.5154 28.4452 92.524 28.4084C92.5448 28.3226 92.5092 28.2392 92.5092 28.1545L92.5117 28.0662C92.5117 28.0552 92.5178 28.0442 92.5117 28.0343C92.47 27.9693 92.4957 27.897 92.4749 27.8295C92.4454 27.7253 92.4589 27.6161 92.4466 27.5082C92.4258 27.3451 92.3926 27.1832 92.3595 27.0213L92.3055 26.7577C92.281 26.6387 92.2589 26.5173 92.2319 26.3983C92.2233 26.3591 92.2024 26.3211 92.1889 26.283C92.1521 26.18 92.1644 26.0647 92.1251 25.963C92.0957 25.8857 92.0846 25.8035 92.0736 25.7214C92.0699 25.6944 92.0711 25.6662 92.0662 25.6392L92.0171 25.3804L91.957 25.0812C91.9361 24.9671 91.9189 24.8531 91.9018 24.7378C91.8833 24.6053 91.8662 24.4741 91.8478 24.3416C91.8158 24.1221 91.8293 23.9001 91.8428 23.6806C91.849 23.6083 91.8588 23.5371 91.8907 23.4685C91.9226 23.3949 91.9202 23.3164 91.9226 23.2379C91.9226 23.1189 91.9533 23.0049 91.9975 22.8945C92.0294 22.8172 92.0625 22.7412 92.092 22.6627C92.1128 22.6002 92.1251 22.5327 92.146 22.4689C92.1533 22.4456 92.1668 22.4236 92.1816 22.4015C92.2429 22.3193 92.3178 22.2482 92.3644 22.1599C92.3693 22.1501 92.3804 22.1439 92.3877 22.1354C92.4233 22.0924 92.4651 22.0556 92.5031 22.0164C92.5411 21.9771 92.5816 21.9404 92.6234 21.9048C92.643 21.8864 92.6528 21.8606 92.67 21.8398C92.6737 21.8349 92.6945 21.8349 92.697 21.8386C92.7105 21.8533 92.7289 21.8729 92.7314 21.8839C92.7351 21.9011 92.7314 21.9146 92.7228 21.9244C92.686 21.9747 92.6442 22.0201 92.6111 22.0728L92.5694 22.1378C92.5289 22.1942 92.497 22.2568 92.4614 22.3156C92.4307 22.3745 92.4025 22.4346 92.3742 22.4935C92.3497 22.5548 92.3239 22.6161 92.3031 22.6799C92.2356 22.8847 92.1754 23.0944 92.1374 23.3102C92.1288 23.3544 92.1337 23.3998 92.1276 23.4439C92.0674 23.8388 92.0993 24.2435 92.1411 24.6421C92.1546 24.7721 92.1644 24.9033 92.1852 25.0346C92.2159 25.2234 92.2577 25.4111 92.2969 25.5987L92.416 26.1653L92.5424 26.7515C92.5841 26.9453 92.6258 27.1391 92.659 27.3353C92.7068 27.6186 92.7375 27.9068 92.7522 28.195C92.7584 28.2968 92.7743 28.3998 92.7768 28.5028C92.7792 28.5997 92.7743 28.6978 92.767 28.7947L92.762 28.8536C92.7571 28.9873 92.751 29.1209 92.7326 29.2534C92.7019 29.468 92.6553 29.6826 92.5755 29.8862C92.5141 30.0506 92.4454 30.2137 92.3632 30.3694C92.3166 30.4479 92.2736 30.5289 92.2172 30.6012C92.2024 30.6208 92.1779 30.6355 92.1533 30.6466C92.1362 30.6539 92.1092 30.6527 92.0785 30.6257C92.0502 30.6012 92.0417 30.5791 92.049 30.562C92.0711 30.4994 92.0907 30.4369 92.1177 30.3792C92.157 30.2983 92.2061 30.2235 92.2429 30.1413L92.2466 30.1474Z" fill="#FFF0E1"></path><path d="M74.3628 25.8069L74.3751 25.7664C74.3861 25.7198 74.4082 25.6793 74.4266 25.6364C74.4303 25.6266 74.4266 25.6156 74.4328 25.6058C74.4414 25.5874 74.4524 25.569 74.4622 25.5506C74.4634 25.5469 74.4696 25.5444 74.4622 25.5395C74.4254 25.5126 74.4426 25.4991 74.445 25.4831C74.4487 25.466 74.4377 25.4463 74.434 25.4279C74.4315 25.4108 74.4058 25.3911 74.4549 25.3826C74.4708 25.3801 74.4622 25.3715 74.4499 25.3642C74.4303 25.3519 74.4352 25.3445 74.4463 25.336C74.472 25.3163 74.4401 25.293 74.4475 25.2734C74.4499 25.2661 74.4536 25.2587 74.4573 25.2526C74.4573 25.2501 74.4647 25.2477 74.4598 25.2452C74.4254 25.2293 74.4549 25.2121 74.4438 25.1961C74.4242 25.1728 74.4524 25.1434 74.4512 25.1164C74.4512 25.0747 74.4364 25.0355 74.4242 24.9962C74.418 24.9742 74.4094 24.9533 74.4033 24.9312C74.3935 24.9018 74.3849 24.8711 74.3714 24.8417C74.3665 24.8319 74.3518 24.8282 74.3432 24.8209C74.3186 24.8025 74.3383 24.7583 74.3088 24.7411C74.288 24.7289 74.2818 24.7068 74.2757 24.6847C74.2732 24.6774 74.2757 24.6676 74.272 24.6614C74.261 24.6406 74.2487 24.6197 74.2352 24.6013C74.218 24.5793 74.1996 24.5596 74.1812 24.5388C74.1603 24.5155 74.1407 24.491 74.1186 24.4677C74.0928 24.4419 74.0683 24.4149 74.0364 24.3953C73.9824 24.3622 73.9541 24.307 73.9149 24.2604C73.9014 24.2457 73.894 24.2261 73.8977 24.1966C73.9014 24.1647 73.8793 24.1574 73.856 24.1488C73.8216 24.1365 73.8032 24.1096 73.7946 24.0752C73.7885 24.0507 73.7823 24.0262 73.7688 24.0078C73.7578 23.993 73.7345 23.9881 73.7197 23.9783C73.7136 23.9746 73.7124 23.9661 73.7124 23.9575C73.7099 23.9244 73.721 23.8778 73.6989 23.8606C73.6964 23.8594 73.6989 23.852 73.6989 23.8483C73.6964 23.8103 73.694 23.7723 73.6891 23.7355C73.6891 23.7269 73.6768 23.7257 73.6719 23.7196C73.6719 23.7183 73.6805 23.7048 73.6842 23.7024C73.7001 23.6901 73.721 23.673 73.7283 23.6693C73.7406 23.6631 73.7467 23.6631 73.7492 23.6656C73.7615 23.6791 73.7725 23.6938 73.7848 23.7085L73.8007 23.7257L73.8388 23.7735C73.8646 23.803 73.8879 23.8348 73.9173 23.8606C73.964 23.9035 73.9983 23.9587 74.0364 24.009C74.0437 24.0188 74.0609 24.0225 74.0683 24.0323C74.1358 24.1267 74.2278 24.1991 74.3015 24.2935C74.3248 24.3242 74.342 24.361 74.3653 24.3916C74.3984 24.437 74.4365 24.4799 74.4684 24.529C74.5003 24.5768 74.5273 24.6295 74.553 24.6823C74.58 24.7362 74.6046 24.7927 74.6267 24.8515C74.6488 24.9079 74.6696 24.9668 74.6819 25.0269C74.6991 25.1152 74.7003 25.2072 74.6942 25.2943C74.6917 25.3249 74.7028 25.358 74.7003 25.3887C74.6978 25.4181 74.6905 25.4476 74.6831 25.4758C74.6819 25.4819 74.6782 25.4868 74.6782 25.4929C74.6745 25.5322 74.6721 25.5727 74.6635 25.6119C74.6488 25.6732 74.6328 25.7345 74.6021 25.7885C74.5776 25.8326 74.5653 25.8793 74.5469 25.9246C74.5371 25.9479 74.5285 25.9712 74.5162 25.9921C74.5125 25.9982 74.499 25.9994 74.4831 25.9994C74.472 25.9994 74.45 25.9945 74.4131 25.9774C74.3788 25.9614 74.3628 25.9516 74.3616 25.9443C74.3542 25.921 74.3407 25.8952 74.342 25.8768C74.3444 25.8498 74.3591 25.8277 74.3677 25.8044L74.3628 25.8069Z" fill="#904322"></path><path d="M76.4992 21.2919C76.4845 21.2919 76.4698 21.2944 76.455 21.2968C76.4072 21.3066 76.3581 21.3005 76.309 21.3005C76.298 21.3005 76.2881 21.3079 76.2771 21.3079C76.255 21.3079 76.2329 21.3042 76.2108 21.303C76.2071 21.303 76.2022 21.2981 76.1998 21.3066C76.1875 21.3496 76.1679 21.3397 76.1495 21.3447C76.1311 21.3483 76.1139 21.3655 76.0967 21.3765C76.0795 21.3864 76.0685 21.4158 76.0415 21.3729C76.0329 21.3594 76.0267 21.3704 76.0231 21.3839C76.0169 21.4072 76.0059 21.406 75.9936 21.3986C75.9641 21.3814 75.9482 21.4182 75.9236 21.417C75.9151 21.417 75.9065 21.4146 75.8967 21.4133C75.893 21.4133 75.8881 21.4072 75.8868 21.4133C75.877 21.4514 75.85 21.4281 75.8341 21.444C75.8095 21.4685 75.7715 21.4489 75.7408 21.4538C75.6942 21.4612 75.6512 21.482 75.607 21.4967C75.5825 21.5041 75.5592 21.5151 75.5358 21.5237C75.5027 21.536 75.4696 21.5446 75.4377 21.558C75.4278 21.563 75.4217 21.5777 75.4143 21.5875C75.3935 21.612 75.3481 21.5924 75.3272 21.6206C75.3125 21.6414 75.2892 21.6463 75.2658 21.6525C75.2585 21.6549 75.2474 21.6525 75.2413 21.6562C75.2192 21.6672 75.1959 21.6782 75.175 21.6905C75.1505 21.7052 75.1296 21.7261 75.1063 21.7432C75.0805 21.7641 75.0535 21.7813 75.029 21.8033C75.002 21.8291 74.9738 21.8536 74.9529 21.8855C74.9173 21.9382 74.8658 21.9701 74.8204 22.0094C74.8056 22.0229 74.7885 22.0327 74.759 22.0314C74.7271 22.0314 74.721 22.0547 74.7148 22.078C74.705 22.1124 74.6817 22.1345 74.6486 22.1492C74.6252 22.159 74.6019 22.17 74.5847 22.1872C74.5712 22.2007 74.5712 22.224 74.5651 22.2424C74.5626 22.2485 74.5553 22.2522 74.5467 22.2546C74.5148 22.2657 74.4657 22.2657 74.4546 22.2927C74.4534 22.2951 74.4461 22.2939 74.4411 22.2951C74.4227 22.3025 74.4031 22.3062 74.3871 22.3233C74.3798 22.3319 74.3712 22.3479 74.3761 22.3687C74.3761 22.3761 74.3859 22.3932 74.4056 22.4018C74.4252 22.4092 74.4411 22.4043 74.4534 22.4018C74.4657 22.3969 74.4731 22.3896 74.4792 22.3773C74.4816 22.3712 74.4853 22.3638 74.4866 22.3503C74.489 22.3393 74.4829 22.316 74.4694 22.3037C74.4571 22.2902 74.4436 22.273 74.4436 22.2681C74.4522 22.251 74.4645 22.2228 74.4976 22.2301C74.5123 22.2363 74.5258 22.2424 74.5418 22.2583C74.5577 22.2755 74.57 22.2988 74.5737 22.3184C74.5786 22.3417 74.5786 22.3589 74.5761 22.3724C74.5737 22.3896 74.57 22.3957 74.5663 22.4067C74.5455 22.4484 74.5283 22.4631 74.4988 22.4815C74.4841 22.4901 74.4669 22.4975 74.4399 22.5024C74.4154 22.5061 74.3786 22.5036 74.3479 22.4864C74.3172 22.4717 74.2951 22.4435 74.2902 22.4349C74.2816 22.4214 74.2742 22.4055 74.2693 22.3908C74.2595 22.3589 74.2607 22.3319 74.2644 22.3123C74.2706 22.2792 74.2792 22.2596 74.2877 22.2436C74.3025 22.2191 74.3074 22.2154 74.3147 22.2056L74.3356 22.1786C74.3614 22.1443 74.3884 22.1099 74.4117 22.0731C74.4522 22.0155 74.5025 21.964 74.5565 21.9174C74.5676 21.9076 74.5688 21.8892 74.5798 21.8794C74.6756 21.7935 74.7578 21.693 74.8633 21.6169C74.8965 21.5912 74.9382 21.5777 74.9725 21.5531C75.0216 21.5188 75.0707 21.4845 75.1235 21.4538C75.175 21.4219 75.2315 21.3998 75.2867 21.3753C75.3419 21.3483 75.4008 21.3287 75.4585 21.3042C75.5138 21.2797 75.5714 21.26 75.6291 21.2392C75.7138 21.2147 75.7985 21.1938 75.8844 21.1779C75.9151 21.1717 75.9421 21.1521 75.9715 21.1423C75.9997 21.1337 76.0292 21.1337 76.0586 21.1288C76.0648 21.1288 76.0709 21.1288 76.0758 21.1276C76.1151 21.1165 76.1531 21.1006 76.1936 21.0957C76.2575 21.0859 76.3225 21.0736 76.3888 21.081C76.4415 21.0859 76.4931 21.0761 76.5459 21.0785C76.5729 21.0785 76.5999 21.0785 76.6269 21.0822C76.6342 21.0822 76.6416 21.0957 76.6477 21.1104C76.6514 21.1202 76.6551 21.1435 76.6514 21.184C76.6477 21.222 76.6428 21.2404 76.6379 21.2441C76.6183 21.2588 76.5986 21.2821 76.5802 21.287C76.5532 21.2944 76.5275 21.2895 76.5017 21.2882L76.4992 21.2919Z" fill="#904322"></path><path d="M68.521 33.1363C68.4855 33.1633 68.4499 33.1878 68.413 33.2136C68.2952 33.3007 68.1664 33.3718 68.0387 33.4417C68.0105 33.4564 67.9847 33.4785 67.9565 33.4932C67.8988 33.5226 67.8399 33.5496 67.7798 33.5754C67.7687 33.5803 67.7552 33.5815 67.7503 33.5938C67.7221 33.6563 67.6669 33.6723 67.6166 33.6968C67.565 33.7225 67.5184 33.7606 67.4693 33.7924C67.4227 33.8231 67.3834 33.8697 67.3134 33.8489C67.2914 33.8427 67.2729 33.8623 67.2607 33.882C67.2398 33.9151 67.2091 33.9237 67.1748 33.9273C67.0974 33.9347 67.041 33.9936 66.9698 34.0156L66.8949 34.0353C66.8864 34.0377 66.8741 34.0353 66.868 34.0426C66.825 34.0966 66.7563 34.0905 66.7035 34.1199C66.6213 34.1677 66.5243 34.1714 66.4347 34.1959C66.2985 34.2376 66.1635 34.2781 66.0273 34.3186L65.8052 34.3787L65.5008 34.4486C65.4664 34.4559 65.4358 34.4755 65.4039 34.4878C65.3167 34.5222 65.2173 34.5025 65.1314 34.5381C65.0651 34.5638 64.9964 34.57 64.9265 34.5786C64.9031 34.581 64.8798 34.5786 64.8565 34.5822C64.7829 34.5933 64.7105 34.6043 64.6381 34.619L64.3865 34.6681L64.1005 34.7184C63.9913 34.738 63.8821 34.7564 63.7741 34.7822C63.5961 34.8263 63.4133 34.8337 63.2316 34.8557C63.1727 34.8631 63.1126 34.8619 63.0525 34.8472C62.9862 34.8312 62.9236 34.8496 62.8622 34.868C62.7677 34.8962 62.672 34.9023 62.5738 34.895C62.5051 34.8913 62.4352 34.8864 62.3677 34.8901C62.3124 34.8938 62.2597 34.9134 62.2057 34.9232C62.1848 34.9269 62.1639 34.9244 62.1431 34.922C62.0596 34.9097 61.9749 34.8778 61.8927 34.8913C61.8841 34.8925 61.8743 34.8864 61.8645 34.8852C61.7712 34.8705 61.6792 34.8545 61.5859 34.8435C61.5626 34.841 61.5405 34.8508 61.5172 34.8521C61.511 34.8521 61.5 34.8373 61.5 34.8337C61.5 34.814 61.5 34.7871 61.5061 34.7772C61.5147 34.7638 61.5258 34.7576 61.5368 34.7564L61.7025 34.7429L61.7712 34.7355L61.9553 34.7221C62.0719 34.711 62.1885 34.7037 62.3038 34.6889C62.4928 34.6644 62.6831 34.6558 62.8721 34.6399C62.9113 34.6362 62.9481 34.6215 62.9874 34.6178C63.3323 34.5908 63.6722 34.5258 64.0134 34.4792C64.1238 34.4645 64.2355 34.4559 64.3472 34.4388C64.5067 34.413 64.6651 34.3799 64.8246 34.3505C64.9829 34.3198 65.1424 34.2916 65.3008 34.2585C65.4628 34.2229 65.626 34.1861 65.7868 34.1432C65.9451 34.1003 66.1009 34.0512 66.258 34.0034C66.4838 33.9335 66.7084 33.8587 66.9293 33.7728C67.0066 33.7409 67.0803 33.698 67.1551 33.6612C67.2263 33.6257 67.3012 33.5987 67.3723 33.5643C67.3871 33.5582 67.4018 33.5521 67.4153 33.5447C67.511 33.4944 67.6031 33.438 67.6976 33.3853C67.8497 33.3007 67.9982 33.2099 68.1504 33.1253C68.2719 33.0554 68.386 32.9732 68.499 32.8923L68.6744 32.7647C68.6904 32.7537 68.7137 32.75 68.7383 32.75C68.7542 32.75 68.7788 32.761 68.8009 32.7941C68.8217 32.8248 68.8254 32.8469 68.8156 32.8591C68.7812 32.9045 68.7518 32.956 68.71 32.9941C68.6524 33.0492 68.5836 33.0885 68.5198 33.1351L68.521 33.1363Z" fill="#904322"></path></g><rect x="230" width="88" height="28" rx="14" fill="#EEEEF0"></rect><path d="M244.408 11.7464C244.369 11.3454 244.198 11.0339 243.896 10.8118C243.595 10.5897 243.185 10.4787 242.668 10.4787C242.317 10.4787 242.02 10.5284 241.778 10.6278C241.536 10.724 241.351 10.8582 241.222 11.0305C241.096 11.2029 241.033 11.3984 241.033 11.6172C241.026 11.7995 241.064 11.9586 241.147 12.0945C241.233 12.2304 241.351 12.348 241.5 12.4474C241.649 12.5436 241.821 12.6281 242.017 12.701C242.213 12.7706 242.421 12.8303 242.643 12.88L243.558 13.0987C244.002 13.1982 244.41 13.3307 244.781 13.4964C245.152 13.6622 245.474 13.866 245.746 14.108C246.018 14.3499 246.228 14.6349 246.377 14.9631C246.53 15.2912 246.607 15.6674 246.611 16.0916C246.607 16.7147 246.448 17.255 246.134 17.7124C245.822 18.1664 245.371 18.5194 244.781 18.7713C244.195 19.0199 243.487 19.1442 242.658 19.1442C241.836 19.1442 241.121 19.0182 240.511 18.7663C239.904 18.5144 239.43 18.1416 239.089 17.6477C238.751 17.1506 238.573 16.5357 238.557 15.8033H240.64C240.663 16.1446 240.761 16.4297 240.933 16.6584C241.109 16.8838 241.343 17.0545 241.634 17.1705C241.929 17.2831 242.262 17.3395 242.634 17.3395C242.998 17.3395 243.315 17.2865 243.583 17.1804C243.855 17.0743 244.065 16.9268 244.214 16.7379C244.364 16.549 244.438 16.3319 244.438 16.0866C244.438 15.858 244.37 15.6657 244.234 15.5099C244.102 15.3542 243.906 15.2216 243.648 15.1122C243.393 15.0028 243.079 14.9034 242.708 14.8139L241.599 14.5355C240.741 14.3267 240.063 14.0002 239.566 13.5561C239.069 13.112 238.822 12.5137 238.825 11.7614C238.822 11.1449 238.986 10.6063 239.317 10.1456C239.652 9.6849 240.111 9.32528 240.695 9.06676C241.278 8.80824 241.941 8.67898 242.683 8.67898C243.439 8.67898 244.098 8.80824 244.662 9.06676C245.229 9.32528 245.67 9.6849 245.984 10.1456C246.299 10.6063 246.462 11.1399 246.472 11.7464H244.408ZM252.081 11.3636V12.9545H247.482V11.3636H252.081ZM248.526 9.53409H250.644V16.6534C250.644 16.849 250.674 17.0014 250.733 17.1108C250.793 17.2169 250.876 17.2914 250.982 17.3345C251.091 17.3776 251.217 17.3991 251.36 17.3991C251.459 17.3991 251.559 17.3909 251.658 17.3743C251.758 17.3544 251.834 17.3395 251.887 17.3295L252.22 18.9055C252.114 18.9387 251.965 18.9768 251.773 19.0199C251.58 19.0663 251.347 19.0945 251.072 19.1044C250.561 19.1243 250.114 19.0563 249.729 18.9006C249.348 18.7448 249.051 18.5028 248.839 18.1747C248.627 17.8466 248.523 17.4323 248.526 16.9318V9.53409ZM256.858 19.1491C256.073 19.1491 255.397 18.9901 254.83 18.6719C254.267 18.3504 253.832 17.8963 253.528 17.3097C253.223 16.7197 253.07 16.022 253.07 15.2166C253.07 14.4311 253.223 13.7417 253.528 13.1484C253.832 12.5552 254.262 12.0928 254.815 11.7614C255.372 11.4299 256.025 11.2642 256.774 11.2642C257.278 11.2642 257.747 11.3454 258.181 11.5078C258.618 11.6669 259 11.9072 259.324 12.2287C259.653 12.5502 259.908 12.9545 260.09 13.4418C260.272 13.9257 260.363 14.4924 260.363 15.142V15.7237H253.915V14.4112H258.37C258.37 14.1063 258.304 13.8362 258.171 13.6009C258.038 13.3655 257.854 13.1816 257.619 13.049C257.387 12.9131 257.117 12.8452 256.809 12.8452C256.487 12.8452 256.202 12.9197 255.954 13.0689C255.708 13.2147 255.516 13.4119 255.377 13.6605C255.238 13.9058 255.166 14.1792 255.163 14.4808V15.7287C255.163 16.1065 255.233 16.433 255.372 16.7081C255.515 16.9832 255.715 17.1953 255.974 17.3445C256.232 17.4936 256.539 17.5682 256.893 17.5682C257.129 17.5682 257.344 17.535 257.54 17.4688C257.735 17.4025 257.903 17.303 258.042 17.1705C258.181 17.0379 258.287 16.8755 258.36 16.6832L260.319 16.8125C260.219 17.2831 260.015 17.6941 259.707 18.0455C259.402 18.3935 259.008 18.6652 258.524 18.8608C258.043 19.053 257.488 19.1491 256.858 19.1491ZM261.746 21.8636V11.3636H263.834V12.6463H263.928C264.021 12.4408 264.155 12.232 264.331 12.0199C264.51 11.8045 264.742 11.6255 265.027 11.483C265.315 11.3371 265.673 11.2642 266.101 11.2642C266.657 11.2642 267.171 11.41 267.642 11.7017C268.113 11.9901 268.489 12.4259 268.77 13.0092C269.052 13.5893 269.193 14.3168 269.193 15.1918C269.193 16.0436 269.055 16.7628 268.78 17.3494C268.509 17.9328 268.137 18.3752 267.667 18.6768C267.199 18.9751 266.676 19.1243 266.096 19.1243C265.685 19.1243 265.335 19.0563 265.047 18.9205C264.762 18.7846 264.528 18.6139 264.346 18.4084C264.163 18.1996 264.024 17.9891 263.928 17.777H263.863V21.8636H261.746ZM263.819 15.1818C263.819 15.6359 263.882 16.032 264.008 16.37C264.134 16.7081 264.316 16.9716 264.555 17.1605C264.793 17.3461 265.083 17.4389 265.425 17.4389C265.769 17.4389 266.061 17.3445 266.3 17.1555C266.538 16.9633 266.719 16.6982 266.841 16.3601C266.967 16.0187 267.03 15.6259 267.03 15.1818C267.03 14.741 266.969 14.3532 266.846 14.0185C266.724 13.6837 266.543 13.4219 266.305 13.233C266.066 13.044 265.773 12.9496 265.425 12.9496C265.08 12.9496 264.788 13.0407 264.55 13.223C264.314 13.4053 264.134 13.6638 264.008 13.9986C263.882 14.3333 263.819 14.7277 263.819 15.1818ZM278.255 8.81818V19H276.102V10.8615H276.043L273.711 12.3232V10.4141L276.232 8.81818H278.255ZM287.385 19.1491C286.613 19.1491 285.945 18.9851 285.382 18.657C284.822 18.3255 284.389 17.8648 284.084 17.2749C283.779 16.6816 283.627 15.9938 283.627 15.2116C283.627 14.4228 283.779 13.7334 284.084 13.1435C284.389 12.5502 284.822 12.0895 285.382 11.7614C285.945 11.4299 286.613 11.2642 287.385 11.2642C288.158 11.2642 288.824 11.4299 289.384 11.7614C289.947 12.0895 290.382 12.5502 290.686 13.1435C290.991 13.7334 291.144 14.4228 291.144 15.2116C291.144 15.9938 290.991 16.6816 290.686 17.2749C290.382 17.8648 289.947 18.3255 289.384 18.657C288.824 18.9851 288.158 19.1491 287.385 19.1491ZM287.395 17.5085C287.747 17.5085 288.04 17.4091 288.275 17.2102C288.511 17.008 288.688 16.733 288.807 16.3849C288.93 16.0369 288.991 15.6409 288.991 15.1967C288.991 14.7526 288.93 14.3565 288.807 14.0085C288.688 13.6605 288.511 13.3854 288.275 13.1832C288.04 12.9811 287.747 12.88 287.395 12.88C287.041 12.88 286.742 12.9811 286.5 13.1832C286.262 13.3854 286.081 13.6605 285.958 14.0085C285.839 14.3565 285.779 14.7526 285.779 15.1967C285.779 15.6409 285.839 16.0369 285.958 16.3849C286.081 16.733 286.262 17.008 286.5 17.2102C286.742 17.4091 287.041 17.5085 287.395 17.5085ZM296.627 11.3636V12.9545H291.914V11.3636H296.627ZM292.993 19V10.8118C292.993 10.2583 293.101 9.79924 293.316 9.43466C293.535 9.07008 293.833 8.79664 294.211 8.61435C294.589 8.43205 295.018 8.34091 295.499 8.34091C295.824 8.34091 296.12 8.36577 296.389 8.41548C296.661 8.4652 296.863 8.50994 296.995 8.54972L296.618 10.1406C296.535 10.1141 296.432 10.0893 296.309 10.0661C296.19 10.0429 296.067 10.0312 295.941 10.0312C295.63 10.0312 295.413 10.1042 295.29 10.25C295.167 10.3925 295.106 10.593 295.106 10.8516V19H292.993ZM304.86 19.1392C304.158 19.1392 303.531 19.0099 302.981 18.7514C302.434 18.4929 302 18.1366 301.679 17.6825C301.357 17.2285 301.19 16.7081 301.176 16.1214H303.265C303.288 16.5159 303.453 16.8357 303.762 17.081C304.07 17.3262 304.436 17.4489 304.86 17.4489C305.199 17.4489 305.497 17.3743 305.755 17.2251C306.017 17.0727 306.221 16.8622 306.367 16.5938C306.516 16.322 306.591 16.0104 306.591 15.6591C306.591 15.3011 306.514 14.9863 306.362 14.7145C306.213 14.4427 306.006 14.2306 305.74 14.0781C305.475 13.9257 305.172 13.8478 304.831 13.8445C304.532 13.8445 304.242 13.9058 303.961 14.0284C303.682 14.151 303.465 14.3184 303.309 14.5305L301.395 14.1875L301.877 8.81818H308.102V10.5781H303.652L303.389 13.1286H303.449C303.627 12.8767 303.898 12.6679 304.259 12.5021C304.62 12.3364 305.025 12.2536 305.472 12.2536C306.085 12.2536 306.632 12.3977 307.113 12.6861C307.593 12.9744 307.973 13.3705 308.251 13.8743C308.529 14.3748 308.667 14.9515 308.664 15.6044C308.667 16.2905 308.508 16.9003 308.186 17.4339C307.868 17.9643 307.422 18.3819 306.849 18.6868C306.279 18.9884 305.616 19.1392 304.86 19.1392Z" fill="#111116"></path><defs><clipPath id="clip0_2112_19074"><rect width="116" height="107" fill="white"></rect></clipPath></defs></svg> 