<?xml version="1.0" encoding="UTF-8"?> <svg xmlns="http://www.w3.org/2000/svg" width="321" height="105" viewBox="0 0 321 105" fill="none"><path d="M71.3244 0.965831C49.3392 -1.106 35.0214 3.94432 26.2293 19.4003C17.4372 34.8576 -3.69281 44.0761 4.81628 73.2887C13.3254 102.501 76.545 104.788 94.1549 89.7384C109.754 76.4081 109.47 66.9079 105.783 45.3527C102.984 28.9839 98.4088 3.51917 71.3244 0.967056V0.965831Z" fill="#FFF0E1"></path><path d="M76.0048 13.4445C76.0048 13.4445 77.7066 13.3024 77.2815 16.9903C76.8563 20.677 76.2891 30.8879 75.8639 33.8651C75.4853 36.5116 74.9952 45.8771 74.8911 47.9305C74.8825 48.1106 75.0749 48.2307 75.2317 48.1413C76.0281 47.6879 77.9247 46.4002 78.7003 44.076C79.6927 41.0975 81.1115 37.9782 82.1039 37.4109C82.3857 37.2504 82.6675 37.134 82.9273 37.0519C83.4909 36.8718 84.0569 37.3178 84.0067 37.9083C83.7996 40.3502 83.187 46.4517 81.963 50.4581C80.4033 55.5636 77.1418 58.683 77.1418 64.2136C77.1418 68.9319 78.9992 72.5144 79.5457 73.4651C79.6192 73.5938 79.553 73.7555 79.4109 73.7972L63.4084 78.4873C63.3116 78.5154 63.2075 78.4775 63.1524 78.3929C62.5581 77.4752 59.2599 72.3036 57.7149 68.1833C56.0131 63.6451 53.8861 57.2642 53.461 50.7412C53.0358 44.2181 54.3113 23.6554 54.5955 23.2303C54.8797 22.8052 56.4394 21.9536 56.8646 22.8052C57.2897 23.6554 57.9991 29.6124 58.1413 31.7394C58.2675 33.625 58.9499 37.2945 59.103 38.1031C59.1214 38.1987 59.1986 38.2722 59.2954 38.2857L59.8651 38.3665C60.0024 38.3861 60.1261 38.2796 60.1261 38.1399V25.7824C60.1261 22.8039 60.2682 15.5727 61.1185 14.4382C61.9688 13.3037 63.2455 13.0206 63.6706 15.1476C64.0958 17.2746 63.9537 21.5285 64.0958 25.9245C64.2232 29.8685 64.6925 35.8683 64.788 37.0592C64.7978 37.1781 64.8971 37.2688 65.0159 37.2688C65.1348 37.2688 65.2365 37.1756 65.2438 37.0556C65.3332 35.6858 65.8368 28.0466 66.2227 23.7963C66.6479 19.1173 67.3818 15.3436 67.9246 13.4445C68.4918 11.4597 70.4767 11.6006 70.7609 13.7276C71.0452 15.8545 70.3358 22.0945 70.3358 25.2139C70.3358 28.0674 69.9805 35.7826 69.9192 37.0813C69.9143 37.1903 69.9866 37.2871 70.092 37.3129C70.2966 37.3643 70.5012 37.2259 70.5281 37.0164C70.7756 35.1271 71.8612 26.9439 72.4627 23.9372C73.1721 20.3915 73.8803 13.4433 76.0085 13.4433H76.0048V13.4445Z" fill="#FDCA9B"></path><path d="M61.8292 40.7753C61.7299 44.3456 61.4151 49.0908 60.5476 53.5763C58.8458 62.3684 55.017 66.6223 52.4649 71.5857C49.9128 76.549 48.7783 79.8105 48.7783 79.8105L30.3438 73.8548C30.3438 73.8548 34.8819 63.9281 36.1574 55.4202C37.4328 46.9124 37.9866 41.5313 37.8592 37.6939C37.82 36.5079 37.7244 35.3672 37.6154 34.3258C37.4426 32.6877 37.2331 31.2959 37.14 30.3623C37.08 29.7582 37.0689 29.3453 37.1498 29.1848C37.4328 28.6176 38.7095 28.1924 39.4189 29.1848C40.1283 30.1773 40.5534 31.0288 40.9786 32.7306C41.4037 34.4324 41.5458 35.9921 41.5458 35.9921C41.5458 35.9921 42.5383 30.4615 41.971 26.0654C41.8717 25.2972 41.7603 24.5548 41.6414 23.8527C41.3498 22.1068 41.0227 20.612 40.7801 19.5878C40.7053 19.2778 40.6392 19.0095 40.5841 18.7914C40.4689 18.3381 40.6649 17.8639 41.0668 17.6213C41.5654 17.3187 42.4023 17.3616 42.9622 17.8406C43.9546 18.6909 44.947 20.96 44.947 20.96C44.947 20.96 44.8723 20.1256 44.7583 19.1638C44.653 18.2645 44.517 17.2537 44.3798 16.7061C44.2879 16.3361 44.18 15.9048 44.0918 15.4784C43.9093 14.5975 43.81 13.7313 44.0955 13.4446C44.5207 13.0194 46.3646 12.7352 47.6413 14.5791C48.9179 16.423 50.0525 21.2442 50.0525 21.2442C50.0525 21.2442 50.0525 20.2861 49.9875 19.0854C49.9459 18.3282 49.8785 17.4743 49.7695 16.7061C49.6959 16.1927 49.6237 15.6989 49.555 15.2481C49.4889 14.818 49.4276 14.4272 49.3762 14.0976C49.2769 13.4691 49.7327 12.8871 50.3661 12.8393C51.2201 12.7756 52.5654 13.5659 52.8888 14.2949C53.4561 15.5715 54.1655 16.2797 55.0158 22.0945C55.8661 27.9082 56.0082 48.0457 56.0082 48.0457C56.0082 48.0457 57.4258 44.9263 58.1352 41.5227C58.8446 38.1191 58.1352 36.8436 59.4119 35.7091C60.0232 35.1663 60.6015 34.9801 61.0389 34.9347C61.4629 34.8906 61.8316 35.219 61.8427 35.6441C61.8476 35.8291 61.8525 36.0521 61.8561 36.3094C61.8745 37.33 61.8819 38.8885 61.828 40.7765H61.8292V40.7753Z" fill="#B35934"></path><path d="M40.3807 42.568L40.3991 42.4479C40.4162 42.3143 40.4518 42.1845 40.4861 42.0546C40.4934 42.0252 40.491 41.9946 40.4983 41.9664C40.5143 41.9088 40.5339 41.8524 40.551 41.7949C40.5547 41.7851 40.5633 41.7753 40.5547 41.763C40.5106 41.7017 40.5375 41.6564 40.5473 41.6062C40.5584 41.5535 40.551 41.4984 40.5535 41.4444C40.5559 41.393 40.5302 41.3366 40.6037 41.3011C40.627 41.2901 40.6184 41.2643 40.6049 41.2435C40.5841 41.208 40.5951 41.181 40.6147 41.1553C40.6601 41.0953 40.6331 41.0193 40.6564 40.9556L40.6833 40.8894C40.687 40.8808 40.6968 40.8747 40.6931 40.8649C40.6601 40.8012 40.7127 40.7559 40.7115 40.6995C40.7091 40.6113 40.7667 40.5378 40.7924 40.4557C40.8316 40.3307 40.8561 40.2033 40.8867 40.0771L40.937 39.8725C40.9615 39.7806 40.9884 39.6887 41.0092 39.5956C41.0166 39.565 41.0092 39.5307 41.0092 39.4988C41.0117 39.413 41.0766 39.3408 41.073 39.2538C41.0693 39.1888 41.0926 39.1288 41.1109 39.0675C41.1171 39.0467 41.1305 39.0283 41.1354 39.0075C41.1501 38.9413 41.1649 38.8752 41.1759 38.809C41.1881 38.7318 41.1943 38.6534 41.2041 38.5762C41.2151 38.488 41.2286 38.3998 41.2347 38.3116C41.242 38.2099 41.2543 38.1094 41.2494 38.0065C41.2408 37.8374 41.28 37.6733 41.2947 37.5054C41.2996 37.4503 41.3131 37.3976 41.3474 37.3461C41.3842 37.291 41.3731 37.2297 41.3633 37.1697C41.3486 37.079 41.3584 36.9908 41.3866 36.9038C41.4062 36.8426 41.4258 36.7801 41.4332 36.7176C41.4393 36.6674 41.4234 36.6147 41.4209 36.5644C41.4209 36.5448 41.427 36.5265 41.4344 36.5081C41.465 36.4346 41.5226 36.3623 41.5189 36.2851C41.5189 36.2765 41.5287 36.2692 41.5324 36.2606C41.5679 36.1785 41.6047 36.0952 41.6378 36.0131C41.6464 35.9923 41.6353 35.9702 41.6378 35.9494C41.6378 35.9445 41.6598 35.9359 41.666 35.9371C41.6929 35.9408 41.7272 35.9457 41.7382 35.9518C41.7554 35.9616 41.7603 35.9739 41.7603 35.9837C41.7579 36.0351 41.7517 36.0866 41.748 36.1368L41.7456 36.2005L41.7309 36.3721C41.7235 36.4811 41.7137 36.5889 41.7101 36.698C41.7052 36.8756 41.6794 37.0521 41.6586 37.2285C41.6537 37.264 41.666 37.302 41.6611 37.3388C41.6182 37.6598 41.617 37.9857 41.5679 38.3079C41.5532 38.4121 41.5263 38.515 41.5091 38.6203C41.4859 38.771 41.4663 38.9242 41.4381 39.0749C41.4111 39.2256 41.3731 39.3738 41.3401 39.5233L41.2298 39.9815C41.1943 40.1322 41.1624 40.2829 41.1256 40.4324C41.0717 40.6481 41.0117 40.8612 40.9602 41.0769C40.9419 41.1528 40.9419 41.2337 40.9272 41.3109C40.9137 41.3844 40.8929 41.4555 40.8757 41.5278C40.872 41.5425 40.8659 41.5559 40.8634 41.5706C40.8475 41.6711 40.8353 41.7728 40.8169 41.872C40.7863 42.0338 40.7593 42.1943 40.714 42.3523C40.6784 42.4797 40.6613 42.6108 40.6356 42.7395C40.6221 42.8069 40.6098 42.873 40.5927 42.9392C40.5878 42.9576 40.5694 42.9735 40.5461 42.987C40.5314 42.9956 40.4983 43.0017 40.4457 42.9882C40.3966 42.976 40.3746 42.9613 40.3721 42.9466C40.3611 42.8926 40.3415 42.8375 40.344 42.7861C40.3476 42.7125 40.3685 42.6427 40.3819 42.5716H40.3807V42.568Z" fill="#621400"></path><path d="M44.0622 39.8296L44.1124 39.4914C44.1651 39.1177 44.2312 38.7453 44.2962 38.3728C44.3109 38.2907 44.3146 38.2062 44.328 38.1241L44.4187 37.6303C44.4236 37.6009 44.4359 37.5703 44.4285 37.5409C44.393 37.3939 44.431 37.2542 44.4506 37.1108C44.4714 36.9626 44.4726 36.8119 44.4849 36.6624C44.4959 36.5215 44.48 36.3769 44.5608 36.2446C44.5878 36.2017 44.5817 36.138 44.5706 36.0866C44.5535 35.9996 44.5706 35.9187 44.5939 35.8379C44.649 35.6516 44.6307 35.4568 44.6637 35.2681L44.7005 35.0745C44.7054 35.0513 44.7164 35.0268 44.7128 35.0035C44.6858 34.8442 44.7446 34.6935 44.7483 34.5391C44.7544 34.2978 44.8181 34.065 44.8512 33.8273C44.899 33.4646 44.9321 33.0995 44.9664 32.7344L45.0227 32.1426C45.0497 31.8743 45.0766 31.606 45.0975 31.3377C45.1048 31.2482 45.0975 31.1575 45.0975 31.0669C45.0962 30.8267 45.1649 30.5915 45.1575 30.3526C45.1526 30.1713 45.1722 29.9924 45.1906 29.8135C45.1967 29.7535 45.209 29.6946 45.2139 29.6358C45.2261 29.4447 45.2384 29.2523 45.2469 29.0612L45.2641 28.3959C45.2665 28.1448 45.2764 27.8924 45.2739 27.6412C45.2739 27.3533 45.2715 27.0666 45.2543 26.7799C45.2224 26.3069 45.231 25.834 45.2065 25.3611C45.2004 25.2055 45.2004 25.0536 45.22 24.898C45.242 24.7313 45.2163 24.5647 45.1881 24.3993C45.1477 24.1506 45.133 23.8994 45.1342 23.647C45.1355 23.4681 45.1342 23.2893 45.122 23.1104C45.1122 22.967 45.0803 22.8261 45.0607 22.684C45.0534 22.6301 45.0546 22.5762 45.0558 22.5223C45.0632 22.3066 45.0962 22.0898 45.0681 21.8741C45.0656 21.8509 45.073 21.8264 45.073 21.8018L45.0962 21.0802C45.0975 21.0202 45.0803 20.9614 45.0766 20.9013C45.0766 20.8866 45.095 20.8572 45.0999 20.8584C45.1269 20.8609 45.1624 20.8646 45.1759 20.8805C45.1955 20.9025 45.2041 20.9344 45.2077 20.9626L45.2445 21.3951L45.2616 21.574L45.3021 22.0567C45.329 22.3618 45.3523 22.6681 45.3854 22.9731C45.4369 23.4706 45.465 23.9692 45.4932 24.4691C45.4993 24.5708 45.5202 24.6725 45.5251 24.7754C45.568 25.6858 45.6243 26.5998 45.6072 27.5125C45.6035 27.8091 45.5814 28.1043 45.5741 28.4008C45.5582 28.8297 45.5471 29.2572 45.5238 29.6848C45.4993 30.1124 45.4687 30.5388 45.4356 30.9652C45.4025 31.405 45.3646 31.8437 45.3241 32.2823C45.2849 32.7148 45.2482 33.1473 45.2004 33.5798C45.1318 34.2034 45.0509 34.8246 44.9688 35.447C44.9406 35.6675 44.9296 35.8905 44.9014 36.1111C44.8769 36.3206 44.8439 36.5276 44.812 36.7359C44.8059 36.7776 44.7973 36.8192 44.7924 36.8609C44.7593 37.1464 44.7262 37.4319 44.687 37.7173C44.6221 38.1768 44.5559 38.6362 44.4714 39.092C44.4028 39.4583 44.3501 39.8284 44.2888 40.1959C44.257 40.3858 44.2263 40.577 44.1896 40.7656C44.1798 40.8171 44.1553 40.8686 44.1271 40.9151C44.1087 40.9458 44.0732 40.9727 44.0205 40.9568C43.9727 40.9421 43.9531 40.909 43.9531 40.8698C43.9568 40.7252 43.9507 40.5794 43.9666 40.4361C43.9911 40.2339 44.0303 40.033 44.0634 39.832H44.0622V39.8296Z" fill="#621400"></path><path d="M48.6898 39.9851L48.7351 39.6494C48.7817 39.2769 48.8429 38.9081 48.9042 38.5381C48.9177 38.456 48.9214 38.3727 48.9348 38.2906L49.0206 37.7993C49.0255 37.7699 49.0365 37.7393 49.0304 37.7111C48.9936 37.5653 49.0304 37.4268 49.05 37.2847C49.0696 37.1377 49.0721 36.9882 49.0819 36.84C49.0917 36.6991 49.0745 36.5557 49.1554 36.4246C49.1823 36.3817 49.1762 36.3192 49.1652 36.2678C49.148 36.182 49.1652 36.1024 49.1884 36.0215C49.2448 35.8377 49.2264 35.6429 49.2583 35.4555L49.2938 35.2631C49.2987 35.2398 49.3097 35.2153 49.3061 35.1933C49.2791 35.0352 49.3391 34.8857 49.344 34.7326C49.3526 34.4924 49.4151 34.2621 49.4494 34.0269C49.5009 33.6667 49.5364 33.3052 49.5707 32.9438L49.632 32.3569C49.6602 32.091 49.6883 31.8252 49.7116 31.5593C49.719 31.4711 49.7116 31.3804 49.7141 31.291C49.719 31.0533 49.7827 30.8205 49.779 30.5828C49.7753 30.4027 49.7974 30.2263 49.8182 30.0486C49.8256 29.9898 49.8378 29.931 49.8415 29.8722C49.855 29.6823 49.8672 29.4924 49.877 29.3025C49.888 29.0819 49.8966 28.8626 49.9003 28.6421L49.9199 27.8935C49.926 27.608 49.926 27.3225 49.9162 27.037C49.9015 26.5666 49.9211 26.0961 49.9236 25.6256C49.9236 25.4712 49.9346 25.3193 49.9628 25.1674C49.9922 25.0032 49.975 24.8366 49.9579 24.6712C49.9322 24.4224 49.9346 24.1725 49.953 23.9226C49.964 23.7461 49.975 23.5685 49.9738 23.3908C49.9738 23.2487 49.9493 23.1066 49.9407 22.9645C49.937 22.9118 49.9407 22.8579 49.9469 22.8039C49.9689 22.5908 50.013 22.3776 49.9983 22.1632C49.9971 22.1399 50.0057 22.1154 50.0081 22.0921L50.073 21.3778C50.078 21.319 50.0645 21.259 50.0632 21.1989C50.0632 21.1842 50.0841 21.156 50.089 21.1573C50.1159 21.1609 50.1515 21.1671 50.1637 21.183C50.1821 21.2063 50.1894 21.2381 50.1907 21.2663L50.2029 21.6964L50.2103 21.8752L50.2225 22.3567C50.2336 22.6606 50.2336 22.9657 50.2483 23.2695C50.2715 23.7645 50.2642 24.2607 50.2617 24.7569C50.2617 24.8586 50.2777 24.9591 50.2764 25.0608C50.2728 25.5117 50.2715 25.9638 50.2764 26.4146C50.2752 26.8667 50.2715 27.3176 50.2593 27.7697L50.2127 28.6482C50.1956 29.0721 50.1747 29.4973 50.1539 29.9212C50.127 30.3451 50.089 30.7678 50.0559 31.1905L49.9322 32.4954C49.8868 32.9242 49.8525 33.353 49.7998 33.7806C49.7288 34.3981 49.643 35.0144 49.5634 35.6307C49.5364 35.85 49.5217 36.0693 49.496 36.2886C49.4715 36.4957 49.4384 36.7015 49.4102 36.9086C49.4041 36.9502 49.3967 36.9907 49.3918 37.0323C49.3575 37.3153 49.3281 37.5984 49.2901 37.8814C49.2313 38.3372 49.1676 38.7929 49.0892 39.2463C49.0267 39.6102 48.9789 39.9777 48.9226 40.3428C48.8944 40.5315 48.8662 40.7214 48.8331 40.9089C48.8246 40.9603 48.8001 41.0106 48.7743 41.0584C48.7572 41.089 48.7216 41.1159 48.669 41.1012C48.62 41.0878 48.6003 41.0559 48.6003 41.0155C48.6003 40.8721 48.5918 40.7275 48.6052 40.5854C48.6249 40.3845 48.6616 40.1848 48.691 39.9838H48.6898V39.9851Z" fill="#621400"></path><path d="M53.9164 51.436L53.9618 51.3551C54.0096 51.2645 54.0684 51.1799 54.126 51.0929C54.1382 51.0733 54.1419 51.0501 54.1554 51.0305C54.1811 50.9925 54.2105 50.9557 54.2362 50.9177C54.2411 50.9104 54.2509 50.9067 54.246 50.8945C54.2154 50.8332 54.2497 50.8075 54.2669 50.7719C54.2852 50.7352 54.2877 50.6898 54.2999 50.6494C54.311 50.6114 54.2963 50.56 54.371 50.5538C54.3955 50.5526 54.3906 50.5306 54.382 50.5097C54.3685 50.4767 54.3832 50.4583 54.4065 50.4436C54.4592 50.4105 54.4457 50.3431 54.48 50.3002C54.4911 50.2855 54.5045 50.2721 54.5168 50.2573C54.5217 50.2524 54.5327 50.25 54.529 50.2414C54.5094 50.1814 54.5658 50.163 54.5744 50.1177C54.5879 50.0478 54.654 50.0086 54.6932 49.9535C54.752 49.869 54.7974 49.7783 54.8501 49.6901L54.9346 49.5492C54.9738 49.4855 55.0167 49.4242 55.0534 49.3605C55.0657 49.3397 55.0645 49.3103 55.0706 49.2858C55.0877 49.2208 55.1625 49.1865 55.1747 49.1191C55.1833 49.0677 55.2139 49.0285 55.2446 48.988C55.2544 48.9746 55.2703 48.9635 55.2789 48.95C55.3058 48.9047 55.3316 48.8582 55.3536 48.8104C55.3793 48.7552 55.4014 48.6977 55.4247 48.6413C55.4516 48.5776 55.481 48.5139 55.5055 48.4489C55.5337 48.3742 55.5631 48.3031 55.5766 48.2247C55.5999 48.0973 55.6587 47.9846 55.6967 47.8608C55.7089 47.8204 55.7298 47.7824 55.769 47.7506C55.8118 47.715 55.8094 47.6673 55.8069 47.6182C55.8033 47.5447 55.8278 47.4786 55.867 47.4173C55.8952 47.3732 55.9246 47.3303 55.9417 47.2825C55.9552 47.2446 55.9503 47.2004 55.9564 47.16C55.9589 47.1453 55.9687 47.1318 55.9809 47.1196C56.0263 47.0706 56.0949 47.0338 56.1096 46.9738C56.1108 46.9677 56.123 46.9652 56.1279 46.9591C56.1819 46.9101 56.2358 46.8611 56.2872 46.8133C56.2995 46.801 56.297 46.7814 56.3044 46.7679C56.3068 46.7643 56.3289 46.7679 56.3338 46.7692C56.3571 46.7814 56.3877 46.7986 56.3975 46.8084C56.411 46.8219 56.4122 46.8317 56.4097 46.839C56.395 46.8745 56.3754 46.9076 56.3607 46.9419L56.3436 46.986C56.3252 47.024 56.3081 47.0632 56.2921 47.1037C56.2627 47.1796 56.2333 47.2556 56.2137 47.3352C56.1819 47.4651 56.1328 47.5925 56.0887 47.7248C56.0802 47.7518 56.0863 47.7836 56.0765 47.8106C55.9932 48.0507 55.9368 48.3142 55.8229 48.5494C55.7873 48.6241 55.742 48.694 55.7065 48.7675C55.655 48.8753 55.6085 48.9868 55.5545 49.0934C55.5006 49.2 55.4394 49.3041 55.3781 49.4083L55.1894 49.7268L55.0106 50.0393C54.9223 50.1875 54.8305 50.3333 54.7459 50.484C54.7165 50.5379 54.703 50.5992 54.6761 50.6555C54.6516 50.7082 54.6197 50.7585 54.5903 50.8087C54.5842 50.8185 54.5768 50.8283 54.5719 50.8393C54.5401 50.9128 54.5107 50.9888 54.4727 51.0599C54.4127 51.175 54.3526 51.2914 54.2742 51.398C54.2105 51.4826 54.1615 51.5769 54.1002 51.6651C54.0684 51.7104 54.0365 51.757 53.9985 51.7987C53.9875 51.8097 53.9655 51.8134 53.9422 51.8121C53.9262 51.8121 53.8968 51.7999 53.8552 51.7644C53.8172 51.7313 53.8025 51.7104 53.8049 51.6982C53.8123 51.6553 53.8111 51.6063 53.827 51.5708C53.8503 51.5205 53.887 51.4789 53.9164 51.4323H53.9152V51.436H53.9164Z" fill="#621400"></path><path d="M17.2969 96.1192L29.2084 72.1541L51.1886 78.5349L43.1059 104.911L17.2969 96.1192Z" fill="#D03C0B"></path><mask id="mask0_2112_19078" style="mask-type:alpha" maskUnits="userSpaceOnUse" x="17" y="72" width="35" height="33"><path d="M17.2969 96.1189L29.2084 72.1538L51.1886 78.5347L43.1059 104.911L17.2969 96.1189Z" fill="#D03C0B"></path></mask><g mask="url(#mask0_2112_19078)"><path d="M34.4045 76.6993C33.7919 77.1612 33.3728 77.7762 33.0371 78.3851C32.514 79.3567 32.117 80.3822 31.8695 81.4641C31.7519 82.0056 31.6747 82.5594 31.6576 83.123C31.6392 83.6866 31.6968 84.2612 31.8389 84.8224C31.9847 85.3811 32.2162 85.9349 32.5716 86.409C32.6095 86.4728 32.661 86.5254 32.7076 86.583L32.8509 86.7521C32.9416 86.8685 33.0531 86.9665 33.1621 87.0682C33.2663 87.1736 33.3863 87.2606 33.5052 87.3488C33.6203 87.4431 33.7478 87.5154 33.874 87.5926C34.3812 87.8928 34.9387 88.0851 35.5035 88.1856C36.0683 88.2861 36.6417 88.2971 37.2029 88.2383C37.7432 88.1807 38.2774 88.057 38.7858 87.8744C39.2967 87.6906 39.7721 87.4431 40.2058 87.1674C41.1395 86.572 41.9885 85.8516 42.731 85.065C42.878 84.9094 43.0214 84.7526 43.1635 84.5933L43.3742 84.3556L43.4686 84.2478L43.5041 84.2024L43.6646 84.0003L43.754 83.8863C43.7688 83.868 43.7871 83.8435 43.7994 83.83L43.7945 83.8851C43.7859 83.9648 43.7884 84.053 43.7982 84.1498C43.8055 84.1975 43.808 84.249 43.8202 84.3005L43.8288 84.3421L43.8435 84.4267C43.8545 84.4818 43.8606 84.5394 43.8766 84.5933C43.977 85.0344 44.1547 85.4485 44.3777 85.8234C44.5492 86.115 44.8371 86.4924 45.0025 86.6835C45.3113 87.078 45.6789 87.3696 46.0685 87.5779C46.4593 87.785 46.8722 87.9136 47.2998 87.9675C47.6441 88.0067 47.9724 88.0128 48.3216 87.9736C49.2185 87.8891 50.0933 87.5301 50.777 86.9494C50.9852 86.7717 51.131 86.6063 51.245 86.4715C51.2977 86.4005 51.343 86.3368 51.381 86.2804C51.3994 86.2522 51.4177 86.2253 51.4337 86.2008C51.4471 86.1738 51.4594 86.1505 51.4704 86.1272C51.5574 85.9447 51.5586 85.87 51.506 85.8307C51.4655 85.8013 51.3724 85.8467 51.2732 85.9092C51.1506 85.9925 51.0404 86.0574 50.9056 86.1995C50.7524 86.3257 50.5748 86.5365 50.2023 86.7962C49.9463 86.9665 49.6755 87.1209 49.3839 87.2312C49.3128 87.2642 49.2369 87.2814 49.1634 87.3083C49.0898 87.3329 49.0163 87.3586 48.9391 87.3745L48.7125 87.4284L48.4821 87.4639C48.1746 87.5019 47.861 87.5142 47.5546 87.4701L47.4395 87.4578L47.3268 87.4345C47.252 87.4174 47.1748 87.4064 47.1013 87.3855C46.9543 87.3402 46.806 87.2998 46.6664 87.2336C45.5269 86.7533 44.6693 85.6078 44.461 84.3666C44.4561 84.3335 44.4512 84.3005 44.4463 84.2662L44.4328 84.1792C44.4267 84.1449 44.4242 84.1093 44.4218 84.075C44.4206 84.0395 44.4144 84.0076 44.4169 83.9684L44.4218 83.8496C44.4255 83.7712 44.4279 83.6928 44.4316 83.6156C44.434 83.5384 44.4377 83.4624 44.4402 83.3865L44.4438 83.2737C44.4438 83.237 44.4524 83.188 44.4561 83.1463C44.4732 82.9772 44.4904 82.813 44.5063 82.6562C44.5284 82.4528 44.5492 82.2495 44.5713 82.0448L44.4965 82.1147L44.4598 82.1478L44.4414 82.1637C44.4353 82.1698 44.4242 82.1833 44.4169 82.1919L44.2074 82.4357C44.0702 82.5937 43.9317 82.753 43.792 82.9135C43.6536 83.0691 43.5139 83.2272 43.373 83.3865C43.3019 83.4649 43.2309 83.5445 43.1586 83.6241L43.0496 83.7442L42.9564 83.8447C42.3892 84.4475 41.8109 85.0405 41.2938 85.5551C41.0206 85.8271 41.0096 85.7903 40.9777 85.7768C40.9348 85.7572 40.7572 85.892 40.5734 86.0329C40.0368 86.4617 39.4376 86.8158 38.8067 87.0535C38.3656 87.2079 38.2737 87.2606 38.1585 87.3414C38.1291 87.361 38.085 87.3843 38.0323 87.4039C37.9784 87.4211 37.9171 87.4382 37.8522 87.4529C37.7873 87.4676 37.7211 87.4811 37.6599 87.4897C37.5974 87.4958 37.5398 87.4983 37.492 87.497C37.1453 87.4946 36.7397 87.5313 36.2717 87.5105C36.1161 87.5105 35.9642 87.486 35.811 87.4713C35.6591 87.4505 35.5084 87.4198 35.3577 87.3892L35.1359 87.3292C35.0992 87.3194 35.0612 87.3096 35.0244 87.2985L34.9166 87.2593L34.701 87.1809C34.6311 87.1503 34.5638 87.116 34.4939 87.0841C34.3518 87.0253 34.2268 86.9383 34.0957 86.8624C34.0283 86.8256 33.972 86.7742 33.9107 86.73C33.8507 86.6835 33.7857 86.6431 33.7306 86.5904L33.564 86.436C33.537 86.409 33.5064 86.3858 33.4819 86.3576L33.4072 86.2706C33.3116 86.153 33.2001 86.0452 33.1241 85.9116C33.0727 85.8332 33.0249 85.7609 32.9796 85.6911C32.9354 85.6212 32.906 85.5465 32.8681 85.4767C32.8325 85.4056 32.7921 85.337 32.7553 85.2622C32.7235 85.1851 32.688 85.1042 32.6475 85.0172C32.4245 84.5173 32.2996 83.9329 32.28 83.3142C32.2604 82.6942 32.3449 82.0412 32.525 81.3881C32.5826 81.159 32.6622 80.9348 32.7345 80.7106C32.7737 80.5991 32.8178 80.4888 32.8583 80.3786L32.9207 80.2132L32.9906 80.0502C33.0371 79.9424 33.0812 79.8321 33.1315 79.7255L33.2834 79.4057C33.3851 79.1926 33.4966 78.983 33.6118 78.7784C33.8446 78.3717 34.1067 77.9845 34.4228 77.6574C34.5809 77.4944 34.7537 77.3498 34.9387 77.2285C35.1249 77.1072 35.3258 77.0068 35.5231 76.9529C35.9789 76.8279 36.469 76.8904 36.8463 77.0595C37.2274 77.2334 37.4859 77.5042 37.6157 77.8264C37.6488 77.9024 37.6648 78.0164 37.6599 78.1107C37.6537 78.2063 37.6317 78.2798 37.6145 78.2859C37.5398 78.3092 37.4981 78.575 37.3045 78.9561C37.2335 79.0982 37.1526 79.2379 37.0583 79.3751L36.9223 79.5809C36.899 79.6153 36.8782 79.6496 36.8537 79.6839L36.7777 79.7807L36.6258 79.9755C36.5755 80.0404 36.5253 80.1053 36.4677 80.1642C36.355 80.2842 36.2509 80.4116 36.1308 80.5244C35.664 80.9887 35.1335 81.3906 34.5589 81.7238C34.0332 82.0289 33.4929 82.2776 32.9759 82.4847C32.4601 82.6979 31.9602 82.8425 31.524 82.987C31.3819 83.0275 31.2349 83.0593 31.0805 83.0887C30.9249 83.1145 30.7595 83.1267 30.5794 83.1439C30.2094 83.1671 30.0292 83.1439 30.066 83.0997C30.0942 83.0642 30.3784 83.0128 30.0734 82.9981C29.9398 82.9956 29.7805 82.9785 29.6164 82.9699C29.4522 82.9638 29.2819 82.949 29.1263 82.9392C28.2674 82.8951 27.4048 82.7714 26.5987 82.5068C25.5866 82.274 24.7535 81.877 23.8811 81.458C23.1142 81.0806 23.0786 81.0389 22.7613 80.9716C21.9429 80.7731 21.7762 80.9311 21.4552 81.0108C21.3597 81.0316 21.5802 81.2117 22.1266 81.5278C22.6192 81.8121 23.1252 82.0816 23.6471 82.3266C24.1678 82.5741 24.702 82.8032 25.2522 82.9993C25.496 83.0924 25.7471 83.1671 25.9971 83.2505C26.2507 83.3215 26.5031 83.4024 26.7616 83.46C27.275 83.5923 27.8006 83.6817 28.3262 83.7479C30.806 84.0554 33.4464 83.5286 35.5243 82.0632C36.0977 81.6626 36.627 81.1884 37.0791 80.6469C37.1796 80.5378 37.2617 80.4129 37.3536 80.2965L37.4883 80.1188L37.6096 79.9314C37.6893 79.8052 37.7726 79.6839 37.8473 79.5515C37.9221 79.4192 37.9919 79.282 38.0556 79.1374C38.1806 78.8495 38.281 78.5285 38.2957 78.1744C38.3129 77.824 38.2222 77.4417 38.0237 77.1305C37.8265 76.8169 37.5422 76.5841 37.2384 76.4273C36.9333 76.2704 36.6062 76.1834 36.2766 76.1553C35.9458 76.1271 35.6101 76.1577 35.2842 76.257C34.9497 76.3623 34.6752 76.5216 34.4155 76.7115L34.4081 76.7017L34.4045 76.6993ZM36.045 76.7617C36.1161 76.7679 36.1528 76.7826 36.2031 76.7997C36.0855 76.7985 35.9531 76.8144 35.8563 76.8218C35.7816 76.8218 35.7093 76.8389 35.6358 76.8451C35.5647 76.8585 35.4937 76.8745 35.4238 76.8916C35.2891 76.9345 35.1482 76.9884 35.0171 77.0607C34.9338 77.1023 34.8627 77.144 34.7867 77.1893C34.8541 77.1367 34.9178 77.0827 34.9926 77.0362C35.0342 77.0092 35.0857 76.9737 35.2915 76.883C35.4263 76.8218 35.7387 76.7434 36.045 76.7617Z" fill="#FFA385"></path><path d="M29.4453 93.0879C29.5506 93.5534 29.5947 94.0472 29.5972 94.541C29.5972 94.9624 29.5702 95.3876 29.5273 95.8164L29.4734 96.3077L29.3938 96.9485L29.2247 98.2485L30.6202 97.1127C30.7378 97.0171 30.8542 96.9265 30.9719 96.8358L31.1667 96.6875L31.5244 96.4229C32.0047 96.0737 32.496 95.7441 32.9996 95.4366C34.0067 94.8228 35.0653 94.302 36.1741 93.9296C36.9019 93.687 37.6603 93.5118 38.4003 93.4138C39.1955 93.3072 40.0139 93.3329 40.8066 93.4346C42.0955 93.5902 43.344 94.035 44.3769 94.7333C44.4835 94.797 44.5974 94.8938 44.7114 94.9796C44.8253 95.0641 44.9209 95.1597 44.9821 95.2308C45.4612 95.7882 45.8655 96.2342 46.2159 96.7757C46.2907 96.8823 46.3519 96.9914 46.4156 97.1017C46.4793 97.2119 46.5455 97.3222 46.5945 97.4459C46.8763 98.0696 47.0564 98.7508 47.1067 99.4443C47.1201 99.5496 47.1177 99.6452 47.1189 99.7322C47.1214 99.8192 47.1226 99.8964 47.125 99.9662C47.1287 100.105 47.1189 100.21 47.1263 100.291C47.1361 100.451 47.1691 100.511 47.2341 100.527C47.2831 100.54 47.3431 100.473 47.4019 100.383C47.4754 100.266 47.5342 100.157 47.5588 99.9711C47.571 99.878 47.5784 99.7653 47.582 99.6231C47.5869 99.481 47.5661 99.3083 47.5502 99.0963C47.4791 98.5192 47.3296 97.9581 47.1165 97.4251C47.0589 97.294 47.0111 97.158 46.9449 97.0306L46.7513 96.6471L46.5333 96.2783C46.4597 96.1558 46.374 96.0419 46.2943 95.923C45.9635 95.4587 45.5813 95.031 45.1586 94.6488C44.7359 94.2665 44.2593 93.9394 43.7594 93.6649C43.5499 93.5436 43.3085 93.4469 43.1039 93.366C42.6579 93.2141 42.2205 93.0609 41.7366 92.9335C41.0835 92.7571 40.3962 92.6762 39.7971 92.7117C39.4809 92.7313 39.4944 92.7068 39.4809 92.6737C39.4638 92.637 39.2776 92.6137 39.084 92.6333C38.5094 92.6725 37.9409 92.7362 37.3724 92.8244C36.9778 92.8869 36.9007 92.9482 36.8026 93.0144C36.7046 93.0879 36.4093 93.1614 36.2537 93.1761C36.1092 93.1908 35.9523 93.2202 35.7882 93.2692C35.6252 93.3219 35.4488 93.3795 35.265 93.4554C34.7774 93.6453 34.3057 93.8708 33.8425 94.1109C33.3806 94.3523 32.9285 94.6108 32.4874 94.8852C32.3502 94.9673 32.2375 95.0408 32.1248 95.1144C32.0121 95.1879 31.9018 95.2663 31.7768 95.3692C31.4607 95.629 31.1324 95.8997 30.7905 96.1815C30.6582 96.2918 30.5234 96.4045 30.3862 96.5185C30.2637 96.6177 30.1387 96.7218 30.0211 96.8113C30.0297 96.7378 30.0468 96.6496 30.0603 96.5699L30.1265 96.1938L30.1571 96.0063L30.1939 95.7343C30.2404 95.3582 30.2747 94.9771 30.287 94.5912C30.3004 94.2053 30.287 93.8132 30.2416 93.4187C30.1939 93.0242 30.1118 92.6247 29.9782 92.2363C29.8287 91.8038 29.6401 91.4008 29.3999 91.0638C29.1622 90.7269 28.878 90.4524 28.579 90.2772C28.4406 90.1915 28.2249 90.031 28.2274 89.9954C28.2409 89.9219 28.0167 89.7492 27.654 89.5948C27.1137 89.3596 26.5391 89.2542 25.9767 89.2064C25.4119 89.1598 24.8556 89.177 24.3079 89.2113C23.3069 89.275 22.3574 89.4429 21.6554 89.6965C21.4287 89.7761 21.1947 89.8349 20.9092 89.8925C20.6201 89.9636 20.4743 89.9795 20.4926 89.9281C20.5061 89.8888 20.7242 89.7908 20.4743 89.8276C20.3652 89.8447 20.2341 89.8631 20.1018 89.8962C19.9695 89.9293 19.8335 89.966 19.7097 90.0052C19.031 90.2307 18.3743 90.5076 17.731 90.8004C16.9861 91.2329 16.3159 91.6078 15.6947 92.1494C15.1581 92.6358 15.1458 92.6909 15.0319 92.9372C14.9963 93.0193 14.9694 93.0928 14.9473 93.1602C14.9302 93.2312 14.9192 93.2949 14.9118 93.3525C14.8971 93.4689 14.9008 93.5608 14.9143 93.6404C14.94 93.7997 15.0025 93.9088 15.0466 94.0423C15.0735 94.1219 15.2267 93.9725 15.5011 93.6074C16.0292 92.969 16.6749 92.4299 17.3929 91.9889C18.0361 91.5956 18.7406 91.277 19.4598 91.0124C21.1616 90.3875 23.0031 90.0996 24.8409 89.9869C25.3432 89.9624 25.8419 89.9599 26.3197 90.0236C27.1235 90.1253 27.8598 90.4218 28.3916 90.9866C28.9294 91.5429 29.286 92.2939 29.46 93.0817L29.4477 93.0842L29.4453 93.0879ZM29.6805 91.8136C29.656 91.7561 29.6584 91.7181 29.6474 91.6715C29.7001 91.7634 29.7663 91.8663 29.7957 91.9509C29.8937 92.2069 29.9623 92.4593 30.0125 92.7154C30.0309 92.7938 30.037 92.8649 30.0481 92.9396C30.0272 92.8698 30.0064 92.8012 29.9819 92.7301C29.966 92.6897 29.9623 92.6382 29.901 92.4532C29.8692 92.3258 29.781 92.0636 29.6805 91.8124V91.8136Z" fill="#FFA385"></path></g><path d="M59.1289 79.6695L69.0556 104.344L94.8646 93.708L82.5267 70.0259L59.1289 79.6695Z" fill="#0041D9"></path><mask id="mask1_2112_19078" style="mask-type:alpha" maskUnits="userSpaceOnUse" x="59" y="70" width="36" height="35"><path d="M59.1289 79.6695L69.0556 104.344L94.8646 93.708L82.5267 70.0259L59.1289 79.6695Z" fill="#0041D9"></path></mask><g mask="url(#mask1_2112_19078)"><path d="M84.7094 73.8426L84.2291 74.0435C83.6998 74.269 83.1632 74.4785 82.6277 74.6904C82.5089 74.737 82.3949 74.7946 82.2761 74.8411L81.5618 75.1168C81.5189 75.1327 81.4711 75.145 81.4368 75.1719C81.2604 75.3055 81.0509 75.3729 80.8487 75.4574C80.638 75.5456 80.4346 75.651 80.2276 75.7466C80.0315 75.8372 79.8465 75.9536 79.6223 75.9781C79.55 75.9855 79.4679 76.0357 79.403 76.0798C79.2952 76.1546 79.1788 76.1974 79.055 76.2342C78.7732 76.3187 78.5208 76.4707 78.2476 76.5748L77.9658 76.679C77.9315 76.6912 77.8923 76.6986 77.8641 76.7169C77.6644 76.8505 77.4279 76.9032 77.216 77.0085C76.8864 77.1715 76.5348 77.2756 76.1954 77.4116C75.6771 77.6187 75.1638 77.8417 74.6492 78.0573L73.8136 78.4077L72.6754 78.8819C72.5492 78.9358 72.4291 79.0032 72.3053 79.062C71.9758 79.22 71.6217 79.3181 71.2958 79.481C71.0483 79.6048 70.7934 79.704 70.5386 79.8045C70.4541 79.8375 70.3671 79.8645 70.2825 79.9L69.4751 80.2443L68.5464 80.656L67.4939 81.1252C67.0945 81.3066 66.6927 81.4842 66.2981 81.6766C65.6476 81.9939 64.9774 82.2684 64.3182 82.5649C64.1013 82.6617 63.8857 82.7486 63.659 82.8173C63.4152 82.892 63.1886 83.0108 62.9643 83.1297C62.625 83.3086 62.2733 83.4617 61.9156 83.6002C61.6619 83.6982 61.4071 83.7962 61.1596 83.9077C60.9599 83.9971 60.7688 84.105 60.5727 84.2005C60.4992 84.2361 60.422 84.2654 60.3448 84.2936C60.0361 84.4051 59.72 84.4921 59.4223 84.6379C59.3904 84.6538 59.3524 84.66 59.3181 84.6722L58.2889 85.0471C58.2044 85.079 58.1248 85.128 58.0415 85.1648C58.0206 85.1733 57.9741 85.1721 57.9728 85.166C57.9679 85.139 57.9643 85.1023 57.9814 85.0814C58.0071 85.0508 58.05 85.0239 58.0892 85.0055L58.6908 84.7323L58.9395 84.6171L59.6109 84.3132C60.0361 84.1197 60.4625 83.9297 60.8852 83.7313C61.5725 83.4066 62.2721 83.1089 62.9668 82.8013C63.1089 82.7388 63.2449 82.6617 63.387 82.5992C64.6551 82.0466 65.9073 81.456 67.1754 80.9047L68.4153 80.3779L70.2041 79.5962L72.0003 78.8353L73.8516 78.0561L75.6759 77.2854L78.3199 76.1962C78.6323 76.0676 78.9374 75.9205 79.2486 75.7882C79.5427 75.6633 79.8404 75.5456 80.1369 75.4243L80.3158 75.3533C80.7164 75.1805 81.1171 75.0041 81.5201 74.8362C82.1707 74.5642 82.8213 74.291 83.4805 74.0374C84.0098 73.8316 84.5317 73.6098 85.0586 73.3978C85.3306 73.2876 85.6025 73.1761 85.8758 73.0707C85.9505 73.0413 86.0326 73.0254 86.1122 73.0143C86.1649 73.007 86.2213 73.0168 86.2311 73.0719C86.2409 73.1222 86.209 73.1614 86.1563 73.1896C85.9615 73.29 85.7716 73.4003 85.5719 73.4897C85.2889 73.6159 84.9973 73.7262 84.7094 73.8438V73.8426Z" fill="#73E4F9"></path><path d="M87.3778 79.3377L86.911 79.5766C86.3952 79.8424 85.8733 80.0936 85.3501 80.3448C85.2337 80.3999 85.1222 80.4648 85.0058 80.5188L84.3062 80.8422C84.2646 80.8618 84.2168 80.8765 84.1837 80.9047C84.0146 81.0505 83.8088 81.1326 83.6103 81.2282C83.4032 81.3286 83.2048 81.445 83.0014 81.5528C82.809 81.6545 82.6301 81.7819 82.4059 81.8187C82.3336 81.831 82.254 81.8849 82.1915 81.9339C82.0874 82.0147 81.9722 82.065 81.8497 82.1079C81.5703 82.2059 81.3228 82.37 81.0533 82.4877L80.7739 82.6065C80.7396 82.6212 80.7017 82.6298 80.6735 82.6506C80.4787 82.794 80.2434 82.8601 80.0339 82.9729C79.708 83.1493 79.3588 83.2681 79.0219 83.4176L77.4855 84.1172L76.6536 84.4933L75.5166 84.992C75.3904 85.0484 75.2703 85.1182 75.1478 85.1807C74.8194 85.3473 74.4617 85.4465 74.1345 85.6144C73.887 85.7406 73.631 85.8435 73.3749 85.9477C73.2904 85.982 73.2022 86.0101 73.1176 86.0457L72.3041 86.3936L71.3692 86.809L70.3045 87.2721C69.9002 87.451 69.4947 87.6274 69.0928 87.8124C68.4312 88.12 67.7524 88.3871 67.0785 88.664C66.858 88.7558 66.6375 88.8379 66.4084 88.9016C66.1621 88.9703 65.9305 89.083 65.699 89.1945C65.3498 89.3623 64.9908 89.5032 64.6257 89.6306C64.3672 89.7213 64.1074 89.8095 63.8513 89.9088C63.6467 89.9896 63.4495 90.0889 63.2473 90.1771C63.1714 90.2102 63.0929 90.2359 63.0133 90.2604C62.6984 90.3584 62.3762 90.4319 62.0687 90.5618C62.0356 90.5765 61.9976 90.5802 61.9621 90.5912L60.9072 90.9122C60.8202 90.9392 60.7381 90.9845 60.6523 91.0164C60.6315 91.0237 60.5849 91.02 60.5837 91.0139C60.5813 90.987 60.5788 90.949 60.5972 90.9294C60.6254 90.9 60.6683 90.8755 60.7099 90.8595L61.3286 90.6182L61.5847 90.5152L62.2757 90.2457C62.7119 90.0717 63.1493 89.899 63.583 89.7189C64.29 89.4273 65.0006 89.1467 65.7112 88.8637C65.8558 88.8061 65.9955 88.7326 66.14 88.6737C67.4314 88.1543 68.7032 87.5894 69.9848 87.0467L71.2369 86.5272L73.0355 85.7406L74.8341 84.9577L76.6805 84.138L78.4926 83.3098C79.3637 82.9091 80.2385 82.5158 81.106 82.1066C81.4135 81.9621 81.7149 81.8028 82.02 81.6521C82.3091 81.5099 82.6007 81.3752 82.8923 81.2367L83.0675 81.1546L84.2462 80.5629C84.8833 80.2492 85.518 79.9319 86.1587 79.6256C86.6746 79.3805 87.1818 79.1196 87.6915 78.861C87.9549 78.7287 88.2183 78.594 88.483 78.4653C88.5553 78.4298 88.6361 78.4065 88.7145 78.3893C88.766 78.3783 88.8236 78.3832 88.8395 78.4359C88.853 78.4849 88.826 78.5266 88.7733 78.5596C88.5871 78.6773 88.4058 78.8035 88.2122 78.9088C87.9377 79.0595 87.6547 79.1943 87.3754 79.3352L87.3778 79.3377Z" fill="#73E4F9"></path><path d="M91.0803 84.9748L90.5817 85.2076C90.0316 85.4661 89.4753 85.7111 88.9191 85.9562C88.7953 86.0101 88.6765 86.0738 88.5527 86.1265L87.809 86.4426C87.7649 86.461 87.7147 86.4769 87.6792 86.5039C87.4954 86.6484 87.2785 86.7281 87.0666 86.8224C86.8472 86.9217 86.6341 87.0368 86.4184 87.1422C86.2138 87.2427 86.0215 87.3676 85.7862 87.4032C85.7102 87.4142 85.6245 87.4681 85.5571 87.5159C85.4456 87.5967 85.3219 87.6458 85.1932 87.6874C84.8979 87.783 84.6333 87.9459 84.3478 88.0623L84.0525 88.1787C84.017 88.1922 83.9754 88.2008 83.946 88.2216C83.7364 88.3637 83.4889 88.4274 83.266 88.5402C82.9192 88.7154 82.5504 88.8318 82.1939 88.98C81.6499 89.2067 81.1096 89.4431 80.5668 89.6747L79.6859 90.0484L78.484 90.5471C78.3504 90.6034 78.223 90.6732 78.0919 90.7357C77.7439 90.9024 77.369 91.0028 77.0223 91.1707C76.7601 91.2981 76.4905 91.401 76.2198 91.5052C76.1303 91.5395 76.0384 91.5689 75.949 91.6044L75.0914 91.9548L74.1038 92.3738L72.9815 92.8431C72.5552 93.0244 72.1276 93.2033 71.7049 93.392C71.0077 93.7044 70.2934 93.9764 69.584 94.2607C69.3512 94.355 69.1197 94.4383 68.8795 94.5045C68.621 94.5755 68.376 94.6907 68.1334 94.8047C67.7658 94.9762 67.3885 95.122 67.005 95.2531C66.733 95.3462 66.461 95.4381 66.1927 95.541C65.977 95.6243 65.77 95.7272 65.558 95.8179C65.4784 95.8522 65.395 95.8792 65.313 95.9049C64.9821 96.0078 64.6452 96.085 64.323 96.2185C64.2875 96.2332 64.2483 96.2382 64.2115 96.2492L63.1064 96.5861C63.0145 96.6143 62.9287 96.6608 62.838 96.6939C62.816 96.7025 62.767 96.6988 62.767 96.6927C62.7645 96.6645 62.7633 96.6278 62.7829 96.6069C62.8123 96.5763 62.8589 96.5518 62.9017 96.5347L63.5511 96.2835L63.8194 96.1769L64.5447 95.8975C65.003 95.7174 65.4624 95.5386 65.9182 95.3535C66.6607 95.0521 67.4081 94.7642 68.1554 94.4726C68.3086 94.4126 68.4544 94.3379 68.6075 94.2778C69.9663 93.7461 71.3067 93.169 72.6581 92.6189L73.9776 92.092L75.8767 91.2981L77.777 90.5127L79.7312 89.6931L81.6511 88.8697C82.5749 88.4728 83.5012 88.0832 84.4226 87.6801C84.7497 87.5367 85.0695 87.3799 85.3941 87.2316C85.7017 87.092 86.0117 86.9596 86.3216 86.8236L86.5079 86.7428L87.7625 86.162C88.44 85.8545 89.1163 85.5445 89.7988 85.2468C90.3477 85.0091 90.8892 84.753 91.4332 84.5031C91.715 84.3744 91.9956 84.2433 92.2786 84.1184C92.3558 84.0841 92.4416 84.062 92.5236 84.0461C92.5776 84.0351 92.6376 84.0412 92.6498 84.0951C92.6609 84.1453 92.6302 84.187 92.5751 84.2176C92.3754 84.3328 92.1794 84.4565 91.9723 84.5595C91.6795 84.7053 91.3781 84.8364 91.0803 84.9748Z" fill="#73E4F9"></path><path d="M91.5061 89.7652C91.3395 89.846 91.1741 89.9269 91.0074 90.0078C90.4573 90.2785 89.9011 90.5358 89.3461 90.7931C89.2223 90.8507 89.1035 90.9169 88.981 90.9732C88.7347 91.0872 88.486 91.1962 88.2385 91.3089C88.1944 91.3285 88.1441 91.3457 88.1086 91.3739C87.9273 91.5234 87.7092 91.6079 87.4985 91.7084C87.2791 91.8137 87.0684 91.935 86.8528 92.0478C86.6494 92.1543 86.4582 92.2854 86.223 92.3271C86.147 92.3406 86.0625 92.3969 85.9951 92.4472C85.8836 92.5305 85.7623 92.5832 85.6337 92.6297C85.3396 92.7351 85.0774 92.9078 84.7932 93.0328C84.6952 93.0757 84.5972 93.1174 84.4991 93.159C84.4636 93.1737 84.4232 93.1835 84.3925 93.2056C84.1855 93.3551 83.938 93.4261 83.7174 93.5474C83.3732 93.7349 83.0068 93.866 82.6527 94.0265C82.1112 94.2727 81.5758 94.5312 81.0379 94.7849C80.7475 94.9221 80.4559 95.0593 80.1643 95.1953C79.7674 95.3803 79.3692 95.5604 78.9747 95.7479C78.8423 95.8104 78.7174 95.8863 78.5875 95.9537C78.2432 96.1351 77.8707 96.2551 77.5301 96.4389C77.2716 96.5786 77.0045 96.695 76.7374 96.8114C76.6492 96.8506 76.5573 96.8837 76.4691 96.9241C76.1861 97.054 75.9031 97.1851 75.6225 97.3198C75.2966 97.4754 74.9731 97.6335 74.6497 97.7903C74.2809 97.968 73.9121 98.1432 73.5445 98.322C73.1243 98.5267 72.7028 98.7288 72.2887 98.9445C71.6038 99.2985 70.9005 99.6122 70.2058 99.943C69.9779 100.052 69.7501 100.15 69.5124 100.231C69.2563 100.318 69.0174 100.449 68.7797 100.58C68.4219 100.776 68.0507 100.948 67.6733 101.103C67.4062 101.215 67.1379 101.325 66.8757 101.448C66.665 101.546 66.464 101.663 66.2558 101.769C66.1786 101.808 66.0965 101.841 66.0144 101.873C65.6885 101.999 65.3552 102.099 65.0403 102.259C65.006 102.276 64.9668 102.284 64.9313 102.298C64.5686 102.438 64.206 102.575 63.8445 102.717C63.7551 102.752 63.6706 102.805 63.5824 102.846C63.5615 102.855 63.5113 102.855 63.5113 102.849C63.5076 102.822 63.5027 102.784 63.5211 102.763C63.5493 102.732 63.5934 102.702 63.635 102.683C63.8458 102.581 64.059 102.483 64.2697 102.382C64.3579 102.341 64.4449 102.297 64.5319 102.256C64.7684 102.145 65.006 102.034 65.2425 101.922C65.6909 101.709 66.1406 101.498 66.5866 101.28C67.3131 100.923 68.0482 100.589 68.7809 100.246C68.9304 100.176 69.0737 100.091 69.2232 100.021C70.5587 99.4015 71.8746 98.7423 73.2064 98.1162C73.6389 97.9128 74.0763 97.7192 74.5075 97.5159C75.1336 97.2206 75.756 96.918 76.3821 96.6227C77.007 96.3274 77.6355 96.037 78.2616 95.7442C78.9073 95.4428 79.553 95.1414 80.1974 94.8376C80.8333 94.5386 81.4655 94.2335 82.1014 93.9358C83.0191 93.5045 83.9404 93.0794 84.8569 92.6469C85.1816 92.4937 85.5001 92.3234 85.8236 92.1666C86.1299 92.0183 86.4399 91.8762 86.7474 91.7316C86.8087 91.7022 86.8724 91.6753 86.9336 91.6459C87.3514 91.4413 87.7668 91.2318 88.1846 91.0296C88.8609 90.7037 89.536 90.3766 90.2196 90.0641C90.7685 89.813 91.3101 89.5459 91.8553 89.2873C92.1371 89.1538 92.4189 89.0178 92.7019 88.8879C92.7803 88.8524 92.8649 88.8291 92.9482 88.8107C93.0033 88.7985 93.0634 88.8046 93.0756 88.8585C93.0879 88.9075 93.056 88.9504 93.0009 88.9835C92.7999 89.1023 92.6051 89.2298 92.3981 89.3364C92.104 89.4883 91.8026 89.6243 91.5049 89.7676V89.7652H91.5061Z" fill="#73E4F9"></path></g><path d="M38.8522 33.2977C38.492 33.778 38.0289 34.1075 37.616 34.3256C37.4433 32.6875 37.2337 31.2957 37.1406 30.3621L38.4271 29.894C38.4271 29.894 39.7038 32.1631 38.8522 33.2977Z" fill="#621400"></path><path d="M43.1055 22.3787C42.9437 23.0268 42.2282 23.5353 41.6426 23.8538C41.351 22.1079 41.0238 20.6132 40.7812 19.5889C41.2432 19.4076 42.1131 19.1184 42.1131 19.1184C42.1131 19.1184 43.3897 21.2454 43.1055 22.3799V22.3787Z" fill="#621400"></path><path d="M46.2256 19.2593C45.6485 19.644 45.0727 19.3769 44.7603 19.1637C44.6549 18.2644 44.5189 17.2536 44.3817 16.7059C44.2898 16.3359 44.182 15.9046 44.0938 15.4783C44.6328 15.3325 45.6583 15.1462 45.6583 15.1462C45.6583 15.1462 47.0759 18.692 46.2256 19.2593Z" fill="#621400"></path><path d="M51.4709 18.9751C50.8742 19.4014 50.3278 19.2642 49.9872 19.0853C49.9455 18.3281 49.8781 17.4742 49.7691 16.706C49.6956 16.1926 49.6233 15.6988 49.5547 15.248C50.1636 15.1696 51.3288 15.0042 51.3288 15.0042C51.3288 15.0042 52.4633 18.2657 51.4709 18.9751Z" fill="#621400"></path><path d="M61.8301 40.7755C61.3989 40.8134 60.8463 40.8183 60.4064 40.6725C59.5561 40.3895 59.9813 36.5595 59.9813 36.5595L61.8583 36.3083C61.8767 37.3289 61.884 38.8874 61.8301 40.7755Z" fill="#621400"></path><path d="M103.704 17.7574C103.543 17.8517 103.354 17.8787 103.194 17.9804C102.988 18.1115 102.758 18.2009 102.539 18.3087C102.524 18.3161 102.511 18.3369 102.497 18.3332C102.342 18.2879 102.268 18.4117 102.161 18.479C101.969 18.6003 101.827 18.8 101.614 18.8895C101.404 18.9777 101.208 19.0953 101.008 19.2056C100.895 19.2681 100.777 19.3257 100.678 19.4102C100.436 19.6148 100.167 19.7594 99.885 19.8868C99.5223 20.0498 99.1645 20.2237 98.819 20.4247C98.4392 20.6464 98.0484 20.8461 97.6612 21.052C97.6183 21.0753 97.5681 21.0814 97.5203 21.0949C97.4885 21.1047 97.448 21.101 97.4272 21.1243C97.2593 21.3203 96.9751 21.2554 96.7852 21.3999C96.659 21.3705 96.5916 21.4489 96.5156 21.5335C96.4556 21.5996 96.3613 21.6217 96.2804 21.6609C96.2375 21.6817 96.1799 21.683 96.1481 21.7173C96.0133 21.8594 95.8148 21.8778 95.6678 21.9942C95.5526 21.9721 95.4779 22.0493 95.3897 22.0922C95.2953 22.1375 95.1998 22.1828 95.0981 22.2147C94.9351 22.2662 94.7685 22.3054 94.6031 22.3495C94.5406 22.3666 94.472 22.3715 94.4181 22.4046C94.0615 22.619 93.6805 22.7795 93.2995 22.94C93.21 22.978 93.1243 23.0258 93.0348 23.0638C92.8854 23.1275 92.7334 23.1863 92.5839 23.25C92.4565 23.3039 92.323 23.348 92.2066 23.4228C91.9236 23.6029 91.6222 23.7438 91.3208 23.8859C91.0929 23.9937 90.8638 24.0966 90.6212 24.1701C90.506 24.2044 90.3994 24.2682 90.2977 24.3355C90.2144 24.3907 90.1311 24.4311 90.0245 24.4274C89.9301 24.4238 89.8591 24.463 89.8003 24.5524C89.7525 24.6247 89.6508 24.6455 89.5663 24.6737C89.3433 24.7472 89.1154 24.8121 88.8899 24.882C88.8667 24.8893 88.8422 24.8979 88.8238 24.9126C88.5114 25.1724 88.1364 25.3096 87.7799 25.4836C87.5826 25.5804 87.3891 25.6845 87.2028 25.8033C87.0754 25.8842 86.9357 25.9234 86.7899 25.954C86.7103 25.97 86.6576 25.9246 86.6282 25.8144C86.6086 25.7409 86.5976 25.6661 86.5902 25.5938C86.5878 25.5657 86.5976 25.5264 86.6135 25.5166C86.7091 25.4591 86.7716 25.3451 86.91 25.361C87.0791 25.3806 87.2151 25.3133 87.3388 25.2042C87.4381 25.1172 87.5545 25.0572 87.639 24.9481C87.6684 24.9114 87.7186 24.8869 87.7652 24.8832C88.0384 24.8599 88.2663 24.7386 88.466 24.5585C88.515 24.5144 88.5702 24.4862 88.6388 24.4752C88.7601 24.4556 88.8752 24.4115 88.9929 24.3747C89.0149 24.3674 89.0382 24.3515 89.0504 24.3294C89.1105 24.2228 89.1938 24.1628 89.3163 24.1787C89.3322 24.1812 89.3506 24.1738 89.3616 24.1616C89.4842 24.0219 89.6667 24.017 89.8211 23.9484C89.9988 23.87 90.1593 23.7548 90.3296 23.6617C90.3933 23.6274 90.4656 23.6114 90.5329 23.5857C90.6628 23.5379 90.7927 23.4901 90.9226 23.4399C91.0218 23.4019 91.1149 23.3468 91.2178 23.3235C91.2864 23.3088 91.3808 23.3639 91.4408 23.337C91.5009 23.31 91.5303 23.2181 91.5793 23.1618C91.6001 23.1385 91.6356 23.1287 91.6675 23.1226C91.8488 23.092 92.0069 23.0062 92.1674 22.9278C92.2482 22.8886 92.334 22.8604 92.4173 22.8273C92.6133 22.7501 92.8033 22.6546 93.0079 22.6006C93.2002 22.5492 93.3399 22.4034 93.52 22.3323C93.694 22.2637 93.8545 22.1657 94.0236 22.0836C94.1106 22.0407 94.2025 22.0064 94.2919 21.9684C94.5614 21.8545 94.8494 21.7834 95.0956 21.6156C95.1361 21.5886 95.1826 21.569 95.2304 21.558C95.3076 21.5421 95.3946 21.5519 95.4644 21.5212C95.5281 21.4931 95.5661 21.4012 95.631 21.3803C95.9043 21.2897 96.1358 21.1132 96.3943 20.9968C96.6149 20.8976 96.8072 20.7395 97.0486 20.6844C97.1258 20.6673 97.1858 20.5999 97.2544 20.5558C97.3022 20.5251 97.3476 20.481 97.4027 20.4725C97.5705 20.448 97.7078 20.3622 97.8511 20.2838C97.9222 20.2458 97.9981 20.2029 98.079 20.1992C98.275 20.1907 98.4049 20.0645 98.5434 19.9481C98.5875 19.9113 98.6255 19.8537 98.6769 19.8427C98.9281 19.7863 99.1143 19.5964 99.3471 19.507C99.5186 19.4408 99.6779 19.3379 99.8752 19.333C99.9401 19.3318 99.994 19.2828 100.057 19.2619C100.14 19.2338 100.206 19.1578 100.313 19.1884C100.336 19.1958 100.365 19.1872 100.381 19.1713C100.608 18.9544 100.885 18.816 101.102 18.5783C101.292 18.37 101.54 18.2413 101.78 18.1078C101.855 18.0661 101.908 17.9828 102.011 17.9926C102.044 17.9963 102.07 17.9399 102.1 17.9154C102.177 17.8554 102.246 17.7611 102.337 17.7464C102.49 17.7219 102.604 17.6287 102.731 17.5589C102.852 17.4927 102.972 17.4278 103.107 17.3874C103.27 17.3371 103.416 17.2416 103.569 17.1668C103.606 17.1497 103.641 17.1276 103.682 17.1227C103.769 17.1105 103.861 17.1803 103.907 17.2869C103.929 17.3371 103.944 17.3911 103.959 17.4437C103.998 17.5797 103.988 17.6177 103.901 17.6618C103.836 17.6949 103.769 17.7243 103.703 17.7549V17.7574H103.704Z" fill="#111116"></path><path d="M111.619 33.2353C111.415 33.2856 111.199 33.2635 110.992 33.3211C110.725 33.3971 110.446 33.4228 110.171 33.4693C110.153 33.473 110.132 33.4889 110.117 33.4816C109.964 33.3971 109.843 33.4975 109.704 33.5343C109.454 33.6017 109.233 33.7573 108.969 33.7854C108.712 33.8136 108.458 33.8749 108.205 33.9276C108.06 33.957 107.912 33.9803 107.775 34.0342C107.443 34.164 107.098 34.229 106.748 34.2731C106.297 34.327 105.849 34.3919 105.404 34.4863C104.914 34.588 104.419 34.6639 103.925 34.7485C103.871 34.757 103.814 34.7485 103.757 34.7485C103.72 34.7485 103.676 34.7325 103.647 34.7485C103.392 34.8857 103.112 34.7387 102.853 34.8195C102.728 34.7534 102.626 34.8085 102.512 34.8649C102.423 34.909 102.313 34.9016 102.211 34.9139C102.156 34.92 102.095 34.9041 102.047 34.9273C101.847 35.0205 101.628 34.9776 101.426 35.0425C101.31 34.9862 101.201 35.0364 101.089 35.0486C100.97 35.0621 100.85 35.0744 100.73 35.0731C100.536 35.0707 100.341 35.0548 100.148 35.045C100.074 35.0413 99.9983 35.0241 99.9284 35.0388C99.4629 35.1283 98.9924 35.1565 98.5219 35.1859C98.4116 35.192 98.3014 35.2091 98.1899 35.2165L97.6348 35.2434C97.478 35.2533 97.3175 35.2508 97.1644 35.2814C96.7894 35.3562 96.4121 35.3856 96.0323 35.4187C95.7456 35.4444 95.4601 35.4615 95.1722 35.4456C95.0349 35.4383 94.8953 35.4615 94.7605 35.4885C94.649 35.5118 94.5436 35.5203 94.4321 35.4799C94.3341 35.4444 94.2422 35.4554 94.1418 35.5179C94.0609 35.5681 93.9445 35.5522 93.8428 35.5485C93.5745 35.5387 93.3074 35.5191 93.0403 35.5044C93.0121 35.5032 92.9839 35.502 92.957 35.5093C92.5159 35.638 92.0614 35.6318 91.6105 35.6661C91.3605 35.6833 91.1106 35.709 90.8631 35.7507C90.694 35.7789 90.5299 35.7642 90.3632 35.7384C90.2726 35.7237 90.237 35.6612 90.2542 35.5498C90.2652 35.475 90.2873 35.4015 90.3105 35.3304C90.3191 35.3035 90.3473 35.2704 90.3693 35.2667C90.4943 35.2483 90.6107 35.1663 90.7479 35.2312C90.917 35.3121 91.0898 35.2986 91.2662 35.2434C91.4071 35.1993 91.5553 35.1871 91.6926 35.1148C91.7391 35.0903 91.8016 35.0866 91.8531 35.1001C92.1508 35.1773 92.4424 35.1454 92.7291 35.0499C92.8002 35.0266 92.8688 35.0205 92.9472 35.0339C93.0844 35.0584 93.2241 35.0584 93.3625 35.0646C93.3895 35.0658 93.4201 35.0584 93.4422 35.0425C93.5512 34.9641 93.6627 34.9371 93.7865 34.9947C93.8024 35.0021 93.8257 35.0021 93.8416 34.9947C94.029 34.9077 94.2239 34.9678 94.4162 34.9567C94.6368 34.9445 94.8536 34.8918 95.0741 34.8636C95.155 34.8526 95.2383 34.8636 95.3216 34.8636C95.4785 34.8636 95.6365 34.8636 95.7934 34.8612C95.9134 34.8587 96.0347 34.8379 96.1536 34.8514C96.232 34.86 96.3104 34.9445 96.3851 34.9396C96.4599 34.9347 96.5285 34.8575 96.6032 34.822C96.6351 34.8073 96.6767 34.8097 96.7123 34.8146C96.9181 34.8477 97.1203 34.8195 97.3224 34.7987C97.4241 34.7889 97.5258 34.7901 97.6275 34.7864C97.8676 34.7779 98.1078 34.7509 98.3467 34.7681C98.5721 34.7828 98.7792 34.6884 98.9997 34.6799C99.2117 34.6713 99.4224 34.6308 99.6344 34.6076C99.7447 34.5965 99.8549 34.5916 99.9664 34.5843C100.298 34.561 100.634 34.5843 100.961 34.5034C101.015 34.4899 101.073 34.4863 101.128 34.4924C101.216 34.501 101.306 34.5377 101.391 34.5304C101.471 34.523 101.546 34.4471 101.624 34.4471C101.951 34.4471 102.266 34.349 102.587 34.316C102.86 34.2866 103.126 34.1947 103.406 34.2143C103.495 34.2204 103.584 34.1738 103.674 34.1542C103.736 34.1395 103.801 34.1101 103.864 34.1199C104.052 34.1457 104.233 34.1028 104.415 34.0709C104.506 34.055 104.603 34.0366 104.692 34.0574C104.905 34.1065 105.093 34.0244 105.284 33.9521C105.344 33.9288 105.405 33.8847 105.466 33.8884C105.758 33.9055 106.026 33.7769 106.308 33.756C106.516 33.7413 106.725 33.6874 106.939 33.7377C107.01 33.7548 107.086 33.723 107.16 33.7205C107.26 33.7168 107.357 33.6617 107.461 33.7205C107.483 33.734 107.517 33.734 107.541 33.723C107.863 33.5784 108.208 33.5196 108.526 33.3493C108.803 33.1986 109.116 33.1434 109.42 33.0773C109.516 33.0564 109.599 32.9903 109.708 33.027C109.744 33.0393 109.789 32.9915 109.831 32.9768C109.935 32.9388 110.04 32.8653 110.143 32.8751C110.317 32.8923 110.471 32.8322 110.632 32.7979C110.785 32.7649 110.937 32.733 111.096 32.7281C111.289 32.722 111.478 32.6656 111.67 32.6325C111.715 32.6252 111.76 32.6129 111.806 32.6178C111.904 32.6289 111.981 32.7195 111.996 32.8347C112.003 32.8886 112 32.945 112 33.0001C111.998 33.141 111.975 33.1765 111.866 33.1961C111.784 33.2121 111.701 33.2231 111.618 33.2353H111.619Z" fill="#111116"></path><path d="M109.108 53.1317C108.889 53.0949 108.689 52.9883 108.466 52.9577C108.177 52.9185 107.896 52.8315 107.612 52.7641C107.594 52.7592 107.566 52.7666 107.556 52.7543C107.441 52.6146 107.283 52.6587 107.134 52.6379C106.865 52.5999 106.589 52.6538 106.323 52.5767C106.062 52.5007 105.793 52.4566 105.526 52.4039C105.374 52.3745 105.22 52.3365 105.066 52.3328C104.692 52.3218 104.333 52.2483 103.976 52.1503C103.516 52.0253 103.054 51.9114 102.585 51.8256C102.068 51.7313 101.557 51.6124 101.044 51.5009C100.987 51.4887 100.935 51.458 100.881 51.436C100.845 51.4213 100.809 51.3907 100.773 51.3943C100.473 51.425 100.253 51.1811 99.9717 51.1579C99.8749 51.0488 99.7536 51.0611 99.6225 51.0709C99.5184 51.0782 99.4142 51.0292 99.3101 51.0023C99.2537 50.9876 99.1998 50.9496 99.1447 50.9533C98.9156 50.9655 98.7159 50.8418 98.4941 50.8271C98.4022 50.7303 98.2772 50.7364 98.1621 50.707C98.0408 50.6751 97.9182 50.6421 97.8006 50.5955C97.6119 50.5208 97.4269 50.4338 97.2407 50.3529C97.1696 50.3223 97.1023 50.2782 97.0275 50.2647C96.5387 50.1752 96.0657 50.0282 95.594 49.8824C95.4825 49.8481 95.3686 49.8236 95.2571 49.7893L94.7021 49.6116C94.544 49.5626 94.3884 49.5026 94.2255 49.4757C93.8297 49.4107 93.4475 49.3017 93.0627 49.1951C92.7711 49.1154 92.4844 49.0297 92.2051 48.9108C92.0728 48.8545 91.927 48.8263 91.7836 48.8042C91.666 48.7859 91.5582 48.7577 91.4626 48.6793C91.3781 48.6107 91.2837 48.5886 91.1624 48.6119C91.0644 48.6303 90.9554 48.5739 90.8574 48.5359C90.5964 48.4318 90.3391 48.3191 90.0794 48.21C90.0524 48.199 90.0242 48.188 89.996 48.1855C89.5158 48.1524 89.0685 47.987 88.6103 47.8621C88.3567 47.7922 88.1006 47.7297 87.8421 47.6832C87.6657 47.6513 87.5064 47.5815 87.3508 47.4994C87.265 47.4541 87.2516 47.383 87.3055 47.2838C87.3422 47.2164 87.3876 47.1551 87.4341 47.0963C87.4525 47.0742 87.4905 47.0522 87.5138 47.0571C87.6436 47.084 87.787 47.0461 87.9009 47.1551C88.0418 47.2887 88.217 47.3364 88.4106 47.3462C88.5662 47.3536 88.7169 47.3928 88.8762 47.3732C88.9301 47.3671 88.9938 47.3854 89.0404 47.4148C89.3099 47.5913 89.6089 47.6648 89.9262 47.6746C90.0046 47.677 90.0757 47.6954 90.1467 47.7359C90.2742 47.8069 90.4126 47.8571 90.5474 47.9123C90.5731 47.9233 90.6062 47.927 90.6344 47.9209C90.7679 47.8853 90.8892 47.9 90.9921 47.9981C91.0056 48.0103 91.0277 48.0189 91.046 48.0177C91.2617 48.0017 91.4344 48.1279 91.6268 48.1867C91.8486 48.2541 92.0826 48.2823 92.3092 48.335C92.3925 48.3546 92.4722 48.3938 92.5531 48.4232L93.0199 48.5898C93.1399 48.6303 93.2661 48.656 93.3788 48.7111C93.4536 48.7479 93.5001 48.8545 93.5761 48.8778C93.6521 48.901 93.7464 48.8532 93.8334 48.8471C93.8701 48.8447 93.9106 48.8618 93.9437 48.8802C94.1348 48.9856 94.3443 49.0321 94.5514 49.0873C94.6543 49.1142 94.7548 49.1534 94.8564 49.1877C95.0954 49.2674 95.3416 49.3299 95.572 49.4328C95.7888 49.5296 96.0253 49.5185 96.2446 49.5908C96.4566 49.6619 96.6783 49.7011 96.894 49.7575C97.0067 49.7869 97.117 49.8248 97.2284 49.8591C97.5629 49.9621 97.8839 50.1091 98.2344 50.1544C98.2919 50.1618 98.3495 50.1801 98.4022 50.2059C98.4855 50.2475 98.5603 50.3149 98.6472 50.3407C98.7281 50.3639 98.8286 50.321 98.9058 50.3505C99.2268 50.473 99.5711 50.5012 99.897 50.5918C100.175 50.669 100.469 50.6837 100.736 50.8087C100.821 50.8479 100.926 50.8393 101.022 50.854C101.089 50.865 101.163 50.8626 101.22 50.8944C101.395 50.9912 101.587 51.0206 101.778 51.0611C101.872 51.0807 101.974 51.1015 102.053 51.1554C102.243 51.2828 102.458 51.2779 102.671 51.2853C102.738 51.2877 102.815 51.2706 102.873 51.2975C103.15 51.4262 103.462 51.4115 103.744 51.5034C103.952 51.5708 104.177 51.6014 104.367 51.7325C104.429 51.7754 104.515 51.7754 104.588 51.8023C104.688 51.8379 104.804 51.8256 104.881 51.9212C104.898 51.942 104.931 51.9555 104.958 51.9543C105.328 51.9457 105.687 52.0302 106.062 51.9971C106.391 51.969 106.716 52.0412 107.039 52.1013C107.139 52.1197 107.247 52.0927 107.339 52.1699C107.368 52.1944 107.431 52.1699 107.479 52.1723C107.595 52.1785 107.726 52.154 107.823 52.2042C107.985 52.2887 108.159 52.2961 108.329 52.3292C108.491 52.3598 108.65 52.3929 108.808 52.4517C108.998 52.524 109.204 52.5485 109.402 52.595C109.449 52.6061 109.499 52.6134 109.541 52.6367C109.631 52.6869 109.67 52.8009 109.637 52.9136C109.623 52.9663 109.598 53.0165 109.576 53.0667C109.517 53.1954 109.481 53.2174 109.367 53.1929C109.281 53.1746 109.196 53.1513 109.112 53.1292L109.108 53.1317Z" fill="#111116"></path><path d="M29.0775 32.2563C28.9023 32.1815 28.7639 32.0443 28.5837 31.9745C28.3497 31.885 28.1378 31.7503 27.916 31.6351C27.9013 31.6277 27.8756 31.629 27.8707 31.6155C27.8119 31.4623 27.6673 31.4758 27.5472 31.428C27.3304 31.3423 27.0816 31.3447 26.8783 31.2222C26.6785 31.1021 26.4629 31.0115 26.2522 30.9122C26.1321 30.8559 26.0133 30.7934 25.8846 30.7603C25.5722 30.6819 25.2892 30.5447 25.0147 30.3866C24.6618 30.1832 24.3041 29.9884 23.9316 29.8206C23.5224 29.6343 23.1242 29.426 22.7223 29.2251C22.6782 29.2031 22.6427 29.1638 22.6035 29.1332C22.5778 29.1124 22.5557 29.0769 22.5239 29.0732C22.2617 29.045 22.1465 28.7742 21.9149 28.6983C21.8647 28.577 21.7593 28.5659 21.6442 28.55C21.5535 28.5378 21.48 28.4716 21.4003 28.4263C21.3575 28.4018 21.3231 28.3564 21.2754 28.3479C21.0781 28.316 20.9458 28.1616 20.762 28.1053C20.713 27.9974 20.604 27.9791 20.517 27.9288C20.4226 27.8761 20.3295 27.821 20.2437 27.7549C20.1065 27.6483 19.9754 27.5306 19.8419 27.4191C19.7916 27.3763 19.7463 27.3224 19.6875 27.2954C19.3003 27.1177 18.945 26.8886 18.5885 26.6595C18.5052 26.6056 18.4157 26.5603 18.3312 26.5076L17.9146 26.2331C17.7958 26.1572 17.6818 26.069 17.552 26.0126C17.2371 25.8742 16.9467 25.6977 16.6526 25.5225C16.4297 25.3902 16.2128 25.2542 16.0131 25.0888C15.9175 25.0104 15.8036 24.9552 15.6896 24.9062C15.5953 24.8658 15.5132 24.818 15.4556 24.7261C15.4042 24.6453 15.3319 24.6061 15.2228 24.6036C15.1346 24.6024 15.0587 24.5277 14.9876 24.4713C14.7989 24.3218 14.6151 24.1662 14.4289 24.0131C14.4093 23.9971 14.3885 23.9812 14.3652 23.9739C13.9694 23.8489 13.6411 23.6051 13.2931 23.3968C13.1008 23.2804 12.9035 23.1713 12.6977 23.077C12.558 23.0121 12.4453 22.914 12.3387 22.8062C12.2799 22.7474 12.2897 22.6776 12.3669 22.5943C12.4183 22.5391 12.4759 22.4889 12.5335 22.4436C12.5555 22.4264 12.5948 22.4129 12.6119 22.4227C12.7136 22.473 12.8459 22.4656 12.9096 22.5918C12.9868 22.7462 13.1204 22.8246 13.2821 22.8724C13.4107 22.9091 13.5259 22.9765 13.6668 22.99C13.7146 22.9949 13.7624 23.0243 13.7918 23.0611C13.9658 23.2804 14.1961 23.4078 14.4607 23.4801C14.5257 23.4985 14.5808 23.5291 14.6286 23.5818C14.7144 23.6737 14.8161 23.7472 14.9141 23.8256C14.9325 23.8403 14.9594 23.8513 14.9851 23.8501C15.1089 23.8428 15.2057 23.8795 15.2633 23.9922C15.2706 24.0069 15.2878 24.018 15.3037 24.0204C15.4899 24.0474 15.5977 24.2005 15.7435 24.2924C15.9114 24.399 16.0989 24.4713 16.2753 24.5644C16.3402 24.5987 16.3954 24.6514 16.4554 24.6943C16.5706 24.7776 16.6833 24.8609 16.7997 24.9418C16.8879 25.003 16.9871 25.052 17.0668 25.1256C17.1182 25.1746 17.1268 25.2848 17.1832 25.3204C17.2408 25.3559 17.3351 25.3302 17.4098 25.34C17.4417 25.3449 17.4699 25.3681 17.4931 25.3926C17.623 25.5286 17.786 25.6132 17.944 25.7051C18.0237 25.7504 18.0959 25.8068 18.1719 25.8582C18.3496 25.9795 18.5395 26.0861 18.7037 26.227C18.858 26.3606 19.0614 26.3936 19.2256 26.5051C19.3836 26.6117 19.5588 26.6914 19.7255 26.7869C19.8112 26.8359 19.8946 26.8923 19.9779 26.9462C20.2303 27.1067 20.4582 27.3064 20.7412 27.4167C20.7877 27.4351 20.8306 27.4633 20.8674 27.4976C20.9262 27.5527 20.9691 27.6299 21.0352 27.6703C21.0965 27.7071 21.1945 27.6862 21.2509 27.7291C21.4873 27.9056 21.7691 27.9974 22.0178 28.1445C22.231 28.2694 22.4748 28.3393 22.6635 28.5071C22.7236 28.561 22.8142 28.5721 22.8914 28.6039C22.9453 28.6272 23.009 28.6382 23.0482 28.6787C23.1683 28.8024 23.3215 28.8673 23.4709 28.9409C23.5457 28.9776 23.6241 29.0156 23.6768 29.0805C23.8005 29.2361 23.9831 29.2729 24.1607 29.3194C24.2171 29.3341 24.2869 29.3329 24.3274 29.3685C24.5246 29.5424 24.7917 29.5853 25.0049 29.725C25.1617 29.8279 25.3418 29.899 25.4656 30.057C25.506 30.1097 25.5783 30.1256 25.6322 30.1648C25.7057 30.2175 25.8074 30.2261 25.8466 30.3315C25.8552 30.3547 25.8797 30.3731 25.9018 30.378C26.2166 30.4381 26.496 30.5839 26.8219 30.6218C27.1074 30.6549 27.3622 30.7836 27.6171 30.9C27.6967 30.9367 27.7959 30.9294 27.8511 31.02C27.8682 31.0494 27.9295 31.0372 27.9687 31.0482C28.0655 31.0752 28.1831 31.0752 28.2505 31.1413C28.3632 31.2516 28.5078 31.2896 28.6426 31.3521C28.7712 31.4109 28.8962 31.4709 29.0126 31.5555C29.1522 31.6584 29.3201 31.7196 29.4745 31.7993C29.5112 31.8177 29.5504 31.8348 29.5798 31.8642C29.6423 31.9279 29.6436 32.0431 29.5847 32.1448C29.5578 32.1926 29.5235 32.2354 29.4904 32.2796C29.4046 32.391 29.3679 32.4057 29.2784 32.3616C29.2111 32.3286 29.1461 32.2906 29.08 32.255H29.0775V32.2563Z" fill="#111116"></path><path d="M24.0761 44.1397C23.8421 44.1336 23.6154 44.0552 23.3777 44.0564C23.069 44.0576 22.7614 44.0086 22.4539 43.9805C22.4331 43.978 22.4061 43.989 22.3927 43.978C22.2505 43.8555 22.0925 43.9204 21.9332 43.9192C21.6453 43.918 21.3647 44.0086 21.0743 43.967C20.7901 43.9265 20.5009 43.918 20.213 43.9008C20.0488 43.891 19.8834 43.8739 19.7217 43.8898C19.3296 43.9266 18.9425 43.8996 18.5529 43.8494C18.053 43.7832 17.5531 43.7268 17.0483 43.7023C16.4933 43.6717 15.9407 43.6153 15.3869 43.5676C15.3256 43.5614 15.2668 43.5382 15.2068 43.5235C15.1664 43.5137 15.1247 43.4867 15.088 43.4941C14.778 43.5602 14.5133 43.3446 14.2144 43.3544C14.098 43.2576 13.973 43.2845 13.8358 43.309C13.728 43.3286 13.6116 43.2919 13.4989 43.2772C13.4388 43.2698 13.3763 43.238 13.3188 43.2466C13.0798 43.2845 12.8544 43.1853 12.6192 43.1963C12.5101 43.1118 12.379 43.1326 12.2553 43.1155C12.1229 43.0983 11.9906 43.0787 11.862 43.0456C11.6537 42.9929 11.4479 42.9268 11.2408 42.8667C11.1624 42.8447 11.0852 42.8079 11.0056 42.803C10.4812 42.7687 9.96535 42.6744 9.45077 42.58C9.32947 42.558 9.20695 42.5457 9.08565 42.5237L8.4804 42.4061C8.30764 42.3742 8.13612 42.3301 7.96214 42.3215C7.53944 42.2982 7.12287 42.2284 6.70507 42.1622C6.38897 42.1132 6.07654 42.0569 5.76901 41.9662C5.62321 41.9233 5.46638 41.9099 5.31446 41.9025C5.18826 41.8964 5.07309 41.878 4.9616 41.8094C4.86358 41.7494 4.76311 41.7371 4.63814 41.7714C4.53767 41.7996 4.41638 41.7543 4.30856 41.7248C4.02186 41.6464 3.73761 41.5594 3.45214 41.4761C3.42273 41.4676 3.3921 41.459 3.36147 41.4602C2.85301 41.4725 2.36415 41.3499 1.86794 41.2678C1.59349 41.2213 1.31782 41.1821 1.0397 41.16C0.851017 41.1441 0.675812 41.089 0.501832 41.0204C0.407491 40.9836 0.382987 40.9138 0.42832 40.8084C0.45895 40.7386 0.499382 40.6724 0.542264 40.6099C0.558192 40.5854 0.596174 40.5609 0.620678 40.5633C0.760352 40.578 0.904927 40.5266 1.03847 40.6258C1.20143 40.7471 1.39133 40.7778 1.59595 40.7692C1.7589 40.7618 1.92308 40.7876 2.08848 40.7533C2.14484 40.741 2.21345 40.7533 2.26491 40.7802C2.56876 40.9309 2.89099 40.975 3.22547 40.9566C3.30756 40.9517 3.38475 40.964 3.46439 40.9971C3.60651 41.0559 3.75722 41.0914 3.90547 41.1331C3.93365 41.1416 3.96918 41.1429 3.99736 41.1331C4.13335 41.0853 4.262 41.0877 4.38207 41.176C4.398 41.187 4.4225 41.1931 4.44088 41.1894C4.6651 41.1527 4.86113 41.2617 5.07064 41.3009C5.31201 41.345 5.5595 41.3499 5.80454 41.3793C5.89521 41.3904 5.9822 41.421 6.07164 41.4418C6.24194 41.4823 6.41224 41.5239 6.58255 41.5607C6.71365 41.5888 6.84842 41.6011 6.97462 41.644C7.05671 41.6722 7.12042 41.7739 7.20251 41.7898C7.28459 41.8045 7.37771 41.7469 7.46838 41.7322C7.50636 41.7261 7.55046 41.7383 7.58845 41.7543C7.80163 41.8388 8.02707 41.8645 8.25128 41.8964C8.36278 41.9123 8.47305 41.9405 8.58454 41.9638C8.84551 42.0177 9.11138 42.0532 9.36623 42.1316C9.60637 42.2051 9.85263 42.1671 10.0928 42.2162C10.3243 42.2627 10.562 42.2774 10.796 42.3105C10.9173 42.3277 11.0386 42.3522 11.1599 42.3742C11.5238 42.4379 11.8804 42.5482 12.254 42.5543C12.3153 42.5543 12.3778 42.5666 12.4366 42.5862C12.5297 42.618 12.6167 42.6768 12.7123 42.6915C12.8005 42.705 12.8997 42.6511 12.9843 42.6719C13.3384 42.7552 13.7022 42.7442 14.0563 42.7969C14.359 42.8398 14.6689 42.8202 14.9667 42.9121C15.061 42.9415 15.17 42.9194 15.2717 42.9231C15.344 42.9256 15.4212 42.9145 15.4861 42.939C15.6834 43.0138 15.888 43.0199 16.0939 43.037C16.1955 43.0456 16.3046 43.053 16.3953 43.0971C16.6133 43.2 16.8363 43.1694 17.0605 43.151C17.1316 43.1449 17.2088 43.1179 17.2737 43.1375C17.5825 43.2306 17.9072 43.1767 18.2159 43.2319C18.4438 43.2723 18.6827 43.2747 18.9008 43.3801C18.9719 43.4144 19.0625 43.4046 19.1434 43.4218C19.2524 43.445 19.3725 43.4169 19.4681 43.5026C19.4889 43.521 19.5257 43.5296 19.5538 43.5259C19.9398 43.4708 20.3282 43.5063 20.7153 43.4254C21.0547 43.3544 21.4064 43.3838 21.7531 43.3997C21.8609 43.4046 21.97 43.363 22.0766 43.4279C22.1109 43.4487 22.1733 43.4156 22.2224 43.412C22.3449 43.4034 22.4784 43.3605 22.5875 43.3973C22.77 43.4597 22.9526 43.4426 23.1351 43.4524C23.3091 43.461 23.4806 43.4708 23.6546 43.5088C23.8641 43.5541 24.0834 43.5504 24.2979 43.5688C24.3481 43.5737 24.402 43.5749 24.4486 43.5908C24.5515 43.6276 24.6103 43.7354 24.5944 43.8518C24.587 43.9057 24.5699 43.9596 24.5539 44.0123C24.5123 44.1483 24.478 44.1753 24.3554 44.1667C24.2636 44.1593 24.1704 44.1483 24.0785 44.1397H24.0761Z" fill="#111116"></path><path d="M28.8911 56.1858C28.7037 56.2667 28.4942 56.2777 28.3067 56.3659C28.0641 56.4811 27.8019 56.5485 27.5483 56.6367C27.5311 56.6428 27.514 56.6624 27.4993 56.6575C27.3388 56.5975 27.2395 56.7151 27.1146 56.7727C26.8867 56.8768 26.7017 57.0643 26.4566 57.1329C26.2165 57.2003 25.9849 57.3007 25.7509 57.3914C25.6186 57.4429 25.4814 57.4894 25.3588 57.5629C25.0636 57.743 24.7487 57.8607 24.4216 57.9599C24.0013 58.0849 23.586 58.2197 23.178 58.3851C22.7295 58.5639 22.2713 58.7195 21.8168 58.8825C21.7665 58.8996 21.7102 58.9009 21.6575 58.9094C21.622 58.9156 21.5778 58.907 21.5521 58.9278C21.334 59.1043 21.0412 59.0062 20.8096 59.1275C20.6798 59.0822 20.5915 59.1545 20.4935 59.228C20.4163 59.2868 20.3097 59.2966 20.2154 59.326C20.1652 59.3419 20.1039 59.3358 20.0623 59.3664C19.8895 59.4914 19.6726 59.4853 19.4913 59.5833C19.3712 59.5466 19.2769 59.6152 19.1728 59.6458C19.0625 59.6789 18.9498 59.712 18.8358 59.7303C18.6508 59.7597 18.4634 59.7781 18.2771 59.8014C18.2073 59.81 18.1313 59.8063 18.0664 59.832C17.64 59.9987 17.1977 60.1077 16.7554 60.2167C16.6513 60.2425 16.5496 60.278 16.4454 60.3037L15.9235 60.4263C15.7752 60.463 15.6233 60.4875 15.4836 60.5451C15.1418 60.6848 14.7877 60.7803 14.4349 60.8784C14.1665 60.9531 13.8995 61.0217 13.6226 61.0572C13.4915 61.0744 13.3628 61.1222 13.2403 61.1736C13.1386 61.2165 13.0406 61.2435 12.9266 61.2239C12.8262 61.2067 12.7416 61.2337 12.6583 61.3133C12.5909 61.3782 12.477 61.3831 12.3814 61.3978C12.1253 61.4358 11.8681 61.4652 11.6108 61.4995C11.5838 61.5032 11.5568 61.5069 11.5336 61.5204C11.1403 61.7274 10.7078 61.8034 10.2863 61.9198C10.0523 61.9835 9.82073 62.0546 9.59529 62.1415C9.44091 62.2004 9.28164 62.2163 9.11868 62.2224C9.02924 62.2249 8.98391 62.171 8.97778 62.057C8.97411 61.981 8.97901 61.9051 8.98881 61.8316C8.99249 61.8034 9.01209 61.7666 9.03169 61.7593C9.14686 61.7188 9.23998 61.6159 9.38455 61.6551C9.55976 61.7029 9.72149 61.6588 9.87831 61.5718C10.0033 61.502 10.1417 61.4628 10.2581 61.3672C10.2973 61.3354 10.3561 61.3194 10.4076 61.3231C10.7053 61.3439 10.9749 61.2606 11.2297 61.1148C11.2922 61.0781 11.3571 61.0597 11.4331 61.0597C11.5679 61.0597 11.7002 61.034 11.8337 61.0156C11.8595 61.0119 11.8877 60.9997 11.906 60.98C11.9943 60.8833 12.0959 60.8367 12.2246 60.871C12.2417 60.8759 12.2626 60.871 12.276 60.8612C12.4366 60.7424 12.6338 60.7656 12.8139 60.7215C13.021 60.6701 13.217 60.5794 13.4204 60.5132C13.4951 60.4887 13.5772 60.4838 13.6556 60.4691C13.8051 60.441 13.9546 60.414 14.1041 60.3821C14.218 60.3589 14.3295 60.3172 14.4447 60.3099C14.5206 60.305 14.6113 60.3736 14.6811 60.3564C14.751 60.3393 14.8024 60.251 14.8674 60.202C14.8943 60.1812 14.9348 60.1763 14.9703 60.1763C15.1712 60.1726 15.3587 60.1101 15.5474 60.0538C15.6417 60.0256 15.7397 60.0097 15.8353 59.9889C16.0619 59.9386 16.2849 59.8712 16.5153 59.8455C16.7321 59.821 16.911 59.6936 17.1193 59.647C17.3202 59.6029 17.5126 59.5257 17.7099 59.4669C17.8128 59.4363 17.9169 59.4142 18.0211 59.3873C18.3323 59.3089 18.6569 59.2746 18.9534 59.1398C19.0024 59.1177 19.0564 59.1043 19.109 59.1006C19.1948 59.0945 19.2867 59.1153 19.3676 59.0932C19.4423 59.0724 19.4999 58.9854 19.5746 58.9719C19.8858 58.9156 20.1676 58.7685 20.4678 58.6828C20.7226 58.6093 20.9591 58.4745 21.2299 58.4475C21.3156 58.439 21.3928 58.3789 21.4749 58.3434C21.5325 58.3189 21.5889 58.2797 21.6501 58.2785C21.8351 58.2723 21.9981 58.2025 22.1672 58.1412C22.2505 58.1106 22.3399 58.0775 22.4281 58.0824C22.6401 58.0959 22.8043 57.9844 22.9734 57.8839C23.0273 57.8521 23.0775 57.7982 23.1363 57.7921C23.4169 57.7626 23.6509 57.5923 23.9155 57.5274C24.1116 57.4796 24.3003 57.3939 24.5147 57.4086C24.5845 57.4135 24.6519 57.3706 24.7217 57.3559C24.8161 57.3363 24.9006 57.2664 25.0097 57.3093C25.0329 57.3191 25.066 57.313 25.0868 57.2995C25.3686 57.1059 25.6896 56.9944 25.9629 56.7764C26.2018 56.5852 26.4909 56.4823 26.7715 56.3696C26.8585 56.3341 26.9283 56.2556 27.0386 56.2765C27.0741 56.2826 27.1097 56.2299 27.1476 56.2079C27.2408 56.1539 27.329 56.0657 27.4294 56.0596C27.5985 56.0498 27.7357 55.9665 27.884 55.9089C28.0249 55.8525 28.1646 55.7986 28.3165 55.7692C28.5003 55.7337 28.6718 55.6504 28.8482 55.5879C28.8899 55.5732 28.9328 55.5548 28.9757 55.5536C29.0712 55.5499 29.1607 55.6271 29.1937 55.7386C29.2097 55.7913 29.217 55.8464 29.2256 55.9003C29.2464 56.04 29.2305 56.078 29.13 56.1147C29.0541 56.1429 28.9769 56.1662 28.9009 56.1907L28.8911 56.1858Z" fill="#111116"></path><rect x="231" width="90" height="28" rx="14" fill="#EEEEF0"></rect><path d="M245.408 11.7464C245.369 11.3454 245.198 11.0339 244.896 10.8118C244.595 10.5897 244.185 10.4787 243.668 10.4787C243.317 10.4787 243.02 10.5284 242.778 10.6278C242.536 10.724 242.351 10.8582 242.222 11.0305C242.096 11.2029 242.033 11.3984 242.033 11.6172C242.026 11.7995 242.064 11.9586 242.147 12.0945C242.233 12.2304 242.351 12.348 242.5 12.4474C242.649 12.5436 242.821 12.6281 243.017 12.701C243.213 12.7706 243.421 12.8303 243.643 12.88L244.558 13.0987C245.002 13.1982 245.41 13.3307 245.781 13.4964C246.152 13.6622 246.474 13.866 246.746 14.108C247.018 14.3499 247.228 14.6349 247.377 14.9631C247.53 15.2912 247.607 15.6674 247.611 16.0916C247.607 16.7147 247.448 17.255 247.134 17.7124C246.822 18.1664 246.371 18.5194 245.781 18.7713C245.195 19.0199 244.487 19.1442 243.658 19.1442C242.836 19.1442 242.121 19.0182 241.511 18.7663C240.904 18.5144 240.43 18.1416 240.089 17.6477C239.751 17.1506 239.573 16.5357 239.557 15.8033H241.64C241.663 16.1446 241.761 16.4297 241.933 16.6584C242.109 16.8838 242.343 17.0545 242.634 17.1705C242.929 17.2831 243.262 17.3395 243.634 17.3395C243.998 17.3395 244.315 17.2865 244.583 17.1804C244.855 17.0743 245.065 16.9268 245.214 16.7379C245.364 16.549 245.438 16.3319 245.438 16.0866C245.438 15.858 245.37 15.6657 245.234 15.5099C245.102 15.3542 244.906 15.2216 244.648 15.1122C244.393 15.0028 244.079 14.9034 243.708 14.8139L242.599 14.5355C241.741 14.3267 241.063 14.0002 240.566 13.5561C240.069 13.112 239.822 12.5137 239.825 11.7614C239.822 11.1449 239.986 10.6063 240.317 10.1456C240.652 9.6849 241.111 9.32528 241.695 9.06676C242.278 8.80824 242.941 8.67898 243.683 8.67898C244.439 8.67898 245.098 8.80824 245.662 9.06676C246.229 9.32528 246.67 9.6849 246.984 10.1456C247.299 10.6063 247.462 11.1399 247.472 11.7464H245.408ZM253.081 11.3636V12.9545H248.482V11.3636H253.081ZM249.526 9.53409H251.644V16.6534C251.644 16.849 251.674 17.0014 251.733 17.1108C251.793 17.2169 251.876 17.2914 251.982 17.3345C252.091 17.3776 252.217 17.3991 252.36 17.3991C252.459 17.3991 252.559 17.3909 252.658 17.3743C252.758 17.3544 252.834 17.3395 252.887 17.3295L253.22 18.9055C253.114 18.9387 252.965 18.9768 252.773 19.0199C252.58 19.0663 252.347 19.0945 252.072 19.1044C251.561 19.1243 251.114 19.0563 250.729 18.9006C250.348 18.7448 250.051 18.5028 249.839 18.1747C249.627 17.8466 249.523 17.4323 249.526 16.9318V9.53409ZM257.858 19.1491C257.073 19.1491 256.397 18.9901 255.83 18.6719C255.267 18.3504 254.832 17.8963 254.528 17.3097C254.223 16.7197 254.07 16.022 254.07 15.2166C254.07 14.4311 254.223 13.7417 254.528 13.1484C254.832 12.5552 255.262 12.0928 255.815 11.7614C256.372 11.4299 257.025 11.2642 257.774 11.2642C258.278 11.2642 258.747 11.3454 259.181 11.5078C259.618 11.6669 260 11.9072 260.324 12.2287C260.653 12.5502 260.908 12.9545 261.09 13.4418C261.272 13.9257 261.363 14.4924 261.363 15.142V15.7237H254.915V14.4112H259.37C259.37 14.1063 259.304 13.8362 259.171 13.6009C259.038 13.3655 258.854 13.1816 258.619 13.049C258.387 12.9131 258.117 12.8452 257.809 12.8452C257.487 12.8452 257.202 12.9197 256.954 13.0689C256.708 13.2147 256.516 13.4119 256.377 13.6605C256.238 13.9058 256.166 14.1792 256.163 14.4808V15.7287C256.163 16.1065 256.233 16.433 256.372 16.7081C256.515 16.9832 256.715 17.1953 256.974 17.3445C257.232 17.4936 257.539 17.5682 257.893 17.5682C258.129 17.5682 258.344 17.535 258.54 17.4688C258.735 17.4025 258.903 17.303 259.042 17.1705C259.181 17.0379 259.287 16.8755 259.36 16.6832L261.319 16.8125C261.219 17.2831 261.015 17.6941 260.707 18.0455C260.402 18.3935 260.008 18.6652 259.524 18.8608C259.043 19.053 258.488 19.1491 257.858 19.1491ZM262.746 21.8636V11.3636H264.834V12.6463H264.928C265.021 12.4408 265.155 12.232 265.331 12.0199C265.51 11.8045 265.742 11.6255 266.027 11.483C266.315 11.3371 266.673 11.2642 267.101 11.2642C267.657 11.2642 268.171 11.41 268.642 11.7017C269.113 11.9901 269.489 12.4259 269.77 13.0092C270.052 13.5893 270.193 14.3168 270.193 15.1918C270.193 16.0436 270.055 16.7628 269.78 17.3494C269.509 17.9328 269.137 18.3752 268.667 18.6768C268.199 18.9751 267.676 19.1243 267.096 19.1243C266.685 19.1243 266.335 19.0563 266.047 18.9205C265.762 18.7846 265.528 18.6139 265.346 18.4084C265.163 18.1996 265.024 17.9891 264.928 17.777H264.863V21.8636H262.746ZM264.819 15.1818C264.819 15.6359 264.882 16.032 265.008 16.37C265.134 16.7081 265.316 16.9716 265.555 17.1605C265.793 17.3461 266.083 17.4389 266.425 17.4389C266.769 17.4389 267.061 17.3445 267.3 17.1555C267.538 16.9633 267.719 16.6982 267.841 16.3601C267.967 16.0187 268.03 15.6259 268.03 15.1818C268.03 14.741 267.969 14.3532 267.846 14.0185C267.724 13.6837 267.543 13.4219 267.305 13.233C267.066 13.044 266.773 12.9496 266.425 12.9496C266.08 12.9496 265.788 13.0407 265.55 13.223C265.314 13.4053 265.134 13.6638 265.008 13.9986C264.882 14.3333 264.819 14.7277 264.819 15.1818ZM278.544 19.1392C277.841 19.1392 277.215 19.0099 276.665 18.7514C276.118 18.4929 275.684 18.1366 275.362 17.6825C275.041 17.2285 274.873 16.7081 274.86 16.1214H276.948C276.971 16.5159 277.137 16.8357 277.445 17.081C277.754 17.3262 278.12 17.4489 278.544 17.4489C278.882 17.4489 279.18 17.3743 279.439 17.2251C279.701 17.0727 279.905 16.8622 280.05 16.5938C280.2 16.322 280.274 16.0104 280.274 15.6591C280.274 15.3011 280.198 14.9863 280.045 14.7145C279.896 14.4427 279.689 14.2306 279.424 14.0781C279.159 13.9257 278.856 13.8478 278.514 13.8445C278.216 13.8445 277.926 13.9058 277.644 14.0284C277.366 14.151 277.149 14.3184 276.993 14.5305L275.079 14.1875L275.561 8.81818H281.786V10.5781H277.336L277.072 13.1286H277.132C277.311 12.8767 277.581 12.6679 277.942 12.5021C278.304 12.3364 278.708 12.2536 279.156 12.2536C279.769 12.2536 280.316 12.3977 280.796 12.6861C281.277 12.9744 281.656 13.3705 281.935 13.8743C282.213 14.3748 282.351 14.9515 282.347 15.6044C282.351 16.2905 282.192 16.9003 281.87 17.4339C281.552 17.9643 281.106 18.3819 280.533 18.6868C279.963 18.9884 279.3 19.1392 278.544 19.1392ZM290.559 19.1491C289.787 19.1491 289.119 18.9851 288.556 18.657C287.995 18.3255 287.563 17.8648 287.258 17.2749C286.953 16.6816 286.801 15.9938 286.801 15.2116C286.801 14.4228 286.953 13.7334 287.258 13.1435C287.563 12.5502 287.995 12.0895 288.556 11.7614C289.119 11.4299 289.787 11.2642 290.559 11.2642C291.331 11.2642 291.998 11.4299 292.558 11.7614C293.121 12.0895 293.555 12.5502 293.86 13.1435C294.165 13.7334 294.318 14.4228 294.318 15.2116C294.318 15.9938 294.165 16.6816 293.86 17.2749C293.555 17.8648 293.121 18.3255 292.558 18.657C291.998 18.9851 291.331 19.1491 290.559 19.1491ZM290.569 17.5085C290.92 17.5085 291.214 17.4091 291.449 17.2102C291.684 17.008 291.862 16.733 291.981 16.3849C292.104 16.0369 292.165 15.6409 292.165 15.1967C292.165 14.7526 292.104 14.3565 291.981 14.0085C291.862 13.6605 291.684 13.3854 291.449 13.1832C291.214 12.9811 290.92 12.88 290.569 12.88C290.214 12.88 289.916 12.9811 289.674 13.1832C289.436 13.3854 289.255 13.6605 289.132 14.0085C289.013 14.3565 288.953 14.7526 288.953 15.1967C288.953 15.6409 289.013 16.0369 289.132 16.3849C289.255 16.733 289.436 17.008 289.674 17.2102C289.916 17.4091 290.214 17.5085 290.569 17.5085ZM299.801 11.3636V12.9545H295.088V11.3636H299.801ZM296.167 19V10.8118C296.167 10.2583 296.275 9.79924 296.49 9.43466C296.709 9.07008 297.007 8.79664 297.385 8.61435C297.763 8.43205 298.192 8.34091 298.673 8.34091C298.998 8.34091 299.294 8.36577 299.563 8.41548C299.834 8.4652 300.037 8.50994 300.169 8.54972L299.791 10.1406C299.709 10.1141 299.606 10.0893 299.483 10.0661C299.364 10.0429 299.241 10.0312 299.115 10.0312C298.804 10.0312 298.587 10.1042 298.464 10.25C298.341 10.3925 298.28 10.593 298.28 10.8516V19H296.167ZM308.034 19.1392C307.332 19.1392 306.705 19.0099 306.155 18.7514C305.608 18.4929 305.174 18.1366 304.852 17.6825C304.531 17.2285 304.364 16.7081 304.35 16.1214H306.438C306.462 16.5159 306.627 16.8357 306.936 17.081C307.244 17.3262 307.61 17.4489 308.034 17.4489C308.372 17.4489 308.671 17.3743 308.929 17.2251C309.191 17.0727 309.395 16.8622 309.541 16.5938C309.69 16.322 309.764 16.0104 309.764 15.6591C309.764 15.3011 309.688 14.9863 309.536 14.7145C309.387 14.4427 309.179 14.2306 308.914 14.0781C308.649 13.9257 308.346 13.8478 308.004 13.8445C307.706 13.8445 307.416 13.9058 307.134 14.0284C306.856 14.151 306.639 14.3184 306.483 14.5305L304.569 14.1875L305.051 8.81818H311.276V10.5781H306.826L306.563 13.1286H306.622C306.801 12.8767 307.071 12.6679 307.433 12.5021C307.794 12.3364 308.198 12.2536 308.646 12.2536C309.259 12.2536 309.806 12.3977 310.286 12.6861C310.767 12.9744 311.146 13.3705 311.425 13.8743C311.703 14.3748 311.841 14.9515 311.838 15.6044C311.841 16.2905 311.682 16.9003 311.36 17.4339C311.042 17.9643 310.596 18.3819 310.023 18.6868C309.453 18.9884 308.79 19.1392 308.034 19.1392Z" fill="#111116"></path></svg> 