<?xml version="1.0" encoding="UTF-8"?> <svg xmlns="http://www.w3.org/2000/svg" width="318" height="105" viewBox="0 0 318 105" fill="none"><path d="M14.061 9.81316C34.1157 -6.2952 62.2161 1.6616 72.1925 4.32301C82.1702 6.98312 91.0159 14.8432 100.974 28.4378C114.943 47.5057 96.0956 92.0713 86.5623 93.8451C77.0291 95.619 48.2045 102.935 27.3628 98.7235C6.52247 94.5105 1.8663 86.972 0.314679 74.112C-1.23694 61.252 3.41923 58.8128 4.08328 45.5109C4.74863 32.2077 0.535592 20.6784 14.061 9.81447V9.81316Z" fill="#FFF0E1"></path><path d="M12.7383 85.221H64.3705L70.5339 16.1562H18.9016L12.7383 85.221Z" fill="#136F65"></path><path d="M9.83594 82.2914H61.4669L67.1779 13.2266H15.547L9.83594 82.2914Z" fill="white"></path><path d="M20.1907 25.0471C20.5502 25.0628 20.9083 25.0223 21.273 25.0432C21.7449 25.0706 22.2234 25.0628 22.6992 25.068C22.7305 25.068 22.7711 25.0798 22.792 25.0719C23.0299 24.9883 23.2599 25.0536 23.5031 25.0693C23.9436 25.0942 24.3567 25.1948 24.8076 25.1896C25.2495 25.1857 25.6926 25.2079 26.1344 25.2223C26.3867 25.2314 26.6416 25.234 26.8861 25.2641C27.4769 25.3347 28.0743 25.353 28.6756 25.353C29.4494 25.353 30.2246 25.3634 30.9971 25.3987C31.8494 25.4366 32.703 25.4549 33.554 25.4785C33.6468 25.4811 33.7422 25.4693 33.8376 25.4641C33.9004 25.4615 33.971 25.4445 34.0246 25.4549C34.4821 25.5438 34.9291 25.404 35.3827 25.4458C35.5814 25.3817 35.767 25.4183 35.9683 25.4549C36.1291 25.485 36.3134 25.468 36.4873 25.4706C36.5801 25.4706 36.6821 25.4549 36.767 25.4693C37.1213 25.5281 37.4873 25.4785 37.8428 25.5151C38.0271 25.4602 38.2232 25.4929 38.4154 25.4955C38.6193 25.4981 38.8258 25.4994 39.0298 25.4889C39.3592 25.4732 39.686 25.4471 40.0141 25.4262C40.1395 25.4183 40.2637 25.4 40.3866 25.4053C41.1905 25.4445 41.9957 25.438 42.801 25.4301C42.9905 25.4288 43.1787 25.4366 43.3696 25.434C43.6859 25.4327 44.001 25.4249 44.316 25.4223C44.5853 25.421 44.8558 25.4092 45.1225 25.4249C45.7696 25.4641 46.4179 25.468 47.0676 25.4732C47.5591 25.4772 48.0467 25.4798 48.5356 25.451C48.7682 25.438 49.0074 25.451 49.2414 25.4654C49.4336 25.4785 49.614 25.4811 49.7996 25.4432C49.963 25.4092 50.1199 25.4157 50.2976 25.4615C50.4414 25.4981 50.6375 25.4811 50.81 25.4732C51.2663 25.4536 51.7198 25.4275 52.1734 25.404C52.2205 25.4014 52.2702 25.4 52.3159 25.404C53.0793 25.4915 53.8545 25.4693 54.627 25.4811C55.0545 25.4876 55.4819 25.5007 55.908 25.5255C56.1982 25.5438 56.478 25.5255 56.7603 25.5007C56.9133 25.4863 56.9695 25.4353 56.9329 25.3465C56.908 25.2863 56.8662 25.2288 56.8205 25.1726C56.8035 25.1517 56.7538 25.1255 56.7146 25.1242C56.5002 25.1138 56.2937 25.051 56.0649 25.1085C55.7839 25.1778 55.4871 25.1739 55.1799 25.1334C54.9355 25.102 54.6806 25.0968 54.4414 25.0445C54.3603 25.0262 54.2518 25.0249 54.1669 25.038C53.6636 25.1099 53.1643 25.0968 52.6636 25.0301C52.5407 25.0144 52.4205 25.0105 52.2911 25.0262C52.0584 25.051 51.8218 25.0576 51.5839 25.0693C51.5381 25.0706 51.4859 25.068 51.4453 25.0563C51.2519 24.9987 51.0584 24.9804 50.8519 25.0327C50.8257 25.0406 50.7865 25.0406 50.7591 25.034C50.4297 24.9726 50.1029 25.0275 49.7735 25.0275C49.3957 25.0275 49.0179 24.9961 48.6401 24.9844C48.499 24.9804 48.3591 24.9922 48.2179 24.9961C47.9486 25.004 47.6807 25.0105 47.4114 25.017C47.2048 25.021 46.9957 25.0105 46.7957 25.0288C46.6637 25.0406 46.5408 25.1112 46.4114 25.1112C46.282 25.1112 46.1565 25.0536 46.0218 25.0288C45.9656 25.0183 45.8951 25.0223 45.8336 25.0288C45.4872 25.0654 45.1382 25.0549 44.7905 25.0497C44.6166 25.0471 44.4415 25.0536 44.2676 25.0589C43.8572 25.0667 43.4441 25.0589 43.0389 25.0863C42.6572 25.1125 42.2912 25.051 41.9147 25.0589C41.5526 25.0667 41.1866 25.0471 40.8232 25.0432C40.6337 25.0406 40.4454 25.0445 40.2546 25.0458C39.686 25.0497 39.1173 25.0929 38.5474 25.0497C38.4546 25.0419 38.3552 25.0432 38.2624 25.0523C38.1134 25.0654 37.967 25.102 37.8206 25.102C37.6834 25.102 37.5448 25.0471 37.4102 25.0536C36.852 25.0772 36.3017 25.0236 35.7487 25.0223C35.2795 25.0223 34.8102 24.9687 34.337 25.0079C34.188 25.0197 34.0259 24.9896 33.8703 24.9817C33.7618 24.9752 33.6455 24.9582 33.5409 24.97C33.2246 25.0066 32.9108 24.9896 32.5945 24.9791C32.4376 24.9752 32.269 24.9687 32.1226 24.9922C31.7684 25.0497 31.4363 25 31.0965 24.9595C30.9893 24.9465 30.8769 24.9177 30.7749 24.9255C30.2834 24.9674 29.7998 24.8889 29.3174 24.8994C28.9619 24.9072 28.5958 24.8837 28.2416 24.9451C28.1253 24.9661 27.9893 24.9478 27.8638 24.953C27.6926 24.9608 27.5148 24.9255 27.3514 24.9844C27.3161 24.9961 27.2586 25 27.2155 24.9948C26.6364 24.9112 26.0364 24.9007 25.4573 24.7974C24.9501 24.7072 24.4063 24.6942 23.873 24.6746C23.707 24.668 23.5475 24.6249 23.3711 24.6654C23.3148 24.6785 23.2246 24.6458 23.1488 24.6393C22.9619 24.6197 22.7645 24.5726 22.5933 24.5922C22.3031 24.6249 22.026 24.5935 21.7449 24.5844C21.4756 24.5752 21.2116 24.5687 20.941 24.5818C20.6116 24.5974 20.277 24.5752 19.9449 24.5713C19.8652 24.5713 19.7842 24.5674 19.7096 24.5752C19.5462 24.5961 19.4391 24.6759 19.4456 24.77C19.4495 24.8144 19.4665 24.8589 19.4822 24.9007C19.524 25.0131 19.5724 25.038 19.7619 25.0406C19.9044 25.0432 20.0469 25.0419 20.1894 25.0432V25.0458L20.1907 25.0471Z" fill="#111116"></path><path d="M19.7844 30.8739C20.1439 30.8896 20.5021 30.8491 20.8668 30.87C21.3387 30.8975 21.8171 30.8896 22.2929 30.8948C22.3243 30.8948 22.3648 30.9066 22.3857 30.8988C22.6236 30.8151 22.8537 30.8805 23.0968 30.8961C23.5373 30.921 23.9504 31.0216 24.4014 31.0177C24.8432 31.0138 25.2864 31.036 25.7282 31.0504C25.9805 31.0595 26.2354 31.0622 26.4798 31.0922C27.0707 31.1628 27.668 31.1811 28.2693 31.1811C29.0432 31.1811 29.8183 31.1916 30.5909 31.2269C31.4432 31.2648 32.2968 31.2831 33.1477 31.3066C33.2405 31.3092 33.336 31.2974 33.4314 31.2922C33.4941 31.2896 33.5647 31.2726 33.6183 31.2831C34.0758 31.372 34.5229 31.2321 34.9765 31.2739C35.1752 31.2099 35.3608 31.2465 35.5621 31.2831C35.7229 31.3131 35.9072 31.2961 36.081 31.2988C36.1738 31.2988 36.2758 31.2831 36.3608 31.2975C36.715 31.3563 37.081 31.3066 37.4366 31.3432C37.6209 31.2883 37.817 31.321 38.0091 31.3236C38.213 31.3262 38.4196 31.3275 38.6235 31.3171C38.9529 31.3014 39.2797 31.2752 39.6078 31.2543C39.7333 31.2465 39.8575 31.2282 39.9803 31.2334C40.7843 31.2726 41.5895 31.2661 42.3947 31.2582C42.5842 31.2569 42.7725 31.2648 42.9633 31.2622C43.2797 31.2608 43.5947 31.253 43.9097 31.2504C44.179 31.2491 44.4496 31.2373 44.7163 31.253C45.3633 31.2922 46.0117 31.2961 46.6613 31.3014C47.1528 31.3053 47.6404 31.3079 48.1293 31.2791C48.362 31.2661 48.6012 31.2791 48.8352 31.2935C49.0273 31.3066 49.2077 31.3092 49.3933 31.2713C49.5567 31.2373 49.7136 31.2439 49.8914 31.2896C50.0352 31.3262 50.2312 31.3092 50.4038 31.3014C50.86 31.2818 51.3136 31.2556 51.7672 31.2321C51.8142 31.2295 51.8639 31.2282 51.9097 31.2321C52.6731 31.3197 53.4482 31.2974 54.2208 31.3092C54.6482 31.3158 55.0756 31.3288 55.5018 31.3537C55.792 31.372 56.0717 31.3537 56.3541 31.3288C56.507 31.3144 56.5632 31.2635 56.5266 31.1746C56.5018 31.1144 56.4599 31.0569 56.4142 31.0007C56.3972 30.9798 56.3475 30.9537 56.3083 30.9524C56.0939 30.9419 55.8874 30.8792 55.6586 30.9367C55.3776 31.0059 55.0809 31.002 54.7737 30.9615C54.5292 30.9301 54.2743 30.9249 54.0351 30.8726C53.9541 30.8543 53.8456 30.853 53.7606 30.8661C53.2574 30.938 52.758 30.9249 52.2574 30.8582C52.1345 30.8426 52.0142 30.8386 51.8848 30.8543C51.6521 30.8792 51.4156 30.8857 51.1776 30.8975C51.1319 30.8988 51.0796 30.8961 51.0391 30.8844C50.8456 30.8269 50.6522 30.8086 50.4456 30.8609C50.4195 30.8687 50.3803 30.8687 50.3528 30.8622C50.0234 30.8007 49.6966 30.8556 49.3672 30.8556C48.9894 30.8556 48.6117 30.8243 48.2339 30.8125C48.0927 30.8086 47.9528 30.8203 47.8117 30.8243C47.5424 30.8321 47.2744 30.8386 47.0051 30.8452C46.7986 30.8491 46.5894 30.8386 46.3894 30.8569C46.2574 30.8687 46.1345 30.9393 46.0051 30.9393C45.8757 30.9393 45.7502 30.8818 45.6156 30.8569C45.5594 30.8465 45.4888 30.8504 45.4274 30.8569C45.081 30.8935 44.7319 30.8831 44.3842 30.8778C44.2104 30.8752 44.0352 30.8818 43.8614 30.887C43.4509 30.8948 43.0378 30.887 42.6326 30.9144C42.2509 30.9406 41.8849 30.8792 41.5084 30.887C41.1464 30.8948 40.7803 30.8752 40.4169 30.8713C40.2274 30.8687 40.0392 30.8726 39.8483 30.8739C39.2797 30.8778 38.7111 30.921 38.1411 30.8778C38.0483 30.87 37.949 30.8713 37.8562 30.8805C37.7072 30.8935 37.5608 30.9301 37.4144 30.9301C37.2771 30.9301 37.1385 30.8752 37.0039 30.8818C36.4457 30.9053 35.8954 30.8517 35.3425 30.8504C34.8732 30.8504 34.4039 30.7968 33.9307 30.836C33.7817 30.8478 33.6196 30.8177 33.4641 30.8099C33.3556 30.8033 33.2392 30.7863 33.1347 30.7981C32.8183 30.8347 32.5046 30.8177 32.1883 30.8073C32.0314 30.8033 31.8628 30.7968 31.7164 30.8203C31.3621 30.8778 31.0301 30.8282 30.6902 30.7876C30.583 30.7746 30.4706 30.7458 30.3687 30.7537C29.8772 30.7955 29.3935 30.7171 28.9112 30.7275C28.5556 30.7354 28.1896 30.7118 27.8354 30.7733C27.719 30.7942 27.5831 30.7759 27.4576 30.7811C27.2863 30.789 27.1086 30.7537 26.9452 30.8125C26.9099 30.8243 26.8524 30.8282 26.8092 30.8229C26.2301 30.7393 25.6301 30.7288 25.0511 30.6256C24.5439 30.5354 24.0001 30.5223 23.4668 30.5027C23.3007 30.4961 23.1413 30.453 22.9648 30.4935C22.9086 30.5066 22.8184 30.4739 22.7426 30.4674C22.5557 30.4478 22.3583 30.4007 22.187 30.4203C21.8968 30.453 21.6197 30.4216 21.3387 30.4125C21.0694 30.4033 20.8053 30.3968 20.5348 30.4099C20.2053 30.4256 19.8707 30.4033 19.5387 30.3994C19.459 30.3994 19.3779 30.3955 19.3034 30.4033C19.14 30.4243 19.0328 30.504 19.0393 30.5981C19.0433 30.6426 19.0603 30.687 19.0759 30.7288C19.1178 30.8412 19.1661 30.8661 19.3557 30.8687C19.4982 30.8713 19.6406 30.87 19.7831 30.8713V30.8739H19.7844Z" fill="#111116"></path><path d="M19.343 36.8284C19.7025 36.844 20.0607 36.8035 20.4254 36.8244C20.8973 36.8519 21.3757 36.844 21.8515 36.8493C21.8829 36.8493 21.9234 36.861 21.9443 36.8532C22.1822 36.7695 22.4123 36.8349 22.6554 36.8506C23.0959 36.8754 23.509 36.9761 23.96 36.9708C24.4018 36.9669 24.8449 36.9891 25.2868 37.0035C25.5391 37.0127 25.794 37.0153 26.0384 37.0454C26.6292 37.1159 27.2266 37.1342 27.8279 37.1342C28.6018 37.1342 29.3769 37.1447 30.1495 37.18C31.0018 37.2179 31.8553 37.2362 32.7063 37.2597C32.7991 37.2623 32.8946 37.2506 32.99 37.2453C33.0527 37.2427 33.1233 37.2257 33.1769 37.2362C33.6344 37.3251 34.0815 37.1852 34.5351 37.227C34.7338 37.163 34.9194 37.1996 35.1207 37.2362C35.2815 37.2663 35.4658 37.2493 35.6396 37.2519C35.7324 37.2519 35.8344 37.2362 35.9194 37.2506C36.2736 37.3094 36.6396 37.2597 36.9952 37.2963C37.1795 37.2414 37.3756 37.2741 37.5677 37.2767C37.7716 37.2793 37.9782 37.2806 38.1821 37.2702C38.5115 37.2545 38.8383 37.2284 39.1664 37.2074C39.2919 37.1996 39.4161 37.1813 39.5389 37.1865C40.3429 37.2257 41.1481 37.2192 41.9533 37.2114C42.1428 37.2101 42.3311 37.2179 42.5219 37.2153C42.8383 37.214 43.1533 37.2061 43.4683 37.2035C43.7376 37.2022 44.0082 37.1904 44.2749 37.2061C44.9219 37.2453 45.5703 37.2493 46.2199 37.2545C46.7114 37.2584 47.199 37.261 47.6879 37.2323C47.9206 37.2192 48.1598 37.2323 48.3938 37.2467C48.5859 37.2597 48.7663 37.2623 48.9519 37.2244C49.1153 37.1904 49.2722 37.197 49.45 37.2427C49.5938 37.2793 49.7898 37.2623 49.9624 37.2545C50.4186 37.2349 50.8722 37.2087 51.3258 37.1852C51.3728 37.1826 51.4225 37.1813 51.4683 37.1852C52.2317 37.2728 53.0068 37.2506 53.7794 37.2623C54.2068 37.2689 54.6342 37.2819 55.0604 37.3068C55.3506 37.3251 55.6303 37.3068 55.9127 37.2819C56.0656 37.2676 56.1218 37.2166 56.0852 37.1277C56.0604 37.0676 56.0185 37.0101 55.9728 36.9538C55.9558 36.9329 55.9061 36.9068 55.8669 36.9055C55.6525 36.895 55.446 36.8323 55.2172 36.8898C54.9362 36.9591 54.6395 36.9552 54.3323 36.9146C54.0878 36.8833 53.8329 36.878 53.5937 36.8257C53.5127 36.8074 53.4042 36.8061 53.3192 36.8192C52.816 36.8911 52.3166 36.878 51.816 36.8114C51.6931 36.7957 51.5728 36.7918 51.4434 36.8074C51.2107 36.8323 50.9741 36.8388 50.7362 36.8506C50.6905 36.8519 50.6382 36.8493 50.5977 36.8375C50.4042 36.78 50.2108 36.7617 50.0042 36.814C49.9781 36.8218 49.9389 36.8218 49.9114 36.8153C49.582 36.7538 49.2552 36.8088 48.9258 36.8088C48.548 36.8088 48.1702 36.7774 47.7925 36.7656C47.6513 36.7617 47.5114 36.7735 47.3703 36.7774C47.101 36.7852 46.833 36.7918 46.5637 36.7983C46.3572 36.8022 46.148 36.7918 45.948 36.8101C45.816 36.8218 45.6931 36.8924 45.5637 36.8924C45.4356 36.8924 45.3088 36.8349 45.1742 36.8101C45.118 36.7996 45.0474 36.8035 44.986 36.8101C44.6396 36.8467 44.2905 36.8362 43.9428 36.831C43.769 36.8284 43.5938 36.8349 43.42 36.8401C43.0095 36.848 42.5964 36.8401 42.1912 36.8676C41.8095 36.8937 41.4435 36.8323 41.067 36.8401C40.7049 36.848 40.3389 36.8284 39.9755 36.8244C39.786 36.8218 39.5978 36.8257 39.4069 36.827C38.8383 36.831 38.2697 36.8741 37.6997 36.831C37.6069 36.8231 37.5076 36.8244 37.4148 36.8336C37.2658 36.8467 37.1194 36.8833 36.973 36.8833C36.8357 36.8833 36.6971 36.8284 36.5625 36.8349C36.0043 36.8584 35.454 36.8048 34.9011 36.8035C34.4318 36.8035 33.9625 36.7499 33.4893 36.7891C33.3403 36.8009 33.1782 36.7708 33.0227 36.763C32.9142 36.7565 32.7978 36.7395 32.6932 36.7512C32.3769 36.7878 32.0632 36.7708 31.7469 36.7604C31.59 36.7565 31.4214 36.7499 31.275 36.7735C30.9207 36.831 30.5887 36.7813 30.2488 36.7408C30.1416 36.7277 30.0292 36.6989 29.9273 36.7068C29.4358 36.7486 28.9521 36.6702 28.4698 36.6806C28.1142 36.6885 27.7482 36.665 27.3939 36.7264C27.2776 36.7473 27.1417 36.729 27.0162 36.7342C26.8449 36.7421 26.6672 36.7068 26.5038 36.7656C26.4685 36.7774 26.4109 36.7813 26.3678 36.7761C25.7887 36.6924 25.1887 36.682 24.6097 36.5787C24.1025 36.4885 23.5587 36.4754 23.0254 36.4558C22.8593 36.4493 22.6999 36.4061 22.5234 36.4467C22.4672 36.4597 22.377 36.4271 22.3012 36.4205C22.1143 36.4009 21.9169 36.3539 21.7456 36.3735C21.4554 36.4061 21.1783 36.3748 20.8973 36.3656C20.628 36.3565 20.3639 36.3499 20.0934 36.363C19.7639 36.3787 19.4293 36.3565 19.0973 36.3525C19.0175 36.3525 18.9365 36.3486 18.862 36.3565C18.6986 36.3774 18.5914 36.4571 18.5979 36.5512C18.6019 36.5957 18.6189 36.6401 18.6345 36.682C18.6764 36.7944 18.7247 36.8192 18.9143 36.8218C19.0568 36.8244 19.1992 36.8231 19.3417 36.8244V36.827L19.343 36.8284Z" fill="#111116"></path><path d="M25.7671 74.0237C26.0677 74.0394 26.3684 73.9988 26.6742 74.0197C27.069 74.0472 27.4703 74.0394 27.869 74.0446C27.8952 74.0446 27.9291 74.0563 27.9474 74.0485C28.1461 73.9648 28.3396 74.0302 28.5435 74.0459C28.9121 74.0707 29.2585 74.1714 29.6363 74.1675C30.0062 74.1635 30.3775 74.1858 30.7487 74.2001C30.9592 74.2093 31.1736 74.2119 31.3788 74.242C31.8742 74.3126 32.3735 74.3309 32.8781 74.3309C33.5265 74.3309 34.1761 74.3413 34.8232 74.3766C35.5369 74.4145 36.2519 74.4328 36.9657 74.4563C37.0441 74.459 37.1238 74.4472 37.2036 74.442C37.2572 74.4393 37.316 74.4224 37.3604 74.4328C37.7434 74.5217 38.1186 74.3818 38.499 74.4237C38.665 74.3609 38.8206 74.3962 38.9905 74.4328C39.1251 74.4629 39.2794 74.4459 39.4258 74.4485C39.5042 74.4485 39.5892 74.4328 39.6598 74.4472C39.9565 74.506 40.2624 74.4563 40.5604 74.4929C40.7147 74.438 40.8794 74.4707 41.0401 74.4733C41.2114 74.4759 41.3839 74.4773 41.5552 74.4668C41.831 74.4511 42.1055 74.425 42.38 74.4027C42.4846 74.3949 42.5891 74.3766 42.6924 74.3818C43.3669 74.4211 44.0401 74.4145 44.7159 74.4067C44.8754 74.4054 45.0336 74.4132 45.1917 74.4106C45.4571 74.4093 45.7211 74.4014 45.9852 74.3988C46.2113 74.3975 46.4375 74.3858 46.661 74.4014C47.2035 74.4407 47.746 74.4446 48.2898 74.4498C48.7015 74.4537 49.1094 74.4563 49.5198 74.4276C49.7146 74.4145 49.9146 74.4276 50.1107 74.442C50.2714 74.455 50.4231 74.4577 50.5786 74.4197C50.7159 74.3858 50.8466 74.3923 50.9956 74.438C51.1172 74.4746 51.2806 74.4576 51.4244 74.4498C51.8061 74.4302 52.1865 74.4041 52.5668 74.3805C52.6061 74.3779 52.6479 74.3766 52.6858 74.3805C53.3263 74.4681 53.9747 74.4459 54.6217 74.4576C54.9799 74.4642 55.3381 74.4773 55.6949 74.5021C55.9381 74.5204 56.172 74.5021 56.4086 74.4773C56.5367 74.4629 56.5838 74.4119 56.5537 74.323C56.5328 74.2629 56.4975 74.2054 56.4596 74.1492C56.4452 74.1282 56.4034 74.1021 56.3707 74.1008C56.1903 74.0903 56.0178 74.0276 55.8269 74.0851C55.5917 74.1544 55.3433 74.1505 55.0858 74.1099C54.8805 74.0786 54.6675 74.0733 54.4662 74.0211C54.3982 74.0028 54.3067 74.0014 54.2361 74.0145C53.8139 74.0864 53.3956 74.0733 52.9773 74.0067C52.874 73.991 52.7734 73.9871 52.6649 74.0028C52.4701 74.0276 52.2714 74.0341 52.0727 74.0459C52.0348 74.0472 51.9904 74.0446 51.9564 74.0328C51.7943 73.9753 51.6322 73.957 51.4597 74.0093C51.4374 74.0171 51.4048 74.0171 51.3812 74.0106C51.1054 73.9492 50.8309 74.0041 50.5551 74.0041C50.2374 74.0041 49.9224 73.9727 49.6061 73.9609C49.4884 73.957 49.3708 73.9688 49.2518 73.9727C49.0257 73.9805 48.8022 73.9871 48.576 73.9936C48.4035 73.9975 48.2283 73.9884 48.0597 74.0054C47.9486 74.0171 47.8453 74.0877 47.7381 74.0877C47.6309 74.0877 47.5237 74.0302 47.4126 74.0054C47.3656 73.9949 47.3068 73.9988 47.2545 74.0054C46.9643 74.042 46.6715 74.0315 46.38 74.0263C46.2336 74.0237 46.0885 74.0302 45.9421 74.0354C45.5983 74.0433 45.2519 74.0354 44.9133 74.0629C44.5931 74.089 44.2872 74.0276 43.9708 74.0354C43.6676 74.0433 43.3604 74.0237 43.0571 74.0197C42.8976 74.0171 42.7395 74.0211 42.5813 74.0224C42.1055 74.0263 41.6284 74.0694 41.1513 74.0263C41.0728 74.0184 40.9905 74.0197 40.912 74.0289C40.7865 74.042 40.6637 74.0786 40.5421 74.0786C40.4271 74.0786 40.3107 74.0237 40.1983 74.0302C39.7303 74.0537 39.2689 74.0001 38.8062 73.9988C38.4127 73.9988 38.0206 73.9452 37.6232 73.9845C37.4977 73.9962 37.3617 73.9661 37.2323 73.9583C37.1408 73.9531 37.0441 73.9348 36.9565 73.9465C36.6912 73.9831 36.4284 73.9662 36.1631 73.9557C36.0323 73.9518 35.8899 73.9452 35.7683 73.9688C35.4716 74.0263 35.1931 73.9766 34.9082 73.9361C34.818 73.923 34.7239 73.8943 34.6389 73.9021C34.2271 73.9439 33.8219 73.8655 33.418 73.876C33.1199 73.8838 32.8141 73.8603 32.5173 73.9217C32.4206 73.9426 32.3069 73.9243 32.1997 73.9296C32.0572 73.9374 31.9082 73.9021 31.7709 73.9609C31.7409 73.9727 31.6925 73.9766 31.6572 73.9714C31.1722 73.8877 30.669 73.8773 30.184 73.774C29.7592 73.6838 29.3043 73.6707 28.8572 73.6511C28.7187 73.6446 28.584 73.6014 28.4376 73.642C28.3906 73.655 28.3148 73.6224 28.252 73.6158C28.0952 73.5962 27.9304 73.5492 27.7867 73.5688C27.5435 73.6014 27.3122 73.5701 27.0756 73.5609C26.8494 73.5518 26.6285 73.5452 26.401 73.5583C26.1252 73.574 25.8455 73.5518 25.5671 73.5479C25.5004 73.5479 25.4324 73.5439 25.3697 73.5518C25.2324 73.5727 25.1422 73.6524 25.1488 73.7465C25.1514 73.791 25.1671 73.8354 25.1801 73.8773C25.2154 73.9897 25.256 74.0145 25.4141 74.0171C25.5331 74.0197 25.6533 74.0184 25.7723 74.0197V74.0224L25.7671 74.0237Z" fill="#111116"></path><path d="M54.1527 66.689C53.7606 67.2537 53.3096 67.77 52.8626 68.302C52.2835 68.9935 51.5998 69.6197 50.8377 70.1242C50.7881 70.1582 50.7253 70.2066 50.6874 70.2236C50.2573 70.3922 49.8979 70.651 49.4665 70.8367C49.077 71.0027 48.69 71.1478 48.2809 71.2484C47.8744 71.3491 47.4469 71.4027 47.0025 71.3726C46.5672 71.3465 46.1319 71.2654 45.7149 71.1151C45.2992 70.9648 44.8992 70.7373 44.575 70.4197C44.1986 70.0641 43.9398 69.6001 43.7528 69.1399C43.5437 68.6301 43.4639 68.0785 43.4535 67.5321C43.4496 66.9857 43.5267 66.4393 43.6652 65.9086L44.2535 66.1243C44.2169 66.2092 44.1737 66.2955 44.1384 66.3844C43.86 67.038 43.6652 67.7478 43.3999 68.4576C43.2652 68.8131 43.1123 69.1687 42.9228 69.5099C42.7267 69.8589 42.477 70.1791 42.1881 70.4615C41.8731 70.7726 41.4901 71.0288 41.0587 71.2027C40.8391 71.2811 40.6091 71.3451 40.3672 71.3634C40.1267 71.3791 39.877 71.3726 39.6404 71.3072C39.1568 71.1987 38.732 70.902 38.4235 70.5452C38.115 70.1844 37.9032 69.7608 37.7803 69.3177C37.7254 69.1216 37.7006 68.9177 37.6901 68.7151C37.681 68.5778 37.6941 68.4341 37.6875 68.3203C37.6496 67.8393 37.7476 67.3752 37.8823 66.9465C38.0156 66.5138 38.1842 66.1086 38.3123 65.6916C38.3594 65.6106 38.3973 65.5217 38.4509 65.4171C38.4731 65.3726 38.515 65.2929 38.562 65.2262C38.6078 65.1583 38.6627 65.0994 38.7241 65.0485C38.7855 64.9988 38.8535 64.9544 38.9293 64.9308L39.0431 64.8942C39.081 64.8838 39.1228 64.8825 39.162 64.8759C39.3241 64.8668 39.4862 64.9269 39.6248 65.0341C39.6823 65.0733 39.7254 65.1347 39.7738 65.1883C39.7973 65.2158 39.8169 65.2498 39.8378 65.2825C39.8587 65.3151 39.877 65.3517 39.8862 65.374C39.9359 65.4759 39.9685 65.5805 39.9921 65.6864C40.0391 65.8968 40.0431 66.1125 40.0065 66.34C39.9633 66.536 39.9045 66.7204 39.8718 66.8916C39.7359 67.5962 39.3947 68.255 39.0614 68.8824C38.9476 69.0314 38.8313 69.1805 38.7293 69.3425C38.6169 69.4968 38.5123 69.6615 38.3921 69.8118C38.2614 69.97 38.1346 70.1308 37.9895 70.2759C37.8522 70.4275 37.7019 70.5674 37.5503 70.7033C37.0561 71.1386 36.5097 71.5007 35.9267 71.7961C35.7032 71.9007 35.4745 72.0014 35.2509 72.0981C34.5255 72.4275 33.698 72.6327 32.8562 72.5281C32.0131 72.421 31.251 71.9896 30.6614 71.4275C30.383 71.1621 30.1294 70.8719 29.9163 70.5543C29.5621 70.0236 29.3098 69.4341 29.1451 68.8249C29 68.306 28.9399 67.7661 28.9163 67.2367C28.8523 65.9478 29.1961 64.638 29.8941 63.5334C30.034 63.3295 30.1699 63.1217 30.332 62.9361C30.4784 62.7439 30.668 62.5544 30.864 62.3949C31.2588 62.0759 31.7229 61.821 32.2601 61.7465C32.5137 61.7125 32.7908 61.7165 33.0588 61.8014C33.3255 61.8851 33.5699 62.0446 33.7516 62.255C33.9032 62.4276 34.0052 62.6315 34.0614 62.8328C34.1189 63.0367 34.1307 63.238 34.115 63.4341C34.0849 63.7792 34.0418 64.0903 33.996 64.4511C33.9777 64.6001 33.9281 64.7609 33.8719 64.9243C33.8157 65.0877 33.7542 65.2576 33.6849 65.4106C33.3425 66.2328 32.898 67.0066 32.3751 67.7177C32.3215 67.7909 32.268 67.8694 32.2157 67.9439C31.4091 69.2014 30.2562 70.2393 28.9726 71.0288C28.617 71.2497 28.2484 71.4484 27.8719 71.6314C27.4967 71.817 27.1046 71.9778 26.6968 72.1059C26.1425 72.2798 25.5543 72.3438 24.9778 72.2563C24.8196 72.2327 24.7164 72.1948 24.6641 72.1595C24.6131 72.1242 24.6131 72.0876 24.6576 72.051C24.719 72.0014 24.8105 71.9621 24.9059 71.9164C24.9425 71.8981 25.0353 71.8889 25.1059 71.8889C25.5098 71.9099 25.8785 71.8092 26.3072 71.7739C26.8366 71.7255 27.3752 71.5203 27.8758 71.2275C28.2837 71.0053 28.6941 70.753 29.0484 70.4667C29.1673 70.3674 29.3294 70.2484 29.4706 70.1674C30.281 69.6759 30.966 68.9961 31.5163 68.2314C31.6575 68.0471 31.7804 67.8602 31.9425 67.6746C32.0784 67.5047 32.2078 67.3256 32.3359 67.1426C32.4536 66.9543 32.5804 66.7687 32.6902 66.5753C32.7333 66.4994 32.7751 66.4092 32.8013 66.3373C32.8653 66.1648 32.9228 65.9896 32.9961 65.8197C33.0732 65.6511 33.1503 65.4825 33.2457 65.3112C33.2706 65.2668 33.2993 65.2001 33.3137 65.1491C33.3568 65.0001 33.3921 64.8485 33.4405 64.7021C33.4876 64.5544 33.5346 64.4119 33.5738 64.2655C33.6509 63.9753 33.7085 63.6772 33.698 63.3818C33.6849 63.0446 33.5791 62.7152 33.3542 62.4929C33.1307 62.2668 32.817 62.1622 32.4993 62.191C32.264 62.2067 32.0183 62.2681 31.7882 62.3714C31.3477 62.574 30.9569 62.8825 30.6497 63.2746C30.5216 63.4171 30.4196 63.5831 30.3072 63.7374C30.2523 63.8171 30.2078 63.9008 30.1569 63.9818C30.1085 64.0642 30.0536 64.1426 30.0105 64.2263C29.9516 64.3347 29.8771 64.4315 29.8105 64.5321C29.749 64.6341 29.6863 64.7374 29.6405 64.8498C29.5935 64.9622 29.5752 65.0838 29.5529 65.2053C29.5281 65.3243 29.5203 65.4498 29.5033 65.574C29.4876 65.6785 29.4484 65.804 29.4261 65.9164C29.268 66.5465 29.2523 67.2145 29.3346 67.8628C29.3477 68.0262 29.3882 68.1857 29.4105 68.3478C29.4405 68.5086 29.4837 68.6667 29.5216 68.8275C29.6353 69.1948 29.7712 69.5608 29.9516 69.902C30.1333 70.2432 30.3503 70.5635 30.5921 70.8615C31.0523 71.4223 31.668 71.7974 32.3307 72.0236C32.6523 72.1308 32.9921 72.1857 33.3333 72.1778C33.6745 72.1713 34.0143 72.1164 34.3438 72.0275C34.6875 71.936 35.0235 71.8118 35.349 71.6628C36.3228 71.2131 37.2222 70.5661 37.8954 69.7164C38.0065 69.5778 38.1228 69.4327 38.2326 69.2955L38.3699 69.1347L38.4993 68.97C38.5869 68.8589 38.6705 68.7478 38.7398 68.6249C38.8757 68.4014 38.9463 68.1373 39.0601 67.9112C39.294 67.438 39.4548 66.9308 39.5594 66.4171C39.6287 66.1648 39.613 65.9034 39.5319 65.6641C39.4888 65.5439 39.4365 65.4432 39.3502 65.3661C39.2666 65.289 39.1359 65.272 39.0352 65.3217C38.9463 65.3609 38.8836 65.4419 38.8404 65.5282C38.7934 65.6197 38.7607 65.7256 38.7241 65.8315C38.6522 66.0432 38.5829 66.255 38.5163 66.4681C38.3829 66.8942 38.2666 67.3216 38.1842 67.7582C38.1333 68.0354 38.1398 68.3439 38.1699 68.6314C38.1882 68.8354 38.2457 69.0419 38.2849 69.2288C38.4038 69.8001 38.7489 70.3295 39.2391 70.6353C39.4823 70.7883 39.7764 70.8811 40.0431 70.9255C40.3646 70.987 40.6953 70.9229 40.9855 70.7948C41.277 70.6667 41.5359 70.4759 41.762 70.2602C41.9097 70.1229 42.0339 69.9517 42.162 69.8157C42.4731 69.485 42.6822 69.0746 42.8522 68.6524C43.0221 68.2288 43.1502 67.7896 43.3032 67.3556C43.4666 66.8864 43.626 66.3962 43.8587 65.9413L44.0927 66.0262C44.0417 66.1975 43.9894 66.3687 43.9424 66.5413C43.9097 66.6458 43.8966 66.7635 43.8783 66.8837C43.8666 67.0053 43.8561 67.1269 43.8443 67.2445C43.813 67.5661 43.8587 67.8981 43.8339 68.2053C43.8313 68.272 43.8378 68.3844 43.8587 68.4589C43.9254 68.7256 44.0169 68.9857 44.1267 69.2341C44.2482 69.4785 44.3842 69.7151 44.5607 69.9216C44.7384 70.1216 44.9358 70.3086 45.162 70.4445C45.3855 70.5844 45.6325 70.685 45.8835 70.7517C46.3227 70.8693 46.7946 70.9151 47.2704 70.9046C47.7463 70.8955 48.2273 70.8223 48.6887 70.6837C48.9776 70.6027 49.2325 70.4576 49.5397 70.3739C49.6391 70.3425 49.7737 70.2497 49.8926 70.1778C50.1855 70.0079 50.4691 69.787 50.7345 69.6236C51.1881 69.3543 51.5541 68.9975 51.9201 68.6301C52.2678 68.2798 52.5894 67.9112 52.9227 67.5282C53.3253 67.0667 53.6835 66.5465 54.0442 66.0315C54.1292 65.9086 54.2155 65.7818 54.3057 65.6707C54.5005 65.4289 54.6821 65.3086 54.7527 65.3726C54.7854 65.404 54.8011 65.455 54.8194 65.5073C54.8652 65.6367 54.8325 65.7269 54.6259 66.0262C54.4717 66.2498 54.3135 66.472 54.1541 66.6916L54.1501 66.6877L54.1527 66.689Z" fill="#9FF17B"></path><path d="M62.726 44.9751L62.8894 29.6615C62.9195 26.8798 65.1848 24.6406 67.9691 24.6406H110.804C113.675 24.6406 116 26.9648 116 29.8314V45.8405L103.866 99.8897C103.237 102.69 100.749 104.679 97.8761 104.679H55.8555C53.0307 104.679 50.917 102.088 51.4882 99.3237L62.7247 44.9751H62.726Z" fill="#111116"></path><path d="M111.246 29.8301V45.8391L99.1116 99.8884C98.4816 102.687 95.994 104.678 93.1222 104.678H51.1016C48.2768 104.678 46.1631 102.087 46.7343 99.3224L57.9643 45.0065L57.9708 44.9738L58.1342 29.6602C58.1643 26.8798 60.4296 24.6406 63.2139 24.6406H106.049C108.918 24.6406 111.246 26.9635 111.246 29.8301Z" fill="#0041D9"></path><path d="M111.247 29.8301V45.0065H57.9648L57.9714 44.9738L58.1348 29.6602C58.1648 26.8798 60.4302 24.6406 63.2145 24.6406H106.049C108.919 24.6406 111.247 26.9635 111.247 29.8301Z" fill="#0041D9"></path><path d="M103.273 30.0781H65.2304C62.8396 30.0781 60.9023 32.0154 60.9023 34.4062V34.9343C60.9023 37.3251 62.8396 39.2624 65.2304 39.2624H103.273C105.664 39.2624 107.601 37.3251 107.601 34.9343V34.4062C107.601 32.0154 105.664 30.0781 103.273 30.0781Z" fill="white"></path><path d="M66.3099 59.6966H62.0681C60.4812 59.6966 59.3008 58.2312 59.6407 56.6835L60.7492 51.63C60.9988 50.4914 62.0093 49.6797 63.1766 49.6797H67.4184C69.0053 49.6797 70.1857 51.145 69.8458 52.6927L68.7373 57.7463C68.4877 58.8848 67.4772 59.6966 66.3099 59.6966Z" fill="#73E4F9"></path><path d="M77.6888 59.6966H73.447C71.8601 59.6966 70.6797 58.2312 71.0196 56.6835L72.1281 51.63C72.3777 50.4914 73.3882 49.6797 74.5555 49.6797H78.7973C80.3842 49.6797 81.5646 51.145 81.2247 52.6927L80.1162 57.7463C79.8666 58.8848 78.8561 59.6966 77.6888 59.6966Z" fill="#73E4F9"></path><path d="M89.3177 59.6966H85.0759C83.489 59.6966 82.3086 58.2312 82.6485 56.6835L83.757 51.63C84.0066 50.4914 85.0171 49.6797 86.1844 49.6797H90.4262C92.0131 49.6797 93.1935 51.145 92.8536 52.6927L91.7451 57.7463C91.4955 58.8848 90.485 59.6966 89.3177 59.6966Z" fill="#73E4F9"></path><path d="M63.6458 72.6888H59.404C57.8171 72.6888 56.6367 71.2234 56.9766 69.6757L58.0851 64.6222C58.3348 63.4836 59.3452 62.6719 60.5125 62.6719H64.7543C66.3412 62.6719 67.5216 64.1372 67.1818 65.6849L66.0733 70.7385C65.8236 71.877 64.8132 72.6888 63.6458 72.6888Z" fill="#73E4F9"></path><path d="M75.0247 72.6888H70.783C69.196 72.6888 68.0157 71.2234 68.3555 69.6757L69.464 64.6222C69.7137 63.4836 70.7241 62.6719 71.8914 62.6719H76.1332C77.7201 62.6719 78.9005 64.1372 78.5607 65.6849L77.4522 70.7385C77.2025 71.877 76.1921 72.6888 75.0247 72.6888Z" fill="#73E4F9"></path><path d="M86.6536 72.6888H82.4119C80.8249 72.6888 79.6446 71.2234 79.9844 69.6757L81.0929 64.6222C81.3426 63.4836 82.353 62.6719 83.5203 62.6719H87.7621C89.3491 62.6719 90.5294 64.1372 90.1896 65.6849L89.0811 70.7385C88.8314 71.877 87.821 72.6888 86.6536 72.6888Z" fill="#73E4F9"></path><path d="M61.1966 85.97H56.9548C55.3679 85.97 54.1875 84.5047 54.5274 82.957L55.6359 77.9034C55.8856 76.7649 56.896 75.9531 58.0633 75.9531H62.3051C63.892 75.9531 65.0724 77.4185 64.7325 78.9662L63.6241 84.0197C63.3744 85.1583 62.3639 85.97 61.1966 85.97Z" fill="#73E4F9"></path><path d="M72.5716 85.97H68.3298C66.7429 85.97 65.5625 84.5047 65.9024 82.957L67.0109 77.9034C67.2606 76.7649 68.271 75.9531 69.4383 75.9531H73.6801C75.267 75.9531 76.4474 77.4185 76.1075 78.9662L74.9991 84.0197C74.7494 85.1583 73.7389 85.97 72.5716 85.97Z" fill="#73E4F9"></path><path d="M84.2044 85.97H79.9626C78.3757 85.97 77.1953 84.5047 77.5352 82.957L78.6437 77.9034C78.8934 76.7649 79.9038 75.9531 81.0711 75.9531H85.3129C86.8998 75.9531 88.0802 77.4185 87.7404 78.9662L86.6319 84.0197C86.3822 85.1583 85.3717 85.97 84.2044 85.97Z" fill="#73E4F9"></path><path d="M100.927 59.6966H96.6853C95.0984 59.6966 93.918 58.2312 94.2579 56.6835L95.3663 51.63C95.616 50.4914 96.6265 49.6797 97.7938 49.6797H102.036C103.622 49.6797 104.803 51.145 104.463 52.6927L103.355 57.7463C103.105 58.8848 102.094 59.6966 100.927 59.6966Z" fill="#001962"></path><path d="M98.263 72.6888H94.0212C92.4343 72.6888 91.2539 71.2234 91.5938 69.6757L92.7023 64.6222C92.952 63.4836 93.9624 62.6719 95.1297 62.6719H99.3715C100.958 62.6719 102.139 64.1372 101.799 65.6849L100.69 70.7385C100.441 71.877 99.4303 72.6888 98.263 72.6888Z" fill="#001962"></path><path d="M95.8138 85.97H91.572C89.9851 85.97 88.8047 84.5047 89.1446 82.957L90.2531 77.9034C90.5027 76.7649 91.5132 75.9531 92.6805 75.9531H96.9223C98.5092 75.9531 99.6896 77.4185 99.3497 78.9662L98.2412 84.0197C97.9916 85.1583 96.9811 85.97 95.8138 85.97Z" fill="#001962"></path><path d="M58.513 99.0091H54.2712C52.6843 99.0091 51.5039 97.5438 51.8438 95.9961L52.9523 90.9425C53.202 89.8039 54.2124 88.9922 55.3797 88.9922H59.6215C61.2084 88.9922 62.3888 90.4575 62.0489 92.0052L60.9405 97.0588C60.6908 98.1973 59.6803 99.0091 58.513 99.0091Z" fill="#001962"></path><path d="M69.8919 99.0091H65.6501C64.0632 99.0091 62.8828 97.5438 63.2227 95.9961L64.3312 90.9425C64.5809 89.8039 65.5913 88.9922 66.7586 88.9922H71.0004C72.5873 88.9922 73.7677 90.4575 73.4278 92.0052L72.3194 97.0588C72.0697 98.1973 71.0592 99.0091 69.8919 99.0091Z" fill="#001962"></path><path d="M81.5208 99.0091H77.279C75.6921 99.0091 74.5117 97.5438 74.8516 95.9961L75.9601 90.9425C76.2098 89.8039 77.2202 88.9922 78.3875 88.9922H82.6293C84.2162 88.9922 85.3966 90.4575 85.0568 92.0052L83.9483 97.0588C83.6986 98.1973 82.6881 99.0091 81.5208 99.0091Z" fill="#001962"></path><path d="M93.1341 99.0091H88.8923C87.3054 99.0091 86.125 97.5438 86.4649 95.9961L87.5734 90.9425C87.8231 89.8039 88.8335 88.9922 90.0008 88.9922H94.2426C95.8295 88.9922 97.0099 90.4575 96.67 92.0052L95.5615 97.0588C95.3119 98.1973 94.3014 99.0091 93.1341 99.0091Z" fill="#001962"></path><path d="M18.6399 42.9924C18.9994 43.0081 19.3575 42.9676 19.7223 42.9885C20.1941 43.0159 20.6726 43.0081 21.1484 43.0133C21.1798 43.0133 21.2203 43.0251 21.2412 43.0173C21.4791 42.9336 21.7092 42.999 21.9523 43.0146C22.3928 43.0395 22.8059 43.1401 23.2569 43.1349C23.6987 43.131 24.1418 43.1532 24.5837 43.1676C24.8359 43.1767 25.0908 43.1793 25.3353 43.2094C25.9261 43.28 26.5235 43.2983 27.1248 43.2983C27.8987 43.2983 28.6738 43.3088 29.4464 43.344C30.2986 43.382 31.1522 43.4003 32.0032 43.4238C32.096 43.4264 32.1914 43.4146 32.2869 43.4094C32.3496 43.4068 32.4202 43.3898 32.4738 43.4003C32.9313 43.4891 33.3784 43.3493 33.8319 43.3911C34.0306 43.3271 34.2162 43.3637 34.4176 43.4003C34.5783 43.4303 34.7626 43.4133 34.9365 43.4159C35.0293 43.4159 35.1313 43.4003 35.2162 43.4146C35.5705 43.4735 35.9365 43.4238 36.2921 43.4604C36.4764 43.4055 36.6724 43.4382 36.8646 43.4408C37.0685 43.4434 37.275 43.4447 37.479 43.4342C37.8084 43.4186 38.1352 43.3924 38.4633 43.3715C38.5888 43.3637 38.7129 43.3454 38.8358 43.3506C39.6397 43.3898 40.445 43.3833 41.2502 43.3754C41.4397 43.3741 41.628 43.382 41.8188 43.3793C42.1351 43.378 42.4502 43.3702 42.7652 43.3676C43.0345 43.3663 43.3051 43.3545 43.5717 43.3702C44.2188 43.4094 44.8671 43.4133 45.5168 43.4186C46.0083 43.4225 46.4959 43.4251 46.9848 43.3963C47.2175 43.3833 47.4567 43.3963 47.6907 43.4107C47.8828 43.4238 48.0632 43.4264 48.2488 43.3885C48.4122 43.3545 48.5691 43.361 48.7469 43.4068C48.8906 43.4434 49.0867 43.4264 49.2593 43.4186C49.7155 43.399 50.1691 43.3728 50.6227 43.3493C50.6697 43.3467 50.7194 43.3454 50.7651 43.3493C51.5285 43.4369 52.3037 43.4146 53.0762 43.4264C53.5037 43.4329 53.9311 43.446 54.3573 43.4708C54.6475 43.4891 54.9272 43.4708 55.2095 43.446C55.3625 43.4316 55.4187 43.3806 55.3821 43.2918C55.3573 43.2316 55.3154 43.1741 55.2697 43.1179C55.2527 43.097 55.203 43.0708 55.1638 43.0695C54.9494 43.0591 54.7429 42.9963 54.5141 43.0539C54.2331 43.1231 53.9364 43.1192 53.6292 43.0787C53.3847 43.0473 53.1298 43.0421 52.8906 42.9898C52.8096 42.9715 52.7011 42.9702 52.6161 42.9833C52.1128 43.0552 51.6135 43.0421 51.1128 42.9754C50.99 42.9597 50.8697 42.9558 50.7403 42.9715C50.5076 42.9963 50.271 43.0029 50.0331 43.0146C49.9874 43.0159 49.9351 43.0133 49.8946 43.0016C49.7011 42.9441 49.5076 42.9258 49.3011 42.978C49.275 42.9859 49.2357 42.9859 49.2083 42.9793C48.8789 42.9179 48.5521 42.9728 48.2227 42.9728C47.8449 42.9728 47.4671 42.9414 47.0893 42.9297C46.9482 42.9258 46.8083 42.9375 46.6671 42.9414C46.3979 42.9493 46.1299 42.9558 45.8606 42.9624C45.6541 42.9663 45.4449 42.9558 45.2449 42.9741C45.1129 42.9859 44.99 43.0565 44.8606 43.0565C44.7312 43.0565 44.6057 42.999 44.4711 42.9741C44.4149 42.9637 44.3443 42.9676 44.2828 42.9741C43.9364 43.0107 43.5874 43.0003 43.2397 42.995C43.0659 42.9924 42.8907 42.999 42.7168 43.0042C42.3064 43.012 41.8933 43.0042 41.4881 43.0316C41.1064 43.0578 40.7404 42.9963 40.3639 43.0042C40.0018 43.012 39.6358 42.9924 39.2724 42.9885C39.0829 42.9859 38.8946 42.9898 38.7038 42.9911C38.1352 42.995 37.5665 43.0382 36.9966 42.995C36.9038 42.9872 36.8045 42.9885 36.7117 42.9976C36.5626 43.0107 36.4162 43.0473 36.2698 43.0473C36.1326 43.0473 35.994 42.9924 35.8594 42.999C35.3012 43.0225 34.7509 42.9689 34.198 42.9676C33.7287 42.9676 33.2594 42.914 32.7862 42.9532C32.6372 42.965 32.4751 42.9349 32.3195 42.9271C32.211 42.9205 32.0947 42.9035 31.9901 42.9153C31.6738 42.9519 31.3601 42.9349 31.0437 42.9244C30.8869 42.9205 30.7182 42.914 30.5718 42.9375C30.2176 42.995 29.8856 42.9454 29.5457 42.9048C29.4385 42.8918 29.3261 42.863 29.2241 42.8708C28.7326 42.9127 28.249 42.8342 27.7666 42.8447C27.4111 42.8525 27.0451 42.829 26.6908 42.8905C26.5745 42.9114 26.4385 42.8931 26.313 42.8983C26.1418 42.9061 25.964 42.8709 25.8006 42.9297C25.7653 42.9414 25.7078 42.9454 25.6647 42.9401C25.0856 42.8565 24.4856 42.846 23.9065 42.7427C23.3993 42.6525 22.8556 42.6395 22.3222 42.6199C22.1562 42.6133 21.9967 42.5702 21.8203 42.6107C21.7641 42.6238 21.6739 42.5911 21.5981 42.5846C21.4111 42.565 21.2137 42.5179 21.0425 42.5375C20.7523 42.5702 20.4752 42.5388 20.1941 42.5297C19.9249 42.5205 19.6608 42.514 19.3902 42.5271C19.0608 42.5427 18.7262 42.5205 18.3942 42.5166C18.3144 42.5166 18.2334 42.5127 18.1589 42.5205C17.9955 42.5414 17.8883 42.6212 17.8948 42.7153C17.8987 42.7597 17.9157 42.8042 17.9314 42.846C17.9732 42.9584 18.0216 42.9833 18.2112 42.9859C18.3536 42.9885 18.4961 42.9872 18.6386 42.9885V42.9911L18.6399 42.9924Z" fill="#111116"></path><path d="M18.2337 48.8114C18.5931 48.8271 18.9513 48.7866 19.316 48.8075C19.7879 48.835 20.2663 48.8271 20.7421 48.8323C20.7735 48.8323 20.814 48.8441 20.8349 48.8363C21.0728 48.7526 21.3029 48.818 21.546 48.8336C21.9866 48.8585 22.3996 48.9591 22.8506 48.9552C23.2924 48.9513 23.7356 48.9735 24.1774 48.9879C24.4297 48.997 24.6846 48.9997 24.929 49.0297C25.5199 49.1003 26.1173 49.1186 26.7186 49.1186C27.4924 49.1186 28.2676 49.1291 29.0401 49.1644C29.8924 49.2023 30.746 49.2206 31.5969 49.2441C31.6898 49.2467 31.7852 49.2349 31.8806 49.2297C31.9433 49.2271 32.0139 49.2101 32.0675 49.2206C32.525 49.3095 32.9721 49.1696 33.4257 49.2114C33.6244 49.1474 33.81 49.184 34.0113 49.2206C34.1721 49.2506 34.3564 49.2336 34.5303 49.2363C34.6231 49.2363 34.725 49.2206 34.81 49.2349C35.1642 49.2938 35.5302 49.2441 35.8858 49.2807C36.0701 49.2258 36.2662 49.2585 36.4583 49.2611C36.6623 49.2637 36.8688 49.265 37.0727 49.2546C37.4021 49.2389 37.7289 49.2127 38.057 49.1918C38.1825 49.184 38.3067 49.1657 38.4296 49.1709C39.2335 49.2101 40.0387 49.2036 40.8439 49.1957C41.0335 49.1944 41.2217 49.2023 41.4125 49.1997C41.7289 49.1983 42.0439 49.1905 42.3589 49.1879C42.6282 49.1866 42.8988 49.1748 43.1655 49.1905C43.8125 49.2297 44.4609 49.2336 45.1106 49.2389C45.6021 49.2428 46.0896 49.2454 46.5785 49.2166C46.8112 49.2036 47.0504 49.2166 47.2844 49.231C47.4766 49.2441 47.6569 49.2467 47.8426 49.2088C48.006 49.1748 48.1628 49.1814 48.3406 49.2271C48.4844 49.2637 48.6805 49.2467 48.853 49.2389C49.3092 49.2193 49.7628 49.1931 50.2164 49.1696C50.2635 49.167 50.3131 49.1657 50.3589 49.1696C51.1223 49.2572 51.8974 49.2349 52.67 49.2467C53.0974 49.2532 53.5249 49.2663 53.951 49.2912C54.2412 49.3095 54.5209 49.2912 54.8033 49.2663C54.9562 49.2519 55.0124 49.201 54.9758 49.1121C54.951 49.0519 54.9092 48.9944 54.8634 48.9382C54.8464 48.9173 54.7967 48.8912 54.7575 48.8899C54.5432 48.8794 54.3366 48.8167 54.1079 48.8742C53.8268 48.9434 53.5301 48.9395 53.2229 48.899C52.9785 48.8676 52.7236 48.8624 52.4844 48.8101C52.4033 48.7918 52.2948 48.7905 52.2098 48.8036C51.7066 48.8755 51.2072 48.8624 50.7066 48.7957C50.5837 48.78 50.4635 48.7761 50.334 48.7918C50.1014 48.8167 49.8648 48.8232 49.6269 48.835C49.5811 48.8363 49.5288 48.8336 49.4883 48.8219C49.2948 48.7644 49.1014 48.7461 48.8948 48.7984C48.8687 48.8062 48.8295 48.8062 48.802 48.7997C48.4726 48.7382 48.1458 48.7931 47.8164 48.7931C47.4386 48.7931 47.0609 48.7618 46.6831 48.75C46.5419 48.7461 46.4021 48.7578 46.2609 48.7618C45.9916 48.7696 45.7236 48.7761 45.4543 48.7827C45.2478 48.7866 45.0387 48.7761 44.8387 48.7944C44.7066 48.8062 44.5838 48.8768 44.4544 48.8768C44.3263 48.8768 44.1995 48.8193 44.0648 48.7944C44.0086 48.784 43.938 48.7879 43.8766 48.7944C43.5302 48.831 43.1812 48.8206 42.8335 48.8153C42.6596 48.8127 42.4844 48.8193 42.3106 48.8245C41.9001 48.8323 41.4871 48.8245 41.0818 48.8519C40.7001 48.8781 40.3341 48.8167 39.9577 48.8245C39.5956 48.8323 39.2296 48.8127 38.8662 48.8088C38.6766 48.8062 38.4884 48.8101 38.2975 48.8114C37.7289 48.8153 37.1603 48.8585 36.5904 48.8153C36.4976 48.8075 36.3982 48.8088 36.3054 48.818C36.1564 48.831 36.01 48.8676 35.8636 48.8676C35.7263 48.8676 35.5878 48.8127 35.4531 48.8193C34.895 48.8428 34.3446 48.7892 33.7917 48.7879C33.3224 48.7879 32.8531 48.7343 32.3799 48.7735C32.2309 48.7853 32.0688 48.7552 31.9133 48.7474C31.8048 48.7408 31.6884 48.7238 31.5839 48.7356C31.2675 48.7722 30.9538 48.7552 30.6375 48.7448C30.4806 48.7408 30.312 48.7343 30.1656 48.7578C29.8113 48.8153 29.4793 48.7657 29.1394 48.7252C29.0323 48.7121 28.9198 48.6833 28.8179 48.6912C28.3264 48.733 27.8427 48.6546 27.3604 48.665C27.0048 48.6729 26.6388 48.6493 26.2846 48.7108C26.1682 48.7317 26.0323 48.7134 25.9068 48.7186C25.7356 48.7265 25.5578 48.6912 25.3944 48.75C25.3591 48.7618 25.3016 48.7657 25.2584 48.7604C24.6794 48.6768 24.0794 48.6663 23.5003 48.5631C22.9931 48.4729 22.4493 48.4598 21.916 48.4402C21.75 48.4336 21.5905 48.3905 21.414 48.431C21.3578 48.4441 21.2676 48.4114 21.1918 48.4049C21.0049 48.3853 20.8075 48.3382 20.6363 48.3578C20.3461 48.3905 20.0689 48.3591 19.7879 48.35C19.5186 48.3408 19.2546 48.3343 18.984 48.3474C18.6546 48.3631 18.3199 48.3408 17.9879 48.3369C17.9082 48.3369 17.8271 48.333 17.7526 48.3408C17.5892 48.3618 17.482 48.4415 17.4886 48.5356C17.4925 48.5801 17.5095 48.6245 17.5252 48.6663C17.567 48.7787 17.6154 48.8036 17.8049 48.8062C17.9474 48.8088 18.0899 48.8075 18.2323 48.8088V48.8114H18.2337Z" fill="#111116"></path><path d="M17.7922 54.7659C18.1517 54.7815 18.5099 54.741 18.8746 54.7619C19.3465 54.7894 19.8249 54.7815 20.3007 54.7868C20.3321 54.7868 20.3726 54.7985 20.3935 54.7907C20.6314 54.707 20.8615 54.7724 21.1046 54.7881C21.5452 54.8129 21.9582 54.9136 22.4092 54.9083C22.851 54.9044 23.2942 54.9266 23.736 54.941C23.9883 54.9502 24.2432 54.9528 24.4876 54.9829C25.0785 55.0534 25.6758 55.0717 26.2771 55.0717C27.051 55.0717 27.8262 55.0822 28.5987 55.1175C29.451 55.1554 30.3046 55.1737 31.1555 55.1972C31.2483 55.1998 31.3438 55.1881 31.4392 55.1828C31.5019 55.1802 31.5725 55.1632 31.6261 55.1737C32.0836 55.2626 32.5307 55.1227 32.9843 55.1645C33.183 55.1005 33.3686 55.1371 33.5699 55.1737C33.7307 55.2038 33.915 55.1868 34.0888 55.1894C34.1817 55.1894 34.2836 55.1737 34.3686 55.1881C34.7228 55.2469 35.0888 55.1972 35.4444 55.2338C35.6287 55.1789 35.8248 55.2116 36.0169 55.2142C36.2209 55.2168 36.4274 55.2181 36.6313 55.2077C36.9607 55.192 37.2875 55.1659 37.6156 55.1449C37.7411 55.1371 37.8653 55.1188 37.9882 55.124C38.7921 55.1632 39.5973 55.1567 40.4025 55.1489C40.5921 55.1476 40.7803 55.1554 40.9711 55.1528C41.2875 55.1515 41.6025 55.1436 41.9175 55.141C42.1868 55.1397 42.4574 55.1279 42.7241 55.1436C43.3711 55.1828 44.0195 55.1868 44.6692 55.192C45.1607 55.1959 45.6482 55.1985 46.1371 55.1698C46.3698 55.1567 46.609 55.1698 46.843 55.1842C47.0351 55.1972 47.2155 55.1998 47.4012 55.1619C47.5646 55.1279 47.7214 55.1345 47.8992 55.1802C48.043 55.2168 48.2391 55.1998 48.4116 55.192C48.8678 55.1724 49.3214 55.1462 49.775 55.1227C49.8221 55.1201 49.8717 55.1188 49.9175 55.1227C50.6809 55.2103 51.456 55.1881 52.2286 55.1998C52.656 55.2064 53.0835 55.2194 53.5096 55.2443C53.7998 55.2626 54.0795 55.2443 54.3619 55.2194C54.5148 55.2051 54.571 55.1541 54.5344 55.0652C54.5096 55.0051 54.4678 54.9476 54.422 54.8913C54.405 54.8704 54.3553 54.8443 54.3161 54.843C54.1018 54.8325 53.8952 54.7698 53.6665 54.8273C53.3854 54.8966 53.0887 54.8927 52.7815 54.8521C52.5371 54.8208 52.2822 54.8155 52.0429 54.7632C51.9619 54.7449 51.8534 54.7436 51.7684 54.7567C51.2652 54.8286 50.7658 54.8155 50.2652 54.7489C50.1423 54.7332 50.022 54.7293 49.8926 54.7449C49.66 54.7698 49.4234 54.7763 49.1855 54.7881C49.1397 54.7894 49.0874 54.7868 49.0469 54.775C48.8534 54.7175 48.66 54.6992 48.4534 54.7515C48.4273 54.7593 48.3881 54.7593 48.3606 54.7528C48.0312 54.6913 47.7044 54.7463 47.375 54.7463C46.9972 54.7463 46.6195 54.7149 46.2417 54.7031C46.1005 54.6992 45.9606 54.711 45.8195 54.7149C45.5502 54.7227 45.2822 54.7293 45.0129 54.7358C44.8064 54.7397 44.5973 54.7293 44.3973 54.7476C44.2652 54.7593 44.1424 54.8299 44.0129 54.8299C43.8835 54.8299 43.7581 54.7724 43.6234 54.7476C43.5672 54.7371 43.4966 54.741 43.4352 54.7476C43.0888 54.7842 42.7398 54.7737 42.392 54.7685C42.2182 54.7659 42.043 54.7724 41.8692 54.7776C41.4587 54.7855 41.0457 54.7776 40.6404 54.8051C40.2587 54.8312 39.8927 54.7698 39.5163 54.7776C39.1542 54.7855 38.7882 54.7659 38.4248 54.7619C38.2352 54.7593 38.047 54.7632 37.8561 54.7645C37.2875 54.7685 36.7189 54.8116 36.149 54.7685C36.0562 54.7606 35.9568 54.7619 35.864 54.7711C35.715 54.7842 35.5686 54.8208 35.4222 54.8208C35.2849 54.8208 35.1464 54.7659 35.0117 54.7724C34.4536 54.7959 33.9032 54.7423 33.3503 54.741C32.881 54.741 32.4117 54.6874 31.9385 54.7266C31.7895 54.7384 31.6274 54.7083 31.4719 54.7005C31.3634 54.694 31.247 54.677 31.1425 54.6887C30.8261 54.7253 30.5124 54.7083 30.1961 54.6979C30.0392 54.694 29.8706 54.6874 29.7242 54.711C29.3699 54.7685 29.0379 54.7188 28.698 54.6783C28.5909 54.6652 28.4784 54.6364 28.3765 54.6443C27.885 54.6861 27.4013 54.6077 26.919 54.6181C26.5634 54.626 26.1974 54.6025 25.8432 54.6639C25.7268 54.6848 25.5909 54.6665 25.4654 54.6717C25.2941 54.6796 25.1164 54.6443 24.953 54.7031C24.9177 54.7149 24.8602 54.7188 24.817 54.7136C24.2379 54.6299 23.638 54.6195 23.0589 54.5162C22.5517 54.426 22.0079 54.4129 21.4746 54.3933C21.3086 54.3868 21.1491 54.3436 20.9726 54.3842C20.9164 54.3972 20.8262 54.3646 20.7504 54.358C20.5635 54.3384 20.3661 54.2914 20.1948 54.311C19.9047 54.3436 19.6275 54.3123 19.3465 54.3031C19.0772 54.294 18.8132 54.2874 18.5426 54.3005C18.2132 54.3162 17.8785 54.294 17.5465 54.29C17.4668 54.29 17.3857 54.2861 17.3112 54.294C17.1478 54.3149 17.0406 54.3946 17.0472 54.4887C17.0511 54.5332 17.0681 54.5776 17.0838 54.6195C17.1256 54.7319 17.174 54.7567 17.3635 54.7593C17.506 54.7619 17.6485 54.7606 17.7909 54.7619V54.7645L17.7922 54.7659Z" fill="#111116"></path><rect x="228" width="90" height="28" rx="14" fill="#EEEEF0"></rect><path d="M242.408 11.7464C242.369 11.3454 242.198 11.0339 241.896 10.8118C241.595 10.5897 241.185 10.4787 240.668 10.4787C240.317 10.4787 240.02 10.5284 239.778 10.6278C239.536 10.724 239.351 10.8582 239.222 11.0305C239.096 11.2029 239.033 11.3984 239.033 11.6172C239.026 11.7995 239.064 11.9586 239.147 12.0945C239.233 12.2304 239.351 12.348 239.5 12.4474C239.649 12.5436 239.821 12.6281 240.017 12.701C240.213 12.7706 240.421 12.8303 240.643 12.88L241.558 13.0987C242.002 13.1982 242.41 13.3307 242.781 13.4964C243.152 13.6622 243.474 13.866 243.746 14.108C244.018 14.3499 244.228 14.6349 244.377 14.9631C244.53 15.2912 244.607 15.6674 244.611 16.0916C244.607 16.7147 244.448 17.255 244.134 17.7124C243.822 18.1664 243.371 18.5194 242.781 18.7713C242.195 19.0199 241.487 19.1442 240.658 19.1442C239.836 19.1442 239.121 19.0182 238.511 18.7663C237.904 18.5144 237.43 18.1416 237.089 17.6477C236.751 17.1506 236.573 16.5357 236.557 15.8033H238.64C238.663 16.1446 238.761 16.4297 238.933 16.6584C239.109 16.8838 239.343 17.0545 239.634 17.1705C239.929 17.2831 240.262 17.3395 240.634 17.3395C240.998 17.3395 241.315 17.2865 241.583 17.1804C241.855 17.0743 242.065 16.9268 242.214 16.7379C242.364 16.549 242.438 16.3319 242.438 16.0866C242.438 15.858 242.37 15.6657 242.234 15.5099C242.102 15.3542 241.906 15.2216 241.648 15.1122C241.393 15.0028 241.079 14.9034 240.708 14.8139L239.599 14.5355C238.741 14.3267 238.063 14.0002 237.566 13.5561C237.069 13.112 236.822 12.5137 236.825 11.7614C236.822 11.1449 236.986 10.6063 237.317 10.1456C237.652 9.6849 238.111 9.32528 238.695 9.06676C239.278 8.80824 239.941 8.67898 240.683 8.67898C241.439 8.67898 242.098 8.80824 242.662 9.06676C243.229 9.32528 243.67 9.6849 243.984 10.1456C244.299 10.6063 244.462 11.1399 244.472 11.7464H242.408ZM250.081 11.3636V12.9545H245.482V11.3636H250.081ZM246.526 9.53409H248.644V16.6534C248.644 16.849 248.674 17.0014 248.733 17.1108C248.793 17.2169 248.876 17.2914 248.982 17.3345C249.091 17.3776 249.217 17.3991 249.36 17.3991C249.459 17.3991 249.559 17.3909 249.658 17.3743C249.758 17.3544 249.834 17.3395 249.887 17.3295L250.22 18.9055C250.114 18.9387 249.965 18.9768 249.773 19.0199C249.58 19.0663 249.347 19.0945 249.072 19.1044C248.561 19.1243 248.114 19.0563 247.729 18.9006C247.348 18.7448 247.051 18.5028 246.839 18.1747C246.627 17.8466 246.523 17.4323 246.526 16.9318V9.53409ZM254.858 19.1491C254.073 19.1491 253.397 18.9901 252.83 18.6719C252.267 18.3504 251.832 17.8963 251.528 17.3097C251.223 16.7197 251.07 16.022 251.07 15.2166C251.07 14.4311 251.223 13.7417 251.528 13.1484C251.832 12.5552 252.262 12.0928 252.815 11.7614C253.372 11.4299 254.025 11.2642 254.774 11.2642C255.278 11.2642 255.747 11.3454 256.181 11.5078C256.618 11.6669 257 11.9072 257.324 12.2287C257.653 12.5502 257.908 12.9545 258.09 13.4418C258.272 13.9257 258.363 14.4924 258.363 15.142V15.7237H251.915V14.4112H256.37C256.37 14.1063 256.304 13.8362 256.171 13.6009C256.038 13.3655 255.854 13.1816 255.619 13.049C255.387 12.9131 255.117 12.8452 254.809 12.8452C254.487 12.8452 254.202 12.9197 253.954 13.0689C253.708 13.2147 253.516 13.4119 253.377 13.6605C253.238 13.9058 253.166 14.1792 253.163 14.4808V15.7287C253.163 16.1065 253.233 16.433 253.372 16.7081C253.515 16.9832 253.715 17.1953 253.974 17.3445C254.232 17.4936 254.539 17.5682 254.893 17.5682C255.129 17.5682 255.344 17.535 255.54 17.4688C255.735 17.4025 255.903 17.303 256.042 17.1705C256.181 17.0379 256.287 16.8755 256.36 16.6832L258.319 16.8125C258.219 17.2831 258.015 17.6941 257.707 18.0455C257.402 18.3935 257.008 18.6652 256.524 18.8608C256.043 19.053 255.488 19.1491 254.858 19.1491ZM259.746 21.8636V11.3636H261.834V12.6463H261.928C262.021 12.4408 262.155 12.232 262.331 12.0199C262.51 11.8045 262.742 11.6255 263.027 11.483C263.315 11.3371 263.673 11.2642 264.101 11.2642C264.657 11.2642 265.171 11.41 265.642 11.7017C266.113 11.9901 266.489 12.4259 266.77 13.0092C267.052 13.5893 267.193 14.3168 267.193 15.1918C267.193 16.0436 267.055 16.7628 266.78 17.3494C266.509 17.9328 266.137 18.3752 265.667 18.6768C265.199 18.9751 264.676 19.1243 264.096 19.1243C263.685 19.1243 263.335 19.0563 263.047 18.9205C262.762 18.7846 262.528 18.6139 262.346 18.4084C262.163 18.1996 262.024 17.9891 261.928 17.777H261.863V21.8636H259.746ZM261.819 15.1818C261.819 15.6359 261.882 16.032 262.008 16.37C262.134 16.7081 262.316 16.9716 262.555 17.1605C262.793 17.3461 263.083 17.4389 263.425 17.4389C263.769 17.4389 264.061 17.3445 264.3 17.1555C264.538 16.9633 264.719 16.6982 264.841 16.3601C264.967 16.0187 265.03 15.6259 265.03 15.1818C265.03 14.741 264.969 14.3532 264.846 14.0185C264.724 13.6837 264.543 13.4219 264.305 13.233C264.066 13.044 263.773 12.9496 263.425 12.9496C263.08 12.9496 262.788 13.0407 262.55 13.223C262.314 13.4053 262.134 13.6638 262.008 13.9986C261.882 14.3333 261.819 14.7277 261.819 15.1818ZM271.825 19V17.4489L275.45 14.093C275.758 13.7947 276.016 13.5263 276.225 13.2876C276.437 13.049 276.598 12.8153 276.707 12.5866C276.817 12.3546 276.871 12.1044 276.871 11.8359C276.871 11.5376 276.804 11.2808 276.668 11.0653C276.532 10.8466 276.346 10.6792 276.111 10.5632C275.875 10.4439 275.609 10.3842 275.31 10.3842C274.999 10.3842 274.727 10.4472 274.495 10.5732C274.263 10.6991 274.084 10.8797 273.958 11.1151C273.832 11.3504 273.769 11.6304 273.769 11.9553H271.726C271.726 11.2891 271.877 10.7107 272.178 10.2202C272.48 9.72964 272.902 9.35014 273.446 9.08168C273.99 8.81321 274.616 8.67898 275.325 8.67898C276.054 8.67898 276.689 8.80824 277.229 9.06676C277.773 9.32197 278.196 9.67661 278.497 10.1307C278.799 10.5848 278.95 11.1051 278.95 11.6918C278.95 12.0762 278.873 12.4557 278.721 12.8303C278.572 13.2048 278.305 13.6207 277.92 14.0781C277.536 14.5322 276.994 15.0774 276.295 15.7138L274.808 17.1705V17.2401H279.084V19H271.825ZM287.354 19.1491C286.582 19.1491 285.914 18.9851 285.35 18.657C284.79 18.3255 284.358 17.8648 284.053 17.2749C283.748 16.6816 283.596 15.9938 283.596 15.2116C283.596 14.4228 283.748 13.7334 284.053 13.1435C284.358 12.5502 284.79 12.0895 285.35 11.7614C285.914 11.4299 286.582 11.2642 287.354 11.2642C288.126 11.2642 288.792 11.4299 289.353 11.7614C289.916 12.0895 290.35 12.5502 290.655 13.1435C290.96 13.7334 291.113 14.4228 291.113 15.2116C291.113 15.9938 290.96 16.6816 290.655 17.2749C290.35 17.8648 289.916 18.3255 289.353 18.657C288.792 18.9851 288.126 19.1491 287.354 19.1491ZM287.364 17.5085C287.715 17.5085 288.009 17.4091 288.244 17.2102C288.479 17.008 288.657 16.733 288.776 16.3849C288.899 16.0369 288.96 15.6409 288.96 15.1967C288.96 14.7526 288.899 14.3565 288.776 14.0085C288.657 13.6605 288.479 13.3854 288.244 13.1832C288.009 12.9811 287.715 12.88 287.364 12.88C287.009 12.88 286.711 12.9811 286.469 13.1832C286.23 13.3854 286.05 13.6605 285.927 14.0085C285.808 14.3565 285.748 14.7526 285.748 15.1967C285.748 15.6409 285.808 16.0369 285.927 16.3849C286.05 16.733 286.23 17.008 286.469 17.2102C286.711 17.4091 287.009 17.5085 287.364 17.5085ZM296.596 11.3636V12.9545H291.883V11.3636H296.596ZM292.962 19V10.8118C292.962 10.2583 293.07 9.79924 293.285 9.43466C293.504 9.07008 293.802 8.79664 294.18 8.61435C294.558 8.43205 294.987 8.34091 295.468 8.34091C295.792 8.34091 296.089 8.36577 296.358 8.41548C296.629 8.4652 296.832 8.50994 296.964 8.54972L296.586 10.1406C296.503 10.1141 296.401 10.0893 296.278 10.0661C296.159 10.0429 296.036 10.0312 295.91 10.0312C295.599 10.0312 295.382 10.1042 295.259 10.25C295.136 10.3925 295.075 10.593 295.075 10.8516V19H292.962ZM304.829 19.1392C304.127 19.1392 303.5 19.0099 302.95 18.7514C302.403 18.4929 301.969 18.1366 301.647 17.6825C301.326 17.2285 301.158 16.7081 301.145 16.1214H303.233C303.257 16.5159 303.422 16.8357 303.73 17.081C304.039 17.3262 304.405 17.4489 304.829 17.4489C305.167 17.4489 305.466 17.3743 305.724 17.2251C305.986 17.0727 306.19 16.8622 306.336 16.5938C306.485 16.322 306.559 16.0104 306.559 15.6591C306.559 15.3011 306.483 14.9863 306.331 14.7145C306.181 14.4427 305.974 14.2306 305.709 14.0781C305.444 13.9257 305.141 13.8478 304.799 13.8445C304.501 13.8445 304.211 13.9058 303.929 14.0284C303.651 14.151 303.434 14.3184 303.278 14.5305L301.364 14.1875L301.846 8.81818H308.071V10.5781H303.621L303.358 13.1286H303.417C303.596 12.8767 303.866 12.6679 304.228 12.5021C304.589 12.3364 304.993 12.2536 305.441 12.2536C306.054 12.2536 306.601 12.3977 307.081 12.6861C307.562 12.9744 307.941 13.3705 308.22 13.8743C308.498 14.3748 308.636 14.9515 308.632 15.6044C308.636 16.2905 308.477 16.9003 308.155 17.4339C307.837 17.9643 307.391 18.3819 306.818 18.6868C306.248 18.9884 305.585 19.1392 304.829 19.1392Z" fill="#111116"></path></svg> 