<?xml version="1.0" encoding="UTF-8"?> <svg xmlns="http://www.w3.org/2000/svg" xmlns:xlink="http://www.w3.org/1999/xlink" version="1.1" id="logo-zillow" x="0px" y="0px" viewBox="0 0 120 15" style="enable-background:new 0 0 120 15;" xml:space="preserve"> <path d="M108.8,2.3v7.9l0,0c0,2-1.6,3.7-3.6,3.7c-2.1,0-3.6-1.6-3.6-3.7V2.3h-1.2v7.9l0,0c0,2.6,2.2,4.7,4.8,4.7s4.8-2.1,4.8-4.7 l0,0V2.3L108.8,2.3L108.8,2.3z M70.1,9h4.7c0,0,0,0.7,0,1.3c0,0.5-0.3,1.2-0.6,1.8c-0.3,0.6-0.7,1.1-1.2,1.5c-0.5,0.4-1.1,0.8-1.7,1 C70.6,14.9,69.8,15,69,15c-0.9,0-1.9-0.2-2.7-0.5c-1.5-0.7-2.7-1.9-3.2-3.5c-0.6-1.6-0.5-3.3,0-4.8c0.6-1.5,1.7-2.8,3.2-3.5 c0.8-0.4,1.7-0.6,2.6-0.5c0.6,0,1.3,0.1,1.9,0.3c0.5,0.2,1.1,0.4,1.5,0.7c0.4,0.3,0.8,0.7,1.1,1.1c0.3,0.4,0.5,0.9,0.6,1.3h-1.2 c-0.1-0.3-0.3-0.7-0.5-0.9c-0.2-0.3-0.5-0.5-0.9-0.8c-0.4-0.2-0.7-0.4-1.1-0.5c-1.2-0.3-2.4-0.2-3.5,0.3c-0.6,0.3-1.1,0.7-1.6,1.2 c-0.4,0.5-0.8,1.1-1,1.7c-0.5,1.3-0.5,2.7,0,4c0.2,0.6,0.5,1.2,1,1.7c0.5,0.5,1,0.9,1.6,1.2c0.7,0.3,1.5,0.5,2.3,0.4 c0.6,0,1.2-0.1,1.8-0.3c0.5-0.2,0.9-0.4,1.3-0.8c0.4-0.3,0.7-0.7,0.9-1.2c0.2-0.5,0.4-1,0.4-1.5h-3.5V9z M84.5,14.7l-3-4.7 c0.7-0.1,1.4-0.5,1.9-1.1c0.3-0.4,0.6-0.8,0.8-1.2c0.4-1,0.4-2,0-3c-0.4-0.9-1.1-1.7-2-2.1c-0.5-0.2-1.1-0.3-1.6-0.3h-4.1v12.3h1.2 v-4.6h2.5l2.9,4.6H84.5z M77.7,3.4h2.9c0.4,0,0.8,0.1,1.1,0.2c0.3,0.1,0.6,0.3,0.9,0.6c0.2,0.3,0.4,0.6,0.5,0.9 c0.2,0.7,0.2,1.5,0,2.2c-0.1,0.3-0.3,0.6-0.5,0.9c-0.2,0.3-0.5,0.5-0.9,0.6C81.3,8.9,81,9,80.6,9h-2.9V3.4z M119.7,4.7 c-0.4-0.9-1.1-1.7-2-2.1c-0.5-0.2-1.1-0.3-1.6-0.3H112v12.4h1.2v-4.6h2.9c0.6,0,1.1-0.1,1.6-0.3c0.9-0.4,1.7-1.1,2-2.1 C120.1,6.7,120.1,5.7,119.7,4.7L119.7,4.7z M118.6,7.3c-0.1,0.3-0.3,0.6-0.5,0.9c-0.2,0.3-0.5,0.5-0.9,0.6c-0.4,0.1-0.7,0.2-1.1,0.2 h-2.9V3.4h2.9c0.4,0,0.8,0.1,1.1,0.2c0.3,0.1,0.6,0.3,0.9,0.6c0.2,0.3,0.4,0.6,0.5,0.9C118.9,5.8,118.9,6.6,118.6,7.3z M92.2,15 c-0.9,0-1.8-0.2-2.7-0.5c-1.5-0.7-2.7-1.9-3.3-3.5c-0.6-1.6-0.6-3.3,0-4.8c0.6-1.6,1.7-2.8,3.3-3.5c1.7-0.7,3.6-0.7,5.3,0 c0.8,0.3,1.4,0.8,2,1.4c0.5,0.6,1,1.3,1.3,2.1c0.6,1.6,0.6,3.3,0,4.8c-0.3,0.8-0.7,1.5-1.3,2.1C95.7,14.3,93.9,15,92.2,15z M92.2,13.9c0.7,0,1.5-0.1,2.1-0.4c1.2-0.6,2.2-1.6,2.6-2.9c0.5-1.3,0.5-2.7,0-4c-0.2-0.6-0.6-1.2-1-1.7c-1.9-2.1-5-2.2-7.1-0.4 c-0.1,0.1-0.3,0.3-0.4,0.4c-0.4,0.5-0.8,1.1-1,1.7c-0.7,1.9-0.3,4.1,1,5.7C89.4,13.3,90.8,13.9,92.2,13.9z M52.6,6.9l-2.4,7.7h-2.3 L43.5,2.4h3l2.5,8.1l2.5-8.1h2.2l2.5,8.1l2.5-8.1h3l-4.3,12.3h-2.3L52.6,6.9z M37.1,15c-1,0-1.9-0.2-2.8-0.5 c-0.8-0.3-1.5-0.8-2.1-1.4c-0.6-0.6-1-1.3-1.3-2.1c-0.6-1.6-0.6-3.3,0-4.9c0.3-0.8,0.7-1.5,1.3-2.1c0.6-0.6,1.3-1.1,2.1-1.4 c1.8-0.7,3.7-0.7,5.5,0c0.8,0.3,1.5,0.8,2.1,1.4c0.6,0.6,1,1.3,1.3,2.1c0.6,1.6,0.6,3.3,0,4.9c-0.3,0.8-0.7,1.5-1.3,2.1 c-0.6,0.6-1.3,1.1-2.1,1.4C39,14.9,38.1,15.1,37.1,15z M37.1,12.5c0.5,0,1-0.1,1.5-0.3c0.4-0.2,0.8-0.5,1.1-0.9 c0.3-0.4,0.6-0.8,0.7-1.2c0.3-1,0.3-2,0-2.9c-0.3-0.9-1-1.7-1.9-2.1c-1-0.4-2.1-0.4-3,0c-0.4,0.2-0.8,0.5-1.1,0.9s-0.6,0.8-0.7,1.2 c-0.3,1-0.3,2,0,2.9c0.3,0.9,1,1.7,1.9,2.1C36.1,12.4,36.6,12.5,37.1,12.5z M30.6,12.2v2.4h-6.3V2.4h2.8v9.9H30.6z M23.2,12.2v2.4 h-6.5V2.4h2.9v9.9H23.2z M11.7,2.4h2.9v12.3h-2.9L11.7,2.4z M0,14.1l5.8-9.3H0.2V2.4H10v0.3l-5.8,9.5h6v2.4H0V14.1z M62.9,0 c-0.7,0-1.2,0.5-1.2,1.2s0.5,1.2,1.2,1.2c0.7,0,1.2-0.5,1.2-1.2l0,0C64.1,0.5,63.6,0,62.9,0z M62.9,2.1c-0.5,0-0.9-0.4-0.9-0.9 c0,0,0,0,0,0c0-0.5,0.4-0.9,0.9-0.9c0,0,0,0,0,0c0.5,0,0.9,0.4,0.9,0.9c0,0,0,0,0,0C63.9,1.7,63.4,2.1,62.9,2.1z M63.4,1 c0-0.2-0.2-0.5-0.4-0.5l0,0h-0.5v1.4h0.2V1.4h0.2l0.2,0.4h0.3l-0.3-0.4C63.3,1.3,63.4,1.1,63.4,1z M63,1.2h-0.3V0.7H63 c0.1,0,0.3,0.1,0.3,0.3l0,0v0C63.2,1.1,63.1,1.2,63,1.2L63,1.2C63,1.2,63,1.2,63,1.2z"></path> </svg> 